%TF.GenerationSoftware,KiCad,Pcbnew,9.0.6*%
%TF.CreationDate,2026-03-07T10:39:48+08:00*%
%TF.ProjectId,Motor35,4d6f746f-7233-4352-9e6b-696361645f70,rev?*%
%TF.SameCoordinates,Original*%
%TF.FileFunction,Legend,Bot*%
%TF.FilePolarity,Positive*%
%FSLAX46Y46*%
G04 Gerber Fmt 4.6, Leading zero omitted, Abs format (unit mm)*
G04 Created by KiCad (PCBNEW 9.0.6) date 2026-03-07 10:39:48*
%MOMM*%
%LPD*%
G01*
G04 APERTURE LIST*
%ADD10C,0.100000*%
%ADD11C,0.200000*%
%ADD12C,0.317500*%
%ADD13C,0.120000*%
%ADD14C,0.203200*%
G04 APERTURE END LIST*
D10*
G36*
X154155539Y-102654083D02*
G01*
X154144158Y-102683785D01*
X154136396Y-102711632D01*
X154131722Y-102739846D01*
X154130138Y-102769518D01*
X154131824Y-102801405D01*
X154136646Y-102829665D01*
X154144334Y-102854759D01*
X154155456Y-102878392D01*
X154169499Y-102899132D01*
X154186558Y-102917285D01*
X154206276Y-102932569D01*
X154229310Y-102945451D01*
X154256106Y-102955875D01*
X154284104Y-102962937D01*
X154316122Y-102967422D01*
X154352704Y-102969003D01*
X154390142Y-102967296D01*
X154423434Y-102962414D01*
X154453057Y-102954654D01*
X154481459Y-102943426D01*
X154506044Y-102929750D01*
X154527246Y-102913682D01*
X154545806Y-102894680D01*
X154561148Y-102873195D01*
X154573408Y-102848958D01*
X154582091Y-102823108D01*
X154587459Y-102794714D01*
X154589314Y-102763381D01*
X154588643Y-102734530D01*
X154586139Y-102708060D01*
X154581346Y-102681774D01*
X154573683Y-102654083D01*
X154489663Y-102654083D01*
X154501645Y-102683062D01*
X154509233Y-102709434D01*
X154513691Y-102735231D01*
X154515064Y-102757245D01*
X154512035Y-102787480D01*
X154503616Y-102811558D01*
X154489891Y-102832091D01*
X154471559Y-102848622D01*
X154449415Y-102861009D01*
X154422435Y-102869963D01*
X154393151Y-102875002D01*
X154359848Y-102876771D01*
X154324740Y-102874927D01*
X154295215Y-102869780D01*
X154268379Y-102860603D01*
X154246947Y-102848072D01*
X154229543Y-102831387D01*
X154216752Y-102810520D01*
X154209093Y-102786257D01*
X154206341Y-102756207D01*
X154208601Y-102731782D01*
X154214585Y-102705160D01*
X154223347Y-102678507D01*
X154233697Y-102654083D01*
X154155539Y-102654083D01*
G37*
G36*
X154136000Y-102545272D02*
G01*
X154581498Y-102545272D01*
X154581498Y-102459879D01*
X154208295Y-102459879D01*
X154208295Y-102271354D01*
X154136000Y-102271354D01*
X154136000Y-102545272D01*
G37*
G36*
X154136000Y-101964432D02*
G01*
X154351422Y-102098674D01*
X154136000Y-102098674D01*
X154136000Y-102184068D01*
X154581498Y-102184068D01*
X154581498Y-102098674D01*
X154377464Y-102098674D01*
X154581498Y-101965135D01*
X154581498Y-101863682D01*
X154368671Y-102015326D01*
X154136000Y-101855836D01*
X154136000Y-101964432D01*
G37*
D11*
G36*
X153660017Y-87952330D02*
G01*
X153706865Y-87959152D01*
X153749506Y-87972025D01*
X153783410Y-87990611D01*
X153810844Y-88016295D01*
X153831086Y-88049913D01*
X153843026Y-88089718D01*
X153847451Y-88142237D01*
X153847451Y-88210576D01*
X153359747Y-88210576D01*
X153359747Y-88151567D01*
X153363868Y-88102528D01*
X153375399Y-88062162D01*
X153393631Y-88028807D01*
X153418609Y-88001260D01*
X153448996Y-87980480D01*
X153488481Y-87964422D01*
X153539236Y-87953788D01*
X153603892Y-87949871D01*
X153660017Y-87952330D01*
G37*
G36*
X153493169Y-87352460D02*
G01*
X153516985Y-87363937D01*
X153536676Y-87383179D01*
X153550276Y-87407799D01*
X153559473Y-87442201D01*
X153562957Y-87489424D01*
X153562957Y-87491623D01*
X153562957Y-87573053D01*
X153356620Y-87573053D01*
X153356620Y-87479069D01*
X153358794Y-87447981D01*
X153364827Y-87422502D01*
X153374837Y-87399760D01*
X153387541Y-87381811D01*
X153403390Y-87367355D01*
X153421735Y-87356947D01*
X153442033Y-87350594D01*
X153463892Y-87348448D01*
X153493169Y-87352460D01*
G37*
G36*
X153785302Y-87373635D02*
G01*
X153802217Y-87378489D01*
X153817176Y-87386960D01*
X153829865Y-87399543D01*
X153839674Y-87415482D01*
X153847451Y-87436717D01*
X153852007Y-87460635D01*
X153853703Y-87491623D01*
X153853703Y-87573053D01*
X153666125Y-87573053D01*
X153666125Y-87491623D01*
X153668255Y-87460243D01*
X153673989Y-87436180D01*
X153683595Y-87415101D01*
X153695678Y-87399006D01*
X153710626Y-87386490D01*
X153727381Y-87378245D01*
X153745747Y-87373551D01*
X153765874Y-87371944D01*
X153785302Y-87373635D01*
G37*
G36*
X154072503Y-88445007D02*
G01*
X153134694Y-88445007D01*
X153134694Y-88163584D01*
X153247200Y-88163584D01*
X153247200Y-88345007D01*
X153959998Y-88345007D01*
X153959998Y-88133493D01*
X153954566Y-88054483D01*
X153939530Y-87990073D01*
X153923137Y-87950722D01*
X153902164Y-87916775D01*
X153876564Y-87887589D01*
X153846414Y-87863065D01*
X153810682Y-87842551D01*
X153768560Y-87826138D01*
X153724494Y-87815179D01*
X153672873Y-87808132D01*
X153612587Y-87805621D01*
X153531995Y-87810958D01*
X153462036Y-87826138D01*
X153418503Y-87842650D01*
X153380262Y-87863962D01*
X153346704Y-87890080D01*
X153317805Y-87921137D01*
X153293271Y-87957945D01*
X153273089Y-88001260D01*
X153259222Y-88047148D01*
X153250353Y-88100840D01*
X153247804Y-88151567D01*
X153247200Y-88163584D01*
X153134694Y-88163584D01*
X153134694Y-87488350D01*
X153247200Y-87488350D01*
X153247200Y-87706410D01*
X153959998Y-87706410D01*
X153959998Y-87475796D01*
X153956760Y-87413130D01*
X153947941Y-87363203D01*
X153934632Y-87323797D01*
X153917548Y-87293004D01*
X153894005Y-87266658D01*
X153865526Y-87247888D01*
X153831120Y-87236196D01*
X153789223Y-87232041D01*
X153762866Y-87233625D01*
X153737297Y-87238343D01*
X153712930Y-87246365D01*
X153690793Y-87257736D01*
X153670873Y-87272425D01*
X153653278Y-87290513D01*
X153638893Y-87311679D01*
X153627730Y-87336968D01*
X153621235Y-87310853D01*
X153610486Y-87285872D01*
X153595721Y-87263047D01*
X153577123Y-87243228D01*
X153555045Y-87226974D01*
X153528763Y-87214260D01*
X153499786Y-87206369D01*
X153466432Y-87203612D01*
X153412822Y-87208649D01*
X153368756Y-87222798D01*
X153332297Y-87245390D01*
X153302154Y-87276836D01*
X153279660Y-87314216D01*
X153262473Y-87360624D01*
X153251266Y-87417930D01*
X153247736Y-87479069D01*
X153247200Y-87488350D01*
X153134694Y-87488350D01*
X153134694Y-86858496D01*
X153234694Y-86858496D01*
X153239374Y-86924574D01*
X153252133Y-86976563D01*
X153273872Y-87021869D01*
X153302301Y-87056382D01*
X153338146Y-87082499D01*
X153381924Y-87100639D01*
X153430496Y-87110704D01*
X153487193Y-87114267D01*
X153959998Y-87114267D01*
X153959998Y-86979836D01*
X153494373Y-86979836D01*
X153459389Y-86978176D01*
X153430430Y-86973584D01*
X153404297Y-86964774D01*
X153383194Y-86951699D01*
X153366226Y-86934196D01*
X153353934Y-86912621D01*
X153346789Y-86887392D01*
X153344115Y-86853563D01*
X153346402Y-86821705D01*
X153352566Y-86797289D01*
X153363669Y-86776228D01*
X153379921Y-86759041D01*
X153400747Y-86745963D01*
X153428281Y-86736082D01*
X153459405Y-86730497D01*
X153499844Y-86728413D01*
X153959998Y-86728413D01*
X153959998Y-86593981D01*
X153509565Y-86593981D01*
X153443852Y-86598823D01*
X153389837Y-86612300D01*
X153341947Y-86634968D01*
X153303913Y-86664763D01*
X153274035Y-86702288D01*
X153252133Y-86748099D01*
X153239230Y-86799194D01*
X153234694Y-86858496D01*
X153134694Y-86858496D01*
X153134694Y-86200750D01*
X153234694Y-86200750D01*
X153237381Y-86249904D01*
X153245130Y-86294253D01*
X153257604Y-86334400D01*
X153275510Y-86372195D01*
X153298182Y-86405655D01*
X153325797Y-86435224D01*
X153357690Y-86460249D01*
X153394938Y-86481494D01*
X153438246Y-86498873D01*
X153483515Y-86510796D01*
X153535073Y-86518346D01*
X153593780Y-86521002D01*
X153652770Y-86518257D01*
X153705653Y-86510380D01*
X153753124Y-86497799D01*
X153798521Y-86479521D01*
X153838048Y-86456921D01*
X153872363Y-86430046D01*
X153902168Y-86398327D01*
X153926951Y-86362059D01*
X153946858Y-86320722D01*
X153960784Y-86276832D01*
X153969476Y-86227812D01*
X153972503Y-86172907D01*
X153970360Y-86124134D01*
X153964003Y-86077017D01*
X153941240Y-85983814D01*
X153809935Y-85983814D01*
X153827137Y-86025701D01*
X153841393Y-86073158D01*
X153850636Y-86122345D01*
X153853703Y-86171783D01*
X153849116Y-86220109D01*
X153836118Y-86260639D01*
X153814812Y-86296078D01*
X153786195Y-86325119D01*
X153750979Y-86347504D01*
X153706669Y-86364442D01*
X153657798Y-86374317D01*
X153600326Y-86377826D01*
X153544782Y-86375105D01*
X153497451Y-86367471D01*
X153454273Y-86353508D01*
X153419586Y-86333863D01*
X153391320Y-86307342D01*
X153370493Y-86274023D01*
X153358034Y-86234920D01*
X153353494Y-86184923D01*
X153354324Y-86163088D01*
X153356816Y-86145600D01*
X153360675Y-86130018D01*
X153365657Y-86114435D01*
X153550451Y-86114435D01*
X153550451Y-86235726D01*
X153659872Y-86235726D01*
X153659872Y-85981616D01*
X153279440Y-85981616D01*
X153259549Y-86031858D01*
X153245636Y-86084393D01*
X153237528Y-86139218D01*
X153234694Y-86200750D01*
X153134694Y-86200750D01*
X153134694Y-85881616D01*
X154072503Y-85881616D01*
X154072503Y-88445007D01*
G37*
G36*
X153660017Y-99803128D02*
G01*
X153706865Y-99809950D01*
X153749506Y-99822823D01*
X153783410Y-99841408D01*
X153810844Y-99867093D01*
X153831086Y-99900711D01*
X153843026Y-99940516D01*
X153847451Y-99993034D01*
X153847451Y-100061374D01*
X153359747Y-100061374D01*
X153359747Y-100002364D01*
X153363868Y-99953326D01*
X153375399Y-99912959D01*
X153393631Y-99879605D01*
X153418609Y-99852057D01*
X153448996Y-99831278D01*
X153488481Y-99815219D01*
X153539236Y-99804586D01*
X153603892Y-99800669D01*
X153660017Y-99803128D01*
G37*
G36*
X154072503Y-101519461D02*
G01*
X153134694Y-101519461D01*
X153134694Y-101206872D01*
X153234694Y-101206872D01*
X153236344Y-101262615D01*
X153241191Y-101315609D01*
X153249832Y-101367722D01*
X153262831Y-101419461D01*
X153394136Y-101419461D01*
X153378309Y-101366998D01*
X153365364Y-101312043D01*
X153356669Y-101257138D01*
X153353494Y-101204137D01*
X153355276Y-101167309D01*
X153360040Y-101139071D01*
X153368208Y-101113912D01*
X153378114Y-101095351D01*
X153390942Y-101080499D01*
X153405420Y-101070780D01*
X153421937Y-101065068D01*
X153440444Y-101063111D01*
X153464846Y-101066987D01*
X153484359Y-101078157D01*
X153500685Y-101095080D01*
X153515720Y-101117773D01*
X153540291Y-101173802D01*
X153563787Y-101237745D01*
X153592168Y-101301688D01*
X153609980Y-101331514D01*
X153631442Y-101357717D01*
X153656970Y-101379780D01*
X153687374Y-101397333D01*
X153721958Y-101408340D01*
X153765678Y-101412330D01*
X153806760Y-101408477D01*
X153845350Y-101397040D01*
X153880376Y-101377555D01*
X153911100Y-101348973D01*
X153935723Y-101312700D01*
X153955846Y-101264807D01*
X153968008Y-101210499D01*
X153972503Y-101140732D01*
X153970354Y-101096230D01*
X153964883Y-101050313D01*
X153956920Y-101006593D01*
X153947493Y-100968052D01*
X153825567Y-100968052D01*
X153838072Y-101006300D01*
X153847988Y-101049189D01*
X153854534Y-101093739D01*
X153856830Y-101136335D01*
X153855268Y-101170510D01*
X153851114Y-101196468D01*
X153844046Y-101219637D01*
X153835385Y-101236914D01*
X153823996Y-101250767D01*
X153810717Y-101259873D01*
X153795486Y-101265143D01*
X153778232Y-101266956D01*
X153757383Y-101263192D01*
X153739740Y-101251960D01*
X153724922Y-101235073D01*
X153710821Y-101212050D01*
X153686837Y-101155777D01*
X153662803Y-101091297D01*
X153633592Y-101026817D01*
X153615368Y-100996882D01*
X153593780Y-100970494D01*
X153568316Y-100948175D01*
X153538386Y-100930634D01*
X153504564Y-100919556D01*
X153462817Y-100915588D01*
X153406995Y-100921250D01*
X153361261Y-100937180D01*
X153321898Y-100963093D01*
X153290089Y-100997556D01*
X153265978Y-101039218D01*
X153248323Y-101089929D01*
X153238220Y-101144923D01*
X153234694Y-101206872D01*
X153134694Y-101206872D01*
X153134694Y-100300487D01*
X153247200Y-100300487D01*
X153247200Y-100458415D01*
X153469802Y-100528903D01*
X153560368Y-100554598D01*
X153467555Y-100579168D01*
X153247200Y-100648582D01*
X153247200Y-100799964D01*
X153959998Y-100839873D01*
X153959998Y-100721269D01*
X153503264Y-100704318D01*
X153378456Y-100699971D01*
X153488805Y-100667731D01*
X153744283Y-100589036D01*
X153744283Y-100504332D01*
X153472343Y-100421241D01*
X153379530Y-100394472D01*
X153490710Y-100392274D01*
X153959998Y-100374249D01*
X153959998Y-100260041D01*
X153247200Y-100300487D01*
X153134694Y-100300487D01*
X153134694Y-100014381D01*
X153247200Y-100014381D01*
X153247200Y-100195805D01*
X153959998Y-100195805D01*
X153959998Y-99984290D01*
X153954566Y-99905281D01*
X153939530Y-99840871D01*
X153923137Y-99801520D01*
X153902164Y-99767573D01*
X153876564Y-99738387D01*
X153846414Y-99713863D01*
X153810682Y-99693348D01*
X153768560Y-99676935D01*
X153724494Y-99665976D01*
X153672873Y-99658930D01*
X153612587Y-99656419D01*
X153531995Y-99661755D01*
X153462036Y-99676935D01*
X153418503Y-99693447D01*
X153380262Y-99714760D01*
X153346704Y-99740878D01*
X153317805Y-99771935D01*
X153293271Y-99808742D01*
X153273089Y-99852057D01*
X153259222Y-99897946D01*
X153250353Y-99951637D01*
X153247804Y-100002364D01*
X153247200Y-100014381D01*
X153134694Y-100014381D01*
X153134694Y-99556419D01*
X154072503Y-99556419D01*
X154072503Y-101519461D01*
G37*
D10*
G36*
X154284713Y-88222519D02*
G01*
X154311172Y-88236978D01*
X154328554Y-88249874D01*
X154341177Y-88264600D01*
X154347361Y-88279916D01*
X154352112Y-88259358D01*
X154359299Y-88240807D01*
X154369224Y-88224034D01*
X154381647Y-88209910D01*
X154396652Y-88198452D01*
X154414589Y-88189730D01*
X154434557Y-88184434D01*
X154458278Y-88182555D01*
X154490741Y-88185615D01*
X154515950Y-88194004D01*
X154537330Y-88207922D01*
X154554174Y-88226641D01*
X154566534Y-88249461D01*
X154575179Y-88277871D01*
X154579842Y-88308826D01*
X154581498Y-88344793D01*
X154581498Y-88474944D01*
X154136000Y-88474944D01*
X154136000Y-88390925D01*
X154319670Y-88390925D01*
X154319670Y-88374866D01*
X154317302Y-88356761D01*
X154386104Y-88356761D01*
X154386104Y-88390925D01*
X154511157Y-88390925D01*
X154511157Y-88354044D01*
X154509270Y-88326457D01*
X154504283Y-88306184D01*
X154496929Y-88291548D01*
X154485903Y-88280307D01*
X154470782Y-88273275D01*
X154450157Y-88270696D01*
X154435203Y-88272293D01*
X154422527Y-88276863D01*
X154411503Y-88284251D01*
X154402346Y-88294266D01*
X154395368Y-88306408D01*
X154390165Y-88321438D01*
X154387164Y-88337821D01*
X154386104Y-88356761D01*
X154317302Y-88356761D01*
X154317000Y-88354456D01*
X154309320Y-88337466D01*
X154296773Y-88323587D01*
X154278607Y-88312706D01*
X154136000Y-88249844D01*
X154136000Y-88151139D01*
X154284713Y-88222519D01*
G37*
G36*
X154136000Y-87859605D02*
G01*
X154299948Y-87945670D01*
X154136000Y-88030392D01*
X154136000Y-88131814D01*
X154364763Y-87995007D01*
X154581498Y-88123296D01*
X154581498Y-88024591D01*
X154427839Y-87943624D01*
X154581498Y-87865406D01*
X154581498Y-87766701D01*
X154366992Y-87893677D01*
X154136000Y-87752688D01*
X154136000Y-87859605D01*
G37*
G36*
X154511157Y-85743672D02*
G01*
X154136000Y-85743672D01*
X154136000Y-85829737D01*
X154511157Y-85829737D01*
X154511157Y-85952011D01*
X154581498Y-85952011D01*
X154581498Y-85621397D01*
X154511157Y-85621397D01*
X154511157Y-85743672D01*
G37*
G36*
X154136000Y-85319605D02*
G01*
X154299948Y-85405670D01*
X154136000Y-85490392D01*
X154136000Y-85591814D01*
X154364763Y-85455007D01*
X154581498Y-85583296D01*
X154581498Y-85484591D01*
X154427839Y-85403624D01*
X154581498Y-85325406D01*
X154581498Y-85226701D01*
X154366992Y-85353677D01*
X154136000Y-85212688D01*
X154136000Y-85319605D01*
G37*
D11*
G36*
X131490695Y-87878237D02*
G01*
X131156571Y-87785327D01*
X131490695Y-87691293D01*
X131490695Y-87878237D01*
G37*
G36*
X131850178Y-88766555D02*
G01*
X130915496Y-88766555D01*
X130915496Y-88314601D01*
X131028001Y-88314601D01*
X131456110Y-88509702D01*
X131539543Y-88544140D01*
X131224861Y-88544140D01*
X131028001Y-88544140D01*
X131028001Y-88666555D01*
X131740800Y-88666555D01*
X131740800Y-88502619D01*
X131315426Y-88311328D01*
X131223786Y-88272005D01*
X131519369Y-88272005D01*
X131740800Y-88272005D01*
X131740800Y-88149591D01*
X131028001Y-88149591D01*
X131028001Y-88314601D01*
X130915496Y-88314601D01*
X130915496Y-87696764D01*
X131028001Y-87696764D01*
X131028001Y-87785327D01*
X131028001Y-87884782D01*
X131740800Y-88096248D01*
X131740800Y-87947602D01*
X131600116Y-87908279D01*
X131600116Y-87659053D01*
X131740800Y-87618655D01*
X131740800Y-87485299D01*
X131028001Y-87696764D01*
X130915496Y-87696764D01*
X130915496Y-87241789D01*
X131015496Y-87241789D01*
X131016571Y-87287951D01*
X131020576Y-87330302D01*
X131028245Y-87372361D01*
X131040506Y-87416667D01*
X131174938Y-87416667D01*
X131155767Y-87370299D01*
X131143626Y-87328104D01*
X131136493Y-87286828D01*
X131134296Y-87251607D01*
X131139143Y-87203231D01*
X131152614Y-87164706D01*
X131174574Y-87131852D01*
X131203905Y-87105404D01*
X131239335Y-87085584D01*
X131282502Y-87071258D01*
X131329358Y-87063195D01*
X131382642Y-87060365D01*
X131438815Y-87063316D01*
X131486054Y-87071551D01*
X131528992Y-87086233D01*
X131563284Y-87106283D01*
X131591130Y-87132980D01*
X131611595Y-87166367D01*
X131623850Y-87205187D01*
X131628252Y-87253268D01*
X131624638Y-87292347D01*
X131615063Y-87334943D01*
X131601044Y-87377588D01*
X131584484Y-87416667D01*
X131709536Y-87416667D01*
X131727746Y-87369143D01*
X131740164Y-87324587D01*
X131747644Y-87279445D01*
X131750178Y-87231970D01*
X131747481Y-87180951D01*
X131739764Y-87135735D01*
X131727464Y-87095585D01*
X131709669Y-87057772D01*
X131687200Y-87024587D01*
X131659906Y-86995543D01*
X131628357Y-86971089D01*
X131591503Y-86950477D01*
X131548629Y-86933799D01*
X131503833Y-86922499D01*
X131452604Y-86915324D01*
X131394072Y-86912794D01*
X131334171Y-86915526D01*
X131280905Y-86923336D01*
X131233507Y-86935752D01*
X131188064Y-86953716D01*
X131148728Y-86975599D01*
X131114805Y-87001307D01*
X131085110Y-87031710D01*
X131060562Y-87066087D01*
X131040946Y-87104866D01*
X131027053Y-87146225D01*
X131018464Y-87191656D01*
X131015496Y-87241789D01*
X130915496Y-87241789D01*
X130915496Y-86812794D01*
X131850178Y-86812794D01*
X131850178Y-88766555D01*
G37*
D12*
G36*
X138788555Y-108853851D02*
G01*
X137622380Y-108853851D01*
X137622380Y-108176311D01*
X137781130Y-108176311D01*
X137781130Y-108371497D01*
X138118615Y-108371497D01*
X138118615Y-108695101D01*
X138292320Y-108695101D01*
X138292320Y-108371497D01*
X138629805Y-108371497D01*
X138629805Y-108176311D01*
X138292320Y-108176311D01*
X138292320Y-107852707D01*
X138118615Y-107852707D01*
X138118615Y-108176311D01*
X137781130Y-108176311D01*
X137622380Y-108176311D01*
X137622380Y-107693957D01*
X138788555Y-107693957D01*
X138788555Y-108853851D01*
G37*
D10*
G36*
X154402045Y-101362082D02*
G01*
X154434309Y-101366486D01*
X154461850Y-101373336D01*
X154488176Y-101383594D01*
X154510508Y-101396415D01*
X154529353Y-101411743D01*
X154545352Y-101429984D01*
X154558461Y-101451201D01*
X154568706Y-101475796D01*
X154578103Y-101516052D01*
X154581498Y-101565433D01*
X154581498Y-101697629D01*
X154136000Y-101697629D01*
X154136000Y-101584240D01*
X154136377Y-101576729D01*
X154206341Y-101576729D01*
X154206341Y-101613610D01*
X154511157Y-101613610D01*
X154511157Y-101570898D01*
X154508391Y-101538074D01*
X154500929Y-101513195D01*
X154488277Y-101492184D01*
X154471131Y-101476132D01*
X154449941Y-101464516D01*
X154423290Y-101456470D01*
X154394010Y-101452206D01*
X154358932Y-101450669D01*
X154318522Y-101453117D01*
X154286800Y-101459763D01*
X154262122Y-101469800D01*
X154243131Y-101482787D01*
X154227519Y-101500004D01*
X154216124Y-101520851D01*
X154208917Y-101546080D01*
X154206341Y-101576729D01*
X154136377Y-101576729D01*
X154137970Y-101545025D01*
X154143513Y-101511467D01*
X154152181Y-101482787D01*
X154164794Y-101455715D01*
X154180128Y-101432711D01*
X154198190Y-101413300D01*
X154219163Y-101396976D01*
X154243064Y-101383656D01*
X154270272Y-101373336D01*
X154313997Y-101363848D01*
X154364367Y-101360513D01*
X154402045Y-101362082D01*
G37*
G36*
X154513110Y-101291331D02*
G01*
X154581498Y-101291331D01*
X154581498Y-101009200D01*
X154513110Y-101009200D01*
X154513110Y-101107569D01*
X154204387Y-101107569D01*
X154204387Y-101009200D01*
X154136000Y-101009200D01*
X154136000Y-101291331D01*
X154204387Y-101291331D01*
X154204387Y-101192963D01*
X154513110Y-101192963D01*
X154513110Y-101291331D01*
G37*
G36*
X154417801Y-100589472D02*
G01*
X154463977Y-100598551D01*
X154501179Y-100612444D01*
X154530971Y-100630593D01*
X154551575Y-100649646D01*
X154567602Y-100671864D01*
X154579336Y-100697696D01*
X154586710Y-100727818D01*
X154589314Y-100763095D01*
X154585859Y-100800086D01*
X154575667Y-100834322D01*
X154565007Y-100855453D01*
X154551101Y-100874739D01*
X154533718Y-100892361D01*
X154513847Y-100907222D01*
X154489946Y-100920248D01*
X154461423Y-100931317D01*
X154431765Y-100938892D01*
X154397104Y-100943753D01*
X154356703Y-100945483D01*
X154299892Y-100942191D01*
X154253786Y-100933128D01*
X154216562Y-100919245D01*
X154186680Y-100901092D01*
X154166014Y-100882020D01*
X154149944Y-100859787D01*
X154138182Y-100833948D01*
X154130793Y-100803827D01*
X154128184Y-100768560D01*
X154128441Y-100765812D01*
X154204387Y-100765812D01*
X154206988Y-100788973D01*
X154214304Y-100807690D01*
X154226162Y-100822965D01*
X154243131Y-100835330D01*
X154270003Y-100846213D01*
X154308115Y-100853775D01*
X154360795Y-100856671D01*
X154396473Y-100855305D01*
X154425885Y-100851542D01*
X154452816Y-100844654D01*
X154473665Y-100835330D01*
X154490931Y-100822515D01*
X154503066Y-100807150D01*
X154510468Y-100788813D01*
X154513110Y-100765812D01*
X154510499Y-100742490D01*
X154503165Y-100723713D01*
X154491297Y-100708456D01*
X154474337Y-100696173D01*
X154447494Y-100685371D01*
X154409395Y-100677862D01*
X154356703Y-100674984D01*
X154321021Y-100676350D01*
X154291582Y-100680114D01*
X154264667Y-100686963D01*
X154243833Y-100696173D01*
X154226584Y-100708849D01*
X154214401Y-100724322D01*
X154207016Y-100742810D01*
X154204387Y-100765812D01*
X154128441Y-100765812D01*
X154131639Y-100731573D01*
X154141831Y-100697363D01*
X154152493Y-100676213D01*
X154166399Y-100656918D01*
X154183780Y-100639295D01*
X154203652Y-100624435D01*
X154227553Y-100611420D01*
X154256075Y-100600368D01*
X154285734Y-100592777D01*
X154320395Y-100587905D01*
X154360795Y-100586172D01*
X154417801Y-100589472D01*
G37*
D11*
G36*
X130174193Y-78036335D02*
G01*
X130056712Y-78036335D01*
X130017853Y-78033618D01*
X129986004Y-78026076D01*
X129957576Y-78013564D01*
X129935140Y-77997683D01*
X129917070Y-77977872D01*
X129904061Y-77954941D01*
X129896120Y-77929569D01*
X129893436Y-77902245D01*
X129898452Y-77865649D01*
X129912798Y-77835878D01*
X129936850Y-77811265D01*
X129967626Y-77794265D01*
X130010628Y-77782769D01*
X130069657Y-77778414D01*
X130174193Y-77778414D01*
X130174193Y-78036335D01*
G37*
G36*
X130174193Y-77649454D02*
G01*
X130072405Y-77649454D01*
X130033181Y-77646791D01*
X130003101Y-77639623D01*
X129976753Y-77627616D01*
X129956634Y-77612512D01*
X129940989Y-77593828D01*
X129930683Y-77572884D01*
X129924816Y-77549926D01*
X129922806Y-77524768D01*
X129924921Y-77500482D01*
X129930988Y-77479339D01*
X129941577Y-77460639D01*
X129957306Y-77444778D01*
X129977229Y-77432518D01*
X130003773Y-77422796D01*
X130033670Y-77417101D01*
X130072405Y-77414981D01*
X130174193Y-77414981D01*
X130174193Y-77649454D01*
G37*
G36*
X130452000Y-78284222D02*
G01*
X128832404Y-78284222D01*
X128832404Y-77731519D01*
X128943515Y-77731519D01*
X128943515Y-77868295D01*
X129198321Y-77868295D01*
X129198321Y-78134032D01*
X129352011Y-78134032D01*
X129352011Y-77899070D01*
X129712391Y-77899070D01*
X129712689Y-77902245D01*
X129718688Y-77966082D01*
X129736374Y-78021164D01*
X129764614Y-78066738D01*
X129803921Y-78104417D01*
X129850646Y-78132535D01*
X129908656Y-78154019D01*
X129980289Y-78168028D01*
X130068314Y-78173111D01*
X130340889Y-78173111D01*
X130340889Y-77282113D01*
X130052621Y-77282113D01*
X129974289Y-77286159D01*
X129911880Y-77297184D01*
X129862623Y-77313820D01*
X129824132Y-77335174D01*
X129791199Y-77364603D01*
X129767737Y-77400203D01*
X129753122Y-77443210D01*
X129747928Y-77495581D01*
X129749681Y-77524768D01*
X129749907Y-77528527D01*
X129755805Y-77560488D01*
X129765833Y-77590947D01*
X129780046Y-77618618D01*
X129798408Y-77643519D01*
X129821018Y-77665513D01*
X129847476Y-77683493D01*
X129879087Y-77697448D01*
X129846443Y-77705566D01*
X129815217Y-77719002D01*
X129786686Y-77737458D01*
X129761911Y-77760706D01*
X129741595Y-77788304D01*
X129725702Y-77821157D01*
X129715838Y-77857378D01*
X129712391Y-77899070D01*
X129352011Y-77899070D01*
X129352011Y-77868295D01*
X129606817Y-77868295D01*
X129606817Y-77731519D01*
X129352011Y-77731519D01*
X129352011Y-77465783D01*
X129198321Y-77465783D01*
X129198321Y-77731519D01*
X128943515Y-77731519D01*
X128832404Y-77731519D01*
X128832404Y-77171002D01*
X130452000Y-77171002D01*
X130452000Y-78284222D01*
G37*
G36*
X156334252Y-78189000D02*
G01*
X156167556Y-78189000D01*
X156117059Y-78013145D01*
X155805527Y-78013145D01*
X155756373Y-78189000D01*
X155570565Y-78189000D01*
X155663313Y-77876369D01*
X155843079Y-77876369D01*
X156076759Y-77876369D01*
X155959217Y-77458713D01*
X155843079Y-77876369D01*
X155663313Y-77876369D01*
X155834897Y-77298002D01*
X156069920Y-77298002D01*
X156334252Y-78189000D01*
G37*
G36*
X155395993Y-77892000D02*
G01*
X155395993Y-77743501D01*
X154971071Y-77743501D01*
X154971071Y-77892000D01*
X155395993Y-77892000D01*
G37*
G36*
X153831428Y-93443672D02*
G01*
X153497304Y-93537706D01*
X153497304Y-93350762D01*
X153831428Y-93443672D01*
G37*
G36*
X154072503Y-94416205D02*
G01*
X153137821Y-94416205D01*
X153137821Y-93997029D01*
X153237821Y-93997029D01*
X153240518Y-94048048D01*
X153248235Y-94093264D01*
X153260535Y-94133414D01*
X153278330Y-94171227D01*
X153300799Y-94204412D01*
X153328093Y-94233456D01*
X153359642Y-94257910D01*
X153396496Y-94278522D01*
X153439370Y-94295200D01*
X153484166Y-94306500D01*
X153535395Y-94313675D01*
X153593927Y-94316205D01*
X153653828Y-94313473D01*
X153707094Y-94305663D01*
X153754492Y-94293247D01*
X153799935Y-94275283D01*
X153839271Y-94253400D01*
X153873194Y-94227692D01*
X153902889Y-94197289D01*
X153927437Y-94162912D01*
X153947053Y-94124133D01*
X153960946Y-94082774D01*
X153969535Y-94037343D01*
X153972503Y-93987210D01*
X153971428Y-93941048D01*
X153967423Y-93898697D01*
X153959754Y-93856638D01*
X153947493Y-93812332D01*
X153813061Y-93812332D01*
X153832232Y-93858700D01*
X153844373Y-93900895D01*
X153851506Y-93942171D01*
X153853703Y-93977392D01*
X153848856Y-94025768D01*
X153835385Y-94064293D01*
X153813425Y-94097147D01*
X153784094Y-94123595D01*
X153748664Y-94143415D01*
X153705497Y-94157741D01*
X153658641Y-94165804D01*
X153605357Y-94168634D01*
X153549184Y-94165683D01*
X153501945Y-94157448D01*
X153459007Y-94142766D01*
X153424715Y-94122716D01*
X153396869Y-94096019D01*
X153376404Y-94062632D01*
X153364149Y-94023812D01*
X153359747Y-93975731D01*
X153363361Y-93936652D01*
X153372936Y-93894056D01*
X153386955Y-93851411D01*
X153403515Y-93812332D01*
X153278463Y-93812332D01*
X153260253Y-93859856D01*
X153247835Y-93904412D01*
X153240355Y-93949554D01*
X153237821Y-93997029D01*
X153137821Y-93997029D01*
X153137821Y-93281397D01*
X153247200Y-93281397D01*
X153387883Y-93320720D01*
X153387883Y-93537706D01*
X153387883Y-93569946D01*
X153247200Y-93610344D01*
X153247200Y-93743700D01*
X153959998Y-93532235D01*
X153959998Y-93344217D01*
X153247200Y-93132751D01*
X153247200Y-93281397D01*
X153137821Y-93281397D01*
X153137821Y-92726380D01*
X153247200Y-92726380D01*
X153672573Y-92917671D01*
X153764213Y-92956994D01*
X153468630Y-92956994D01*
X153247200Y-92956994D01*
X153247200Y-93079408D01*
X153959998Y-93079408D01*
X153959998Y-92914398D01*
X153531889Y-92719297D01*
X153448456Y-92684859D01*
X153763138Y-92684859D01*
X153959998Y-92684859D01*
X153959998Y-92562444D01*
X153247200Y-92562444D01*
X153247200Y-92726380D01*
X153137821Y-92726380D01*
X153137821Y-92462444D01*
X154072503Y-92462444D01*
X154072503Y-94416205D01*
G37*
G36*
X154298759Y-77860480D02*
G01*
X154065079Y-77860480D01*
X154181217Y-77442824D01*
X154298759Y-77860480D01*
G37*
G36*
X154667363Y-78284222D02*
G01*
X152962404Y-78284222D01*
X152962404Y-78173111D01*
X153792565Y-78173111D01*
X153978373Y-78173111D01*
X154027527Y-77997256D01*
X154339059Y-77997256D01*
X154389556Y-78173111D01*
X154556252Y-78173111D01*
X154291920Y-77282113D01*
X154056897Y-77282113D01*
X153885313Y-77860480D01*
X153792565Y-78173111D01*
X152962404Y-78173111D01*
X152962404Y-77731519D01*
X153073515Y-77731519D01*
X153073515Y-77868295D01*
X153328321Y-77868295D01*
X153328321Y-78134032D01*
X153482011Y-78134032D01*
X153482011Y-77868295D01*
X153736817Y-77868295D01*
X153736817Y-77731519D01*
X153482011Y-77731519D01*
X153482011Y-77465783D01*
X153328321Y-77465783D01*
X153328321Y-77731519D01*
X153073515Y-77731519D01*
X152962404Y-77731519D01*
X152962404Y-77171002D01*
X154667363Y-77171002D01*
X154667363Y-78284222D01*
G37*
D10*
G36*
X130832460Y-88353916D02*
G01*
X130843841Y-88324214D01*
X130851603Y-88296367D01*
X130856277Y-88268153D01*
X130857861Y-88238481D01*
X130856175Y-88206594D01*
X130851353Y-88178334D01*
X130843665Y-88153240D01*
X130832543Y-88129607D01*
X130818500Y-88108867D01*
X130801441Y-88090714D01*
X130781723Y-88075430D01*
X130758689Y-88062548D01*
X130731893Y-88052124D01*
X130703895Y-88045062D01*
X130671877Y-88040577D01*
X130635295Y-88038996D01*
X130597857Y-88040703D01*
X130564565Y-88045585D01*
X130534942Y-88053345D01*
X130506540Y-88064573D01*
X130481955Y-88078249D01*
X130460753Y-88094317D01*
X130442193Y-88113319D01*
X130426851Y-88134804D01*
X130414591Y-88159041D01*
X130405908Y-88184891D01*
X130400540Y-88213285D01*
X130398685Y-88244618D01*
X130399356Y-88273469D01*
X130401860Y-88299939D01*
X130406653Y-88326225D01*
X130414316Y-88353916D01*
X130498336Y-88353916D01*
X130486354Y-88324937D01*
X130478766Y-88298565D01*
X130474308Y-88272768D01*
X130472935Y-88250754D01*
X130475964Y-88220519D01*
X130484383Y-88196441D01*
X130498108Y-88175908D01*
X130516440Y-88159377D01*
X130538584Y-88146990D01*
X130565564Y-88138036D01*
X130594848Y-88132997D01*
X130628151Y-88131228D01*
X130663259Y-88133072D01*
X130692784Y-88138219D01*
X130719620Y-88147396D01*
X130741052Y-88159927D01*
X130758456Y-88176612D01*
X130771247Y-88197479D01*
X130778906Y-88221742D01*
X130781658Y-88251792D01*
X130779398Y-88276217D01*
X130773414Y-88302839D01*
X130764652Y-88329492D01*
X130754302Y-88353916D01*
X130832460Y-88353916D01*
G37*
G36*
X130852000Y-88480159D02*
G01*
X130764072Y-88505408D01*
X130764072Y-88661174D01*
X130852000Y-88685751D01*
X130852000Y-88778655D01*
X130406501Y-88646489D01*
X130406501Y-88584329D01*
X130486856Y-88584329D01*
X130695684Y-88642398D01*
X130695684Y-88525558D01*
X130486856Y-88584329D01*
X130406501Y-88584329D01*
X130406501Y-88528978D01*
X130852000Y-88396812D01*
X130852000Y-88480159D01*
G37*
G36*
X130852000Y-89032637D02*
G01*
X130586141Y-88913080D01*
X130528866Y-88888503D01*
X130713605Y-88888503D01*
X130852000Y-88888503D01*
X130852000Y-88811994D01*
X130406501Y-88811994D01*
X130406501Y-88915125D01*
X130674069Y-89037064D01*
X130726214Y-89058588D01*
X130529538Y-89058588D01*
X130406501Y-89058588D01*
X130406501Y-89135097D01*
X130852000Y-89135097D01*
X130852000Y-89032637D01*
G37*
G36*
X130852000Y-89231603D02*
G01*
X130406501Y-89231603D01*
X130406501Y-89316997D01*
X130779704Y-89316997D01*
X130779704Y-89505521D01*
X130852000Y-89505521D01*
X130852000Y-89231603D01*
G37*
G36*
X154155539Y-94526083D02*
G01*
X154144158Y-94555785D01*
X154136396Y-94583632D01*
X154131722Y-94611846D01*
X154130138Y-94641518D01*
X154131824Y-94673405D01*
X154136646Y-94701665D01*
X154144334Y-94726759D01*
X154155456Y-94750392D01*
X154169499Y-94771132D01*
X154186558Y-94789285D01*
X154206276Y-94804569D01*
X154229310Y-94817451D01*
X154256106Y-94827875D01*
X154284104Y-94834937D01*
X154316122Y-94839422D01*
X154352704Y-94841003D01*
X154390142Y-94839296D01*
X154423434Y-94834414D01*
X154453057Y-94826654D01*
X154481459Y-94815426D01*
X154506044Y-94801750D01*
X154527246Y-94785682D01*
X154545806Y-94766680D01*
X154561148Y-94745195D01*
X154573408Y-94720958D01*
X154582091Y-94695108D01*
X154587459Y-94666714D01*
X154589314Y-94635381D01*
X154588643Y-94606530D01*
X154586139Y-94580060D01*
X154581346Y-94553774D01*
X154573683Y-94526083D01*
X154489663Y-94526083D01*
X154501645Y-94555062D01*
X154509233Y-94581434D01*
X154513691Y-94607231D01*
X154515064Y-94629245D01*
X154512035Y-94659480D01*
X154503616Y-94683558D01*
X154489891Y-94704091D01*
X154471559Y-94720622D01*
X154449415Y-94733009D01*
X154422435Y-94741963D01*
X154393151Y-94747002D01*
X154359848Y-94748771D01*
X154324740Y-94746927D01*
X154295215Y-94741780D01*
X154268379Y-94732603D01*
X154246947Y-94720072D01*
X154229543Y-94703387D01*
X154216752Y-94682520D01*
X154209093Y-94658257D01*
X154206341Y-94628207D01*
X154208601Y-94603782D01*
X154214585Y-94577160D01*
X154223347Y-94550507D01*
X154233697Y-94526083D01*
X154155539Y-94526083D01*
G37*
G36*
X154581498Y-94233510D02*
G01*
X154581498Y-94351021D01*
X154136000Y-94483187D01*
X154136000Y-94399840D01*
X154223927Y-94374591D01*
X154223927Y-94354441D01*
X154292315Y-94354441D01*
X154501143Y-94295670D01*
X154292315Y-94237601D01*
X154292315Y-94354441D01*
X154223927Y-94354441D01*
X154223927Y-94218825D01*
X154136000Y-94194248D01*
X154136000Y-94101344D01*
X154581498Y-94233510D01*
G37*
G36*
X154136000Y-93847362D02*
G01*
X154401858Y-93966919D01*
X154459133Y-93991496D01*
X154274394Y-93991496D01*
X154136000Y-93991496D01*
X154136000Y-94068005D01*
X154581498Y-94068005D01*
X154581498Y-93964874D01*
X154313930Y-93842935D01*
X154261785Y-93821411D01*
X154458461Y-93821411D01*
X154581498Y-93821411D01*
X154581498Y-93744902D01*
X154136000Y-93744902D01*
X154136000Y-93847362D01*
G37*
G36*
X154136000Y-93648396D02*
G01*
X154581498Y-93648396D01*
X154581498Y-93563002D01*
X154208295Y-93563002D01*
X154208295Y-93374478D01*
X154136000Y-93374478D01*
X154136000Y-93648396D01*
G37*
G36*
X130832460Y-86702916D02*
G01*
X130843841Y-86673214D01*
X130851603Y-86645367D01*
X130856277Y-86617153D01*
X130857861Y-86587481D01*
X130856175Y-86555594D01*
X130851353Y-86527334D01*
X130843665Y-86502240D01*
X130832543Y-86478607D01*
X130818500Y-86457867D01*
X130801441Y-86439714D01*
X130781723Y-86424430D01*
X130758689Y-86411548D01*
X130731893Y-86401124D01*
X130703895Y-86394062D01*
X130671877Y-86389577D01*
X130635295Y-86387996D01*
X130597857Y-86389703D01*
X130564565Y-86394585D01*
X130534942Y-86402345D01*
X130506540Y-86413573D01*
X130481955Y-86427249D01*
X130460753Y-86443317D01*
X130442193Y-86462319D01*
X130426851Y-86483804D01*
X130414591Y-86508041D01*
X130405908Y-86533891D01*
X130400540Y-86562285D01*
X130398685Y-86593618D01*
X130399356Y-86622469D01*
X130401860Y-86648939D01*
X130406653Y-86675225D01*
X130414316Y-86702916D01*
X130498336Y-86702916D01*
X130486354Y-86673937D01*
X130478766Y-86647565D01*
X130474308Y-86621768D01*
X130472935Y-86599754D01*
X130475964Y-86569519D01*
X130484383Y-86545441D01*
X130498108Y-86524908D01*
X130516440Y-86508377D01*
X130538584Y-86495990D01*
X130565564Y-86487036D01*
X130594848Y-86481997D01*
X130628151Y-86480228D01*
X130663259Y-86482072D01*
X130692784Y-86487219D01*
X130719620Y-86496396D01*
X130741052Y-86508927D01*
X130758456Y-86525612D01*
X130771247Y-86546479D01*
X130778906Y-86570742D01*
X130781658Y-86600792D01*
X130779398Y-86625217D01*
X130773414Y-86651839D01*
X130764652Y-86678492D01*
X130754302Y-86702916D01*
X130832460Y-86702916D01*
G37*
G36*
X130852000Y-86829159D02*
G01*
X130764072Y-86854408D01*
X130764072Y-87010174D01*
X130852000Y-87034751D01*
X130852000Y-87127655D01*
X130406501Y-86995489D01*
X130406501Y-86933329D01*
X130486856Y-86933329D01*
X130695684Y-86991398D01*
X130695684Y-86874558D01*
X130486856Y-86933329D01*
X130406501Y-86933329D01*
X130406501Y-86877978D01*
X130852000Y-86745812D01*
X130852000Y-86829159D01*
G37*
G36*
X130852000Y-87381637D02*
G01*
X130586141Y-87262080D01*
X130528866Y-87237503D01*
X130713605Y-87237503D01*
X130852000Y-87237503D01*
X130852000Y-87160994D01*
X130406501Y-87160994D01*
X130406501Y-87264125D01*
X130674069Y-87386064D01*
X130726214Y-87407588D01*
X130529538Y-87407588D01*
X130406501Y-87407588D01*
X130406501Y-87484097D01*
X130852000Y-87484097D01*
X130852000Y-87381637D01*
G37*
G36*
X130852000Y-87781432D02*
G01*
X130658559Y-87781432D01*
X130658559Y-87629788D01*
X130852000Y-87629788D01*
X130852000Y-87545768D01*
X130406501Y-87545768D01*
X130406501Y-87629788D01*
X130586263Y-87629788D01*
X130586263Y-87781432D01*
X130406501Y-87781432D01*
X130406501Y-87865451D01*
X130852000Y-87865451D01*
X130852000Y-87781432D01*
G37*
G36*
X154325532Y-87181643D02*
G01*
X154393920Y-87181643D01*
X154393920Y-87022824D01*
X154156150Y-87022824D01*
X154143718Y-87054226D01*
X154135023Y-87087060D01*
X154129955Y-87121326D01*
X154128184Y-87159784D01*
X154129863Y-87190505D01*
X154134706Y-87218223D01*
X154142502Y-87243315D01*
X154153694Y-87266937D01*
X154167863Y-87287849D01*
X154185123Y-87306329D01*
X154205056Y-87321970D01*
X154228336Y-87335248D01*
X154255404Y-87346110D01*
X154283697Y-87353562D01*
X154315920Y-87358281D01*
X154352612Y-87359941D01*
X154389481Y-87358225D01*
X154422533Y-87353302D01*
X154452202Y-87345439D01*
X154480575Y-87334015D01*
X154505280Y-87319890D01*
X154526727Y-87303093D01*
X154545355Y-87283269D01*
X154560844Y-87260601D01*
X154573286Y-87234766D01*
X154581990Y-87207334D01*
X154587422Y-87176697D01*
X154589314Y-87142381D01*
X154587975Y-87111898D01*
X154584002Y-87082450D01*
X154569775Y-87024198D01*
X154487709Y-87024198D01*
X154498460Y-87050378D01*
X154507371Y-87080038D01*
X154513147Y-87110780D01*
X154515064Y-87141679D01*
X154512197Y-87171882D01*
X154504073Y-87197214D01*
X154490757Y-87219363D01*
X154472871Y-87237514D01*
X154450862Y-87251505D01*
X154423168Y-87262091D01*
X154392623Y-87268262D01*
X154356703Y-87270456D01*
X154321989Y-87268755D01*
X154292407Y-87263984D01*
X154265420Y-87255257D01*
X154243741Y-87242979D01*
X154226075Y-87226404D01*
X154213058Y-87205579D01*
X154205271Y-87181139D01*
X154202434Y-87149892D01*
X154202953Y-87136245D01*
X154204510Y-87125315D01*
X154206922Y-87115576D01*
X154210036Y-87105836D01*
X154325532Y-87105836D01*
X154325532Y-87181643D01*
G37*
G36*
X154136000Y-86738800D02*
G01*
X154401858Y-86858357D01*
X154459133Y-86882934D01*
X154274394Y-86882934D01*
X154136000Y-86882934D01*
X154136000Y-86959443D01*
X154581498Y-86959443D01*
X154581498Y-86856312D01*
X154313930Y-86734374D01*
X154261785Y-86712850D01*
X154458461Y-86712850D01*
X154581498Y-86712850D01*
X154581498Y-86636341D01*
X154136000Y-86636341D01*
X154136000Y-86738800D01*
G37*
G36*
X154402045Y-86242206D02*
G01*
X154434309Y-86246610D01*
X154461850Y-86253459D01*
X154488176Y-86263718D01*
X154510508Y-86276539D01*
X154529353Y-86291867D01*
X154545352Y-86310108D01*
X154558461Y-86331325D01*
X154568706Y-86355919D01*
X154578103Y-86396175D01*
X154581498Y-86445556D01*
X154581498Y-86577753D01*
X154136000Y-86577753D01*
X154136000Y-86464363D01*
X154136377Y-86456853D01*
X154206341Y-86456853D01*
X154206341Y-86493733D01*
X154511157Y-86493733D01*
X154511157Y-86451021D01*
X154508391Y-86418197D01*
X154500929Y-86393319D01*
X154488277Y-86372308D01*
X154471131Y-86356255D01*
X154449941Y-86344639D01*
X154423290Y-86336594D01*
X154394010Y-86332330D01*
X154358932Y-86330793D01*
X154318522Y-86333241D01*
X154286800Y-86339887D01*
X154262122Y-86349923D01*
X154243131Y-86362911D01*
X154227519Y-86380128D01*
X154216124Y-86400974D01*
X154208917Y-86426204D01*
X154206341Y-86456853D01*
X154136377Y-86456853D01*
X154137970Y-86425148D01*
X154143513Y-86391591D01*
X154152181Y-86362911D01*
X154164794Y-86335839D01*
X154180128Y-86312834D01*
X154198190Y-86293424D01*
X154219163Y-86277100D01*
X154243064Y-86263779D01*
X154270272Y-86253459D01*
X154313997Y-86243972D01*
X154364367Y-86240637D01*
X154402045Y-86242206D01*
G37*
D11*
G36*
X132118889Y-78189000D02*
G01*
X131846314Y-78189000D01*
X131758289Y-78183917D01*
X131686656Y-78169908D01*
X131628646Y-78148424D01*
X131581921Y-78120306D01*
X131542614Y-78082627D01*
X131514374Y-78037053D01*
X131496688Y-77981971D01*
X131490689Y-77918134D01*
X131671436Y-77918134D01*
X131674120Y-77945458D01*
X131682061Y-77970830D01*
X131695070Y-77993761D01*
X131713140Y-78013572D01*
X131735576Y-78029453D01*
X131764004Y-78041965D01*
X131795853Y-78049507D01*
X131834712Y-78052224D01*
X131952193Y-78052224D01*
X131952193Y-77794303D01*
X131847657Y-77794303D01*
X131788628Y-77798658D01*
X131745626Y-77810154D01*
X131714850Y-77827154D01*
X131690798Y-77851767D01*
X131676452Y-77881538D01*
X131671436Y-77918134D01*
X131490689Y-77918134D01*
X131490391Y-77914959D01*
X131493838Y-77873267D01*
X131503702Y-77837046D01*
X131519595Y-77804193D01*
X131539911Y-77776595D01*
X131564686Y-77753347D01*
X131593217Y-77734891D01*
X131624443Y-77721455D01*
X131657087Y-77713337D01*
X131625476Y-77699382D01*
X131599018Y-77681402D01*
X131576408Y-77659408D01*
X131558046Y-77634507D01*
X131543833Y-77606836D01*
X131533805Y-77576377D01*
X131527907Y-77544416D01*
X131527681Y-77540657D01*
X131700806Y-77540657D01*
X131702816Y-77565815D01*
X131708683Y-77588773D01*
X131718989Y-77609717D01*
X131734634Y-77628401D01*
X131754753Y-77643505D01*
X131781101Y-77655512D01*
X131811181Y-77662680D01*
X131850405Y-77665343D01*
X131952193Y-77665343D01*
X131952193Y-77430870D01*
X131850405Y-77430870D01*
X131811670Y-77432990D01*
X131781773Y-77438685D01*
X131755229Y-77448407D01*
X131735306Y-77460667D01*
X131719577Y-77476528D01*
X131708988Y-77495228D01*
X131702921Y-77516371D01*
X131700806Y-77540657D01*
X131527681Y-77540657D01*
X131525928Y-77511470D01*
X131531122Y-77459099D01*
X131545737Y-77416092D01*
X131569199Y-77380492D01*
X131602132Y-77351063D01*
X131640623Y-77329709D01*
X131689880Y-77313073D01*
X131752289Y-77302048D01*
X131830621Y-77298002D01*
X132118889Y-77298002D01*
X132118889Y-78189000D01*
G37*
G36*
X131265993Y-77892000D02*
G01*
X131265993Y-77743501D01*
X130841071Y-77743501D01*
X130841071Y-77892000D01*
X131265993Y-77892000D01*
G37*
G36*
X140910974Y-90465757D02*
G01*
X140944288Y-90474404D01*
X140974916Y-90486323D01*
X141000855Y-90500000D01*
X140998768Y-90552118D01*
X140993235Y-90591542D01*
X140983138Y-90626571D01*
X140969983Y-90652457D01*
X140952240Y-90672988D01*
X140931197Y-90686504D01*
X140906727Y-90694224D01*
X140877366Y-90696958D01*
X140851982Y-90694713D01*
X140829836Y-90688263D01*
X140809970Y-90677614D01*
X140793493Y-90663448D01*
X140780251Y-90645991D01*
X140770241Y-90625248D01*
X140764150Y-90602388D01*
X140762034Y-90576448D01*
X140763736Y-90552033D01*
X140768629Y-90530384D01*
X140777110Y-90510721D01*
X140789096Y-90494383D01*
X140804662Y-90481204D01*
X140824609Y-90470935D01*
X140847454Y-90464741D01*
X140876242Y-90462484D01*
X140910974Y-90465757D01*
G37*
G36*
X142173416Y-90513189D02*
G01*
X142206193Y-90542108D01*
X142218719Y-90558743D01*
X142228322Y-90576790D01*
X142234409Y-90596408D01*
X142236528Y-90619044D01*
X142232808Y-90644650D01*
X142222192Y-90665081D01*
X142204288Y-90681619D01*
X142181797Y-90693125D01*
X142153822Y-90700529D01*
X142119048Y-90703210D01*
X142073667Y-90698374D01*
X142053353Y-90692020D01*
X142036249Y-90683231D01*
X142021739Y-90671504D01*
X142010799Y-90657097D01*
X142003946Y-90640058D01*
X142001518Y-90619044D01*
X142004175Y-90597076D01*
X142011923Y-90577865D01*
X142024005Y-90560557D01*
X142040353Y-90544306D01*
X142082411Y-90515387D01*
X142133214Y-90488618D01*
X142173416Y-90513189D01*
G37*
G36*
X142152872Y-90177320D02*
G01*
X142178728Y-90183934D01*
X142198280Y-90193915D01*
X142213594Y-90208516D01*
X142222837Y-90227116D01*
X142226124Y-90251019D01*
X142223746Y-90270857D01*
X142216842Y-90288046D01*
X142205993Y-90303498D01*
X142191148Y-90318235D01*
X142152607Y-90344076D01*
X142105321Y-90368011D01*
X142068489Y-90344857D01*
X142038692Y-90317844D01*
X142018468Y-90285653D01*
X142012768Y-90267473D01*
X142010799Y-90246867D01*
X142014014Y-90224916D01*
X142023193Y-90207423D01*
X142038692Y-90193280D01*
X142058176Y-90183684D01*
X142084329Y-90177264D01*
X142118999Y-90174864D01*
X142152872Y-90177320D01*
G37*
G36*
X142756277Y-90465757D02*
G01*
X142789592Y-90474404D01*
X142820220Y-90486323D01*
X142846159Y-90500000D01*
X142844072Y-90552118D01*
X142838538Y-90591542D01*
X142828441Y-90626571D01*
X142815286Y-90652457D01*
X142797544Y-90672988D01*
X142776501Y-90686504D01*
X142752030Y-90694224D01*
X142722669Y-90696958D01*
X142697286Y-90694713D01*
X142675140Y-90688263D01*
X142655274Y-90677614D01*
X142638796Y-90663448D01*
X142625554Y-90645991D01*
X142615545Y-90625248D01*
X142609454Y-90602388D01*
X142607338Y-90576448D01*
X142609040Y-90552033D01*
X142613933Y-90530384D01*
X142622413Y-90510721D01*
X142634400Y-90494383D01*
X142649965Y-90481204D01*
X142669913Y-90470935D01*
X142692758Y-90464741D01*
X142721546Y-90462484D01*
X142756277Y-90465757D01*
G37*
G36*
X144347429Y-90909505D02*
G01*
X140523207Y-90909505D01*
X140523207Y-90571466D01*
X140623207Y-90571466D01*
X140623691Y-90576448D01*
X140628269Y-90623570D01*
X140642893Y-90669260D01*
X140666417Y-90710087D01*
X140697261Y-90744438D01*
X140734859Y-90771889D01*
X140780060Y-90792652D01*
X140829719Y-90805168D01*
X140885524Y-90809505D01*
X140947229Y-90804083D01*
X140998423Y-90788836D01*
X141041140Y-90764554D01*
X141076815Y-90731005D01*
X141103703Y-90690560D01*
X141108646Y-90678200D01*
X141253060Y-90678200D01*
X141253060Y-90797000D01*
X141728503Y-90797000D01*
X141728503Y-90678200D01*
X141546542Y-90678200D01*
X141546542Y-90611424D01*
X141867087Y-90611424D01*
X141867923Y-90619044D01*
X141872187Y-90657892D01*
X141886773Y-90697104D01*
X141910142Y-90731113D01*
X141941141Y-90759288D01*
X141978225Y-90780972D01*
X142022572Y-90796951D01*
X142070425Y-90806278D01*
X142123395Y-90809505D01*
X142181600Y-90806114D01*
X142229690Y-90796706D01*
X142273155Y-90780749D01*
X142307310Y-90760412D01*
X142335070Y-90734267D01*
X142354840Y-90703650D01*
X142366829Y-90668891D01*
X142370960Y-90629400D01*
X142368176Y-90594106D01*
X142362215Y-90571466D01*
X142468510Y-90571466D01*
X142468994Y-90576448D01*
X142473572Y-90623570D01*
X142488196Y-90669260D01*
X142511720Y-90710087D01*
X142542565Y-90744438D01*
X142580163Y-90771889D01*
X142625363Y-90792652D01*
X142675023Y-90805168D01*
X142730827Y-90809505D01*
X142792533Y-90804083D01*
X142843726Y-90788836D01*
X142886443Y-90764554D01*
X142922118Y-90731005D01*
X142949006Y-90690560D01*
X142969675Y-90638875D01*
X142983277Y-90573388D01*
X142988259Y-90491012D01*
X142986446Y-90432913D01*
X142981176Y-90379002D01*
X142971496Y-90327171D01*
X142957387Y-90280817D01*
X142937753Y-90237746D01*
X142912593Y-90199288D01*
X142910214Y-90196748D01*
X143084735Y-90196748D01*
X143280374Y-90196748D01*
X143280374Y-90797000D01*
X143418078Y-90797000D01*
X143681225Y-90797000D01*
X143799829Y-90797000D01*
X143812921Y-90393852D01*
X143817854Y-90232945D01*
X143852293Y-90340363D01*
X143931525Y-90584411D01*
X144015691Y-90584411D01*
X144087303Y-90340363D01*
X144117345Y-90232945D01*
X144121155Y-90390579D01*
X144133172Y-90797000D01*
X144247429Y-90797000D01*
X144212453Y-90084201D01*
X144060485Y-90084201D01*
X143997666Y-90287851D01*
X143967624Y-90402596D01*
X143937582Y-90294445D01*
X143871441Y-90084201D01*
X143716738Y-90084201D01*
X143681225Y-90797000D01*
X143418078Y-90797000D01*
X143418078Y-90196748D01*
X143613716Y-90196748D01*
X143613716Y-90084201D01*
X143084735Y-90084201D01*
X143084735Y-90196748D01*
X142910214Y-90196748D01*
X142881204Y-90165780D01*
X142842348Y-90137397D01*
X142797577Y-90115333D01*
X142742893Y-90098123D01*
X142683056Y-90087916D01*
X142609536Y-90084201D01*
X142528106Y-90084201D01*
X142528106Y-90196748D01*
X142623214Y-90196748D01*
X142679711Y-90200048D01*
X142722132Y-90208814D01*
X142759176Y-90223953D01*
X142787150Y-90243399D01*
X142809088Y-90268250D01*
X142824861Y-90298256D01*
X142835075Y-90331950D01*
X142841274Y-90371187D01*
X142842348Y-90384327D01*
X142812644Y-90372091D01*
X142777575Y-90361856D01*
X142740642Y-90355297D01*
X142701323Y-90353064D01*
X142645472Y-90357033D01*
X142599669Y-90368060D01*
X142559004Y-90386695D01*
X142526738Y-90411340D01*
X142501311Y-90442455D01*
X142483018Y-90479972D01*
X142472302Y-90521970D01*
X142468510Y-90571466D01*
X142362215Y-90571466D01*
X142360311Y-90564236D01*
X142347644Y-90536798D01*
X142331099Y-90512115D01*
X142311112Y-90489904D01*
X142288161Y-90470056D01*
X142236528Y-90435667D01*
X142282690Y-90404599D01*
X142303037Y-90386523D01*
X142320695Y-90366399D01*
X142335303Y-90343987D01*
X142346633Y-90318919D01*
X142353707Y-90291582D01*
X142356207Y-90259421D01*
X142352423Y-90221671D01*
X142341211Y-90186588D01*
X142322620Y-90154758D01*
X142296368Y-90126797D01*
X142263629Y-90104365D01*
X142221483Y-90086448D01*
X142174179Y-90075623D01*
X142115726Y-90071696D01*
X142061659Y-90074787D01*
X142016270Y-90083420D01*
X141975095Y-90098107D01*
X141942802Y-90116979D01*
X141916332Y-90141187D01*
X141897422Y-90169100D01*
X141885804Y-90200667D01*
X141881839Y-90235974D01*
X141882641Y-90246867D01*
X141884252Y-90268759D01*
X141891120Y-90297083D01*
X141902135Y-90323225D01*
X141916277Y-90346469D01*
X141933534Y-90367385D01*
X141953988Y-90386330D01*
X142000443Y-90419302D01*
X141949348Y-90451787D01*
X141926477Y-90470931D01*
X141906703Y-90492722D01*
X141890390Y-90517267D01*
X141877736Y-90545136D01*
X141869870Y-90575545D01*
X141867087Y-90611424D01*
X141546542Y-90611424D01*
X141546542Y-90218828D01*
X141705007Y-90306169D01*
X141748727Y-90196748D01*
X141521972Y-90077949D01*
X141409913Y-90077949D01*
X141409913Y-90678200D01*
X141253060Y-90678200D01*
X141108646Y-90678200D01*
X141124372Y-90638875D01*
X141137973Y-90573388D01*
X141142956Y-90491012D01*
X141141142Y-90432913D01*
X141135872Y-90379002D01*
X141126192Y-90327171D01*
X141112083Y-90280817D01*
X141092449Y-90237746D01*
X141067289Y-90199288D01*
X141035901Y-90165780D01*
X140997045Y-90137397D01*
X140952274Y-90115333D01*
X140897589Y-90098123D01*
X140837753Y-90087916D01*
X140764233Y-90084201D01*
X140682802Y-90084201D01*
X140682802Y-90196748D01*
X140777910Y-90196748D01*
X140834407Y-90200048D01*
X140876829Y-90208814D01*
X140913873Y-90223953D01*
X140941846Y-90243399D01*
X140963785Y-90268250D01*
X140979557Y-90298256D01*
X140989772Y-90331950D01*
X140995970Y-90371187D01*
X140997045Y-90384327D01*
X140967341Y-90372091D01*
X140932272Y-90361856D01*
X140895338Y-90355297D01*
X140856019Y-90353064D01*
X140800169Y-90357033D01*
X140754365Y-90368060D01*
X140713701Y-90386695D01*
X140681434Y-90411340D01*
X140656008Y-90442455D01*
X140637715Y-90479972D01*
X140626998Y-90521970D01*
X140623207Y-90571466D01*
X140523207Y-90571466D01*
X140523207Y-89971696D01*
X144347429Y-89971696D01*
X144347429Y-90909505D01*
G37*
D10*
G36*
X154271371Y-98838618D02*
G01*
X154239413Y-98841791D01*
X154211715Y-98850921D01*
X154187424Y-98866310D01*
X154166621Y-98888657D01*
X154150604Y-98916427D01*
X154138076Y-98952710D01*
X154130836Y-98993095D01*
X154128184Y-99043537D01*
X154128764Y-99067992D01*
X154130321Y-99093424D01*
X154132672Y-99118031D01*
X154136000Y-99139525D01*
X154208295Y-99139525D01*
X154201243Y-99091195D01*
X154198526Y-99035355D01*
X154199804Y-99007997D01*
X154203258Y-98986507D01*
X154209291Y-98967227D01*
X154216966Y-98952710D01*
X154227126Y-98941008D01*
X154239131Y-98933048D01*
X154252963Y-98928357D01*
X154268929Y-98926728D01*
X154283027Y-98928384D01*
X154295521Y-98933231D01*
X154306371Y-98941240D01*
X154315793Y-98953045D01*
X154322959Y-98967539D01*
X154328738Y-98987026D01*
X154332104Y-99008646D01*
X154333348Y-99036027D01*
X154333348Y-99085547D01*
X154397828Y-99085547D01*
X154397828Y-99040118D01*
X154399281Y-99014672D01*
X154403110Y-98995910D01*
X154409551Y-98979556D01*
X154417215Y-98967883D01*
X154426950Y-98958912D01*
X154438128Y-98953045D01*
X154450469Y-98949710D01*
X154463499Y-98948588D01*
X154480803Y-98950724D01*
X154494276Y-98956680D01*
X154504837Y-98966357D01*
X154512155Y-98979017D01*
X154517098Y-98996802D01*
X154518972Y-99021342D01*
X154517635Y-99047815D01*
X154513629Y-99073946D01*
X154499433Y-99127557D01*
X154569775Y-99127557D01*
X154578659Y-99098187D01*
X154584674Y-99070190D01*
X154588246Y-99041828D01*
X154589314Y-99012122D01*
X154587219Y-98976480D01*
X154581437Y-98947397D01*
X154571649Y-98921211D01*
X154559059Y-98900594D01*
X154542853Y-98883917D01*
X154523643Y-98872079D01*
X154501912Y-98864978D01*
X154477146Y-98862523D01*
X154450588Y-98864800D01*
X154428973Y-98871145D01*
X154411322Y-98881146D01*
X154396174Y-98894886D01*
X154383363Y-98912072D01*
X154372854Y-98933231D01*
X154368110Y-98912446D01*
X154361069Y-98894305D01*
X154351421Y-98877998D01*
X154339545Y-98864416D01*
X154325423Y-98853400D01*
X154309290Y-98845273D01*
X154291580Y-98840335D01*
X154271371Y-98838618D01*
G37*
G36*
X154263006Y-98612327D02*
G01*
X154261647Y-98598383D01*
X154257663Y-98585704D01*
X154251359Y-98574162D01*
X154243222Y-98564363D01*
X154233356Y-98556318D01*
X154221729Y-98550167D01*
X154209013Y-98546336D01*
X154195259Y-98545038D01*
X154181818Y-98546332D01*
X154169278Y-98550167D01*
X154157799Y-98556305D01*
X154147937Y-98564363D01*
X154139824Y-98574160D01*
X154133527Y-98585704D01*
X154129542Y-98598383D01*
X154128184Y-98612327D01*
X154129533Y-98625617D01*
X154133527Y-98637942D01*
X154139811Y-98649176D01*
X154147937Y-98658794D01*
X154157784Y-98666682D01*
X154169278Y-98672777D01*
X154181818Y-98676611D01*
X154195259Y-98677906D01*
X154209013Y-98676607D01*
X154221729Y-98672777D01*
X154233372Y-98666670D01*
X154243222Y-98658794D01*
X154251373Y-98649173D01*
X154257663Y-98637942D01*
X154261657Y-98625617D01*
X154263006Y-98612327D01*
G37*
G36*
X154271371Y-98069741D02*
G01*
X154239413Y-98072914D01*
X154211715Y-98082045D01*
X154187424Y-98097434D01*
X154166621Y-98119780D01*
X154150604Y-98147550D01*
X154138076Y-98183833D01*
X154130836Y-98224219D01*
X154128184Y-98274661D01*
X154128764Y-98299116D01*
X154130321Y-98324547D01*
X154132672Y-98349155D01*
X154136000Y-98370648D01*
X154208295Y-98370648D01*
X154201243Y-98322319D01*
X154198526Y-98266479D01*
X154199804Y-98239120D01*
X154203258Y-98217630D01*
X154209291Y-98198351D01*
X154216966Y-98183833D01*
X154227126Y-98172131D01*
X154239131Y-98164172D01*
X154252963Y-98159480D01*
X154268929Y-98157852D01*
X154283027Y-98159508D01*
X154295521Y-98164355D01*
X154306371Y-98172363D01*
X154315793Y-98184169D01*
X154322959Y-98198662D01*
X154328738Y-98218149D01*
X154332104Y-98239769D01*
X154333348Y-98267150D01*
X154333348Y-98316671D01*
X154397828Y-98316671D01*
X154397828Y-98271241D01*
X154399281Y-98245796D01*
X154403110Y-98227034D01*
X154409551Y-98210680D01*
X154417215Y-98199007D01*
X154426950Y-98190035D01*
X154438128Y-98184169D01*
X154450469Y-98180834D01*
X154463499Y-98179711D01*
X154480803Y-98181847D01*
X154494276Y-98187804D01*
X154504837Y-98197480D01*
X154512155Y-98210140D01*
X154517098Y-98227925D01*
X154518972Y-98252465D01*
X154517635Y-98278939D01*
X154513629Y-98305069D01*
X154499433Y-98358680D01*
X154569775Y-98358680D01*
X154578659Y-98329310D01*
X154584674Y-98301314D01*
X154588246Y-98272951D01*
X154589314Y-98243245D01*
X154587219Y-98207603D01*
X154581437Y-98178521D01*
X154571649Y-98152335D01*
X154559059Y-98131718D01*
X154542853Y-98115040D01*
X154523643Y-98103202D01*
X154501912Y-98096102D01*
X154477146Y-98093646D01*
X154450588Y-98095923D01*
X154428973Y-98102268D01*
X154411322Y-98112270D01*
X154396174Y-98126009D01*
X154383363Y-98143195D01*
X154372854Y-98164355D01*
X154368110Y-98143570D01*
X154361069Y-98125428D01*
X154351421Y-98109122D01*
X154339545Y-98095539D01*
X154325423Y-98084523D01*
X154309290Y-98076397D01*
X154291580Y-98071459D01*
X154271371Y-98069741D01*
G37*
G36*
X154136000Y-97786053D02*
G01*
X154136000Y-97897397D01*
X154581498Y-98033685D01*
X154581498Y-97938400D01*
X154313228Y-97862898D01*
X154225301Y-97838657D01*
X154318357Y-97813378D01*
X154581498Y-97738578D01*
X154581498Y-97649094D01*
X154136000Y-97786053D01*
G37*
G36*
X154325532Y-100262643D02*
G01*
X154393920Y-100262643D01*
X154393920Y-100103824D01*
X154156150Y-100103824D01*
X154143718Y-100135226D01*
X154135023Y-100168060D01*
X154129955Y-100202326D01*
X154128184Y-100240784D01*
X154129863Y-100271505D01*
X154134706Y-100299223D01*
X154142502Y-100324315D01*
X154153694Y-100347937D01*
X154167863Y-100368849D01*
X154185123Y-100387329D01*
X154205056Y-100402970D01*
X154228336Y-100416248D01*
X154255404Y-100427110D01*
X154283697Y-100434562D01*
X154315920Y-100439281D01*
X154352612Y-100440941D01*
X154389481Y-100439225D01*
X154422533Y-100434302D01*
X154452202Y-100426439D01*
X154480575Y-100415015D01*
X154505280Y-100400890D01*
X154526727Y-100384093D01*
X154545355Y-100364269D01*
X154560844Y-100341601D01*
X154573286Y-100315766D01*
X154581990Y-100288334D01*
X154587422Y-100257697D01*
X154589314Y-100223381D01*
X154587975Y-100192898D01*
X154584002Y-100163450D01*
X154569775Y-100105198D01*
X154487709Y-100105198D01*
X154498460Y-100131378D01*
X154507371Y-100161038D01*
X154513147Y-100191780D01*
X154515064Y-100222679D01*
X154512197Y-100252882D01*
X154504073Y-100278214D01*
X154490757Y-100300363D01*
X154472871Y-100318514D01*
X154450862Y-100332505D01*
X154423168Y-100343091D01*
X154392623Y-100349262D01*
X154356703Y-100351456D01*
X154321989Y-100349755D01*
X154292407Y-100344984D01*
X154265420Y-100336257D01*
X154243741Y-100323979D01*
X154226075Y-100307404D01*
X154213058Y-100286579D01*
X154205271Y-100262139D01*
X154202434Y-100230892D01*
X154202953Y-100217245D01*
X154204510Y-100206315D01*
X154206922Y-100196576D01*
X154210036Y-100186836D01*
X154325532Y-100186836D01*
X154325532Y-100262643D01*
G37*
G36*
X154136000Y-99819800D02*
G01*
X154401858Y-99939357D01*
X154459133Y-99963934D01*
X154274394Y-99963934D01*
X154136000Y-99963934D01*
X154136000Y-100040443D01*
X154581498Y-100040443D01*
X154581498Y-99937312D01*
X154313930Y-99815374D01*
X154261785Y-99793850D01*
X154458461Y-99793850D01*
X154581498Y-99793850D01*
X154581498Y-99717341D01*
X154136000Y-99717341D01*
X154136000Y-99819800D01*
G37*
G36*
X154402045Y-99323206D02*
G01*
X154434309Y-99327610D01*
X154461850Y-99334459D01*
X154488176Y-99344718D01*
X154510508Y-99357539D01*
X154529353Y-99372867D01*
X154545352Y-99391108D01*
X154558461Y-99412325D01*
X154568706Y-99436919D01*
X154578103Y-99477175D01*
X154581498Y-99526556D01*
X154581498Y-99658753D01*
X154136000Y-99658753D01*
X154136000Y-99545363D01*
X154136377Y-99537853D01*
X154206341Y-99537853D01*
X154206341Y-99574733D01*
X154511157Y-99574733D01*
X154511157Y-99532021D01*
X154508391Y-99499197D01*
X154500929Y-99474319D01*
X154488277Y-99453308D01*
X154471131Y-99437255D01*
X154449941Y-99425639D01*
X154423290Y-99417594D01*
X154394010Y-99413330D01*
X154358932Y-99411793D01*
X154318522Y-99414241D01*
X154286800Y-99420887D01*
X154262122Y-99430923D01*
X154243131Y-99443911D01*
X154227519Y-99461128D01*
X154216124Y-99481974D01*
X154208917Y-99507204D01*
X154206341Y-99537853D01*
X154136377Y-99537853D01*
X154137970Y-99506148D01*
X154143513Y-99472591D01*
X154152181Y-99443911D01*
X154164794Y-99416839D01*
X154180128Y-99393834D01*
X154198190Y-99374424D01*
X154219163Y-99358100D01*
X154243064Y-99344779D01*
X154270272Y-99334459D01*
X154313997Y-99324972D01*
X154364367Y-99321637D01*
X154402045Y-99323206D01*
G37*
G36*
X154155539Y-92875083D02*
G01*
X154144158Y-92904785D01*
X154136396Y-92932632D01*
X154131722Y-92960846D01*
X154130138Y-92990518D01*
X154131824Y-93022405D01*
X154136646Y-93050665D01*
X154144334Y-93075759D01*
X154155456Y-93099392D01*
X154169499Y-93120132D01*
X154186558Y-93138285D01*
X154206276Y-93153569D01*
X154229310Y-93166451D01*
X154256106Y-93176875D01*
X154284104Y-93183937D01*
X154316122Y-93188422D01*
X154352704Y-93190003D01*
X154390142Y-93188296D01*
X154423434Y-93183414D01*
X154453057Y-93175654D01*
X154481459Y-93164426D01*
X154506044Y-93150750D01*
X154527246Y-93134682D01*
X154545806Y-93115680D01*
X154561148Y-93094195D01*
X154573408Y-93069958D01*
X154582091Y-93044108D01*
X154587459Y-93015714D01*
X154589314Y-92984381D01*
X154588643Y-92955530D01*
X154586139Y-92929060D01*
X154581346Y-92902774D01*
X154573683Y-92875083D01*
X154489663Y-92875083D01*
X154501645Y-92904062D01*
X154509233Y-92930434D01*
X154513691Y-92956231D01*
X154515064Y-92978245D01*
X154512035Y-93008480D01*
X154503616Y-93032558D01*
X154489891Y-93053091D01*
X154471559Y-93069622D01*
X154449415Y-93082009D01*
X154422435Y-93090963D01*
X154393151Y-93096002D01*
X154359848Y-93097771D01*
X154324740Y-93095927D01*
X154295215Y-93090780D01*
X154268379Y-93081603D01*
X154246947Y-93069072D01*
X154229543Y-93052387D01*
X154216752Y-93031520D01*
X154209093Y-93007257D01*
X154206341Y-92977207D01*
X154208601Y-92952782D01*
X154214585Y-92926160D01*
X154223347Y-92899507D01*
X154233697Y-92875083D01*
X154155539Y-92875083D01*
G37*
G36*
X154581498Y-92582510D02*
G01*
X154581498Y-92700021D01*
X154136000Y-92832187D01*
X154136000Y-92748840D01*
X154223927Y-92723591D01*
X154223927Y-92703441D01*
X154292315Y-92703441D01*
X154501143Y-92644670D01*
X154292315Y-92586601D01*
X154292315Y-92703441D01*
X154223927Y-92703441D01*
X154223927Y-92567825D01*
X154136000Y-92543248D01*
X154136000Y-92450344D01*
X154581498Y-92582510D01*
G37*
G36*
X154136000Y-92196362D02*
G01*
X154401858Y-92315919D01*
X154459133Y-92340496D01*
X154274394Y-92340496D01*
X154136000Y-92340496D01*
X154136000Y-92417005D01*
X154581498Y-92417005D01*
X154581498Y-92313874D01*
X154313930Y-92191935D01*
X154261785Y-92170411D01*
X154458461Y-92170411D01*
X154581498Y-92170411D01*
X154581498Y-92093902D01*
X154136000Y-92093902D01*
X154136000Y-92196362D01*
G37*
G36*
X154136000Y-91796567D02*
G01*
X154329440Y-91796567D01*
X154329440Y-91948211D01*
X154136000Y-91948211D01*
X154136000Y-92032231D01*
X154581498Y-92032231D01*
X154581498Y-91948211D01*
X154401736Y-91948211D01*
X154401736Y-91796567D01*
X154581498Y-91796567D01*
X154581498Y-91712548D01*
X154136000Y-91712548D01*
X154136000Y-91796567D01*
G37*
D13*
%TO.C,U1*%
X145745900Y-77696000D02*
X145745900Y-78346000D01*
X145745900Y-78996000D02*
X145745900Y-78346000D01*
X148865900Y-77696000D02*
X148865900Y-78346000D01*
X148865900Y-78996000D02*
X148865900Y-78346000D01*
X145795900Y-77183500D02*
X145465900Y-77423500D01*
X145465900Y-76943500D01*
X145795900Y-77183500D01*
G36*
X145795900Y-77183500D02*
G01*
X145465900Y-77423500D01*
X145465900Y-76943500D01*
X145795900Y-77183500D01*
G37*
%TO.C,L1*%
X143568158Y-102328000D02*
X145238642Y-102328000D01*
X143568158Y-104148000D02*
X145238642Y-104148000D01*
%TO.C,Y1*%
X153034000Y-91388000D02*
X149734000Y-91388000D01*
X153034000Y-95388000D02*
X153034000Y-91388000D01*
%TO.C,C23*%
X139258500Y-103658580D02*
X139258500Y-103377420D01*
X140278500Y-103658580D02*
X140278500Y-103377420D01*
%TO.C,J3*%
X154880000Y-94167200D02*
X155680000Y-94167200D01*
X155680000Y-91067200D02*
X155680000Y-92267200D01*
X155680000Y-91067200D02*
X157530000Y-91067200D01*
X155680000Y-94167200D02*
X155680000Y-95267200D01*
X155680000Y-95267200D02*
X157530000Y-95267200D01*
X160130000Y-92367200D02*
X160130000Y-93967200D01*
%TO.C,C12*%
X150594600Y-87337020D02*
X150594600Y-87618180D01*
X151614600Y-87337020D02*
X151614600Y-87618180D01*
%TO.C,R18*%
X150036300Y-103755258D02*
X150036300Y-103280742D01*
X151081300Y-103755258D02*
X151081300Y-103280742D01*
%TO.C,R1*%
X148389100Y-95499542D02*
X148389100Y-95974058D01*
X149434100Y-95499542D02*
X149434100Y-95974058D01*
%TO.C,C4*%
X144320800Y-77774220D02*
X144320800Y-78055380D01*
X145340800Y-77774220D02*
X145340800Y-78055380D01*
%TO.C,TH1*%
X142047700Y-83873058D02*
X142047700Y-83398542D01*
X143092700Y-83873058D02*
X143092700Y-83398542D01*
%TO.C,R11*%
X151616142Y-89241100D02*
X152090658Y-89241100D01*
X151616142Y-90286100D02*
X152090658Y-90286100D01*
D11*
%TO.C,IC3*%
X140919400Y-91205600D02*
X144119400Y-91205600D01*
X140919400Y-96105600D02*
X140919400Y-91205600D01*
X144119400Y-91205600D02*
X144119400Y-96105600D01*
X144119400Y-96105600D02*
X140919400Y-96105600D01*
X144469400Y-91050600D02*
X145994400Y-91050600D01*
D13*
%TO.C,R2*%
X142047700Y-86395742D02*
X142047700Y-86870258D01*
X143092700Y-86395742D02*
X143092700Y-86870258D01*
%TO.C,R15*%
X149102400Y-84445464D02*
X149102400Y-82991336D01*
X150922400Y-84445464D02*
X150922400Y-82991336D01*
%TO.C,D4*%
X133909800Y-103537000D02*
X133909800Y-109047000D01*
X133909800Y-109047000D02*
X137209800Y-109047000D01*
X137209800Y-103537000D02*
X137209800Y-109047000D01*
%TO.C,C29*%
X138028000Y-78028748D02*
X138028000Y-79451252D01*
X139848000Y-78028748D02*
X139848000Y-79451252D01*
%TO.C,D1*%
X150457000Y-110717000D02*
X152742000Y-110717000D01*
X152742000Y-109247000D02*
X150457000Y-109247000D01*
X152742000Y-110717000D02*
X152742000Y-109247000D01*
%TO.C,R16*%
X134268800Y-84445464D02*
X134268800Y-82991336D01*
X136088800Y-84445464D02*
X136088800Y-82991336D01*
%TO.C,C27*%
X135691200Y-78028748D02*
X135691200Y-79451252D01*
X137511200Y-78028748D02*
X137511200Y-79451252D01*
D11*
%TO.C,IC4*%
X147352800Y-105280800D02*
X147952800Y-105280800D01*
X147352800Y-108180800D02*
X147352800Y-105280800D01*
X147952800Y-105280800D02*
X147952800Y-108180800D01*
X147952800Y-108180800D02*
X147352800Y-108180800D01*
X148302800Y-105130800D02*
X149502800Y-105130800D01*
D13*
%TO.C,R19*%
X143296142Y-107165500D02*
X143770658Y-107165500D01*
X143296142Y-108210500D02*
X143770658Y-108210500D01*
%TO.C,C31*%
X134448000Y-93458420D02*
X134448000Y-93739580D01*
X135468000Y-93458420D02*
X135468000Y-93739580D01*
%TO.C,C6*%
X151744580Y-95976800D02*
X151463420Y-95976800D01*
X151744580Y-96996800D02*
X151463420Y-96996800D01*
%TO.C,C28*%
X140364800Y-78028748D02*
X140364800Y-79451252D01*
X142184800Y-78028748D02*
X142184800Y-79451252D01*
%TO.C,C2*%
X148401600Y-92627420D02*
X148401600Y-92908580D01*
X149421600Y-92627420D02*
X149421600Y-92908580D01*
%TO.C,C1*%
X142822200Y-77774220D02*
X142822200Y-78055380D01*
X143842200Y-77774220D02*
X143842200Y-78055380D01*
%TO.C,C17*%
X144361780Y-96772000D02*
X144080620Y-96772000D01*
X144361780Y-97792000D02*
X144080620Y-97792000D01*
%TO.C,D5*%
X125803800Y-99018200D02*
X125803800Y-103318200D01*
X131613800Y-99018200D02*
X125803800Y-99018200D01*
X131613800Y-103318200D02*
X125803800Y-103318200D01*
%TO.C,C8*%
X149223000Y-78055380D02*
X149223000Y-77774220D01*
X150243000Y-78055380D02*
X150243000Y-77774220D01*
%TO.C,C26*%
X150635580Y-80135000D02*
X150354420Y-80135000D01*
X150635580Y-81155000D02*
X150354420Y-81155000D01*
%TO.C,C14*%
X149121400Y-87337020D02*
X149121400Y-87618180D01*
X150141400Y-87337020D02*
X150141400Y-87618180D01*
%TO.C,C10*%
X150747000Y-78055380D02*
X150747000Y-77774220D01*
X151767000Y-78055380D02*
X151767000Y-77774220D01*
D11*
%TO.C,IC2*%
X141645000Y-87113400D02*
X141645000Y-88638400D01*
D13*
%TO.C,J1*%
X154980000Y-88317200D02*
X155580000Y-88317200D01*
X155580000Y-84217200D02*
X155580000Y-85417200D01*
X155580000Y-88317200D02*
X155580000Y-89417200D01*
X155580000Y-89417200D02*
X157480000Y-89417200D01*
X157480000Y-84217200D02*
X155580000Y-84217200D01*
X160130000Y-85517200D02*
X160130000Y-88117200D01*
%TO.C,J2*%
X154980000Y-102025200D02*
X155580000Y-102025200D01*
X155580000Y-96925200D02*
X157580000Y-96925200D01*
X155580000Y-98025200D02*
X155580000Y-96925200D01*
X155580000Y-102025200D02*
X155580000Y-103125200D01*
X155580000Y-103125200D02*
X157580000Y-103125200D01*
X160130000Y-98225200D02*
X160130000Y-101825200D01*
%TO.C,JP1*%
X126235000Y-97963000D02*
X126235000Y-97363000D01*
X126935000Y-96663000D02*
X128335000Y-96663000D01*
X128335000Y-98663000D02*
X126935000Y-98663000D01*
X129035000Y-97363000D02*
X129035000Y-97963000D01*
X126235000Y-97363000D02*
G75*
G02*
X126935000Y-96663000I699999J1D01*
G01*
X126935000Y-98663000D02*
G75*
G02*
X126235000Y-97963000I-1J699999D01*
G01*
X128335000Y-96663000D02*
G75*
G02*
X129035000Y-97363000I0J-700000D01*
G01*
X129035000Y-97963000D02*
G75*
G02*
X128335000Y-98663000I-700000J0D01*
G01*
%TO.C,C21*%
X140828500Y-103658580D02*
X140828500Y-103377420D01*
X141848500Y-103658580D02*
X141848500Y-103377420D01*
%TO.C,R12*%
X133549658Y-89241100D02*
X133075142Y-89241100D01*
X133549658Y-90286100D02*
X133075142Y-90286100D01*
%TO.C,R8*%
X148573258Y-109459500D02*
X148098742Y-109459500D01*
X148573258Y-110504500D02*
X148098742Y-110504500D01*
%TO.C,C30*%
X133303600Y-78028748D02*
X133303600Y-79451252D01*
X135123600Y-78028748D02*
X135123600Y-79451252D01*
%TO.C,R17*%
X150036300Y-107298258D02*
X150036300Y-106823742D01*
X151081300Y-107298258D02*
X151081300Y-106823742D01*
%TO.C,R22*%
X131555858Y-97140500D02*
X131081342Y-97140500D01*
X131555858Y-98185500D02*
X131081342Y-98185500D01*
%TO.C,R14*%
X136546858Y-89241100D02*
X136072342Y-89241100D01*
X136546858Y-90286100D02*
X136072342Y-90286100D01*
D11*
%TO.C,IC1*%
X148680800Y-87113400D02*
X148680800Y-88638400D01*
D13*
%TO.C,C18*%
X151547400Y-103658580D02*
X151547400Y-103377420D01*
X152567400Y-103658580D02*
X152567400Y-103377420D01*
%TO.C,C32*%
X132967000Y-93458420D02*
X132967000Y-93739580D01*
X133987000Y-93458420D02*
X133987000Y-93739580D01*
%TO.C,R13*%
X148645342Y-89241100D02*
X149119858Y-89241100D01*
X148645342Y-90286100D02*
X149119858Y-90286100D01*
%TO.C,C19*%
X148132220Y-102258000D02*
X148413380Y-102258000D01*
X148132220Y-103278000D02*
X148413380Y-103278000D01*
%TO.C,C15*%
X135049800Y-87643580D02*
X135049800Y-87362420D01*
X136069800Y-87643580D02*
X136069800Y-87362420D01*
%TO.C,C22*%
X139057248Y-105236600D02*
X140479752Y-105236600D01*
X139057248Y-107056600D02*
X140479752Y-107056600D01*
%TO.C,C13*%
X133551200Y-87362420D02*
X133551200Y-87643580D01*
X134571200Y-87362420D02*
X134571200Y-87643580D01*
%TO.C,C16*%
X141083420Y-96772000D02*
X141364580Y-96772000D01*
X141083420Y-97792000D02*
X141364580Y-97792000D01*
D14*
%TO.C,U3*%
X127485000Y-92605200D02*
X127485000Y-92351200D01*
X127485000Y-93875200D02*
X127485000Y-93621200D01*
X127485000Y-95145200D02*
X127485000Y-94891200D01*
X127595000Y-91348200D02*
X130795000Y-91348200D01*
X130795000Y-91348200D02*
X130795000Y-96148200D01*
X130795000Y-96148200D02*
X127595000Y-96148200D01*
X131195000Y-91348200D02*
X130795000Y-91348200D01*
X131195000Y-96148200D02*
X130795000Y-96148200D01*
X131295000Y-92605200D02*
X131295000Y-92351200D01*
X131295000Y-93875200D02*
X131295000Y-93621200D01*
X131295000Y-95145200D02*
X131295000Y-94891200D01*
D11*
X130384000Y-91843200D02*
G75*
G02*
X130184000Y-91843200I-100000J0D01*
G01*
X130184000Y-91843200D02*
G75*
G02*
X130384000Y-91843200I100000J0D01*
G01*
D13*
%TO.C,C24*%
X137688500Y-103658580D02*
X137688500Y-103377420D01*
X138708500Y-103658580D02*
X138708500Y-103377420D01*
%TO.C,C20*%
X148132220Y-103680800D02*
X148413380Y-103680800D01*
X148132220Y-104700800D02*
X148413380Y-104700800D01*
%TO.C,J7*%
X124959600Y-88709400D02*
X124959600Y-87109400D01*
X129409600Y-85809400D02*
X127559600Y-85809400D01*
X129409600Y-86909400D02*
X129409600Y-85809400D01*
X129409600Y-90009400D02*
X127559600Y-90009400D01*
X129409600Y-90009400D02*
X129409600Y-88809400D01*
X130209600Y-86909400D02*
X129409600Y-86909400D01*
%TO.C,D2*%
X142733400Y-106370000D02*
X145418400Y-106370000D01*
X145418400Y-104450000D02*
X142733400Y-104450000D01*
X145418400Y-106370000D02*
X145418400Y-104450000D01*
%TO.C,D3*%
X139348500Y-109240200D02*
X142033500Y-109240200D01*
X142033500Y-107320200D02*
X139348500Y-107320200D01*
X142033500Y-109240200D02*
X142033500Y-107320200D01*
%TD*%
M02*
