%TF.GenerationSoftware,KiCad,Pcbnew,9.0.6*%
%TF.CreationDate,2026-03-07T10:39:48+08:00*%
%TF.ProjectId,Motor35,4d6f746f-7233-4352-9e6b-696361645f70,rev?*%
%TF.SameCoordinates,Original*%
%TF.FileFunction,Copper,L4,Bot*%
%TF.FilePolarity,Positive*%
%FSLAX46Y46*%
G04 Gerber Fmt 4.6, Leading zero omitted, Abs format (unit mm)*
G04 Created by KiCad (PCBNEW 9.0.6) date 2026-03-07 10:39:48*
%MOMM*%
%LPD*%
G01*
G04 APERTURE LIST*
G04 Aperture macros list*
%AMRoundRect*
0 Rectangle with rounded corners*
0 $1 Rounding radius*
0 $2 $3 $4 $5 $6 $7 $8 $9 X,Y pos of 4 corners*
0 Add a 4 corners polygon primitive as box body*
4,1,4,$2,$3,$4,$5,$6,$7,$8,$9,$2,$3,0*
0 Add four circle primitives for the rounded corners*
1,1,$1+$1,$2,$3*
1,1,$1+$1,$4,$5*
1,1,$1+$1,$6,$7*
1,1,$1+$1,$8,$9*
0 Add four rect primitives between the rounded corners*
20,1,$1+$1,$2,$3,$4,$5,0*
20,1,$1+$1,$4,$5,$6,$7,0*
20,1,$1+$1,$6,$7,$8,$9,0*
20,1,$1+$1,$8,$9,$2,$3,0*%
%AMFreePoly0*
4,1,23,0.500000,-0.750000,0.000000,-0.750000,0.000000,-0.745722,-0.065263,-0.745722,-0.191342,-0.711940,-0.304381,-0.646677,-0.396677,-0.554381,-0.461940,-0.441342,-0.495722,-0.315263,-0.495722,-0.250000,-0.500000,-0.250000,-0.500000,0.250000,-0.495722,0.250000,-0.495722,0.315263,-0.461940,0.441342,-0.396677,0.554381,-0.304381,0.646677,-0.191342,0.711940,-0.065263,0.745722,0.000000,0.745722,
0.000000,0.750000,0.500000,0.750000,0.500000,-0.750000,0.500000,-0.750000,$1*%
%AMFreePoly1*
4,1,23,0.000000,0.745722,0.065263,0.745722,0.191342,0.711940,0.304381,0.646677,0.396677,0.554381,0.461940,0.441342,0.495722,0.315263,0.495722,0.250000,0.500000,0.250000,0.500000,-0.250000,0.495722,-0.250000,0.495722,-0.315263,0.461940,-0.441342,0.396677,-0.554381,0.304381,-0.646677,0.191342,-0.711940,0.065263,-0.745722,0.000000,-0.745722,0.000000,-0.750000,-0.500000,-0.750000,
-0.500000,0.750000,0.000000,0.750000,0.000000,0.745722,0.000000,0.745722,$1*%
G04 Aperture macros list end*
%TA.AperFunction,SMDPad,CuDef*%
%ADD10RoundRect,0.150000X-0.150000X0.587500X-0.150000X-0.587500X0.150000X-0.587500X0.150000X0.587500X0*%
%TD*%
%TA.AperFunction,SMDPad,CuDef*%
%ADD11RoundRect,0.250000X0.275000X0.700000X-0.275000X0.700000X-0.275000X-0.700000X0.275000X-0.700000X0*%
%TD*%
%TA.AperFunction,SMDPad,CuDef*%
%ADD12R,1.200000X1.400000*%
%TD*%
%TA.AperFunction,SMDPad,CuDef*%
%ADD13RoundRect,0.225000X-0.250000X0.225000X-0.250000X-0.225000X0.250000X-0.225000X0.250000X0.225000X0*%
%TD*%
%TA.AperFunction,SMDPad,CuDef*%
%ADD14RoundRect,0.100000X0.750000X-0.150000X0.750000X0.150000X-0.750000X0.150000X-0.750000X-0.150000X0*%
%TD*%
%TA.AperFunction,SMDPad,CuDef*%
%ADD15RoundRect,0.200000X1.050000X-0.400000X1.050000X0.400000X-1.050000X0.400000X-1.050000X-0.400000X0*%
%TD*%
%TA.AperFunction,SMDPad,CuDef*%
%ADD16RoundRect,0.225000X0.250000X-0.225000X0.250000X0.225000X-0.250000X0.225000X-0.250000X-0.225000X0*%
%TD*%
%TA.AperFunction,SMDPad,CuDef*%
%ADD17RoundRect,0.200000X-0.275000X0.200000X-0.275000X-0.200000X0.275000X-0.200000X0.275000X0.200000X0*%
%TD*%
%TA.AperFunction,SMDPad,CuDef*%
%ADD18RoundRect,0.200000X0.275000X-0.200000X0.275000X0.200000X-0.275000X0.200000X-0.275000X-0.200000X0*%
%TD*%
%TA.AperFunction,SMDPad,CuDef*%
%ADD19RoundRect,0.200000X0.200000X0.275000X-0.200000X0.275000X-0.200000X-0.275000X0.200000X-0.275000X0*%
%TD*%
%TA.AperFunction,SMDPad,CuDef*%
%ADD20R,1.525000X0.700000*%
%TD*%
%TA.AperFunction,SMDPad,CuDef*%
%ADD21RoundRect,0.250000X-0.625000X0.312500X-0.625000X-0.312500X0.625000X-0.312500X0.625000X0.312500X0*%
%TD*%
%TA.AperFunction,SMDPad,CuDef*%
%ADD22RoundRect,0.250000X0.650000X-1.000000X0.650000X1.000000X-0.650000X1.000000X-0.650000X-1.000000X0*%
%TD*%
%TA.AperFunction,SMDPad,CuDef*%
%ADD23RoundRect,0.250000X0.650000X-0.325000X0.650000X0.325000X-0.650000X0.325000X-0.650000X-0.325000X0*%
%TD*%
%TA.AperFunction,SMDPad,CuDef*%
%ADD24RoundRect,0.218750X0.218750X0.256250X-0.218750X0.256250X-0.218750X-0.256250X0.218750X-0.256250X0*%
%TD*%
%TA.AperFunction,SMDPad,CuDef*%
%ADD25R,1.200000X0.600000*%
%TD*%
%TA.AperFunction,SMDPad,CuDef*%
%ADD26RoundRect,0.225000X-0.225000X-0.250000X0.225000X-0.250000X0.225000X0.250000X-0.225000X0.250000X0*%
%TD*%
%TA.AperFunction,SMDPad,CuDef*%
%ADD27RoundRect,0.250000X-1.000000X-0.900000X1.000000X-0.900000X1.000000X0.900000X-1.000000X0.900000X0*%
%TD*%
%TA.AperFunction,SMDPad,CuDef*%
%ADD28R,0.650000X1.525000*%
%TD*%
%TA.AperFunction,SMDPad,CuDef*%
%ADD29R,2.390000X2.390000*%
%TD*%
%TA.AperFunction,SMDPad,CuDef*%
%ADD30FreePoly0,0.000000*%
%TD*%
%TA.AperFunction,SMDPad,CuDef*%
%ADD31FreePoly1,0.000000*%
%TD*%
%TA.AperFunction,SMDPad,CuDef*%
%ADD32RoundRect,0.200000X-0.200000X-0.275000X0.200000X-0.275000X0.200000X0.275000X-0.200000X0.275000X0*%
%TD*%
%TA.AperFunction,SMDPad,CuDef*%
%ADD33RoundRect,0.225000X0.225000X0.250000X-0.225000X0.250000X-0.225000X-0.250000X0.225000X-0.250000X0*%
%TD*%
%TA.AperFunction,SMDPad,CuDef*%
%ADD34RoundRect,0.250000X0.325000X0.650000X-0.325000X0.650000X-0.325000X-0.650000X0.325000X-0.650000X0*%
%TD*%
%TA.AperFunction,SMDPad,CuDef*%
%ADD35R,1.300000X0.600000*%
%TD*%
%TA.AperFunction,SMDPad,CuDef*%
%ADD36RoundRect,0.100000X-0.750000X0.150000X-0.750000X-0.150000X0.750000X-0.150000X0.750000X0.150000X0*%
%TD*%
%TA.AperFunction,SMDPad,CuDef*%
%ADD37RoundRect,0.200000X-1.050000X0.400000X-1.050000X-0.400000X1.050000X-0.400000X1.050000X0.400000X0*%
%TD*%
%TA.AperFunction,SMDPad,CuDef*%
%ADD38RoundRect,0.243750X0.243750X0.456250X-0.243750X0.456250X-0.243750X-0.456250X0.243750X-0.456250X0*%
%TD*%
%TA.AperFunction,ViaPad*%
%ADD39C,0.600000*%
%TD*%
%TA.AperFunction,Conductor*%
%ADD40C,0.300000*%
%TD*%
%TA.AperFunction,Conductor*%
%ADD41C,0.152000*%
%TD*%
%TA.AperFunction,Conductor*%
%ADD42C,0.600000*%
%TD*%
%TA.AperFunction,Conductor*%
%ADD43C,0.200000*%
%TD*%
G04 APERTURE END LIST*
D10*
%TO.P,U1,1,GND*%
%TO.N,GND*%
X146355900Y-77408500D03*
%TO.P,U1,2,VO*%
%TO.N,+3.3V*%
X148255900Y-77408500D03*
%TO.P,U1,3,VI*%
%TO.N,+5V*%
X147305900Y-79283500D03*
%TD*%
D11*
%TO.P,L1,1,1*%
%TO.N,Net-(D2-K)*%
X145978400Y-103238000D03*
%TO.P,L1,2,2*%
%TO.N,+5V*%
X142828400Y-103238000D03*
%TD*%
D12*
%TO.P,Y1,1,1*%
%TO.N,/OSC_IN*%
X152234000Y-92288000D03*
%TO.P,Y1,2,2*%
%TO.N,GND*%
X152234000Y-94488000D03*
%TO.P,Y1,3,3*%
%TO.N,/OSC_OUT*%
X150534000Y-94488000D03*
%TO.P,Y1,4,4*%
%TO.N,GND*%
X150534000Y-92288000D03*
%TD*%
D13*
%TO.P,C23,1*%
%TO.N,+5V*%
X139768500Y-102743000D03*
%TO.P,C23,2*%
%TO.N,GND*%
X139768500Y-104293000D03*
%TD*%
D14*
%TO.P,J3,1,01*%
%TO.N,/PORT/_CAN_L*%
X155580000Y-93667200D03*
%TO.P,J3,2,02*%
%TO.N,/PORT/_CAN_H*%
X155580000Y-92667200D03*
D15*
%TO.P,J3,MP1*%
%TO.N,N/C*%
X158980000Y-94767200D03*
%TO.P,J3,MP2*%
X158980000Y-91567200D03*
%TD*%
D16*
%TO.P,C12,1*%
%TO.N,Net-(C12-Pad1)*%
X151104600Y-88252600D03*
%TO.P,C12,2*%
%TO.N,GND*%
X151104600Y-86702600D03*
%TD*%
D17*
%TO.P,R18,1*%
%TO.N,+5V*%
X150558800Y-102693000D03*
%TO.P,R18,2*%
%TO.N,Net-(IC4-FB)*%
X150558800Y-104343000D03*
%TD*%
D18*
%TO.P,R1,1*%
%TO.N,/OSC_OUT*%
X148911600Y-96561800D03*
%TO.P,R1,2*%
%TO.N,/OSC_IN*%
X148911600Y-94911800D03*
%TD*%
D16*
%TO.P,C4,1*%
%TO.N,+5V*%
X144830800Y-78689800D03*
%TO.P,C4,2*%
%TO.N,GND*%
X144830800Y-77139800D03*
%TD*%
D17*
%TO.P,TH1,1*%
%TO.N,+3.3V*%
X142570200Y-82810800D03*
%TO.P,TH1,2*%
%TO.N,/TB_Temp*%
X142570200Y-84460800D03*
%TD*%
D19*
%TO.P,R11,1*%
%TO.N,/TB_IN_PWM_A*%
X152678400Y-89763600D03*
%TO.P,R11,2*%
%TO.N,Net-(C12-Pad1)*%
X151028400Y-89763600D03*
%TD*%
D20*
%TO.P,IC3,1,CSN*%
%TO.N,/MT6816_CS*%
X145231400Y-91750600D03*
%TO.P,IC3,2,HVPP*%
%TO.N,+3.3V*%
X145231400Y-93020600D03*
%TO.P,IC3,3,OUT*%
%TO.N,unconnected-(IC3-OUT-Pad3)*%
X145231400Y-94290600D03*
%TO.P,IC3,4,VDD*%
%TO.N,+3.3V*%
X145231400Y-95560600D03*
%TO.P,IC3,5,A/U*%
%TO.N,/MT6816_MOSI*%
X139807400Y-95560600D03*
%TO.P,IC3,6,B/V*%
%TO.N,/MT6816_MISO*%
X139807400Y-94290600D03*
%TO.P,IC3,7,Z/W*%
%TO.N,/MT6816_SCK*%
X139807400Y-93020600D03*
%TO.P,IC3,8,GND*%
%TO.N,GND*%
X139807400Y-91750600D03*
%TD*%
D18*
%TO.P,R2,1*%
%TO.N,GND*%
X142570200Y-87458000D03*
%TO.P,R2,2*%
%TO.N,/TB_Temp*%
X142570200Y-85808000D03*
%TD*%
D21*
%TO.P,R15,1*%
%TO.N,Net-(IC1-RS)*%
X150012400Y-82255900D03*
%TO.P,R15,2*%
%TO.N,GND*%
X150012400Y-85180900D03*
%TD*%
D22*
%TO.P,D4,1,K*%
%TO.N,VCC*%
X135559800Y-107537000D03*
%TO.P,D4,2,A*%
%TO.N,+24V*%
X135559800Y-103537000D03*
%TD*%
D23*
%TO.P,C29,1*%
%TO.N,VCC*%
X138938000Y-80215000D03*
%TO.P,C29,2*%
%TO.N,GND*%
X138938000Y-77265000D03*
%TD*%
D24*
%TO.P,D1,1,K*%
%TO.N,GND*%
X152044500Y-109982000D03*
%TO.P,D1,2,A*%
%TO.N,Net-(D1-A)*%
X150469500Y-109982000D03*
%TD*%
D21*
%TO.P,R16,1*%
%TO.N,Net-(IC2-RS)*%
X135178800Y-82255900D03*
%TO.P,R16,2*%
%TO.N,GND*%
X135178800Y-85180900D03*
%TD*%
D23*
%TO.P,C27,1*%
%TO.N,VCC*%
X136601200Y-80215000D03*
%TO.P,C27,2*%
%TO.N,GND*%
X136601200Y-77265000D03*
%TD*%
D25*
%TO.P,IC4,1,BST*%
%TO.N,Net-(IC4-BST)*%
X148902800Y-105780800D03*
%TO.P,IC4,2,GND*%
%TO.N,GND*%
X148902800Y-106730800D03*
%TO.P,IC4,3,FB*%
%TO.N,Net-(IC4-FB)*%
X148902800Y-107680800D03*
%TO.P,IC4,4,EN*%
%TO.N,Net-(IC4-EN)*%
X146402800Y-107680800D03*
%TO.P,IC4,5,VIN*%
%TO.N,Net-(D3-K)*%
X146402800Y-106730800D03*
%TO.P,IC4,6,SW*%
%TO.N,Net-(D2-K)*%
X146402800Y-105780800D03*
%TD*%
D19*
%TO.P,R19,1*%
%TO.N,Net-(IC4-EN)*%
X144358400Y-107688000D03*
%TO.P,R19,2*%
%TO.N,Net-(D3-K)*%
X142708400Y-107688000D03*
%TD*%
D16*
%TO.P,C31,1*%
%TO.N,+5V*%
X134958000Y-94374000D03*
%TO.P,C31,2*%
%TO.N,GND*%
X134958000Y-92824000D03*
%TD*%
D26*
%TO.P,C6,1*%
%TO.N,/OSC_OUT*%
X150829000Y-96486800D03*
%TO.P,C6,2*%
%TO.N,GND*%
X152379000Y-96486800D03*
%TD*%
D23*
%TO.P,C28,1*%
%TO.N,VCC*%
X141274800Y-80215000D03*
%TO.P,C28,2*%
%TO.N,GND*%
X141274800Y-77265000D03*
%TD*%
D16*
%TO.P,C2,1*%
%TO.N,/OSC_IN*%
X148911600Y-93543000D03*
%TO.P,C2,2*%
%TO.N,GND*%
X148911600Y-91993000D03*
%TD*%
%TO.P,C1,1*%
%TO.N,+5V*%
X143332200Y-78689800D03*
%TO.P,C1,2*%
%TO.N,GND*%
X143332200Y-77139800D03*
%TD*%
D26*
%TO.P,C17,1*%
%TO.N,+3.3V*%
X143446200Y-97282000D03*
%TO.P,C17,2*%
%TO.N,GND*%
X144996200Y-97282000D03*
%TD*%
D27*
%TO.P,D5,1,A1*%
%TO.N,GND*%
X127313800Y-101168200D03*
%TO.P,D5,2,A2*%
%TO.N,VCC*%
X131613800Y-101168200D03*
%TD*%
D13*
%TO.P,C8,1*%
%TO.N,+3.3V*%
X149733000Y-77139800D03*
%TO.P,C8,2*%
%TO.N,GND*%
X149733000Y-78689800D03*
%TD*%
D26*
%TO.P,C26,1*%
%TO.N,/TB_Temp*%
X149720000Y-80645000D03*
%TO.P,C26,2*%
%TO.N,GND*%
X151270000Y-80645000D03*
%TD*%
D16*
%TO.P,C14,1*%
%TO.N,/H_BRID/VREF_A*%
X149631400Y-88252600D03*
%TO.P,C14,2*%
%TO.N,GND*%
X149631400Y-86702600D03*
%TD*%
D13*
%TO.P,C10,1*%
%TO.N,+3.3V*%
X151257000Y-77139800D03*
%TO.P,C10,2*%
%TO.N,GND*%
X151257000Y-78689800D03*
%TD*%
D28*
%TO.P,IC2,1,GND*%
%TO.N,GND*%
X140970000Y-87875400D03*
%TO.P,IC2,2,IN2*%
%TO.N,/TB_IN_BM*%
X139700000Y-87875400D03*
%TO.P,IC2,3,IN1*%
%TO.N,/TB_IN_BP*%
X138430000Y-87875400D03*
%TO.P,IC2,4,VREF*%
%TO.N,/H_BRID/VREF_B*%
X137160000Y-87875400D03*
%TO.P,IC2,5,VM*%
%TO.N,VCC*%
X137160000Y-82451400D03*
%TO.P,IC2,6,OUT1*%
%TO.N,/H_BRID/MOTOR_OUT_B+*%
X138430000Y-82451400D03*
%TO.P,IC2,7,RS*%
%TO.N,Net-(IC2-RS)*%
X139700000Y-82451400D03*
%TO.P,IC2,8,OUT2*%
%TO.N,/H_BRID/MOTOR_OUT_B-*%
X140970000Y-82451400D03*
D29*
%TO.P,IC2,9,EP*%
%TO.N,GND*%
X139065000Y-85163400D03*
%TD*%
D14*
%TO.P,J1,1,01*%
%TO.N,/DEBUG_RX*%
X155580000Y-87817200D03*
%TO.P,J1,2,02*%
%TO.N,GND*%
X155580000Y-86817200D03*
%TO.P,J1,3,03*%
%TO.N,/DEBUG_TX*%
X155580000Y-85817200D03*
D15*
%TO.P,J1,MP1*%
%TO.N,N/C*%
X158980000Y-88917200D03*
%TO.P,J1,MP2*%
X158980000Y-84717200D03*
%TD*%
D14*
%TO.P,J2,1,01*%
%TO.N,/SWD_CLK*%
X155580000Y-101525200D03*
%TO.P,J2,2,02*%
%TO.N,/SWD_DIO*%
X155580000Y-100525200D03*
%TO.P,J2,3,03*%
%TO.N,GND*%
X155580000Y-99525200D03*
%TO.P,J2,4,04*%
%TO.N,+3.3V*%
X155580000Y-98525200D03*
D15*
%TO.P,J2,MP1*%
%TO.N,N/C*%
X158980000Y-102625200D03*
%TO.P,J2,MP2*%
X158980000Y-97425200D03*
%TD*%
D30*
%TO.P,JP1,1,A*%
%TO.N,/PORT/_CAN_H*%
X126985000Y-97663000D03*
D31*
%TO.P,JP1,2,B*%
%TO.N,Net-(JP1-B)*%
X128285000Y-97663000D03*
%TD*%
D13*
%TO.P,C21,1*%
%TO.N,+5V*%
X141338500Y-102743000D03*
%TO.P,C21,2*%
%TO.N,GND*%
X141338500Y-104293000D03*
%TD*%
D32*
%TO.P,R12,1*%
%TO.N,/TB_IN_PWM_B*%
X132487400Y-89763600D03*
%TO.P,R12,2*%
%TO.N,Net-(C13-Pad1)*%
X134137400Y-89763600D03*
%TD*%
%TO.P,R8,1*%
%TO.N,+3.3V*%
X147511000Y-109982000D03*
%TO.P,R8,2*%
%TO.N,Net-(D1-A)*%
X149161000Y-109982000D03*
%TD*%
D23*
%TO.P,C30,1*%
%TO.N,VCC*%
X134213600Y-80215000D03*
%TO.P,C30,2*%
%TO.N,GND*%
X134213600Y-77265000D03*
%TD*%
D17*
%TO.P,R17,1*%
%TO.N,Net-(IC4-FB)*%
X150558800Y-106236000D03*
%TO.P,R17,2*%
%TO.N,GND*%
X150558800Y-107886000D03*
%TD*%
D32*
%TO.P,R22,1*%
%TO.N,Net-(JP1-B)*%
X130493600Y-97663000D03*
%TO.P,R22,2*%
%TO.N,/PORT/_CAN_L*%
X132143600Y-97663000D03*
%TD*%
%TO.P,R14,1*%
%TO.N,Net-(C13-Pad1)*%
X135484600Y-89763600D03*
%TO.P,R14,2*%
%TO.N,/H_BRID/VREF_B*%
X137134600Y-89763600D03*
%TD*%
D28*
%TO.P,IC1,1,GND*%
%TO.N,GND*%
X148005800Y-87875400D03*
%TO.P,IC1,2,IN2*%
%TO.N,/TB_IN_AM*%
X146735800Y-87875400D03*
%TO.P,IC1,3,IN1*%
%TO.N,/TB_IN_AP*%
X145465800Y-87875400D03*
%TO.P,IC1,4,VREF*%
%TO.N,/H_BRID/VREF_A*%
X144195800Y-87875400D03*
%TO.P,IC1,5,VM*%
%TO.N,VCC*%
X144195800Y-82451400D03*
%TO.P,IC1,6,OUT1*%
%TO.N,/H_BRID/MOTOR_OUT_A+*%
X145465800Y-82451400D03*
%TO.P,IC1,7,RS*%
%TO.N,Net-(IC1-RS)*%
X146735800Y-82451400D03*
%TO.P,IC1,8,OUT2*%
%TO.N,/H_BRID/MOTOR_OUT_A-*%
X148005800Y-82451400D03*
D29*
%TO.P,IC1,9,EP*%
%TO.N,GND*%
X146100800Y-85163400D03*
%TD*%
D13*
%TO.P,C18,1*%
%TO.N,+5V*%
X152057400Y-102743000D03*
%TO.P,C18,2*%
%TO.N,Net-(IC4-FB)*%
X152057400Y-104293000D03*
%TD*%
D16*
%TO.P,C32,1*%
%TO.N,+5V*%
X133477000Y-94374000D03*
%TO.P,C32,2*%
%TO.N,GND*%
X133477000Y-92824000D03*
%TD*%
D19*
%TO.P,R13,1*%
%TO.N,Net-(C12-Pad1)*%
X149707600Y-89763600D03*
%TO.P,R13,2*%
%TO.N,/H_BRID/VREF_A*%
X148057600Y-89763600D03*
%TD*%
D33*
%TO.P,C19,1*%
%TO.N,Net-(IC4-BST)*%
X149047800Y-102768000D03*
%TO.P,C19,2*%
%TO.N,Net-(D2-K)*%
X147497800Y-102768000D03*
%TD*%
D13*
%TO.P,C15,1*%
%TO.N,/H_BRID/VREF_B*%
X135559800Y-86728000D03*
%TO.P,C15,2*%
%TO.N,GND*%
X135559800Y-88278000D03*
%TD*%
D34*
%TO.P,C22,1*%
%TO.N,Net-(D3-K)*%
X141243500Y-106146600D03*
%TO.P,C22,2*%
%TO.N,GND*%
X138293500Y-106146600D03*
%TD*%
D16*
%TO.P,C13,1*%
%TO.N,Net-(C13-Pad1)*%
X134061200Y-88278000D03*
%TO.P,C13,2*%
%TO.N,GND*%
X134061200Y-86728000D03*
%TD*%
D33*
%TO.P,C16,1*%
%TO.N,+3.3V*%
X141999000Y-97282000D03*
%TO.P,C16,2*%
%TO.N,GND*%
X140449000Y-97282000D03*
%TD*%
D35*
%TO.P,U3,1,TXD*%
%TO.N,/CAN_TX*%
X132045000Y-91843200D03*
%TO.P,U3,2,GND*%
%TO.N,GND*%
X132045000Y-93113200D03*
%TO.P,U3,3,VCC*%
%TO.N,+5V*%
X132045000Y-94383200D03*
%TO.P,U3,4,RXD*%
%TO.N,/CAN_RX*%
X132045000Y-95653200D03*
%TO.P,U3,5,VI/O*%
%TO.N,+3.3V*%
X126745000Y-95653200D03*
%TO.P,U3,6,CANL*%
%TO.N,/PORT/_CAN_L*%
X126745000Y-94383200D03*
%TO.P,U3,7,CANH*%
%TO.N,/PORT/_CAN_H*%
X126745000Y-93113200D03*
%TO.P,U3,8,S*%
%TO.N,/CAN_SILENT*%
X126745000Y-91843200D03*
%TD*%
D13*
%TO.P,C24,1*%
%TO.N,+5V*%
X138198500Y-102743000D03*
%TO.P,C24,2*%
%TO.N,GND*%
X138198500Y-104293000D03*
%TD*%
D33*
%TO.P,C20,1*%
%TO.N,Net-(IC4-BST)*%
X149047800Y-104190800D03*
%TO.P,C20,2*%
%TO.N,Net-(D2-K)*%
X147497800Y-104190800D03*
%TD*%
D36*
%TO.P,J7,1,01*%
%TO.N,/PORT/_CAN_H*%
X129509600Y-87409400D03*
%TO.P,J7,2,02*%
%TO.N,/PORT/_CAN_L*%
X129509600Y-88409400D03*
D37*
%TO.P,J7,MP1*%
%TO.N,N/C*%
X126109600Y-86309400D03*
%TO.P,J7,MP2*%
X126109600Y-89509400D03*
%TD*%
D38*
%TO.P,D2,1,K*%
%TO.N,Net-(D2-K)*%
X144670900Y-105410000D03*
%TO.P,D2,2,A*%
%TO.N,GND*%
X142795900Y-105410000D03*
%TD*%
%TO.P,D3,1,K*%
%TO.N,Net-(D3-K)*%
X141286000Y-108280200D03*
%TO.P,D3,2,A*%
%TO.N,VCC*%
X139411000Y-108280200D03*
%TD*%
D39*
%TO.N,GND*%
X151409400Y-84836000D03*
X156362400Y-95758000D03*
X145516600Y-85775800D03*
X128295400Y-94361000D03*
X128905000Y-94996000D03*
X156972000Y-95123000D03*
X133121400Y-84836000D03*
X128905000Y-94361000D03*
X138455400Y-85725000D03*
X129032000Y-90043000D03*
X128295400Y-94996000D03*
X143144800Y-88011000D03*
X139807400Y-91750600D03*
X156362400Y-90170000D03*
X129032000Y-90678000D03*
X128422400Y-90678000D03*
X146151600Y-85775800D03*
X156972000Y-90170000D03*
X151409400Y-85471000D03*
X156972000Y-95758000D03*
X147936600Y-93112720D03*
X128422400Y-90043000D03*
X156362400Y-95123000D03*
X133731000Y-84836000D03*
X136270400Y-98806000D03*
X156972000Y-89535000D03*
X133731000Y-85471000D03*
X156362400Y-89535000D03*
X139090400Y-85725000D03*
X133121400Y-85471000D03*
X152019000Y-84836000D03*
X152019000Y-85471000D03*
X139725400Y-85725000D03*
X146786600Y-85775800D03*
%TO.N,+5V*%
X135686997Y-97604000D03*
X135763000Y-94302000D03*
X144907000Y-78689800D03*
X139700000Y-102743000D03*
X143383000Y-78689800D03*
X138198500Y-102743000D03*
%TO.N,/OSC_IN*%
X148300906Y-95666094D03*
%TO.N,+3.3V*%
X127635000Y-95631000D03*
X156718000Y-98552000D03*
X152654000Y-78105000D03*
X152654000Y-78740000D03*
X141986000Y-96647000D03*
X138557000Y-89408000D03*
X146735800Y-89187600D03*
X145231400Y-95560600D03*
X142570200Y-81356200D03*
X146812000Y-109982000D03*
X138430000Y-98806000D03*
X145231400Y-93020600D03*
%TO.N,/OSC_OUT*%
X149461400Y-96012000D03*
%TO.N,VCC*%
X134264400Y-106426000D03*
X134874000Y-106426000D03*
X133858000Y-79984600D03*
X134467600Y-80619600D03*
X133858000Y-80619600D03*
X134264400Y-107061000D03*
X134874000Y-107061000D03*
X134467600Y-79984600D03*
%TO.N,+24V*%
X135890000Y-104140000D03*
X135890000Y-103505000D03*
X135890000Y-102870000D03*
X135280400Y-103505000D03*
X135280400Y-102870000D03*
X135280400Y-104140000D03*
%TO.N,Net-(IC1-RS)*%
X144405800Y-86131400D03*
X144405800Y-85511802D03*
X150342600Y-83134200D03*
X150342600Y-83743800D03*
%TO.N,/H_BRID/MOTOR_OUT_A-*%
X148005800Y-81635600D03*
X148005800Y-82905600D03*
X148005800Y-82273600D03*
%TO.N,/TB_IN_AM*%
X146685000Y-87086200D03*
%TO.N,/TB_IN_AP*%
X145415000Y-87086200D03*
%TO.N,/H_BRID/MOTOR_OUT_A+*%
X145643600Y-80416400D03*
X145008600Y-81051400D03*
X145643600Y-81076800D03*
X145008600Y-80416400D03*
%TO.N,/TB_IN_BP*%
X138430000Y-87035400D03*
%TO.N,/TB_IN_BM*%
X139700000Y-87035400D03*
%TO.N,/H_BRID/MOTOR_OUT_B+*%
X138404600Y-81635600D03*
X138430000Y-82905600D03*
X138430000Y-82273600D03*
%TO.N,Net-(IC2-RS)*%
X140760000Y-85568154D03*
X135229600Y-83083400D03*
X140760000Y-86182200D03*
X135229600Y-83693000D03*
%TO.N,/H_BRID/MOTOR_OUT_B-*%
X140970000Y-81635600D03*
X140970000Y-82273600D03*
X140970000Y-82905600D03*
%TO.N,/MT6816_MOSI*%
X139807400Y-95560600D03*
%TO.N,/MT6816_MISO*%
X137170025Y-92712461D03*
%TO.N,/MT6816_CS*%
X138633200Y-90424000D03*
%TO.N,/MT6816_SCK*%
X137160000Y-91821000D03*
%TO.N,/DEBUG_RX*%
X154230001Y-86849121D03*
X147355751Y-90783000D03*
X155043300Y-90054744D03*
%TO.N,/DEBUG_TX*%
X154305000Y-85852000D03*
X155321000Y-90805000D03*
X147955000Y-91313000D03*
%TO.N,/SWD_DIO*%
X139119400Y-98018600D03*
X154584400Y-100525200D03*
%TO.N,/SWD_CLK*%
X154787600Y-101549200D03*
X139750800Y-99593400D03*
%TO.N,/PORT/_CAN_H*%
X128016000Y-87544797D03*
X126238000Y-97663000D03*
X125789000Y-93091000D03*
X157226000Y-92710000D03*
%TO.N,/PORT/_CAN_L*%
X127000000Y-88392000D03*
X125857000Y-94361000D03*
X129159000Y-96647000D03*
X157226000Y-93599000D03*
%TO.N,/TB_IN_PWM_A*%
X152781000Y-87680203D03*
X142278003Y-101486600D03*
X149733000Y-99187000D03*
%TO.N,/TB_IN_PWM_B*%
X135001000Y-97028000D03*
X134620000Y-91059000D03*
X141845400Y-99676799D03*
%TO.N,/KEY1*%
X140588028Y-101484583D03*
X141029000Y-109542000D03*
%TO.N,/KEY2*%
X141478000Y-101486600D03*
X144018000Y-109601000D03*
%TO.N,/TB_Temp*%
X148971000Y-80010000D03*
X142516784Y-88824882D03*
X147904200Y-92303600D03*
X142570200Y-85808000D03*
%TO.N,/CAN_RX*%
X137248625Y-95086971D03*
%TO.N,/CAN_SILENT*%
X128016000Y-91948000D03*
%TO.N,/CAN_TX*%
X137119690Y-96126205D03*
%TD*%
D40*
%TO.N,GND*%
X133230800Y-93113200D02*
X133520000Y-92824000D01*
X133520000Y-92824000D02*
X134958000Y-92824000D01*
X143144800Y-88011000D02*
X143123200Y-88011000D01*
X132045000Y-93113200D02*
X133230800Y-93113200D01*
D41*
X148911600Y-91993000D02*
X150239000Y-91993000D01*
D40*
X143123200Y-88011000D02*
X142570200Y-87458000D01*
D41*
X150239000Y-91993000D02*
X150534000Y-92288000D01*
D40*
%TO.N,+5V*%
X146712200Y-78689800D02*
X147305900Y-79283500D01*
X143383000Y-78689800D02*
X144830800Y-78689800D01*
X144830800Y-78689800D02*
X144907000Y-78689800D01*
X150558800Y-102693000D02*
X152007400Y-102693000D01*
X135763000Y-94302000D02*
X135691000Y-94374000D01*
X144907000Y-78689800D02*
X146712200Y-78689800D01*
X138198500Y-102743000D02*
X139768500Y-102743000D01*
X142828400Y-103238000D02*
X142828400Y-103043600D01*
X133510800Y-94383200D02*
X133520000Y-94374000D01*
X133520000Y-94374000D02*
X134958000Y-94374000D01*
X142333400Y-102743000D02*
X142828400Y-103238000D01*
X139768500Y-102743000D02*
X141338500Y-102743000D01*
X143332200Y-78689800D02*
X143383000Y-78689800D01*
X141338500Y-102743000D02*
X142333400Y-102743000D01*
X135691000Y-94374000D02*
X134958000Y-94374000D01*
X149211800Y-101346000D02*
X150558800Y-102693000D01*
X142828400Y-103043600D02*
X144526000Y-101346000D01*
X132045000Y-94383200D02*
X133510800Y-94383200D01*
X152007400Y-102693000D02*
X152057400Y-102743000D01*
X144526000Y-101346000D02*
X149211800Y-101346000D01*
D41*
%TO.N,/OSC_IN*%
X148300906Y-95522494D02*
X148911600Y-94911800D01*
X148300906Y-95666094D02*
X148300906Y-95522494D01*
X148911600Y-93543000D02*
X148911600Y-94911800D01*
X149033400Y-93421200D02*
X148911600Y-93543000D01*
X152234000Y-92368000D02*
X151180800Y-93421200D01*
X152234000Y-92288000D02*
X152234000Y-92368000D01*
X151180800Y-93421200D02*
X149033400Y-93421200D01*
D40*
%TO.N,+3.3V*%
X127612800Y-95653200D02*
X127635000Y-95631000D01*
X141999000Y-97282000D02*
X141999000Y-96660000D01*
X148524600Y-77139800D02*
X148255900Y-77408500D01*
X141999000Y-97282000D02*
X143383000Y-97282000D01*
X142570200Y-81356200D02*
X142570200Y-82810800D01*
X149733000Y-77139800D02*
X148524600Y-77139800D01*
X156691200Y-98525200D02*
X155580000Y-98525200D01*
X141999000Y-96660000D02*
X141986000Y-96647000D01*
X126745000Y-95653200D02*
X127612800Y-95653200D01*
X151257000Y-77139800D02*
X149733000Y-77139800D01*
X156718000Y-98552000D02*
X156691200Y-98525200D01*
X147511000Y-109982000D02*
X146812000Y-109982000D01*
D41*
%TO.N,/OSC_OUT*%
X150829000Y-96486800D02*
X148986600Y-96486800D01*
X148986600Y-96486800D02*
X148911600Y-96561800D01*
X150829000Y-96486800D02*
X150829000Y-94783000D01*
X149461400Y-96012000D02*
X148911600Y-96561800D01*
X150829000Y-94783000D02*
X150534000Y-94488000D01*
%TO.N,Net-(C12-Pad1)*%
X151104600Y-88252600D02*
X151104600Y-89687400D01*
X151028400Y-89763600D02*
X149707600Y-89763600D01*
X151104600Y-89687400D02*
X151028400Y-89763600D01*
%TO.N,Net-(C13-Pad1)*%
X134137400Y-88354200D02*
X134061200Y-88278000D01*
X135484600Y-89763600D02*
X134137400Y-89763600D01*
X134137400Y-89763600D02*
X134137400Y-88354200D01*
%TO.N,/H_BRID/VREF_A*%
X148120400Y-89763600D02*
X149631400Y-88252600D01*
X144373600Y-89763600D02*
X148057600Y-89763600D01*
X144195800Y-89585800D02*
X144373600Y-89763600D01*
X148057600Y-89763600D02*
X148120400Y-89763600D01*
X144195800Y-87875400D02*
X144195800Y-89585800D01*
%TO.N,/H_BRID/VREF_B*%
X136893000Y-86728000D02*
X135559800Y-86728000D01*
X137160000Y-87875400D02*
X137160000Y-86995000D01*
X137160000Y-87875400D02*
X137160000Y-89738200D01*
X137160000Y-86995000D02*
X136893000Y-86728000D01*
X137160000Y-89738200D02*
X137134600Y-89763600D01*
D40*
%TO.N,Net-(IC4-FB)*%
X150558800Y-104343000D02*
X150558800Y-106236000D01*
X152057400Y-104293000D02*
X150608800Y-104293000D01*
X150608800Y-104293000D02*
X150558800Y-104343000D01*
X150558800Y-106627642D02*
X150558800Y-106236000D01*
X149505642Y-107680800D02*
X150558800Y-106627642D01*
X148902800Y-107680800D02*
X149505642Y-107680800D01*
%TO.N,Net-(IC4-BST)*%
X149047800Y-104190800D02*
X149047800Y-105635800D01*
X149047800Y-105635800D02*
X148902800Y-105780800D01*
X149047800Y-102768000D02*
X149047800Y-104190800D01*
%TO.N,Net-(D2-K)*%
X146402800Y-105285800D02*
X147497800Y-104190800D01*
X145041700Y-105780800D02*
X144670900Y-105410000D01*
X147497800Y-102768000D02*
X146448400Y-102768000D01*
X147497800Y-102768000D02*
X147497800Y-104190800D01*
X146402800Y-105780800D02*
X146402800Y-105285800D01*
X146402800Y-105780800D02*
X145041700Y-105780800D01*
X146448400Y-102768000D02*
X145978400Y-103238000D01*
%TO.N,Net-(D3-K)*%
X146402800Y-106730800D02*
X143665600Y-106730800D01*
X141286000Y-106189100D02*
X141243500Y-106146600D01*
X143665600Y-106730800D02*
X142708400Y-107688000D01*
X141286000Y-108280200D02*
X141286000Y-106189100D01*
X142708400Y-107688000D02*
X141878200Y-107688000D01*
X141878200Y-107688000D02*
X141286000Y-108280200D01*
D42*
%TO.N,VCC*%
X137160000Y-80773800D02*
X136601200Y-80215000D01*
X144195800Y-80797400D02*
X143613400Y-80215000D01*
X143613400Y-80215000D02*
X141274800Y-80215000D01*
X137160000Y-82451400D02*
X137160000Y-80773800D01*
X144195800Y-82451400D02*
X144195800Y-80797400D01*
D40*
%TO.N,Net-(D1-A)*%
X149161000Y-109982000D02*
X150469500Y-109982000D01*
%TO.N,Net-(IC1-RS)*%
X146735800Y-82451400D02*
X146735800Y-82905600D01*
X150342600Y-82586100D02*
X150012400Y-82255900D01*
X146735800Y-82905600D02*
X147394100Y-83563900D01*
X146735800Y-82931000D02*
X146048400Y-83618400D01*
X146735800Y-82451400D02*
X146735800Y-82931000D01*
X150342600Y-83134200D02*
X150342600Y-82586100D01*
X144555800Y-83618400D02*
X144405800Y-83768400D01*
X148704400Y-83563900D02*
X150012400Y-82255900D01*
X147394100Y-83563900D02*
X148704400Y-83563900D01*
X144405800Y-83768400D02*
X144405800Y-85511802D01*
X146048400Y-83618400D02*
X144555800Y-83618400D01*
D41*
%TO.N,/TB_IN_AM*%
X146685000Y-87824600D02*
X146735800Y-87875400D01*
X146685000Y-87086200D02*
X146685000Y-87824600D01*
%TO.N,/TB_IN_AP*%
X145415000Y-87086200D02*
X145415000Y-87824600D01*
X145415000Y-87824600D02*
X145465800Y-87875400D01*
%TO.N,/TB_IN_BP*%
X138430000Y-87035400D02*
X138430000Y-87875400D01*
%TO.N,/TB_IN_BM*%
X139700000Y-87035400D02*
X139700000Y-87875400D01*
D40*
%TO.N,Net-(IC2-RS)*%
X135229600Y-82306700D02*
X135178800Y-82255900D01*
X139700000Y-82829400D02*
X140760000Y-83889400D01*
X135229600Y-83083400D02*
X135229600Y-82306700D01*
X139700000Y-82451400D02*
X139700000Y-82880200D01*
X136488900Y-83566000D02*
X135178800Y-82255900D01*
X139700000Y-82880200D02*
X139014200Y-83566000D01*
X140760000Y-83889400D02*
X140760000Y-85568154D01*
X139700000Y-82451400D02*
X139700000Y-82829400D01*
X139014200Y-83566000D02*
X136488900Y-83566000D01*
D41*
%TO.N,/MT6816_MISO*%
X137170025Y-92712461D02*
X138748164Y-94290600D01*
X138748164Y-94290600D02*
X139807400Y-94290600D01*
%TO.N,/MT6816_CS*%
X142932298Y-89738200D02*
X139319000Y-89738200D01*
X139319000Y-89738200D02*
X138633200Y-90424000D01*
X145231400Y-91750600D02*
X145231400Y-91002400D01*
X144696600Y-90467600D02*
X143661698Y-90467600D01*
X145231400Y-91002400D02*
X144696600Y-90467600D01*
X143661698Y-90467600D02*
X142932298Y-89738200D01*
%TO.N,/MT6816_SCK*%
X137160000Y-91821000D02*
X137287000Y-91821000D01*
X138486600Y-93020600D02*
X139807400Y-93020600D01*
X137287000Y-91821000D02*
X138486600Y-93020600D01*
D40*
%TO.N,Net-(IC4-EN)*%
X144365600Y-107680800D02*
X144358400Y-107688000D01*
X146402800Y-107680800D02*
X144365600Y-107680800D01*
D41*
%TO.N,/DEBUG_RX*%
X154420044Y-90678000D02*
X155043300Y-90054744D01*
X147460751Y-90678000D02*
X154420044Y-90678000D01*
X155000200Y-87817200D02*
X155580000Y-87817200D01*
X147355751Y-90783000D02*
X147460751Y-90678000D01*
X154230001Y-86849121D02*
X154230001Y-87047001D01*
X154230001Y-87047001D02*
X155000200Y-87817200D01*
%TO.N,/DEBUG_TX*%
X155580000Y-85817200D02*
X154339800Y-85817200D01*
X147955000Y-91313000D02*
X148238000Y-91030000D01*
X148238000Y-91030000D02*
X155096000Y-91030000D01*
X154339800Y-85817200D02*
X154305000Y-85852000D01*
X155096000Y-91030000D02*
X155321000Y-90805000D01*
%TO.N,/SWD_DIO*%
X154584400Y-100525200D02*
X155580000Y-100525200D01*
%TO.N,/SWD_CLK*%
X155580000Y-101525200D02*
X154811600Y-101525200D01*
X154811600Y-101525200D02*
X154787600Y-101549200D01*
%TO.N,/PORT/_CAN_H*%
X157183200Y-92667200D02*
X155580000Y-92667200D01*
X125789000Y-93091000D02*
X126722800Y-93091000D01*
X126970000Y-97663000D02*
X126238000Y-97663000D01*
X126722800Y-93091000D02*
X126745000Y-93113200D01*
X128151397Y-87409400D02*
X128016000Y-87544797D01*
X157226000Y-92710000D02*
X157183200Y-92667200D01*
X129509600Y-87409400D02*
X128151397Y-87409400D01*
%TO.N,/PORT/_CAN_L*%
X129159000Y-96647000D02*
X131211000Y-96647000D01*
X127017400Y-88409400D02*
X127000000Y-88392000D01*
X126722800Y-94361000D02*
X126745000Y-94383200D01*
X157157800Y-93667200D02*
X155580000Y-93667200D01*
X131211000Y-96647000D02*
X132120000Y-97556000D01*
X129509600Y-88409400D02*
X127017400Y-88409400D01*
X125857000Y-94361000D02*
X126722800Y-94361000D01*
X132120000Y-97556000D02*
X132120000Y-97663000D01*
X157226000Y-93599000D02*
X157157800Y-93667200D01*
%TO.N,Net-(JP1-B)*%
X128270000Y-97663000D02*
X130470000Y-97663000D01*
%TO.N,/TB_IN_PWM_A*%
X143510000Y-99187000D02*
X149733000Y-99187000D01*
X152678400Y-87782803D02*
X152781000Y-87680203D01*
X142278003Y-100418997D02*
X143510000Y-99187000D01*
X152678400Y-89763600D02*
X152678400Y-87782803D01*
X142278003Y-101486600D02*
X142278003Y-100418997D01*
%TO.N,/TB_IN_PWM_B*%
X133782800Y-91059000D02*
X132487400Y-89763600D01*
X141845400Y-99676799D02*
X141654043Y-99676799D01*
X139005244Y-97028000D02*
X135001000Y-97028000D01*
X141654043Y-99676799D02*
X139005244Y-97028000D01*
X134620000Y-91059000D02*
X133782800Y-91059000D01*
D43*
%TO.N,/TB_Temp*%
X148971000Y-80010000D02*
X149085000Y-80010000D01*
X149085000Y-80010000D02*
X149720000Y-80645000D01*
D41*
X145716200Y-90115600D02*
X143807502Y-90115600D01*
X143807502Y-90115600D02*
X142516784Y-88824882D01*
X147904200Y-92303600D02*
X145716200Y-90115600D01*
D43*
X142570200Y-84460800D02*
X142570200Y-85808000D01*
D41*
%TO.N,/CAN_RX*%
X132045000Y-95653200D02*
X136682396Y-95653200D01*
X136682396Y-95653200D02*
X137248625Y-95086971D01*
%TO.N,/CAN_SILENT*%
X126849800Y-91948000D02*
X126745000Y-91843200D01*
X128016000Y-91948000D02*
X126849800Y-91948000D01*
%TO.N,/CAN_TX*%
X137119690Y-96126205D02*
X136979895Y-96266000D01*
X131191000Y-96266000D02*
X130937000Y-96012000D01*
X131695000Y-91843200D02*
X132045000Y-91843200D01*
X130937000Y-96012000D02*
X130937000Y-92601200D01*
X130937000Y-92601200D02*
X131695000Y-91843200D01*
X136979895Y-96266000D02*
X131191000Y-96266000D01*
%TD*%
%TA.AperFunction,Conductor*%
%TO.N,+3.3V*%
G36*
X152978039Y-76727685D02*
G01*
X153023794Y-76780489D01*
X153035000Y-76832000D01*
X153035000Y-78997000D01*
X153015315Y-79064039D01*
X152962511Y-79109794D01*
X152911000Y-79121000D01*
X152050331Y-79121000D01*
X151983292Y-79101315D01*
X151937537Y-79048511D01*
X151927593Y-78979353D01*
X151927858Y-78977602D01*
X151932500Y-78948293D01*
X151932500Y-78431306D01*
X151916720Y-78331678D01*
X151916719Y-78331676D01*
X151916719Y-78331674D01*
X151855528Y-78211580D01*
X151855526Y-78211578D01*
X151855523Y-78211574D01*
X151760225Y-78116276D01*
X151760221Y-78116273D01*
X151760220Y-78116272D01*
X151640126Y-78055081D01*
X151640124Y-78055080D01*
X151640121Y-78055079D01*
X151540493Y-78039300D01*
X151540488Y-78039300D01*
X150973512Y-78039300D01*
X150973505Y-78039300D01*
X150892397Y-78052146D01*
X150823104Y-78043191D01*
X150769652Y-77998195D01*
X150749013Y-77931443D01*
X150749000Y-77929673D01*
X150749000Y-76832000D01*
X150768685Y-76764961D01*
X150821489Y-76719206D01*
X150873000Y-76708000D01*
X152911000Y-76708000D01*
X152978039Y-76727685D01*
G37*
%TD.AperFunction*%
%TD*%
%TA.AperFunction,Conductor*%
%TO.N,/H_BRID/MOTOR_OUT_A-*%
G36*
X148787039Y-81350485D02*
G01*
X148832794Y-81403289D01*
X148844000Y-81454800D01*
X148844000Y-82877256D01*
X148824315Y-82944295D01*
X148807681Y-82964937D01*
X148595537Y-83177081D01*
X148534214Y-83210566D01*
X148507856Y-83213400D01*
X147799600Y-83213400D01*
X147732561Y-83193715D01*
X147686806Y-83140911D01*
X147675600Y-83089400D01*
X147675600Y-81454800D01*
X147695285Y-81387761D01*
X147748089Y-81342006D01*
X147799600Y-81330800D01*
X148720000Y-81330800D01*
X148787039Y-81350485D01*
G37*
%TD.AperFunction*%
%TD*%
%TA.AperFunction,Conductor*%
%TO.N,GND*%
G36*
X155950392Y-76180649D02*
G01*
X155958286Y-76181036D01*
X156213648Y-76193578D01*
X156221381Y-76194204D01*
X156281754Y-76201006D01*
X156285937Y-76201551D01*
X156519834Y-76236243D01*
X156529189Y-76238001D01*
X156560057Y-76245046D01*
X156562424Y-76245613D01*
X156794022Y-76303622D01*
X156812161Y-76308166D01*
X156823806Y-76311698D01*
X157089492Y-76406758D01*
X157100734Y-76411414D01*
X157355835Y-76532065D01*
X157366539Y-76537787D01*
X157587388Y-76670154D01*
X157589435Y-76671410D01*
X157616267Y-76688269D01*
X157624119Y-76693637D01*
X157742826Y-76781674D01*
X157813959Y-76834429D01*
X157817404Y-76837079D01*
X157864884Y-76874942D01*
X157870845Y-76880011D01*
X158065649Y-77056567D01*
X158070058Y-77060765D01*
X159158799Y-78149506D01*
X159162997Y-78153915D01*
X159340585Y-78349857D01*
X159345654Y-78355817D01*
X159381907Y-78401278D01*
X159384557Y-78404724D01*
X159526773Y-78596483D01*
X159532171Y-78604380D01*
X159547073Y-78628098D01*
X159548436Y-78630319D01*
X159682184Y-78853468D01*
X159687919Y-78864198D01*
X159808552Y-79119264D01*
X159808556Y-79119271D01*
X159813213Y-79130514D01*
X159908273Y-79396201D01*
X159911805Y-79407846D01*
X159975008Y-79660179D01*
X159975616Y-79662717D01*
X159981853Y-79690046D01*
X159983619Y-79699443D01*
X160018646Y-79935593D01*
X160019208Y-79939904D01*
X160025719Y-79997696D01*
X160026350Y-80005495D01*
X160033949Y-80160198D01*
X160038942Y-80261878D01*
X160039351Y-80270189D01*
X160039500Y-80276272D01*
X160039500Y-83792700D01*
X160019815Y-83859739D01*
X159967011Y-83905494D01*
X159915500Y-83916700D01*
X157898482Y-83916700D01*
X157817519Y-83929523D01*
X157804696Y-83931554D01*
X157691658Y-83989150D01*
X157691657Y-83989151D01*
X157691652Y-83989154D01*
X157601954Y-84078852D01*
X157601951Y-84078857D01*
X157601950Y-84078858D01*
X157582751Y-84116537D01*
X157544352Y-84191898D01*
X157529500Y-84285675D01*
X157529500Y-85148717D01*
X157539339Y-85210840D01*
X157544354Y-85242504D01*
X157601950Y-85355542D01*
X157601952Y-85355544D01*
X157601954Y-85355547D01*
X157691652Y-85445245D01*
X157691654Y-85445246D01*
X157691658Y-85445250D01*
X157777944Y-85489215D01*
X157804698Y-85502847D01*
X157898475Y-85517699D01*
X157898481Y-85517700D01*
X159915500Y-85517699D01*
X159982539Y-85537384D01*
X160028294Y-85590187D01*
X160039500Y-85641699D01*
X160039500Y-87992700D01*
X160019815Y-88059739D01*
X159967011Y-88105494D01*
X159915500Y-88116700D01*
X157898482Y-88116700D01*
X157817519Y-88129523D01*
X157804696Y-88131554D01*
X157691658Y-88189150D01*
X157691657Y-88189151D01*
X157691652Y-88189154D01*
X157601954Y-88278852D01*
X157601951Y-88278857D01*
X157544352Y-88391898D01*
X157529500Y-88485675D01*
X157529500Y-89348717D01*
X157536511Y-89392981D01*
X157544354Y-89442504D01*
X157601950Y-89555542D01*
X157601952Y-89555544D01*
X157601954Y-89555547D01*
X157691652Y-89645245D01*
X157691654Y-89645246D01*
X157691658Y-89645250D01*
X157798314Y-89699594D01*
X157804698Y-89702847D01*
X157898475Y-89717699D01*
X157898481Y-89717700D01*
X159915500Y-89717699D01*
X159982539Y-89737384D01*
X160028294Y-89790187D01*
X160039500Y-89841699D01*
X160039500Y-90642700D01*
X160019815Y-90709739D01*
X159967011Y-90755494D01*
X159915500Y-90766700D01*
X157898482Y-90766700D01*
X157817519Y-90779523D01*
X157804696Y-90781554D01*
X157691658Y-90839150D01*
X157691657Y-90839151D01*
X157691652Y-90839154D01*
X157601954Y-90928852D01*
X157601951Y-90928857D01*
X157601950Y-90928858D01*
X157582751Y-90966537D01*
X157544352Y-91041898D01*
X157529500Y-91135675D01*
X157529500Y-91998717D01*
X157545025Y-92096738D01*
X157536069Y-92166032D01*
X157491072Y-92219483D01*
X157424320Y-92240122D01*
X157390459Y-92235910D01*
X157291893Y-92209500D01*
X157291892Y-92209500D01*
X157160108Y-92209500D01*
X157032812Y-92243608D01*
X156918686Y-92309500D01*
X156918683Y-92309502D01*
X156873805Y-92354381D01*
X156846877Y-92369084D01*
X156821059Y-92385677D01*
X156814858Y-92386568D01*
X156812482Y-92387866D01*
X156786124Y-92390700D01*
X156679259Y-92390700D01*
X156612220Y-92371015D01*
X156591752Y-92351138D01*
X156590331Y-92352560D01*
X156502765Y-92264994D01*
X156399992Y-92219615D01*
X156374865Y-92216700D01*
X154785143Y-92216700D01*
X154785117Y-92216702D01*
X154760012Y-92219613D01*
X154760008Y-92219615D01*
X154657235Y-92264993D01*
X154577794Y-92344434D01*
X154532415Y-92447206D01*
X154532415Y-92447208D01*
X154529500Y-92472331D01*
X154529500Y-92862056D01*
X154529502Y-92862082D01*
X154532413Y-92887187D01*
X154532415Y-92887191D01*
X154577793Y-92989964D01*
X154665360Y-93077531D01*
X154662942Y-93079948D01*
X154694842Y-93119029D01*
X154702747Y-93188450D01*
X154671865Y-93251124D01*
X154665301Y-93256810D01*
X154665360Y-93256869D01*
X154577794Y-93344434D01*
X154532415Y-93447206D01*
X154532415Y-93447208D01*
X154529500Y-93472331D01*
X154529500Y-93862056D01*
X154529502Y-93862082D01*
X154532413Y-93887187D01*
X154532415Y-93887191D01*
X154577793Y-93989964D01*
X154577794Y-93989965D01*
X154657235Y-94069406D01*
X154760009Y-94114785D01*
X154785135Y-94117700D01*
X156374864Y-94117699D01*
X156374879Y-94117697D01*
X156374882Y-94117697D01*
X156399987Y-94114786D01*
X156399988Y-94114785D01*
X156399991Y-94114785D01*
X156502765Y-94069406D01*
X156582206Y-93989965D01*
X156582206Y-93989963D01*
X156585438Y-93986732D01*
X156585546Y-93986497D01*
X156585904Y-93986266D01*
X156590331Y-93981840D01*
X156591294Y-93982803D01*
X156609248Y-93971264D01*
X156631068Y-93953448D01*
X156639683Y-93951705D01*
X156644324Y-93948723D01*
X156679259Y-93943700D01*
X156811524Y-93943700D01*
X156878563Y-93963385D01*
X156899205Y-93980019D01*
X156918686Y-93999500D01*
X157012539Y-94053686D01*
X157029448Y-94063449D01*
X157032814Y-94065392D01*
X157160108Y-94099500D01*
X157160110Y-94099500D01*
X157291889Y-94099500D01*
X157291892Y-94099500D01*
X157399282Y-94070725D01*
X157469128Y-94072388D01*
X157526991Y-94111550D01*
X157554495Y-94175778D01*
X157545063Y-94231867D01*
X157547369Y-94232617D01*
X157544352Y-94241898D01*
X157529500Y-94335675D01*
X157529500Y-95198717D01*
X157534892Y-95232759D01*
X157544354Y-95292504D01*
X157601950Y-95405542D01*
X157601952Y-95405544D01*
X157601954Y-95405547D01*
X157691652Y-95495245D01*
X157691654Y-95495246D01*
X157691658Y-95495250D01*
X157781573Y-95541064D01*
X157804698Y-95552847D01*
X157898475Y-95567699D01*
X157898481Y-95567700D01*
X159915500Y-95567699D01*
X159982539Y-95587384D01*
X160028294Y-95640187D01*
X160039500Y-95691699D01*
X160039500Y-96500700D01*
X160019815Y-96567739D01*
X159967011Y-96613494D01*
X159915500Y-96624700D01*
X157898482Y-96624700D01*
X157817519Y-96637523D01*
X157804696Y-96639554D01*
X157691658Y-96697150D01*
X157691657Y-96697151D01*
X157691652Y-96697154D01*
X157601954Y-96786852D01*
X157601951Y-96786857D01*
X157601950Y-96786858D01*
X157598517Y-96793596D01*
X157544352Y-96899898D01*
X157529500Y-96993675D01*
X157529500Y-97856717D01*
X157538147Y-97911313D01*
X157544354Y-97950504D01*
X157601950Y-98063542D01*
X157601952Y-98063544D01*
X157601954Y-98063547D01*
X157691652Y-98153245D01*
X157691654Y-98153246D01*
X157691658Y-98153250D01*
X157788187Y-98202434D01*
X157804698Y-98210847D01*
X157898475Y-98225699D01*
X157898481Y-98225700D01*
X159915500Y-98225699D01*
X159982539Y-98245384D01*
X160028294Y-98298187D01*
X160039500Y-98349699D01*
X160039500Y-101700700D01*
X160019815Y-101767739D01*
X159967011Y-101813494D01*
X159915500Y-101824700D01*
X157898482Y-101824700D01*
X157817519Y-101837523D01*
X157804696Y-101839554D01*
X157691658Y-101897150D01*
X157691657Y-101897151D01*
X157691652Y-101897154D01*
X157601954Y-101986852D01*
X157601951Y-101986857D01*
X157544352Y-102099898D01*
X157529500Y-102193675D01*
X157529500Y-103056717D01*
X157537332Y-103106167D01*
X157544354Y-103150504D01*
X157601950Y-103263542D01*
X157601952Y-103263544D01*
X157601954Y-103263547D01*
X157691652Y-103353245D01*
X157691654Y-103353246D01*
X157691658Y-103353250D01*
X157792730Y-103404749D01*
X157804698Y-103410847D01*
X157898475Y-103425699D01*
X157898481Y-103425700D01*
X159915500Y-103425699D01*
X159982539Y-103445384D01*
X160028294Y-103498187D01*
X160039500Y-103549699D01*
X160039500Y-107084309D01*
X160039351Y-107090392D01*
X160026378Y-107354506D01*
X160025747Y-107362302D01*
X160025747Y-107362306D01*
X160019237Y-107420086D01*
X160018675Y-107424397D01*
X159983645Y-107660554D01*
X159981879Y-107669950D01*
X159975644Y-107697270D01*
X159975036Y-107699810D01*
X159911825Y-107952162D01*
X159908292Y-107963807D01*
X159813232Y-108229474D01*
X159808575Y-108240718D01*
X159687923Y-108495804D01*
X159682186Y-108506536D01*
X159548429Y-108729684D01*
X159547066Y-108731905D01*
X159532175Y-108755604D01*
X159526777Y-108763502D01*
X159384549Y-108955263D01*
X159381897Y-108958709D01*
X159345637Y-109004174D01*
X159340568Y-109010135D01*
X159162565Y-109206517D01*
X159158371Y-109210921D01*
X158070493Y-110298799D01*
X158066084Y-110302997D01*
X157870142Y-110480585D01*
X157864180Y-110485655D01*
X157818718Y-110521908D01*
X157815274Y-110524557D01*
X157623515Y-110666773D01*
X157615616Y-110672172D01*
X157591897Y-110687074D01*
X157589678Y-110688436D01*
X157366531Y-110822184D01*
X157355799Y-110827920D01*
X157100728Y-110948556D01*
X157089485Y-110953213D01*
X156823798Y-111048273D01*
X156812153Y-111051805D01*
X156559819Y-111115008D01*
X156557281Y-111115616D01*
X156529952Y-111121853D01*
X156520555Y-111123619D01*
X156284405Y-111158646D01*
X156280094Y-111159208D01*
X156222302Y-111165719D01*
X156214503Y-111166350D01*
X156021656Y-111175822D01*
X155949794Y-111179351D01*
X155943727Y-111179500D01*
X129135690Y-111179500D01*
X129129607Y-111179351D01*
X128866384Y-111166422D01*
X128858589Y-111165792D01*
X128798287Y-111158998D01*
X128793994Y-111158438D01*
X128560180Y-111123758D01*
X128550783Y-111121992D01*
X128520045Y-111114977D01*
X128517507Y-111114369D01*
X128267838Y-111051833D01*
X128256193Y-111048301D01*
X127990507Y-110953241D01*
X127979264Y-110948584D01*
X127826940Y-110876542D01*
X127724172Y-110827938D01*
X127713453Y-110822208D01*
X127492667Y-110689878D01*
X127490512Y-110688557D01*
X127463743Y-110671737D01*
X127455867Y-110666353D01*
X127266024Y-110525558D01*
X127262594Y-110522920D01*
X127215109Y-110485053D01*
X127209169Y-110480002D01*
X127209011Y-110479859D01*
X127014328Y-110303411D01*
X127009920Y-110299213D01*
X125921200Y-109210493D01*
X125917002Y-109206084D01*
X125891444Y-109177885D01*
X125739408Y-109010135D01*
X125734344Y-109004181D01*
X125734338Y-109004174D01*
X125698091Y-108958720D01*
X125695441Y-108955274D01*
X125637316Y-108876900D01*
X125553216Y-108763502D01*
X125547836Y-108755631D01*
X125532920Y-108731892D01*
X125531562Y-108729679D01*
X125397815Y-108506531D01*
X125392082Y-108495804D01*
X125271436Y-108240712D01*
X125266786Y-108229485D01*
X125266782Y-108229474D01*
X125171726Y-107963798D01*
X125168194Y-107952153D01*
X125155330Y-107900794D01*
X125104969Y-107699733D01*
X125104406Y-107697382D01*
X125098142Y-107669939D01*
X125096382Y-107660571D01*
X125061347Y-107424368D01*
X125060794Y-107420128D01*
X125054277Y-107362277D01*
X125053650Y-107354531D01*
X125040648Y-107089792D01*
X125040500Y-107083730D01*
X125040500Y-106554038D01*
X127939500Y-106554038D01*
X127939500Y-106554505D01*
X127939500Y-106805962D01*
X127963384Y-106956757D01*
X127978910Y-107054785D01*
X128056760Y-107294383D01*
X128131931Y-107441912D01*
X128164722Y-107506269D01*
X128171132Y-107518848D01*
X128319201Y-107722649D01*
X128319205Y-107722654D01*
X128497345Y-107900794D01*
X128497350Y-107900798D01*
X128626347Y-107994519D01*
X128701155Y-108048870D01*
X128844184Y-108121747D01*
X128925616Y-108163239D01*
X128925618Y-108163239D01*
X128925621Y-108163241D01*
X129165215Y-108241090D01*
X129414038Y-108280500D01*
X129414039Y-108280500D01*
X129665961Y-108280500D01*
X129665962Y-108280500D01*
X129914785Y-108241090D01*
X130154379Y-108163241D01*
X130378845Y-108048870D01*
X130582656Y-107900793D01*
X130760793Y-107722656D01*
X130908870Y-107518845D01*
X131023241Y-107294379D01*
X131101090Y-107054785D01*
X131140500Y-106805962D01*
X131140500Y-106554038D01*
X131101090Y-106305215D01*
X131023241Y-106065621D01*
X131023239Y-106065618D01*
X131023239Y-106065616D01*
X130971586Y-105964242D01*
X130908870Y-105841155D01*
X130812094Y-105707954D01*
X130760798Y-105637350D01*
X130760794Y-105637345D01*
X130582654Y-105459205D01*
X130582649Y-105459201D01*
X130378848Y-105311132D01*
X130378847Y-105311131D01*
X130378845Y-105311130D01*
X130279704Y-105260615D01*
X130154383Y-105196760D01*
X129914785Y-105118910D01*
X129855480Y-105109517D01*
X129665962Y-105079500D01*
X129414038Y-105079500D01*
X129323714Y-105093806D01*
X129165214Y-105118910D01*
X128925616Y-105196760D01*
X128701151Y-105311132D01*
X128497350Y-105459201D01*
X128497345Y-105459205D01*
X128319205Y-105637345D01*
X128319201Y-105637350D01*
X128171132Y-105841151D01*
X128056760Y-106065616D01*
X127978910Y-106305214D01*
X127953203Y-106467519D01*
X127939500Y-106554038D01*
X125040500Y-106554038D01*
X125040500Y-100073003D01*
X129884222Y-100073003D01*
X129884222Y-103459883D01*
X129884634Y-103472904D01*
X129885627Y-103488557D01*
X129902435Y-103557899D01*
X129930433Y-103621913D01*
X129930434Y-103621914D01*
X129961259Y-103671620D01*
X129961264Y-103671627D01*
X131464319Y-105463731D01*
X134517902Y-109104541D01*
X134517907Y-109104546D01*
X134539540Y-109126708D01*
X134567505Y-109151336D01*
X134567507Y-109151337D01*
X134645425Y-109194290D01*
X134678187Y-109203910D01*
X134712452Y-109213972D01*
X134712455Y-109213972D01*
X134712464Y-109213975D01*
X134770362Y-109222300D01*
X134770366Y-109222300D01*
X139795513Y-109222300D01*
X139795522Y-109222300D01*
X139839206Y-109217603D01*
X139868397Y-109211252D01*
X139890696Y-109206402D01*
X139890712Y-109206398D01*
X139890717Y-109206397D01*
X139900895Y-109203910D01*
X139981607Y-109160900D01*
X140034411Y-109115145D01*
X140052365Y-109097554D01*
X140097012Y-109017737D01*
X140116697Y-108950698D01*
X140125022Y-108892800D01*
X140125022Y-106169000D01*
X140120325Y-106125316D01*
X140114937Y-106100548D01*
X140109124Y-106073825D01*
X140108870Y-106072789D01*
X140106632Y-106063627D01*
X140063622Y-105982915D01*
X140017867Y-105930111D01*
X140017861Y-105930104D01*
X140000279Y-105912160D01*
X140000278Y-105912159D01*
X140000276Y-105912157D01*
X140000274Y-105912156D01*
X140000272Y-105912154D01*
X139920462Y-105867511D01*
X139920457Y-105867509D01*
X139853425Y-105847826D01*
X139853421Y-105847825D01*
X139853420Y-105847825D01*
X139795522Y-105839500D01*
X139193000Y-105839500D01*
X139192992Y-105839500D01*
X139149313Y-105844197D01*
X139097825Y-105855397D01*
X139087627Y-105857890D01*
X139087624Y-105857891D01*
X139006916Y-105900899D01*
X139006913Y-105900901D01*
X138954104Y-105946660D01*
X138936160Y-105964242D01*
X138936154Y-105964249D01*
X138891511Y-106044059D01*
X138891509Y-106044064D01*
X138871826Y-106111096D01*
X138871825Y-106111101D01*
X138871825Y-106111102D01*
X138863502Y-106168992D01*
X138863500Y-106169003D01*
X138863500Y-106817159D01*
X138862804Y-106821249D01*
X138863339Y-106823484D01*
X138856540Y-106858118D01*
X138851053Y-106873797D01*
X138851050Y-106873805D01*
X138843726Y-106894734D01*
X138826458Y-106927407D01*
X138804798Y-106956757D01*
X138778657Y-106982898D01*
X138749307Y-107004558D01*
X138748306Y-107005086D01*
X138747947Y-107005547D01*
X138716630Y-107021828D01*
X138700303Y-107027541D01*
X138700283Y-107027548D01*
X138680013Y-107034641D01*
X138639057Y-107041600D01*
X137947941Y-107041600D01*
X137906986Y-107034641D01*
X137870361Y-107021825D01*
X137869363Y-107021297D01*
X137868780Y-107021260D01*
X137837688Y-107004556D01*
X137808341Y-106982898D01*
X137808339Y-106982896D01*
X137782204Y-106956762D01*
X137760536Y-106927402D01*
X137743270Y-106894732D01*
X137730458Y-106858116D01*
X137723500Y-106817163D01*
X137723500Y-106169008D01*
X137723499Y-106168992D01*
X137722428Y-106159029D01*
X137718803Y-106125316D01*
X137713415Y-106100548D01*
X137707602Y-106073825D01*
X137707348Y-106072789D01*
X137705110Y-106063627D01*
X137662100Y-105982915D01*
X137616345Y-105930111D01*
X137616339Y-105930104D01*
X137598757Y-105912160D01*
X137598756Y-105912159D01*
X137598754Y-105912157D01*
X137598752Y-105912156D01*
X137598750Y-105912154D01*
X137518940Y-105867511D01*
X137518935Y-105867509D01*
X137451903Y-105847826D01*
X137451899Y-105847825D01*
X137451898Y-105847825D01*
X137394000Y-105839500D01*
X137393996Y-105839500D01*
X135167938Y-105839500D01*
X135100899Y-105819815D01*
X135067955Y-105788845D01*
X134865441Y-105512780D01*
X134813761Y-105442330D01*
X140468000Y-105442330D01*
X140468000Y-106850869D01*
X140470853Y-106881299D01*
X140470853Y-106881301D01*
X140514330Y-107005547D01*
X140515707Y-107009482D01*
X140596350Y-107118750D01*
X140705618Y-107199393D01*
X140736463Y-107210186D01*
X140779089Y-107225102D01*
X140835865Y-107265824D01*
X140861612Y-107330777D01*
X140848155Y-107399338D01*
X140811769Y-107441912D01*
X140724570Y-107506269D01*
X140645045Y-107614019D01*
X140645044Y-107614021D01*
X140600815Y-107740418D01*
X140600813Y-107740430D01*
X140598000Y-107770431D01*
X140598000Y-108789968D01*
X140600813Y-108819969D01*
X140600815Y-108819981D01*
X140645044Y-108946378D01*
X140645045Y-108946380D01*
X140697078Y-109016881D01*
X140721049Y-109082510D01*
X140705734Y-109150680D01*
X140684990Y-109178196D01*
X140628500Y-109234686D01*
X140562608Y-109348812D01*
X140528500Y-109476108D01*
X140528500Y-109607891D01*
X140562608Y-109735187D01*
X140593569Y-109788812D01*
X140628500Y-109849314D01*
X140721686Y-109942500D01*
X140820521Y-109999563D01*
X140823871Y-110001497D01*
X140835814Y-110008392D01*
X140963108Y-110042500D01*
X140963110Y-110042500D01*
X141094890Y-110042500D01*
X141094892Y-110042500D01*
X141222186Y-110008392D01*
X141336314Y-109942500D01*
X141429500Y-109849314D01*
X141495392Y-109735186D01*
X141529500Y-109607892D01*
X141529500Y-109535108D01*
X143517500Y-109535108D01*
X143517500Y-109666892D01*
X143519802Y-109675482D01*
X143551608Y-109794187D01*
X143581511Y-109845980D01*
X143617500Y-109908314D01*
X143710686Y-110001500D01*
X143824814Y-110067392D01*
X143952108Y-110101500D01*
X143952110Y-110101500D01*
X144083890Y-110101500D01*
X144083892Y-110101500D01*
X144211186Y-110067392D01*
X144325314Y-110001500D01*
X144410706Y-109916108D01*
X146311500Y-109916108D01*
X146311500Y-110047891D01*
X146345608Y-110175187D01*
X146378554Y-110232250D01*
X146411500Y-110289314D01*
X146504686Y-110382500D01*
X146618814Y-110448392D01*
X146746108Y-110482500D01*
X146746110Y-110482500D01*
X146877888Y-110482500D01*
X146877892Y-110482500D01*
X146881466Y-110481542D01*
X146884599Y-110481616D01*
X146885948Y-110481439D01*
X146885975Y-110481649D01*
X146951313Y-110483203D01*
X147001242Y-110513635D01*
X147072652Y-110585045D01*
X147072654Y-110585046D01*
X147072658Y-110585050D01*
X147184332Y-110641951D01*
X147185698Y-110642647D01*
X147279475Y-110657499D01*
X147279481Y-110657500D01*
X147742518Y-110657499D01*
X147836304Y-110642646D01*
X147949342Y-110585050D01*
X148039050Y-110495342D01*
X148096646Y-110382304D01*
X148096646Y-110382302D01*
X148096647Y-110382301D01*
X148109417Y-110301673D01*
X148111500Y-110288519D01*
X148111499Y-109675482D01*
X148111498Y-109675475D01*
X148560500Y-109675475D01*
X148560500Y-110288517D01*
X148567466Y-110332500D01*
X148575354Y-110382304D01*
X148632950Y-110495342D01*
X148632952Y-110495344D01*
X148632954Y-110495347D01*
X148722652Y-110585045D01*
X148722654Y-110585046D01*
X148722658Y-110585050D01*
X148834332Y-110641951D01*
X148835698Y-110642647D01*
X148929475Y-110657499D01*
X148929481Y-110657500D01*
X149392518Y-110657499D01*
X149486304Y-110642646D01*
X149599342Y-110585050D01*
X149689050Y-110495342D01*
X149689642Y-110494179D01*
X149690733Y-110493023D01*
X149694783Y-110487450D01*
X149695503Y-110487973D01*
X149737610Y-110443382D01*
X149805430Y-110426581D01*
X149871567Y-110449114D01*
X149899528Y-110481370D01*
X149901609Y-110479859D01*
X149907346Y-110487756D01*
X150001243Y-110581653D01*
X150001245Y-110581654D01*
X150001249Y-110581658D01*
X150119580Y-110641951D01*
X150119581Y-110641951D01*
X150119583Y-110641952D01*
X150119582Y-110641952D01*
X150217749Y-110657500D01*
X150217754Y-110657500D01*
X150721251Y-110657500D01*
X150819417Y-110641952D01*
X150819418Y-110641951D01*
X150819420Y-110641951D01*
X150937751Y-110581658D01*
X151031658Y-110487751D01*
X151091951Y-110369420D01*
X151091951Y-110369418D01*
X151091952Y-110369417D01*
X151107500Y-110271251D01*
X151107500Y-109692748D01*
X151091952Y-109594582D01*
X151085286Y-109581500D01*
X151031658Y-109476249D01*
X151031654Y-109476245D01*
X151031653Y-109476243D01*
X150937756Y-109382346D01*
X150937753Y-109382344D01*
X150937751Y-109382342D01*
X150819420Y-109322049D01*
X150819419Y-109322048D01*
X150819416Y-109322047D01*
X150819417Y-109322047D01*
X150721251Y-109306500D01*
X150721246Y-109306500D01*
X150217754Y-109306500D01*
X150217749Y-109306500D01*
X150119582Y-109322047D01*
X150040692Y-109362244D01*
X150001249Y-109382342D01*
X150001248Y-109382343D01*
X150001243Y-109382346D01*
X149907346Y-109476243D01*
X149901609Y-109484141D01*
X149898937Y-109482200D01*
X149862589Y-109520651D01*
X149794760Y-109537415D01*
X149728635Y-109514846D01*
X149695203Y-109476244D01*
X149694783Y-109476550D01*
X149691213Y-109471636D01*
X149689644Y-109469825D01*
X149689050Y-109468658D01*
X149689047Y-109468655D01*
X149689045Y-109468652D01*
X149599347Y-109378954D01*
X149599344Y-109378952D01*
X149599342Y-109378950D01*
X149522517Y-109339805D01*
X149486301Y-109321352D01*
X149392524Y-109306500D01*
X148929482Y-109306500D01*
X148848519Y-109319323D01*
X148835696Y-109321354D01*
X148722658Y-109378950D01*
X148722657Y-109378951D01*
X148722652Y-109378954D01*
X148632954Y-109468652D01*
X148632951Y-109468657D01*
X148632950Y-109468658D01*
X148625210Y-109483849D01*
X148575352Y-109581698D01*
X148560500Y-109675475D01*
X148111498Y-109675475D01*
X148096646Y-109581696D01*
X148039050Y-109468658D01*
X148039046Y-109468654D01*
X148039045Y-109468652D01*
X147949347Y-109378954D01*
X147949344Y-109378952D01*
X147949342Y-109378950D01*
X147872517Y-109339805D01*
X147836301Y-109321352D01*
X147742524Y-109306500D01*
X147279482Y-109306500D01*
X147198519Y-109319323D01*
X147185696Y-109321354D01*
X147072658Y-109378950D01*
X147072657Y-109378951D01*
X147072656Y-109378951D01*
X147001242Y-109450365D01*
X146939918Y-109483849D01*
X146881476Y-109482460D01*
X146877895Y-109481500D01*
X146877892Y-109481500D01*
X146746108Y-109481500D01*
X146618812Y-109515608D01*
X146504686Y-109581500D01*
X146504683Y-109581502D01*
X146411502Y-109674683D01*
X146411500Y-109674686D01*
X146345608Y-109788812D01*
X146311500Y-109916108D01*
X144410706Y-109916108D01*
X144418500Y-109908314D01*
X144484392Y-109794186D01*
X144518500Y-109666892D01*
X144518500Y-109535108D01*
X144484392Y-109407814D01*
X144418500Y-109293686D01*
X144325314Y-109200500D01*
X144256725Y-109160900D01*
X144211187Y-109134608D01*
X144099947Y-109104802D01*
X144083892Y-109100500D01*
X143952108Y-109100500D01*
X143824812Y-109134608D01*
X143710686Y-109200500D01*
X143710683Y-109200502D01*
X143617502Y-109293683D01*
X143617500Y-109293686D01*
X143551608Y-109407812D01*
X143531156Y-109484141D01*
X143517500Y-109535108D01*
X141529500Y-109535108D01*
X141529500Y-109476108D01*
X141495392Y-109348814D01*
X141491942Y-109342839D01*
X141488721Y-109326035D01*
X141490910Y-109303340D01*
X141488474Y-109280668D01*
X141494202Y-109269225D01*
X141495431Y-109256488D01*
X141509544Y-109238578D01*
X141519751Y-109218190D01*
X141530756Y-109211660D01*
X141538677Y-109201610D01*
X141560230Y-109194174D01*
X141579841Y-109182540D01*
X141598919Y-109179232D01*
X141613274Y-109177886D01*
X141613278Y-109177884D01*
X141613281Y-109177884D01*
X141689147Y-109151337D01*
X141739679Y-109133655D01*
X141847430Y-109054130D01*
X141926955Y-108946379D01*
X141971186Y-108819974D01*
X141974000Y-108789964D01*
X141974000Y-108294355D01*
X141993685Y-108227316D01*
X142046489Y-108181561D01*
X142115647Y-108171617D01*
X142179203Y-108200642D01*
X142185681Y-108206674D01*
X142270052Y-108291045D01*
X142270054Y-108291046D01*
X142270058Y-108291050D01*
X142383094Y-108348645D01*
X142383098Y-108348647D01*
X142476875Y-108363499D01*
X142476881Y-108363500D01*
X142939918Y-108363499D01*
X143033704Y-108348646D01*
X143146742Y-108291050D01*
X143236450Y-108201342D01*
X143294046Y-108088304D01*
X143294046Y-108088302D01*
X143294047Y-108088301D01*
X143308899Y-107994524D01*
X143308900Y-107994519D01*
X143308899Y-107634542D01*
X143328583Y-107567504D01*
X143345213Y-107546867D01*
X143546220Y-107345861D01*
X143607542Y-107312377D01*
X143677234Y-107317361D01*
X143733167Y-107359233D01*
X143757584Y-107424697D01*
X143757900Y-107433543D01*
X143757900Y-107994517D01*
X143766404Y-108048209D01*
X143772754Y-108088304D01*
X143830350Y-108201342D01*
X143830352Y-108201344D01*
X143830354Y-108201347D01*
X143920052Y-108291045D01*
X143920054Y-108291046D01*
X143920058Y-108291050D01*
X144033094Y-108348645D01*
X144033098Y-108348647D01*
X144126875Y-108363499D01*
X144126881Y-108363500D01*
X144589918Y-108363499D01*
X144683704Y-108348646D01*
X144796742Y-108291050D01*
X144886450Y-108201342D01*
X144938594Y-108099003D01*
X144986568Y-108048209D01*
X145049078Y-108031300D01*
X145529124Y-108031300D01*
X145596163Y-108050985D01*
X145632225Y-108086408D01*
X145658246Y-108125351D01*
X145724569Y-108169667D01*
X145724570Y-108169668D01*
X145783047Y-108181299D01*
X145783050Y-108181300D01*
X145783052Y-108181300D01*
X147022550Y-108181300D01*
X147022551Y-108181299D01*
X147037368Y-108178352D01*
X147081029Y-108169668D01*
X147081029Y-108169667D01*
X147081031Y-108169667D01*
X147147352Y-108125352D01*
X147191667Y-108059031D01*
X147191667Y-108059029D01*
X147191668Y-108059029D01*
X147203299Y-108000552D01*
X147203300Y-108000550D01*
X147203300Y-107361049D01*
X147203299Y-107361047D01*
X147191668Y-107302570D01*
X147191667Y-107302568D01*
X147173040Y-107274692D01*
X147152161Y-107208015D01*
X147170645Y-107140635D01*
X147173040Y-107136908D01*
X147191667Y-107109031D01*
X147191668Y-107109029D01*
X147203299Y-107050552D01*
X147203300Y-107050550D01*
X147203300Y-106411049D01*
X147203299Y-106411047D01*
X147191668Y-106352570D01*
X147191667Y-106352568D01*
X147173040Y-106324692D01*
X147152161Y-106258015D01*
X147170645Y-106190635D01*
X147173040Y-106186908D01*
X147191667Y-106159031D01*
X147191668Y-106159029D01*
X147203299Y-106100552D01*
X147203300Y-106100550D01*
X147203300Y-105461049D01*
X147203299Y-105461047D01*
X147191668Y-105402570D01*
X147191667Y-105402569D01*
X147147352Y-105336248D01*
X147093553Y-105300300D01*
X147048749Y-105246687D01*
X147040042Y-105177362D01*
X147070197Y-105114335D01*
X147074745Y-105109536D01*
X147281663Y-104902619D01*
X147342986Y-104869134D01*
X147369344Y-104866300D01*
X147756293Y-104866300D01*
X147855921Y-104850520D01*
X147855921Y-104850519D01*
X147855926Y-104850519D01*
X147976020Y-104789328D01*
X148071328Y-104694020D01*
X148132519Y-104573926D01*
X148136958Y-104545901D01*
X148148300Y-104474293D01*
X148148300Y-103907306D01*
X148132520Y-103807678D01*
X148132519Y-103807676D01*
X148132519Y-103807674D01*
X148071328Y-103687580D01*
X148071326Y-103687578D01*
X148071323Y-103687574D01*
X147976025Y-103592276D01*
X147976022Y-103592274D01*
X147976020Y-103592272D01*
X147971332Y-103589883D01*
X147920538Y-103541910D01*
X147903743Y-103474089D01*
X147926281Y-103407954D01*
X147971332Y-103368916D01*
X147976020Y-103366528D01*
X148071328Y-103271220D01*
X148132519Y-103151126D01*
X148135652Y-103131347D01*
X148148300Y-103051493D01*
X148148300Y-102484506D01*
X148132520Y-102384878D01*
X148132519Y-102384876D01*
X148132519Y-102384874D01*
X148071328Y-102264780D01*
X148071326Y-102264778D01*
X148071323Y-102264774D01*
X147976025Y-102169476D01*
X147976021Y-102169473D01*
X147976020Y-102169472D01*
X147855926Y-102108281D01*
X147855924Y-102108280D01*
X147855921Y-102108279D01*
X147756293Y-102092500D01*
X147756288Y-102092500D01*
X147239312Y-102092500D01*
X147239307Y-102092500D01*
X147139678Y-102108279D01*
X147019578Y-102169473D01*
X147019574Y-102169476D01*
X146924276Y-102264774D01*
X146924271Y-102264781D01*
X146884529Y-102342778D01*
X146836554Y-102393574D01*
X146768733Y-102410368D01*
X146702598Y-102387830D01*
X146659148Y-102333114D01*
X146657002Y-102327431D01*
X146656193Y-102325118D01*
X146575550Y-102215850D01*
X146466282Y-102135207D01*
X146466280Y-102135206D01*
X146338100Y-102090353D01*
X146307670Y-102087500D01*
X146307666Y-102087500D01*
X145649134Y-102087500D01*
X145649130Y-102087500D01*
X145618700Y-102090353D01*
X145618698Y-102090353D01*
X145490519Y-102135206D01*
X145490517Y-102135207D01*
X145381250Y-102215850D01*
X145300607Y-102325117D01*
X145300606Y-102325119D01*
X145255753Y-102453298D01*
X145255753Y-102453300D01*
X145252900Y-102483730D01*
X145252900Y-103992269D01*
X145255753Y-104022699D01*
X145255753Y-104022701D01*
X145300606Y-104150880D01*
X145300607Y-104150882D01*
X145381250Y-104260150D01*
X145490518Y-104340793D01*
X145533245Y-104355744D01*
X145618699Y-104385646D01*
X145649130Y-104388500D01*
X145649134Y-104388500D01*
X146307670Y-104388500D01*
X146338099Y-104385646D01*
X146338101Y-104385646D01*
X146407690Y-104361295D01*
X146466282Y-104340793D01*
X146575550Y-104260150D01*
X146623531Y-104195137D01*
X146679177Y-104152888D01*
X146748833Y-104147429D01*
X146810383Y-104180496D01*
X146844284Y-104241590D01*
X146847300Y-104268772D01*
X146847300Y-104294256D01*
X146827615Y-104361295D01*
X146810981Y-104381937D01*
X146122331Y-105070586D01*
X146122329Y-105070589D01*
X146099854Y-105109517D01*
X146091092Y-105124694D01*
X146076186Y-105150512D01*
X146064129Y-105195508D01*
X146061391Y-105202354D01*
X146044176Y-105224257D01*
X146029671Y-105248054D01*
X146022879Y-105251352D01*
X146018216Y-105257287D01*
X145991888Y-105266407D01*
X145966824Y-105278583D01*
X145953540Y-105279692D01*
X145952196Y-105280158D01*
X145951110Y-105279895D01*
X145946261Y-105280300D01*
X145783047Y-105280300D01*
X145724570Y-105291931D01*
X145724569Y-105291932D01*
X145658246Y-105336248D01*
X145632225Y-105375192D01*
X145626134Y-105380281D01*
X145622837Y-105387503D01*
X145599706Y-105402367D01*
X145578613Y-105419996D01*
X145569239Y-105421947D01*
X145564059Y-105425277D01*
X145529124Y-105430300D01*
X145482900Y-105430300D01*
X145415861Y-105410615D01*
X145370106Y-105357811D01*
X145358900Y-105306300D01*
X145358900Y-104900231D01*
X145356163Y-104871048D01*
X145356086Y-104870226D01*
X145356084Y-104870222D01*
X145356084Y-104870218D01*
X145311855Y-104743821D01*
X145311854Y-104743819D01*
X145232330Y-104636069D01*
X145124580Y-104556545D01*
X145124578Y-104556544D01*
X144998181Y-104512315D01*
X144998169Y-104512313D01*
X144968168Y-104509500D01*
X144968164Y-104509500D01*
X144373636Y-104509500D01*
X144373632Y-104509500D01*
X144343630Y-104512313D01*
X144343618Y-104512315D01*
X144217221Y-104556544D01*
X144217219Y-104556545D01*
X144109469Y-104636069D01*
X144029945Y-104743819D01*
X144029944Y-104743821D01*
X143985715Y-104870218D01*
X143985713Y-104870230D01*
X143982900Y-104900231D01*
X143982900Y-105919768D01*
X143985713Y-105949769D01*
X143985715Y-105949781D01*
X144027047Y-106067898D01*
X144029945Y-106076179D01*
X144108537Y-106182666D01*
X144132508Y-106248294D01*
X144117193Y-106316465D01*
X144067453Y-106365533D01*
X144008767Y-106380300D01*
X143619456Y-106380300D01*
X143530312Y-106404186D01*
X143530309Y-106404187D01*
X143450391Y-106450327D01*
X143450386Y-106450331D01*
X142924535Y-106976181D01*
X142863212Y-107009666D01*
X142836854Y-107012500D01*
X142476882Y-107012500D01*
X142395919Y-107025323D01*
X142383096Y-107027354D01*
X142270058Y-107084950D01*
X142270057Y-107084951D01*
X142270052Y-107084954D01*
X142180354Y-107174652D01*
X142180349Y-107174659D01*
X142131874Y-107269796D01*
X142083900Y-107320591D01*
X142021390Y-107337500D01*
X141971085Y-107337500D01*
X141904046Y-107317815D01*
X141858291Y-107265011D01*
X141848347Y-107195853D01*
X141877372Y-107132297D01*
X141884481Y-107125723D01*
X141884079Y-107125321D01*
X141890646Y-107118752D01*
X141890650Y-107118750D01*
X141971293Y-107009482D01*
X141993719Y-106945390D01*
X142016146Y-106881301D01*
X142016146Y-106881299D01*
X142019000Y-106850869D01*
X142019000Y-105442330D01*
X142016146Y-105411900D01*
X142016146Y-105411898D01*
X141982506Y-105315763D01*
X141971293Y-105283718D01*
X141890650Y-105174450D01*
X141781382Y-105093807D01*
X141781380Y-105093806D01*
X141653200Y-105048953D01*
X141622770Y-105046100D01*
X141622766Y-105046100D01*
X140864234Y-105046100D01*
X140864230Y-105046100D01*
X140833800Y-105048953D01*
X140833798Y-105048953D01*
X140705619Y-105093806D01*
X140705617Y-105093807D01*
X140596350Y-105174450D01*
X140515707Y-105283717D01*
X140515706Y-105283719D01*
X140470853Y-105411898D01*
X140470853Y-105411900D01*
X140468000Y-105442330D01*
X134813761Y-105442330D01*
X134694602Y-105279895D01*
X134594717Y-105143733D01*
X134570937Y-105078036D01*
X134586450Y-105009910D01*
X134636332Y-104960986D01*
X134704745Y-104946796D01*
X134735656Y-104953348D01*
X134825099Y-104984646D01*
X134855530Y-104987500D01*
X134855534Y-104987500D01*
X136264070Y-104987500D01*
X136294499Y-104984646D01*
X136294501Y-104984646D01*
X136362116Y-104960986D01*
X136422682Y-104939793D01*
X136531950Y-104859150D01*
X136612593Y-104749882D01*
X136641140Y-104668300D01*
X136657446Y-104621701D01*
X136657446Y-104621699D01*
X136660300Y-104591269D01*
X136660300Y-102482730D01*
X136657446Y-102452300D01*
X136657446Y-102452298D01*
X136622514Y-102352472D01*
X136612593Y-102324118D01*
X136531950Y-102214850D01*
X136422682Y-102134207D01*
X136422680Y-102134206D01*
X136294500Y-102089353D01*
X136264070Y-102086500D01*
X136264066Y-102086500D01*
X134855534Y-102086500D01*
X134855530Y-102086500D01*
X134825100Y-102089353D01*
X134825098Y-102089353D01*
X134696919Y-102134206D01*
X134696917Y-102134207D01*
X134587650Y-102214850D01*
X134507007Y-102324117D01*
X134507006Y-102324119D01*
X134462153Y-102452298D01*
X134462153Y-102452300D01*
X134459300Y-102482730D01*
X134459300Y-104580457D01*
X134439615Y-104647496D01*
X134386811Y-104693251D01*
X134317653Y-104703195D01*
X134254097Y-104674170D01*
X134235317Y-104653802D01*
X133367239Y-103470447D01*
X133343458Y-103404749D01*
X133343222Y-103397102D01*
X133343222Y-100073008D01*
X133343221Y-100072992D01*
X133342030Y-100061918D01*
X133338525Y-100029316D01*
X133334619Y-100011364D01*
X133327324Y-99977825D01*
X133327070Y-99976789D01*
X133324832Y-99967627D01*
X133281822Y-99886915D01*
X133236067Y-99834111D01*
X133236061Y-99834104D01*
X133218479Y-99816160D01*
X133218478Y-99816159D01*
X133218476Y-99816157D01*
X133218474Y-99816156D01*
X133218472Y-99816154D01*
X133138662Y-99771511D01*
X133138657Y-99771509D01*
X133071625Y-99751826D01*
X133071621Y-99751825D01*
X133071620Y-99751825D01*
X133013722Y-99743500D01*
X130213722Y-99743500D01*
X130213714Y-99743500D01*
X130170035Y-99748197D01*
X130118547Y-99759397D01*
X130108349Y-99761890D01*
X130108346Y-99761891D01*
X130027638Y-99804899D01*
X130027635Y-99804901D01*
X129974826Y-99850660D01*
X129956882Y-99868242D01*
X129956876Y-99868249D01*
X129912233Y-99948059D01*
X129912231Y-99948064D01*
X129892548Y-100015096D01*
X129892547Y-100015101D01*
X129892547Y-100015102D01*
X129884224Y-100072992D01*
X129884222Y-100073003D01*
X125040500Y-100073003D01*
X125040500Y-99527508D01*
X139250300Y-99527508D01*
X139250300Y-99659292D01*
X139253050Y-99669554D01*
X139284408Y-99786587D01*
X139311843Y-99834104D01*
X139350300Y-99900714D01*
X139443486Y-99993900D01*
X139542321Y-100050963D01*
X139555909Y-100058808D01*
X139557614Y-100059792D01*
X139684908Y-100093900D01*
X139684910Y-100093900D01*
X139816690Y-100093900D01*
X139816692Y-100093900D01*
X139943986Y-100059792D01*
X140058114Y-99993900D01*
X140151300Y-99900714D01*
X140217192Y-99786586D01*
X140251300Y-99659292D01*
X140251300Y-99527508D01*
X140217192Y-99400214D01*
X140151300Y-99286086D01*
X140058114Y-99192900D01*
X140001050Y-99159954D01*
X139943987Y-99127008D01*
X139880339Y-99109954D01*
X139816692Y-99092900D01*
X139684908Y-99092900D01*
X139557612Y-99127008D01*
X139443486Y-99192900D01*
X139443483Y-99192902D01*
X139350302Y-99286083D01*
X139350300Y-99286086D01*
X139284408Y-99400212D01*
X139259194Y-99494313D01*
X139250300Y-99527508D01*
X125040500Y-99527508D01*
X125040500Y-97597108D01*
X125737500Y-97597108D01*
X125737500Y-97728891D01*
X125771608Y-97856187D01*
X125785662Y-97880528D01*
X125837500Y-97970314D01*
X125930686Y-98063500D01*
X126044814Y-98129392D01*
X126172108Y-98163500D01*
X126172110Y-98163500D01*
X126243395Y-98163500D01*
X126310434Y-98183185D01*
X126350782Y-98225500D01*
X126406934Y-98322759D01*
X126439590Y-98365316D01*
X126532683Y-98458409D01*
X126567324Y-98484991D01*
X126575243Y-98491067D01*
X126689257Y-98556893D01*
X126689262Y-98556895D01*
X126689268Y-98556898D01*
X126738811Y-98577419D01*
X126738813Y-98577419D01*
X126738819Y-98577422D01*
X126865986Y-98611497D01*
X126919174Y-98618500D01*
X126919180Y-98618500D01*
X127485003Y-98618500D01*
X127485003Y-98618499D01*
X127530728Y-98613348D01*
X127550893Y-98603637D01*
X127575354Y-98591857D01*
X127644295Y-98580504D01*
X127681336Y-98596055D01*
X127683248Y-98592087D01*
X127695835Y-98598148D01*
X127695836Y-98598148D01*
X127695837Y-98598149D01*
X127762428Y-98613348D01*
X127784995Y-98618499D01*
X127785000Y-98618500D01*
X128350820Y-98618500D01*
X128350826Y-98618500D01*
X128404014Y-98611497D01*
X128531181Y-98577422D01*
X128580743Y-98556893D01*
X128694757Y-98491067D01*
X128737317Y-98458409D01*
X128830409Y-98365317D01*
X128863067Y-98322757D01*
X128928893Y-98208743D01*
X128949422Y-98159181D01*
X128983497Y-98032014D01*
X128983497Y-98032007D01*
X128983659Y-98031406D01*
X129020024Y-97971746D01*
X129082871Y-97941217D01*
X129103434Y-97939500D01*
X129782439Y-97939500D01*
X129849478Y-97959185D01*
X129895233Y-98011989D01*
X129904912Y-98044101D01*
X129907953Y-98063300D01*
X129907952Y-98063300D01*
X129907953Y-98063303D01*
X129907954Y-98063304D01*
X129965550Y-98176342D01*
X129965552Y-98176344D01*
X129965554Y-98176347D01*
X130055252Y-98266045D01*
X130055254Y-98266046D01*
X130055258Y-98266050D01*
X130166551Y-98322757D01*
X130168298Y-98323647D01*
X130262075Y-98338499D01*
X130262081Y-98338500D01*
X130725118Y-98338499D01*
X130818904Y-98323646D01*
X130931942Y-98266050D01*
X131021650Y-98176342D01*
X131079246Y-98063304D01*
X131079246Y-98063302D01*
X131079247Y-98063301D01*
X131094099Y-97969524D01*
X131094100Y-97969519D01*
X131094099Y-97356482D01*
X131079246Y-97262696D01*
X131064411Y-97233582D01*
X131051515Y-97164915D01*
X131077791Y-97100174D01*
X131134897Y-97059916D01*
X131204702Y-97056924D01*
X131262577Y-97089607D01*
X131506781Y-97333811D01*
X131540266Y-97395134D01*
X131543100Y-97421492D01*
X131543100Y-97969517D01*
X131553263Y-98033686D01*
X131557954Y-98063304D01*
X131615550Y-98176342D01*
X131615552Y-98176344D01*
X131615554Y-98176347D01*
X131705252Y-98266045D01*
X131705254Y-98266046D01*
X131705258Y-98266050D01*
X131816551Y-98322757D01*
X131818298Y-98323647D01*
X131912075Y-98338499D01*
X131912081Y-98338500D01*
X132375118Y-98338499D01*
X132468904Y-98323646D01*
X132581942Y-98266050D01*
X132671650Y-98176342D01*
X132729246Y-98063304D01*
X132729246Y-98063302D01*
X132729247Y-98063301D01*
X132744099Y-97969524D01*
X132744100Y-97969519D01*
X132744099Y-97356482D01*
X132729246Y-97262696D01*
X132671650Y-97149658D01*
X132671646Y-97149654D01*
X132671645Y-97149652D01*
X132581947Y-97059954D01*
X132581944Y-97059952D01*
X132581942Y-97059950D01*
X132505117Y-97020805D01*
X132468901Y-97002352D01*
X132375124Y-96987500D01*
X132375119Y-96987500D01*
X131993892Y-96987500D01*
X131926853Y-96967815D01*
X131906211Y-96951181D01*
X131709211Y-96754181D01*
X131675726Y-96692858D01*
X131680710Y-96623166D01*
X131722582Y-96567233D01*
X131788046Y-96542816D01*
X131796892Y-96542500D01*
X134488602Y-96542500D01*
X134555641Y-96562185D01*
X134601396Y-96614989D01*
X134611340Y-96684147D01*
X134595990Y-96728496D01*
X134571862Y-96770288D01*
X134534608Y-96834812D01*
X134508701Y-96931500D01*
X134500500Y-96962108D01*
X134500500Y-97093892D01*
X134514849Y-97147445D01*
X134534608Y-97221187D01*
X134541766Y-97233584D01*
X134600500Y-97335314D01*
X134693686Y-97428500D01*
X134765244Y-97469814D01*
X134803052Y-97491643D01*
X134807814Y-97494392D01*
X134935108Y-97528500D01*
X134935110Y-97528500D01*
X135062497Y-97528500D01*
X135129536Y-97548185D01*
X135175291Y-97600989D01*
X135186497Y-97652500D01*
X135186497Y-97669891D01*
X135220605Y-97797187D01*
X135236901Y-97825412D01*
X135286497Y-97911314D01*
X135379683Y-98004500D01*
X135427339Y-98032014D01*
X135481868Y-98063497D01*
X135493811Y-98070392D01*
X135621105Y-98104500D01*
X135621107Y-98104500D01*
X135752887Y-98104500D01*
X135752889Y-98104500D01*
X135880183Y-98070392D01*
X135994311Y-98004500D01*
X136087497Y-97911314D01*
X136153389Y-97797186D01*
X136187497Y-97669892D01*
X136187497Y-97538108D01*
X136166727Y-97460592D01*
X136168390Y-97390743D01*
X136207553Y-97332881D01*
X136271781Y-97305377D01*
X136286502Y-97304500D01*
X138839352Y-97304500D01*
X138868792Y-97313144D01*
X138898779Y-97319668D01*
X138903794Y-97323422D01*
X138906391Y-97324185D01*
X138927033Y-97340819D01*
X138946479Y-97360265D01*
X138979964Y-97421588D01*
X138974980Y-97491280D01*
X138933108Y-97547213D01*
X138920799Y-97555332D01*
X138812092Y-97618095D01*
X138812083Y-97618102D01*
X138718902Y-97711283D01*
X138718900Y-97711286D01*
X138653008Y-97825412D01*
X138629991Y-97911314D01*
X138618900Y-97952708D01*
X138618900Y-98084492D01*
X138630931Y-98129391D01*
X138636751Y-98151113D01*
X138635088Y-98220963D01*
X138595925Y-98278825D01*
X138531696Y-98306329D01*
X138500789Y-98306145D01*
X138495893Y-98305500D01*
X138495892Y-98305500D01*
X138364108Y-98305500D01*
X138236812Y-98339608D01*
X138122686Y-98405500D01*
X138122683Y-98405502D01*
X138029502Y-98498683D01*
X138029500Y-98498686D01*
X137963608Y-98612812D01*
X137962084Y-98618500D01*
X137929500Y-98740108D01*
X137929500Y-98871892D01*
X137939086Y-98907666D01*
X137963608Y-98999187D01*
X137994388Y-99052499D01*
X138029500Y-99113314D01*
X138122686Y-99206500D01*
X138236814Y-99272392D01*
X138364108Y-99306500D01*
X138364110Y-99306500D01*
X138495890Y-99306500D01*
X138495892Y-99306500D01*
X138623186Y-99272392D01*
X138737314Y-99206500D01*
X138830500Y-99113314D01*
X138896392Y-98999186D01*
X138930500Y-98871892D01*
X138930500Y-98740108D01*
X138912648Y-98673483D01*
X138914311Y-98603637D01*
X138953473Y-98545774D01*
X139017701Y-98518270D01*
X139048618Y-98518455D01*
X139053502Y-98519098D01*
X139053508Y-98519100D01*
X139053514Y-98519100D01*
X139185290Y-98519100D01*
X139185292Y-98519100D01*
X139312586Y-98484992D01*
X139426714Y-98419100D01*
X139519900Y-98325914D01*
X139577759Y-98225700D01*
X139582666Y-98217201D01*
X139633233Y-98168985D01*
X139701840Y-98155763D01*
X139766705Y-98181731D01*
X139777734Y-98191520D01*
X141327259Y-99741045D01*
X141359352Y-99796630D01*
X141379008Y-99869985D01*
X141444900Y-99984113D01*
X141538086Y-100077299D01*
X141652214Y-100143191D01*
X141779508Y-100177299D01*
X141779510Y-100177299D01*
X141893257Y-100177299D01*
X141960296Y-100196984D01*
X142006051Y-100249788D01*
X142015995Y-100318946D01*
X142007818Y-100348753D01*
X142001503Y-100363997D01*
X142001503Y-101002927D01*
X141981818Y-101069966D01*
X141929014Y-101115721D01*
X141859856Y-101125665D01*
X141796300Y-101096640D01*
X141789822Y-101090608D01*
X141785316Y-101086102D01*
X141785314Y-101086100D01*
X141728250Y-101053154D01*
X141671187Y-101020208D01*
X141581041Y-100996054D01*
X141543892Y-100986100D01*
X141412108Y-100986100D01*
X141284812Y-101020208D01*
X141170686Y-101086100D01*
X141170682Y-101086103D01*
X141121702Y-101135083D01*
X141060379Y-101168567D01*
X140990687Y-101163582D01*
X140946341Y-101135082D01*
X140895344Y-101084085D01*
X140895342Y-101084083D01*
X140802153Y-101030280D01*
X140781215Y-101018191D01*
X140696529Y-100995500D01*
X140653920Y-100984083D01*
X140522136Y-100984083D01*
X140394840Y-101018191D01*
X140280714Y-101084083D01*
X140280711Y-101084085D01*
X140187530Y-101177266D01*
X140187528Y-101177269D01*
X140121636Y-101291395D01*
X140104322Y-101356014D01*
X140087528Y-101418691D01*
X140087528Y-101550475D01*
X140104582Y-101614122D01*
X140121636Y-101677770D01*
X140146056Y-101720065D01*
X140187528Y-101791897D01*
X140280714Y-101885083D01*
X140369731Y-101936477D01*
X140392633Y-101949700D01*
X140394842Y-101950975D01*
X140522136Y-101985083D01*
X140522138Y-101985083D01*
X140653917Y-101985083D01*
X140653920Y-101985083D01*
X140706538Y-101970984D01*
X140737205Y-101971714D01*
X140767840Y-101970249D01*
X140771806Y-101972537D01*
X140776385Y-101972647D01*
X140801791Y-101989842D01*
X140828355Y-102005172D01*
X140830453Y-102009241D01*
X140834248Y-102011809D01*
X140846324Y-102040009D01*
X140860384Y-102067268D01*
X140859949Y-102071827D01*
X140861752Y-102076037D01*
X140856666Y-102106282D01*
X140853756Y-102136823D01*
X140850769Y-102141351D01*
X140850166Y-102144940D01*
X140836115Y-102167392D01*
X140831539Y-102173212D01*
X140739972Y-102264780D01*
X140703886Y-102335601D01*
X140696394Y-102345133D01*
X140677414Y-102358653D01*
X140661418Y-102375591D01*
X140648875Y-102378983D01*
X140639487Y-102385672D01*
X140620855Y-102386563D01*
X140598908Y-102392500D01*
X140508092Y-102392500D01*
X140441053Y-102372815D01*
X140397608Y-102324795D01*
X140367030Y-102264783D01*
X140367028Y-102264781D01*
X140367028Y-102264780D01*
X140367026Y-102264778D01*
X140367023Y-102264774D01*
X140271725Y-102169476D01*
X140271721Y-102169473D01*
X140271720Y-102169472D01*
X140151626Y-102108281D01*
X140151624Y-102108280D01*
X140151621Y-102108279D01*
X140051993Y-102092500D01*
X140051988Y-102092500D01*
X139485012Y-102092500D01*
X139485007Y-102092500D01*
X139385378Y-102108279D01*
X139265278Y-102169473D01*
X139265274Y-102169476D01*
X139169976Y-102264774D01*
X139169969Y-102264783D01*
X139139392Y-102324795D01*
X139128943Y-102335857D01*
X139122621Y-102349703D01*
X139105439Y-102360744D01*
X139091418Y-102375591D01*
X139075738Y-102379832D01*
X139063843Y-102387477D01*
X139028908Y-102392500D01*
X138938092Y-102392500D01*
X138871053Y-102372815D01*
X138827608Y-102324795D01*
X138797030Y-102264783D01*
X138797028Y-102264781D01*
X138797028Y-102264780D01*
X138797026Y-102264778D01*
X138797023Y-102264774D01*
X138701725Y-102169476D01*
X138701721Y-102169473D01*
X138701720Y-102169472D01*
X138581626Y-102108281D01*
X138581624Y-102108280D01*
X138581621Y-102108279D01*
X138481993Y-102092500D01*
X138481988Y-102092500D01*
X137915012Y-102092500D01*
X137915007Y-102092500D01*
X137815378Y-102108279D01*
X137695278Y-102169473D01*
X137695274Y-102169476D01*
X137599976Y-102264774D01*
X137599973Y-102264778D01*
X137538779Y-102384878D01*
X137523000Y-102484506D01*
X137523000Y-103001493D01*
X137538779Y-103101121D01*
X137538780Y-103101124D01*
X137538781Y-103101126D01*
X137599970Y-103221216D01*
X137599973Y-103221221D01*
X137599976Y-103221225D01*
X137695274Y-103316523D01*
X137695278Y-103316526D01*
X137695280Y-103316528D01*
X137815374Y-103377719D01*
X137815376Y-103377719D01*
X137815378Y-103377720D01*
X137915007Y-103393500D01*
X137915012Y-103393500D01*
X138481993Y-103393500D01*
X138581621Y-103377720D01*
X138581621Y-103377719D01*
X138581626Y-103377719D01*
X138701720Y-103316528D01*
X138797028Y-103221220D01*
X138798412Y-103218503D01*
X138827608Y-103161205D01*
X138838056Y-103150142D01*
X138844379Y-103136297D01*
X138861560Y-103125255D01*
X138875582Y-103110409D01*
X138891261Y-103106167D01*
X138903157Y-103098523D01*
X138938092Y-103093500D01*
X139028908Y-103093500D01*
X139095947Y-103113185D01*
X139139392Y-103161205D01*
X139169969Y-103221216D01*
X139169976Y-103221225D01*
X139265274Y-103316523D01*
X139265278Y-103316526D01*
X139265280Y-103316528D01*
X139385374Y-103377719D01*
X139385376Y-103377719D01*
X139385378Y-103377720D01*
X139485007Y-103393500D01*
X139485012Y-103393500D01*
X140051993Y-103393500D01*
X140151621Y-103377720D01*
X140151621Y-103377719D01*
X140151626Y-103377719D01*
X140271720Y-103316528D01*
X140367028Y-103221220D01*
X140368412Y-103218503D01*
X140397608Y-103161205D01*
X140408056Y-103150142D01*
X140414379Y-103136297D01*
X140431560Y-103125255D01*
X140445582Y-103110409D01*
X140461261Y-103106167D01*
X140473157Y-103098523D01*
X140508092Y-103093500D01*
X140598908Y-103093500D01*
X140665947Y-103113185D01*
X140709392Y-103161205D01*
X140739969Y-103221216D01*
X140739976Y-103221225D01*
X140835274Y-103316523D01*
X140835278Y-103316526D01*
X140835280Y-103316528D01*
X140955374Y-103377719D01*
X140955376Y-103377719D01*
X140955378Y-103377720D01*
X141055007Y-103393500D01*
X141055012Y-103393500D01*
X141621993Y-103393500D01*
X141721621Y-103377720D01*
X141721621Y-103377719D01*
X141721626Y-103377719D01*
X141841720Y-103316528D01*
X141864749Y-103293499D01*
X141891219Y-103267030D01*
X141952542Y-103233545D01*
X142022234Y-103238529D01*
X142078167Y-103280401D01*
X142102584Y-103345865D01*
X142102900Y-103354711D01*
X142102900Y-103992269D01*
X142105753Y-104022699D01*
X142105753Y-104022701D01*
X142150606Y-104150880D01*
X142150607Y-104150882D01*
X142231250Y-104260150D01*
X142340518Y-104340793D01*
X142383245Y-104355744D01*
X142468699Y-104385646D01*
X142499130Y-104388500D01*
X142499134Y-104388500D01*
X143157670Y-104388500D01*
X143188099Y-104385646D01*
X143188101Y-104385646D01*
X143257690Y-104361295D01*
X143316282Y-104340793D01*
X143425550Y-104260150D01*
X143506193Y-104150882D01*
X143528619Y-104086790D01*
X143551046Y-104022701D01*
X143551046Y-104022699D01*
X143553900Y-103992269D01*
X143553900Y-102865144D01*
X143573585Y-102798105D01*
X143590219Y-102777463D01*
X144634863Y-101732819D01*
X144696186Y-101699334D01*
X144722544Y-101696500D01*
X149015256Y-101696500D01*
X149044696Y-101705144D01*
X149074683Y-101711668D01*
X149079698Y-101715422D01*
X149082295Y-101716185D01*
X149102937Y-101732819D01*
X149250937Y-101880819D01*
X149284422Y-101942142D01*
X149279438Y-102011834D01*
X149237566Y-102067767D01*
X149172102Y-102092184D01*
X149163256Y-102092500D01*
X148789307Y-102092500D01*
X148689678Y-102108279D01*
X148569578Y-102169473D01*
X148569574Y-102169476D01*
X148474276Y-102264774D01*
X148474273Y-102264778D01*
X148413079Y-102384878D01*
X148397300Y-102484506D01*
X148397300Y-103051493D01*
X148413079Y-103151121D01*
X148413080Y-103151124D01*
X148413081Y-103151126D01*
X148474272Y-103271220D01*
X148474273Y-103271221D01*
X148474276Y-103271225D01*
X148569574Y-103366523D01*
X148569578Y-103366526D01*
X148569580Y-103366528D01*
X148569582Y-103366529D01*
X148574268Y-103368917D01*
X148625063Y-103416893D01*
X148641856Y-103484715D01*
X148619316Y-103550849D01*
X148574268Y-103589883D01*
X148569582Y-103592270D01*
X148569574Y-103592276D01*
X148474276Y-103687574D01*
X148474273Y-103687578D01*
X148413079Y-103807678D01*
X148397300Y-103907306D01*
X148397300Y-104474293D01*
X148413079Y-104573921D01*
X148413080Y-104573924D01*
X148413081Y-104573926D01*
X148474271Y-104694018D01*
X148474273Y-104694021D01*
X148474276Y-104694025D01*
X148569574Y-104789323D01*
X148569577Y-104789325D01*
X148569580Y-104789328D01*
X148629595Y-104819907D01*
X148640657Y-104830355D01*
X148654503Y-104836678D01*
X148665544Y-104853859D01*
X148680390Y-104867880D01*
X148684631Y-104883559D01*
X148692277Y-104895456D01*
X148697300Y-104930391D01*
X148697300Y-105156300D01*
X148677615Y-105223339D01*
X148624811Y-105269094D01*
X148573300Y-105280300D01*
X148283047Y-105280300D01*
X148224570Y-105291931D01*
X148224569Y-105291932D01*
X148158247Y-105336247D01*
X148113932Y-105402569D01*
X148113931Y-105402570D01*
X148102300Y-105461047D01*
X148102300Y-106100552D01*
X148113931Y-106159029D01*
X148113932Y-106159030D01*
X148158247Y-106225352D01*
X148224569Y-106269667D01*
X148224570Y-106269668D01*
X148283047Y-106281299D01*
X148283050Y-106281300D01*
X148283052Y-106281300D01*
X149522550Y-106281300D01*
X149522551Y-106281299D01*
X149537368Y-106278352D01*
X149581029Y-106269668D01*
X149581029Y-106269667D01*
X149581031Y-106269667D01*
X149647352Y-106225352D01*
X149656197Y-106212113D01*
X149709807Y-106167309D01*
X149779131Y-106158599D01*
X149842160Y-106188752D01*
X149878881Y-106248194D01*
X149883300Y-106281002D01*
X149883300Y-106467517D01*
X149898154Y-106561304D01*
X149935327Y-106634261D01*
X149948223Y-106702930D01*
X149921946Y-106767671D01*
X149912523Y-106778236D01*
X149546779Y-107143981D01*
X149485456Y-107177466D01*
X149459098Y-107180300D01*
X148283047Y-107180300D01*
X148224570Y-107191931D01*
X148224569Y-107191932D01*
X148158247Y-107236247D01*
X148113932Y-107302569D01*
X148113931Y-107302570D01*
X148102300Y-107361047D01*
X148102300Y-108000552D01*
X148113931Y-108059029D01*
X148113932Y-108059030D01*
X148158247Y-108125352D01*
X148224569Y-108169667D01*
X148224570Y-108169668D01*
X148283047Y-108181299D01*
X148283050Y-108181300D01*
X148283052Y-108181300D01*
X149522550Y-108181300D01*
X149522551Y-108181299D01*
X149537368Y-108178352D01*
X149581029Y-108169668D01*
X149581029Y-108169667D01*
X149581031Y-108169667D01*
X149647352Y-108125352D01*
X149691667Y-108059031D01*
X149701356Y-108010321D01*
X149733740Y-107948412D01*
X149735292Y-107946832D01*
X149984854Y-107697270D01*
X150813429Y-106868693D01*
X150874750Y-106835210D01*
X150881689Y-106833906D01*
X150959104Y-106821646D01*
X151072142Y-106764050D01*
X151161850Y-106674342D01*
X151219446Y-106561304D01*
X151219446Y-106561302D01*
X151219447Y-106561301D01*
X151220597Y-106554038D01*
X153939500Y-106554038D01*
X153939500Y-106554505D01*
X153939500Y-106805962D01*
X153963384Y-106956757D01*
X153978910Y-107054785D01*
X154056760Y-107294383D01*
X154131931Y-107441912D01*
X154164722Y-107506269D01*
X154171132Y-107518848D01*
X154319201Y-107722649D01*
X154319205Y-107722654D01*
X154497345Y-107900794D01*
X154497350Y-107900798D01*
X154626347Y-107994519D01*
X154701155Y-108048870D01*
X154844184Y-108121747D01*
X154925616Y-108163239D01*
X154925618Y-108163239D01*
X154925621Y-108163241D01*
X155165215Y-108241090D01*
X155414038Y-108280500D01*
X155414039Y-108280500D01*
X155665961Y-108280500D01*
X155665962Y-108280500D01*
X155914785Y-108241090D01*
X156154379Y-108163241D01*
X156378845Y-108048870D01*
X156582656Y-107900793D01*
X156760793Y-107722656D01*
X156908870Y-107518845D01*
X157023241Y-107294379D01*
X157101090Y-107054785D01*
X157140500Y-106805962D01*
X157140500Y-106554038D01*
X157101090Y-106305215D01*
X157023241Y-106065621D01*
X157023239Y-106065618D01*
X157023239Y-106065616D01*
X156971586Y-105964242D01*
X156908870Y-105841155D01*
X156812094Y-105707954D01*
X156760798Y-105637350D01*
X156760794Y-105637345D01*
X156582654Y-105459205D01*
X156582649Y-105459201D01*
X156378848Y-105311132D01*
X156378847Y-105311131D01*
X156378845Y-105311130D01*
X156279704Y-105260615D01*
X156154383Y-105196760D01*
X155914785Y-105118910D01*
X155855480Y-105109517D01*
X155665962Y-105079500D01*
X155414038Y-105079500D01*
X155323714Y-105093806D01*
X155165214Y-105118910D01*
X154925616Y-105196760D01*
X154701151Y-105311132D01*
X154497350Y-105459201D01*
X154497345Y-105459205D01*
X154319205Y-105637345D01*
X154319201Y-105637350D01*
X154171132Y-105841151D01*
X154056760Y-106065616D01*
X153978910Y-106305214D01*
X153953203Y-106467519D01*
X153939500Y-106554038D01*
X151220597Y-106554038D01*
X151224442Y-106529767D01*
X151224442Y-106529765D01*
X151234299Y-106467525D01*
X151234300Y-106467519D01*
X151234299Y-106004482D01*
X151219446Y-105910696D01*
X151161850Y-105797658D01*
X151161846Y-105797654D01*
X151161845Y-105797652D01*
X151072147Y-105707954D01*
X151072143Y-105707951D01*
X151072142Y-105707950D01*
X151068937Y-105706317D01*
X150977004Y-105659474D01*
X150926209Y-105611500D01*
X150909300Y-105548990D01*
X150909300Y-105030009D01*
X150928985Y-104962970D01*
X150977002Y-104919526D01*
X151072142Y-104871050D01*
X151161850Y-104781342D01*
X151197587Y-104711203D01*
X151208035Y-104700140D01*
X151214358Y-104686297D01*
X151231538Y-104675255D01*
X151245561Y-104660409D01*
X151261240Y-104656167D01*
X151273136Y-104648523D01*
X151308071Y-104643500D01*
X151317808Y-104643500D01*
X151384847Y-104663185D01*
X151428292Y-104711205D01*
X151458869Y-104771216D01*
X151458876Y-104771225D01*
X151554174Y-104866523D01*
X151554178Y-104866526D01*
X151554180Y-104866528D01*
X151674274Y-104927719D01*
X151674276Y-104927719D01*
X151674278Y-104927720D01*
X151773907Y-104943500D01*
X151773912Y-104943500D01*
X152340893Y-104943500D01*
X152440521Y-104927720D01*
X152440521Y-104927719D01*
X152440526Y-104927719D01*
X152560620Y-104866528D01*
X152655928Y-104771220D01*
X152717119Y-104651126D01*
X152719504Y-104636069D01*
X152732900Y-104551493D01*
X152732900Y-104034506D01*
X152717120Y-103934878D01*
X152717119Y-103934876D01*
X152717119Y-103934874D01*
X152655928Y-103814780D01*
X152655926Y-103814778D01*
X152655923Y-103814774D01*
X152560625Y-103719476D01*
X152560621Y-103719473D01*
X152560620Y-103719472D01*
X152440526Y-103658281D01*
X152440524Y-103658280D01*
X152440521Y-103658279D01*
X152340893Y-103642500D01*
X152340888Y-103642500D01*
X151773912Y-103642500D01*
X151773907Y-103642500D01*
X151674278Y-103658279D01*
X151554178Y-103719473D01*
X151554174Y-103719476D01*
X151458876Y-103814774D01*
X151458869Y-103814783D01*
X151428292Y-103874795D01*
X151417843Y-103885857D01*
X151411521Y-103899703D01*
X151394339Y-103910744D01*
X151380318Y-103925591D01*
X151364638Y-103929832D01*
X151352743Y-103937477D01*
X151317808Y-103942500D01*
X151251055Y-103942500D01*
X151184016Y-103922815D01*
X151163374Y-103906181D01*
X151072147Y-103814954D01*
X151072144Y-103814952D01*
X151072142Y-103814950D01*
X150995317Y-103775805D01*
X150959101Y-103757352D01*
X150865324Y-103742500D01*
X150252282Y-103742500D01*
X150171319Y-103755323D01*
X150158496Y-103757354D01*
X150045458Y-103814950D01*
X150045457Y-103814951D01*
X150045452Y-103814954D01*
X149955754Y-103904652D01*
X149955749Y-103904659D01*
X149932170Y-103950935D01*
X149884195Y-104001731D01*
X149816374Y-104018525D01*
X149750239Y-103995987D01*
X149706788Y-103941271D01*
X149699874Y-103911995D01*
X149699063Y-103912124D01*
X149682520Y-103807678D01*
X149682519Y-103807676D01*
X149682519Y-103807674D01*
X149621328Y-103687580D01*
X149621326Y-103687578D01*
X149621323Y-103687574D01*
X149526025Y-103592276D01*
X149526022Y-103592274D01*
X149526020Y-103592272D01*
X149521332Y-103589883D01*
X149470538Y-103541910D01*
X149453743Y-103474089D01*
X149476281Y-103407954D01*
X149521332Y-103368916D01*
X149526020Y-103366528D01*
X149621328Y-103271220D01*
X149682519Y-103151126D01*
X149685652Y-103131347D01*
X149690002Y-103103884D01*
X149719931Y-103040749D01*
X149779242Y-103003817D01*
X149849105Y-103004815D01*
X149907338Y-103043424D01*
X149922957Y-103066982D01*
X149942923Y-103106167D01*
X149955749Y-103131340D01*
X149955754Y-103131347D01*
X150045452Y-103221045D01*
X150045454Y-103221046D01*
X150045458Y-103221050D01*
X150143922Y-103271220D01*
X150158498Y-103278647D01*
X150252275Y-103293499D01*
X150252281Y-103293500D01*
X150865318Y-103293499D01*
X150959104Y-103278646D01*
X151072142Y-103221050D01*
X151161850Y-103131342D01*
X151172111Y-103111204D01*
X151182559Y-103100141D01*
X151188882Y-103086297D01*
X151206064Y-103075254D01*
X151220086Y-103060409D01*
X151235764Y-103056168D01*
X151247660Y-103048523D01*
X151282595Y-103043500D01*
X151292332Y-103043500D01*
X151359371Y-103063185D01*
X151402815Y-103111203D01*
X151458872Y-103221220D01*
X151458874Y-103221222D01*
X151458876Y-103221225D01*
X151554174Y-103316523D01*
X151554178Y-103316526D01*
X151554180Y-103316528D01*
X151674274Y-103377719D01*
X151674276Y-103377719D01*
X151674278Y-103377720D01*
X151773907Y-103393500D01*
X151773912Y-103393500D01*
X152340893Y-103393500D01*
X152440521Y-103377720D01*
X152440521Y-103377719D01*
X152440526Y-103377719D01*
X152560620Y-103316528D01*
X152655928Y-103221220D01*
X152717119Y-103101126D01*
X152722526Y-103066987D01*
X152732900Y-103001493D01*
X152732900Y-102484506D01*
X152717120Y-102384878D01*
X152717119Y-102384876D01*
X152717119Y-102384874D01*
X152655928Y-102264780D01*
X152655926Y-102264778D01*
X152655923Y-102264774D01*
X152560625Y-102169476D01*
X152560621Y-102169473D01*
X152560620Y-102169472D01*
X152440526Y-102108281D01*
X152440524Y-102108280D01*
X152440521Y-102108279D01*
X152340893Y-102092500D01*
X152340888Y-102092500D01*
X151773912Y-102092500D01*
X151773907Y-102092500D01*
X151674278Y-102108279D01*
X151554178Y-102169473D01*
X151554174Y-102169476D01*
X151458876Y-102264774D01*
X151458871Y-102264780D01*
X151453770Y-102274794D01*
X151443320Y-102285857D01*
X151436998Y-102299703D01*
X151419816Y-102310744D01*
X151405796Y-102325590D01*
X151390116Y-102329831D01*
X151378220Y-102337477D01*
X151343285Y-102342500D01*
X151282595Y-102342500D01*
X151215556Y-102322815D01*
X151172111Y-102274796D01*
X151167004Y-102264774D01*
X151161850Y-102254658D01*
X151161847Y-102254655D01*
X151161845Y-102254652D01*
X151072147Y-102164954D01*
X151072144Y-102164952D01*
X151072142Y-102164950D01*
X150986233Y-102121177D01*
X150959101Y-102107352D01*
X150865324Y-102092500D01*
X150865319Y-102092500D01*
X150505344Y-102092500D01*
X150438305Y-102072815D01*
X150417663Y-102056181D01*
X149427013Y-101065531D01*
X149427008Y-101065527D01*
X149347086Y-101019385D01*
X149347088Y-101019385D01*
X149342632Y-101018192D01*
X149342629Y-101018190D01*
X149342629Y-101018191D01*
X149285662Y-101002927D01*
X149257944Y-100995500D01*
X144479856Y-100995500D01*
X144395171Y-101018191D01*
X144395170Y-101018191D01*
X144390714Y-101019384D01*
X144390713Y-101019385D01*
X144310791Y-101065527D01*
X144310786Y-101065531D01*
X143315689Y-102060627D01*
X143254366Y-102094112D01*
X143195784Y-102090524D01*
X143195470Y-102091964D01*
X143188094Y-102090353D01*
X143157670Y-102087500D01*
X143157666Y-102087500D01*
X142684279Y-102087500D01*
X142617240Y-102067815D01*
X142571485Y-102015011D01*
X142561541Y-101945853D01*
X142590566Y-101882297D01*
X142596598Y-101875819D01*
X142632863Y-101839554D01*
X142678503Y-101793914D01*
X142744395Y-101679786D01*
X142778503Y-101552492D01*
X142778503Y-101420708D01*
X142744395Y-101293414D01*
X142743230Y-101291397D01*
X142735566Y-101278121D01*
X142678503Y-101179286D01*
X142590821Y-101091604D01*
X142557337Y-101030280D01*
X142554503Y-101003923D01*
X142554503Y-100584889D01*
X142563147Y-100555448D01*
X142569671Y-100525462D01*
X142573425Y-100520446D01*
X142574188Y-100517850D01*
X142590822Y-100497208D01*
X142628722Y-100459308D01*
X154083900Y-100459308D01*
X154083900Y-100591091D01*
X154118008Y-100718387D01*
X154118977Y-100720065D01*
X154183900Y-100832514D01*
X154277086Y-100925700D01*
X154363687Y-100975699D01*
X154391214Y-100991592D01*
X154393829Y-100992675D01*
X154395697Y-100994180D01*
X154398253Y-100995656D01*
X154398023Y-100996054D01*
X154448235Y-101036512D01*
X154470305Y-101102805D01*
X154453030Y-101170505D01*
X154434066Y-101194919D01*
X154387103Y-101241882D01*
X154387100Y-101241886D01*
X154321208Y-101356012D01*
X154287100Y-101483308D01*
X154287100Y-101615091D01*
X154321208Y-101742387D01*
X154349793Y-101791896D01*
X154387100Y-101856514D01*
X154480286Y-101949700D01*
X154545065Y-101987100D01*
X154593407Y-102015011D01*
X154594414Y-102015592D01*
X154721708Y-102049700D01*
X154721710Y-102049700D01*
X154853490Y-102049700D01*
X154853492Y-102049700D01*
X154980786Y-102015592D01*
X155021105Y-101992312D01*
X155083106Y-101975699D01*
X156374856Y-101975699D01*
X156374864Y-101975699D01*
X156374879Y-101975697D01*
X156374882Y-101975697D01*
X156399987Y-101972786D01*
X156399988Y-101972785D01*
X156399991Y-101972785D01*
X156502765Y-101927406D01*
X156582206Y-101847965D01*
X156627585Y-101745191D01*
X156630500Y-101720065D01*
X156630499Y-101330336D01*
X156630497Y-101330317D01*
X156627586Y-101305212D01*
X156627585Y-101305210D01*
X156627585Y-101305209D01*
X156582206Y-101202435D01*
X156502765Y-101122994D01*
X156494640Y-101114869D01*
X156497058Y-101112450D01*
X156465165Y-101073390D01*
X156457249Y-101003970D01*
X156488121Y-100941290D01*
X156494699Y-100935590D01*
X156494640Y-100935531D01*
X156504474Y-100925697D01*
X156582206Y-100847965D01*
X156627585Y-100745191D01*
X156630500Y-100720065D01*
X156630499Y-100330336D01*
X156629178Y-100318946D01*
X156627586Y-100305212D01*
X156627585Y-100305210D01*
X156627585Y-100305209D01*
X156582206Y-100202435D01*
X156502765Y-100122994D01*
X156399992Y-100077615D01*
X156374868Y-100074700D01*
X156374865Y-100074700D01*
X154838338Y-100074700D01*
X154785648Y-100060581D01*
X154785095Y-100061918D01*
X154777585Y-100058807D01*
X154667508Y-100029313D01*
X154650292Y-100024700D01*
X154518508Y-100024700D01*
X154391212Y-100058808D01*
X154277086Y-100124700D01*
X154277083Y-100124702D01*
X154183902Y-100217883D01*
X154183900Y-100217886D01*
X154118008Y-100332012D01*
X154083900Y-100459308D01*
X142628722Y-100459308D01*
X143588211Y-99499819D01*
X143649534Y-99466334D01*
X143675892Y-99463500D01*
X149250323Y-99463500D01*
X149317362Y-99483185D01*
X149338004Y-99499818D01*
X149425686Y-99587500D01*
X149539814Y-99653392D01*
X149667108Y-99687500D01*
X149667110Y-99687500D01*
X149798890Y-99687500D01*
X149798892Y-99687500D01*
X149926186Y-99653392D01*
X150040314Y-99587500D01*
X150133500Y-99494314D01*
X150199392Y-99380186D01*
X150233500Y-99252892D01*
X150233500Y-99121108D01*
X150199392Y-98993814D01*
X150133500Y-98879686D01*
X150040314Y-98786500D01*
X149968756Y-98745186D01*
X149926187Y-98720608D01*
X149862539Y-98703554D01*
X149798892Y-98686500D01*
X149667108Y-98686500D01*
X149539812Y-98720608D01*
X149425686Y-98786500D01*
X149338004Y-98874182D01*
X149276680Y-98907666D01*
X149250323Y-98910500D01*
X143455000Y-98910500D01*
X143414186Y-98927406D01*
X143353605Y-98952500D01*
X143353373Y-98952596D01*
X142557581Y-99748389D01*
X142496258Y-99781874D01*
X142426566Y-99776890D01*
X142370633Y-99735018D01*
X142346216Y-99669554D01*
X142345900Y-99660708D01*
X142345900Y-99610909D01*
X142345900Y-99610907D01*
X142311792Y-99483613D01*
X142245900Y-99369485D01*
X142152714Y-99276299D01*
X142085202Y-99237321D01*
X142038587Y-99210407D01*
X141973248Y-99192900D01*
X141911292Y-99176299D01*
X141779508Y-99176299D01*
X141779506Y-99176299D01*
X141663370Y-99207417D01*
X141593521Y-99205754D01*
X141543597Y-99175323D01*
X140698605Y-98330331D01*
X154529500Y-98330331D01*
X154529500Y-98720056D01*
X154529502Y-98720082D01*
X154532413Y-98745187D01*
X154532415Y-98745191D01*
X154577793Y-98847964D01*
X154577794Y-98847965D01*
X154657235Y-98927406D01*
X154760009Y-98972785D01*
X154785135Y-98975700D01*
X156374864Y-98975699D01*
X156379780Y-98975128D01*
X156397400Y-98973086D01*
X156466261Y-98984916D01*
X156473685Y-98988873D01*
X156524810Y-99018390D01*
X156524811Y-99018390D01*
X156524814Y-99018392D01*
X156652108Y-99052500D01*
X156652110Y-99052500D01*
X156783890Y-99052500D01*
X156783892Y-99052500D01*
X156911186Y-99018392D01*
X157025314Y-98952500D01*
X157118500Y-98859314D01*
X157184392Y-98745186D01*
X157218500Y-98617892D01*
X157218500Y-98486108D01*
X157184392Y-98358814D01*
X157179129Y-98349699D01*
X157172663Y-98338499D01*
X157118500Y-98244686D01*
X157025314Y-98151500D01*
X156968250Y-98118554D01*
X156911187Y-98085608D01*
X156828852Y-98063547D01*
X156783892Y-98051500D01*
X156652108Y-98051500D01*
X156524810Y-98085609D01*
X156518753Y-98088118D01*
X156449283Y-98095582D01*
X156421221Y-98086989D01*
X156399991Y-98077615D01*
X156374865Y-98074700D01*
X154785143Y-98074700D01*
X154785117Y-98074702D01*
X154760012Y-98077613D01*
X154760008Y-98077615D01*
X154657235Y-98122993D01*
X154577794Y-98202434D01*
X154532415Y-98305206D01*
X154532415Y-98305208D01*
X154529500Y-98330331D01*
X140698605Y-98330331D01*
X139161870Y-96793596D01*
X139161869Y-96793595D01*
X139060243Y-96751500D01*
X137499337Y-96751500D01*
X137432298Y-96731815D01*
X137386543Y-96679011D01*
X137376599Y-96609853D01*
X137405624Y-96546297D01*
X137423851Y-96529124D01*
X137426997Y-96526708D01*
X137427004Y-96526705D01*
X137520190Y-96433519D01*
X137586082Y-96319391D01*
X137620190Y-96192097D01*
X137620190Y-96060313D01*
X137586082Y-95933019D01*
X137520190Y-95818891D01*
X137437431Y-95736132D01*
X137403946Y-95674809D01*
X137408930Y-95605117D01*
X137450802Y-95549184D01*
X137463113Y-95541064D01*
X137555939Y-95487471D01*
X137649125Y-95394285D01*
X137715017Y-95280157D01*
X137749125Y-95152863D01*
X137749125Y-95021079D01*
X137715017Y-94893785D01*
X137649125Y-94779657D01*
X137555939Y-94686471D01*
X137498875Y-94653525D01*
X137441812Y-94620579D01*
X137378164Y-94603525D01*
X137314517Y-94586471D01*
X137182733Y-94586471D01*
X137055437Y-94620579D01*
X136941311Y-94686471D01*
X136941308Y-94686473D01*
X136848127Y-94779654D01*
X136848125Y-94779657D01*
X136782233Y-94893783D01*
X136748125Y-95021079D01*
X136748125Y-95145078D01*
X136739479Y-95174521D01*
X136732957Y-95204504D01*
X136729202Y-95209519D01*
X136728440Y-95212117D01*
X136711810Y-95232755D01*
X136604183Y-95340382D01*
X136542863Y-95373866D01*
X136516504Y-95376700D01*
X133005867Y-95376700D01*
X132938828Y-95357015D01*
X132893073Y-95304211D01*
X132884249Y-95276891D01*
X132883867Y-95274970D01*
X132883867Y-95274969D01*
X132883866Y-95274967D01*
X132839552Y-95208647D01*
X132773230Y-95164332D01*
X132773229Y-95164331D01*
X132714752Y-95152700D01*
X132714748Y-95152700D01*
X131375252Y-95152700D01*
X131375247Y-95152700D01*
X131361687Y-95155397D01*
X131340705Y-95153518D01*
X131319853Y-95156517D01*
X131306602Y-95150465D01*
X131292095Y-95149167D01*
X131275460Y-95136243D01*
X131256297Y-95127492D01*
X131248421Y-95115237D01*
X131236920Y-95106302D01*
X131229913Y-95086437D01*
X131218523Y-95068714D01*
X131214987Y-95044122D01*
X131213678Y-95040411D01*
X131213500Y-95033779D01*
X131213500Y-95002620D01*
X131233185Y-94935581D01*
X131285989Y-94889826D01*
X131355147Y-94879882D01*
X131361693Y-94881003D01*
X131375251Y-94883700D01*
X131375252Y-94883700D01*
X132714750Y-94883700D01*
X132714751Y-94883699D01*
X132729568Y-94880752D01*
X132773229Y-94872068D01*
X132784513Y-94867394D01*
X132786189Y-94871441D01*
X132830136Y-94857625D01*
X132897537Y-94876033D01*
X132920173Y-94893922D01*
X132973774Y-94947523D01*
X132973778Y-94947526D01*
X132973780Y-94947528D01*
X133093874Y-95008719D01*
X133093876Y-95008719D01*
X133093878Y-95008720D01*
X133193507Y-95024500D01*
X133193512Y-95024500D01*
X133760493Y-95024500D01*
X133860121Y-95008720D01*
X133860121Y-95008719D01*
X133860126Y-95008719D01*
X133980220Y-94947528D01*
X134075528Y-94852220D01*
X134076912Y-94849503D01*
X134106108Y-94792205D01*
X134116556Y-94781142D01*
X134122879Y-94767297D01*
X134140060Y-94756255D01*
X134154082Y-94741409D01*
X134169761Y-94737167D01*
X134181657Y-94729523D01*
X134216592Y-94724500D01*
X134218408Y-94724500D01*
X134285447Y-94744185D01*
X134328892Y-94792205D01*
X134359469Y-94852216D01*
X134359476Y-94852225D01*
X134454774Y-94947523D01*
X134454778Y-94947526D01*
X134454780Y-94947528D01*
X134574874Y-95008719D01*
X134574876Y-95008719D01*
X134574878Y-95008720D01*
X134674507Y-95024500D01*
X134674512Y-95024500D01*
X135241493Y-95024500D01*
X135341121Y-95008720D01*
X135341121Y-95008719D01*
X135341126Y-95008719D01*
X135461220Y-94947528D01*
X135556528Y-94852220D01*
X135556532Y-94852210D01*
X135559576Y-94848023D01*
X135614904Y-94805354D01*
X135684517Y-94799371D01*
X135691958Y-94801120D01*
X135697108Y-94802500D01*
X135697112Y-94802500D01*
X135828890Y-94802500D01*
X135828892Y-94802500D01*
X135956186Y-94768392D01*
X136070314Y-94702500D01*
X136163500Y-94609314D01*
X136229392Y-94495186D01*
X136263500Y-94367892D01*
X136263500Y-94236108D01*
X136229392Y-94108814D01*
X136163500Y-93994686D01*
X136070314Y-93901500D01*
X135999300Y-93860500D01*
X135956187Y-93835608D01*
X135892539Y-93818554D01*
X135828892Y-93801500D01*
X135697108Y-93801500D01*
X135581031Y-93832602D01*
X135511181Y-93830939D01*
X135469577Y-93805579D01*
X135469119Y-93806211D01*
X135461331Y-93800553D01*
X135461257Y-93800508D01*
X135461225Y-93800476D01*
X135461221Y-93800473D01*
X135461220Y-93800472D01*
X135341126Y-93739281D01*
X135341124Y-93739280D01*
X135341121Y-93739279D01*
X135241493Y-93723500D01*
X135241488Y-93723500D01*
X134674512Y-93723500D01*
X134674507Y-93723500D01*
X134574878Y-93739279D01*
X134454778Y-93800473D01*
X134454774Y-93800476D01*
X134359476Y-93895774D01*
X134359469Y-93895783D01*
X134328892Y-93955795D01*
X134318443Y-93966857D01*
X134312121Y-93980703D01*
X134294939Y-93991744D01*
X134280918Y-94006591D01*
X134265238Y-94010832D01*
X134253343Y-94018477D01*
X134218408Y-94023500D01*
X134216592Y-94023500D01*
X134149553Y-94003815D01*
X134106108Y-93955795D01*
X134075530Y-93895783D01*
X134075523Y-93895774D01*
X133980225Y-93800476D01*
X133980221Y-93800473D01*
X133980220Y-93800472D01*
X133860126Y-93739281D01*
X133860124Y-93739280D01*
X133860121Y-93739279D01*
X133760493Y-93723500D01*
X133760488Y-93723500D01*
X133193512Y-93723500D01*
X133193507Y-93723500D01*
X133093878Y-93739279D01*
X132973778Y-93800473D01*
X132973777Y-93800473D01*
X132907257Y-93866994D01*
X132845933Y-93900478D01*
X132785323Y-93896142D01*
X132785210Y-93896715D01*
X132780652Y-93895808D01*
X132776242Y-93895493D01*
X132773349Y-93894355D01*
X132714752Y-93882700D01*
X132714748Y-93882700D01*
X131375252Y-93882700D01*
X131375247Y-93882700D01*
X131361687Y-93885397D01*
X131292095Y-93879167D01*
X131236920Y-93836302D01*
X131213678Y-93770411D01*
X131213500Y-93763779D01*
X131213500Y-92767092D01*
X131233185Y-92700053D01*
X131249819Y-92679411D01*
X131549211Y-92380019D01*
X131610534Y-92346534D01*
X131636892Y-92343700D01*
X132714750Y-92343700D01*
X132714751Y-92343699D01*
X132729568Y-92340752D01*
X132773229Y-92332068D01*
X132773229Y-92332067D01*
X132773231Y-92332067D01*
X132839552Y-92287752D01*
X132883867Y-92221431D01*
X132883867Y-92221429D01*
X132883868Y-92221429D01*
X132892552Y-92177768D01*
X132895500Y-92162948D01*
X132895500Y-91523452D01*
X132895500Y-91523449D01*
X132895499Y-91523447D01*
X132883868Y-91464970D01*
X132883867Y-91464969D01*
X132839552Y-91398647D01*
X132773230Y-91354332D01*
X132773229Y-91354331D01*
X132714752Y-91342700D01*
X132714748Y-91342700D01*
X131375252Y-91342700D01*
X131375247Y-91342700D01*
X131316770Y-91354331D01*
X131316769Y-91354332D01*
X131250447Y-91398647D01*
X131206132Y-91464969D01*
X131206131Y-91464970D01*
X131194500Y-91523447D01*
X131194500Y-91901308D01*
X131174815Y-91968347D01*
X131158181Y-91988989D01*
X130702596Y-92444573D01*
X130702595Y-92444574D01*
X130702595Y-92444575D01*
X130701504Y-92447209D01*
X130668848Y-92526048D01*
X130660500Y-92546201D01*
X130660500Y-95957001D01*
X130660500Y-96066999D01*
X130702595Y-96168625D01*
X130702598Y-96168628D01*
X130708599Y-96177610D01*
X130729476Y-96244288D01*
X130710991Y-96311668D01*
X130659011Y-96358357D01*
X130605496Y-96370500D01*
X129641677Y-96370500D01*
X129574638Y-96350815D01*
X129553996Y-96334182D01*
X129531482Y-96311668D01*
X129466314Y-96246500D01*
X129394756Y-96205186D01*
X129352187Y-96180608D01*
X129288539Y-96163554D01*
X129224892Y-96146500D01*
X129093108Y-96146500D01*
X128965812Y-96180608D01*
X128851686Y-96246500D01*
X128851683Y-96246502D01*
X128758502Y-96339683D01*
X128758500Y-96339686D01*
X128692608Y-96453812D01*
X128658500Y-96581108D01*
X128658500Y-96621093D01*
X128638815Y-96688132D01*
X128586011Y-96733887D01*
X128516853Y-96743831D01*
X128502412Y-96740869D01*
X128404014Y-96714503D01*
X128404009Y-96714502D01*
X128404007Y-96714502D01*
X128350832Y-96707500D01*
X128350826Y-96707500D01*
X127785000Y-96707500D01*
X127784995Y-96707500D01*
X127739272Y-96712651D01*
X127694643Y-96734144D01*
X127625701Y-96745495D01*
X127588659Y-96729951D01*
X127586752Y-96733913D01*
X127574164Y-96727851D01*
X127485004Y-96707500D01*
X127485000Y-96707500D01*
X126919174Y-96707500D01*
X126919167Y-96707500D01*
X126865992Y-96714502D01*
X126865986Y-96714503D01*
X126738811Y-96748580D01*
X126689268Y-96769101D01*
X126689254Y-96769108D01*
X126575240Y-96834934D01*
X126532683Y-96867590D01*
X126439590Y-96960683D01*
X126406934Y-97003240D01*
X126389658Y-97033164D01*
X126354598Y-97093891D01*
X126350782Y-97100500D01*
X126300215Y-97148715D01*
X126243395Y-97162500D01*
X126172108Y-97162500D01*
X126044812Y-97196608D01*
X125930686Y-97262500D01*
X125930683Y-97262502D01*
X125837502Y-97355683D01*
X125837500Y-97355686D01*
X125771608Y-97469812D01*
X125737500Y-97597108D01*
X125040500Y-97597108D01*
X125040500Y-95333447D01*
X125894500Y-95333447D01*
X125894500Y-95972952D01*
X125906131Y-96031429D01*
X125906132Y-96031430D01*
X125950447Y-96097752D01*
X126016769Y-96142067D01*
X126016770Y-96142068D01*
X126075247Y-96153699D01*
X126075250Y-96153700D01*
X126075252Y-96153700D01*
X127414750Y-96153700D01*
X127414751Y-96153699D01*
X127434418Y-96149787D01*
X127473228Y-96142068D01*
X127473229Y-96142067D01*
X127473231Y-96142067D01*
X127473231Y-96142066D01*
X127484512Y-96137394D01*
X127485971Y-96140917D01*
X127531869Y-96126524D01*
X127566231Y-96130729D01*
X127569108Y-96131500D01*
X127569111Y-96131500D01*
X127700890Y-96131500D01*
X127700892Y-96131500D01*
X127828186Y-96097392D01*
X127942314Y-96031500D01*
X128035500Y-95938314D01*
X128101392Y-95824186D01*
X128135500Y-95696892D01*
X128135500Y-95565108D01*
X128101392Y-95437814D01*
X128035500Y-95323686D01*
X127942314Y-95230500D01*
X127845356Y-95174521D01*
X127828187Y-95164608D01*
X127755298Y-95145078D01*
X127700892Y-95130500D01*
X127569108Y-95130500D01*
X127569106Y-95130500D01*
X127483714Y-95153380D01*
X127427433Y-95155223D01*
X127414748Y-95152700D01*
X126075252Y-95152700D01*
X126075247Y-95152700D01*
X126016770Y-95164331D01*
X126016769Y-95164332D01*
X125950447Y-95208647D01*
X125906132Y-95274969D01*
X125906131Y-95274970D01*
X125894500Y-95333447D01*
X125040500Y-95333447D01*
X125040500Y-94295108D01*
X125356500Y-94295108D01*
X125356500Y-94426892D01*
X125368976Y-94473452D01*
X125390608Y-94554187D01*
X125409248Y-94586471D01*
X125456500Y-94668314D01*
X125549686Y-94761500D01*
X125663814Y-94827392D01*
X125791108Y-94861500D01*
X125791110Y-94861500D01*
X125922888Y-94861500D01*
X125922892Y-94861500D01*
X125924339Y-94861112D01*
X125925607Y-94861142D01*
X125930948Y-94860439D01*
X125931057Y-94861271D01*
X125994186Y-94862773D01*
X126005201Y-94868083D01*
X126005487Y-94867394D01*
X126016770Y-94872068D01*
X126075247Y-94883699D01*
X126075250Y-94883700D01*
X126075252Y-94883700D01*
X127414750Y-94883700D01*
X127414751Y-94883699D01*
X127429568Y-94880752D01*
X127473229Y-94872068D01*
X127473229Y-94872067D01*
X127473231Y-94872067D01*
X127539552Y-94827752D01*
X127583867Y-94761431D01*
X127583867Y-94761429D01*
X127583868Y-94761429D01*
X127595499Y-94702952D01*
X127595500Y-94702950D01*
X127595500Y-94063449D01*
X127595499Y-94063447D01*
X127583868Y-94004970D01*
X127583867Y-94004969D01*
X127539552Y-93938647D01*
X127473230Y-93894332D01*
X127473229Y-93894331D01*
X127414752Y-93882700D01*
X127414748Y-93882700D01*
X126075252Y-93882700D01*
X126063714Y-93884994D01*
X126038498Y-93882737D01*
X126007432Y-93883152D01*
X125922892Y-93860500D01*
X125791108Y-93860500D01*
X125663812Y-93894608D01*
X125549686Y-93960500D01*
X125549683Y-93960502D01*
X125456502Y-94053683D01*
X125456500Y-94053686D01*
X125390608Y-94167812D01*
X125377617Y-94216298D01*
X125356500Y-94295108D01*
X125040500Y-94295108D01*
X125040500Y-93165019D01*
X125060185Y-93097980D01*
X125064523Y-93094220D01*
X125260429Y-93094220D01*
X125283477Y-93130084D01*
X125287439Y-93148832D01*
X125288500Y-93156891D01*
X125288500Y-93156892D01*
X125294922Y-93180858D01*
X125322608Y-93284187D01*
X125355554Y-93341250D01*
X125388500Y-93398314D01*
X125481686Y-93491500D01*
X125595814Y-93557392D01*
X125723108Y-93591500D01*
X125723110Y-93591500D01*
X125854890Y-93591500D01*
X125854892Y-93591500D01*
X125904879Y-93578106D01*
X125938226Y-93578899D01*
X125971567Y-93578805D01*
X125973636Y-93579743D01*
X125974728Y-93579769D01*
X125990975Y-93587601D01*
X126003713Y-93593375D01*
X126004789Y-93594062D01*
X126016769Y-93602067D01*
X126017573Y-93602227D01*
X126017575Y-93602228D01*
X126075247Y-93613699D01*
X126075250Y-93613700D01*
X126075252Y-93613700D01*
X127414750Y-93613700D01*
X127414751Y-93613699D01*
X127429568Y-93610752D01*
X127473229Y-93602068D01*
X127473229Y-93602067D01*
X127473231Y-93602067D01*
X127539552Y-93557752D01*
X127583867Y-93491431D01*
X127583867Y-93491429D01*
X127583868Y-93491429D01*
X127592663Y-93447209D01*
X127595500Y-93432948D01*
X127595500Y-92793452D01*
X127595500Y-92793449D01*
X127595499Y-92793447D01*
X127583868Y-92734970D01*
X127583867Y-92734969D01*
X127539552Y-92668647D01*
X127473230Y-92624332D01*
X127473229Y-92624331D01*
X127414752Y-92612700D01*
X127414748Y-92612700D01*
X126075252Y-92612700D01*
X126024687Y-92622758D01*
X125968403Y-92620915D01*
X125931086Y-92610916D01*
X125854892Y-92590500D01*
X125723108Y-92590500D01*
X125595812Y-92624608D01*
X125481686Y-92690500D01*
X125481683Y-92690502D01*
X125388502Y-92783683D01*
X125388500Y-92783686D01*
X125322608Y-92897812D01*
X125288500Y-93025108D01*
X125287439Y-93033168D01*
X125260429Y-93094220D01*
X125064523Y-93094220D01*
X125067964Y-93091238D01*
X125041980Y-93036085D01*
X125040500Y-93016981D01*
X125040500Y-91523447D01*
X125894500Y-91523447D01*
X125894500Y-92162952D01*
X125906131Y-92221429D01*
X125906132Y-92221430D01*
X125950447Y-92287752D01*
X126016769Y-92332067D01*
X126016770Y-92332068D01*
X126075247Y-92343699D01*
X126075250Y-92343700D01*
X126075252Y-92343700D01*
X127414750Y-92343700D01*
X127414751Y-92343699D01*
X127429568Y-92340752D01*
X127473229Y-92332068D01*
X127473231Y-92332067D01*
X127519909Y-92300876D01*
X127586586Y-92279998D01*
X127653966Y-92298481D01*
X127676481Y-92316296D01*
X127703885Y-92343699D01*
X127708686Y-92348500D01*
X127822814Y-92414392D01*
X127950108Y-92448500D01*
X127950110Y-92448500D01*
X128081890Y-92448500D01*
X128081892Y-92448500D01*
X128209186Y-92414392D01*
X128323314Y-92348500D01*
X128416500Y-92255314D01*
X128482392Y-92141186D01*
X128516500Y-92013892D01*
X128516500Y-91882108D01*
X128482392Y-91754814D01*
X128416500Y-91640686D01*
X128323314Y-91547500D01*
X128229969Y-91493607D01*
X128209187Y-91481608D01*
X128126666Y-91459497D01*
X128081892Y-91447500D01*
X127950108Y-91447500D01*
X127822812Y-91481608D01*
X127757994Y-91519031D01*
X127690094Y-91535503D01*
X127624067Y-91512650D01*
X127592964Y-91473577D01*
X127590652Y-91475123D01*
X127539552Y-91398647D01*
X127473230Y-91354332D01*
X127473229Y-91354331D01*
X127414752Y-91342700D01*
X127414748Y-91342700D01*
X126075252Y-91342700D01*
X126075247Y-91342700D01*
X126016770Y-91354331D01*
X126016769Y-91354332D01*
X125950447Y-91398647D01*
X125906132Y-91464969D01*
X125906131Y-91464970D01*
X125894500Y-91523447D01*
X125040500Y-91523447D01*
X125040500Y-90433899D01*
X125060185Y-90366860D01*
X125112989Y-90321105D01*
X125164500Y-90309899D01*
X127191117Y-90309899D01*
X127191118Y-90309899D01*
X127284904Y-90295046D01*
X127397942Y-90237450D01*
X127487650Y-90147742D01*
X127545246Y-90034704D01*
X127545246Y-90034702D01*
X127545247Y-90034701D01*
X127560099Y-89940924D01*
X127560100Y-89940919D01*
X127560099Y-89457075D01*
X131886900Y-89457075D01*
X131886900Y-90070117D01*
X131894922Y-90120766D01*
X131901754Y-90163904D01*
X131959350Y-90276942D01*
X131959352Y-90276944D01*
X131959354Y-90276947D01*
X132049052Y-90366645D01*
X132049054Y-90366646D01*
X132049058Y-90366650D01*
X132162094Y-90424245D01*
X132162098Y-90424247D01*
X132255875Y-90439099D01*
X132255881Y-90439100D01*
X132718918Y-90439099D01*
X132720507Y-90439099D01*
X132787546Y-90458783D01*
X132808188Y-90475418D01*
X133548395Y-91215625D01*
X133626175Y-91293405D01*
X133727801Y-91335500D01*
X134137323Y-91335500D01*
X134204362Y-91355185D01*
X134225004Y-91371818D01*
X134312686Y-91459500D01*
X134406539Y-91513686D01*
X134423448Y-91523449D01*
X134426814Y-91525392D01*
X134554108Y-91559500D01*
X134554110Y-91559500D01*
X134685890Y-91559500D01*
X134685892Y-91559500D01*
X134813186Y-91525392D01*
X134927314Y-91459500D01*
X135020500Y-91366314D01*
X135086392Y-91252186D01*
X135120500Y-91124892D01*
X135120500Y-90993108D01*
X135086392Y-90865814D01*
X135020500Y-90751686D01*
X134927314Y-90658500D01*
X134846452Y-90611814D01*
X134813187Y-90592608D01*
X134719865Y-90567603D01*
X134685892Y-90558500D01*
X134683255Y-90558500D01*
X134681112Y-90557870D01*
X134677832Y-90557439D01*
X134677899Y-90556927D01*
X134670238Y-90554677D01*
X134656704Y-90555624D01*
X134637368Y-90545025D01*
X134616216Y-90538815D01*
X134607333Y-90528564D01*
X134595434Y-90522042D01*
X134584896Y-90502670D01*
X134570461Y-90486011D01*
X134568530Y-90472583D01*
X134562047Y-90460665D01*
X134563654Y-90438675D01*
X134560517Y-90416853D01*
X134566262Y-90403013D01*
X134567142Y-90390982D01*
X134578728Y-90372984D01*
X134584106Y-90360032D01*
X134589374Y-90353017D01*
X134665450Y-90276942D01*
X134705396Y-90198542D01*
X134711851Y-90189949D01*
X134731585Y-90175224D01*
X134748490Y-90157326D01*
X134759093Y-90154700D01*
X134767851Y-90148166D01*
X134792414Y-90146448D01*
X134816311Y-90140531D01*
X134826652Y-90144054D01*
X134837551Y-90143293D01*
X134859140Y-90155126D01*
X134882446Y-90163068D01*
X134890419Y-90172270D01*
X134898821Y-90176875D01*
X134906261Y-90190552D01*
X134921483Y-90208120D01*
X134956550Y-90276942D01*
X134956552Y-90276944D01*
X134956554Y-90276947D01*
X135046252Y-90366645D01*
X135046254Y-90366646D01*
X135046258Y-90366650D01*
X135159294Y-90424245D01*
X135159298Y-90424247D01*
X135253075Y-90439099D01*
X135253081Y-90439100D01*
X135716118Y-90439099D01*
X135809904Y-90424246D01*
X135922942Y-90366650D01*
X136012650Y-90276942D01*
X136070246Y-90163904D01*
X136070246Y-90163902D01*
X136070247Y-90163901D01*
X136085099Y-90070124D01*
X136085100Y-90070119D01*
X136085099Y-89457082D01*
X136070246Y-89363296D01*
X136012650Y-89250258D01*
X136012646Y-89250254D01*
X136012645Y-89250252D01*
X135922947Y-89160554D01*
X135922944Y-89160552D01*
X135922942Y-89160550D01*
X135833697Y-89115077D01*
X135809901Y-89102952D01*
X135716124Y-89088100D01*
X135253082Y-89088100D01*
X135173636Y-89100683D01*
X135159296Y-89102954D01*
X135046258Y-89160550D01*
X135046257Y-89160551D01*
X135046252Y-89160554D01*
X134956554Y-89250252D01*
X134956550Y-89250257D01*
X134921483Y-89319079D01*
X134873508Y-89369874D01*
X134805686Y-89386668D01*
X134739552Y-89364129D01*
X134700515Y-89319077D01*
X134665450Y-89250258D01*
X134665447Y-89250255D01*
X134665445Y-89250252D01*
X134575747Y-89160554D01*
X134575742Y-89160550D01*
X134549696Y-89147279D01*
X134483673Y-89113638D01*
X134432878Y-89065664D01*
X134416083Y-88997843D01*
X134438621Y-88931708D01*
X134483673Y-88892670D01*
X134564420Y-88851528D01*
X134659728Y-88756220D01*
X134720919Y-88636126D01*
X134721621Y-88631694D01*
X134736700Y-88536493D01*
X134736700Y-88019506D01*
X134720920Y-87919878D01*
X134720919Y-87919876D01*
X134720919Y-87919874D01*
X134659728Y-87799780D01*
X134659726Y-87799778D01*
X134659723Y-87799774D01*
X134564425Y-87704476D01*
X134564421Y-87704473D01*
X134564420Y-87704472D01*
X134444326Y-87643281D01*
X134444324Y-87643280D01*
X134444321Y-87643279D01*
X134344693Y-87627500D01*
X134344688Y-87627500D01*
X133777712Y-87627500D01*
X133777707Y-87627500D01*
X133678078Y-87643279D01*
X133557978Y-87704473D01*
X133557974Y-87704476D01*
X133462676Y-87799774D01*
X133462673Y-87799778D01*
X133401479Y-87919878D01*
X133385700Y-88019506D01*
X133385700Y-88536493D01*
X133401479Y-88636121D01*
X133401480Y-88636124D01*
X133401481Y-88636126D01*
X133461807Y-88754522D01*
X133462673Y-88756221D01*
X133462676Y-88756225D01*
X133557974Y-88851523D01*
X133557978Y-88851526D01*
X133557980Y-88851528D01*
X133678074Y-88912719D01*
X133688197Y-88914322D01*
X133751333Y-88944249D01*
X133788267Y-89003559D01*
X133787272Y-89073422D01*
X133748664Y-89131656D01*
X133725102Y-89147279D01*
X133699060Y-89160548D01*
X133699052Y-89160554D01*
X133609354Y-89250252D01*
X133609351Y-89250257D01*
X133609350Y-89250258D01*
X133593748Y-89280879D01*
X133551752Y-89363298D01*
X133536900Y-89457075D01*
X133536900Y-90070119D01*
X133543434Y-90111373D01*
X133534477Y-90180666D01*
X133489480Y-90234117D01*
X133422728Y-90254755D01*
X133355415Y-90236029D01*
X133333279Y-90218449D01*
X133124218Y-90009388D01*
X133090733Y-89948065D01*
X133087899Y-89921707D01*
X133087899Y-89457082D01*
X133085590Y-89442502D01*
X133073046Y-89363296D01*
X133015450Y-89250258D01*
X133015446Y-89250254D01*
X133015445Y-89250252D01*
X132925747Y-89160554D01*
X132925744Y-89160552D01*
X132925742Y-89160550D01*
X132836497Y-89115077D01*
X132812701Y-89102952D01*
X132718924Y-89088100D01*
X132255882Y-89088100D01*
X132176436Y-89100683D01*
X132162096Y-89102954D01*
X132049058Y-89160550D01*
X132049057Y-89160551D01*
X132049052Y-89160554D01*
X131959354Y-89250252D01*
X131959351Y-89250257D01*
X131959350Y-89250258D01*
X131943748Y-89280879D01*
X131901752Y-89363298D01*
X131886900Y-89457075D01*
X127560099Y-89457075D01*
X127560099Y-89077882D01*
X127545246Y-88984096D01*
X127487650Y-88871058D01*
X127487649Y-88871057D01*
X127485172Y-88866195D01*
X127472276Y-88797525D01*
X127498553Y-88732785D01*
X127555659Y-88692528D01*
X127595657Y-88685900D01*
X128410341Y-88685900D01*
X128477380Y-88705585D01*
X128497847Y-88725461D01*
X128499269Y-88724040D01*
X128507394Y-88732165D01*
X128586835Y-88811606D01*
X128689609Y-88856985D01*
X128714735Y-88859900D01*
X130304464Y-88859899D01*
X130304479Y-88859897D01*
X130304482Y-88859897D01*
X130329587Y-88856986D01*
X130329588Y-88856985D01*
X130329591Y-88856985D01*
X130432365Y-88811606D01*
X130511806Y-88732165D01*
X130557185Y-88629391D01*
X130560100Y-88604265D01*
X130560099Y-88214536D01*
X130558276Y-88198814D01*
X130557186Y-88189412D01*
X130557185Y-88189410D01*
X130557185Y-88189409D01*
X130511806Y-88086635D01*
X130432365Y-88007194D01*
X130424240Y-87999069D01*
X130426658Y-87996650D01*
X130394765Y-87957590D01*
X130386849Y-87888170D01*
X130417721Y-87825490D01*
X130424299Y-87819790D01*
X130424240Y-87819731D01*
X130455080Y-87788891D01*
X130511806Y-87732165D01*
X130557185Y-87629391D01*
X130560100Y-87604265D01*
X130560099Y-87214536D01*
X130560015Y-87213811D01*
X130557186Y-87189412D01*
X130557185Y-87189410D01*
X130557185Y-87189409D01*
X130511806Y-87086635D01*
X130432365Y-87007194D01*
X130385482Y-86986493D01*
X130329592Y-86961815D01*
X130304465Y-86958900D01*
X128714743Y-86958900D01*
X128714717Y-86958902D01*
X128689612Y-86961813D01*
X128689608Y-86961815D01*
X128586835Y-87007193D01*
X128504161Y-87089867D01*
X128504054Y-87090103D01*
X128503695Y-87090333D01*
X128499269Y-87094760D01*
X128498305Y-87093796D01*
X128480351Y-87105335D01*
X128458532Y-87123152D01*
X128449916Y-87124894D01*
X128445276Y-87127877D01*
X128410341Y-87132900D01*
X128336799Y-87132900D01*
X128274799Y-87116287D01*
X128246175Y-87099761D01*
X128222559Y-87086126D01*
X128209188Y-87078406D01*
X128209187Y-87078405D01*
X128209186Y-87078405D01*
X128081892Y-87044297D01*
X127950108Y-87044297D01*
X127822812Y-87078405D01*
X127708686Y-87144297D01*
X127708683Y-87144299D01*
X127615502Y-87237480D01*
X127615500Y-87237483D01*
X127549608Y-87351609D01*
X127515500Y-87478905D01*
X127515500Y-87610689D01*
X127524233Y-87643281D01*
X127549608Y-87737984D01*
X127579000Y-87788891D01*
X127615500Y-87852111D01*
X127615502Y-87852113D01*
X127684608Y-87921219D01*
X127695220Y-87940655D01*
X127709721Y-87957389D01*
X127711637Y-87970720D01*
X127718093Y-87982542D01*
X127716513Y-88004628D01*
X127719665Y-88026547D01*
X127714069Y-88038798D01*
X127713109Y-88052234D01*
X127699838Y-88069960D01*
X127690640Y-88090103D01*
X127679308Y-88097385D01*
X127671237Y-88108167D01*
X127650491Y-88115904D01*
X127631862Y-88127877D01*
X127609943Y-88131028D01*
X127605773Y-88132584D01*
X127596927Y-88132900D01*
X127498646Y-88132900D01*
X127431607Y-88113215D01*
X127406532Y-88090147D01*
X127406247Y-88090433D01*
X127307316Y-87991502D01*
X127307314Y-87991500D01*
X127248232Y-87957389D01*
X127193187Y-87925608D01*
X127129539Y-87908554D01*
X127065892Y-87891500D01*
X126934108Y-87891500D01*
X126806812Y-87925608D01*
X126692686Y-87991500D01*
X126692683Y-87991502D01*
X126599502Y-88084683D01*
X126599500Y-88084686D01*
X126533608Y-88198812D01*
X126515931Y-88264785D01*
X126499500Y-88326108D01*
X126499500Y-88457892D01*
X126524932Y-88552809D01*
X126523270Y-88622656D01*
X126484108Y-88680519D01*
X126419879Y-88708023D01*
X126405158Y-88708900D01*
X125164500Y-88708900D01*
X125097461Y-88689215D01*
X125051706Y-88636411D01*
X125040500Y-88584900D01*
X125040500Y-87233899D01*
X125060185Y-87166860D01*
X125112989Y-87121105D01*
X125164500Y-87109899D01*
X127191117Y-87109899D01*
X127191118Y-87109899D01*
X127284904Y-87095046D01*
X127397942Y-87037450D01*
X127487650Y-86947742D01*
X127545246Y-86834704D01*
X127545246Y-86834702D01*
X127545247Y-86834701D01*
X127545247Y-86834700D01*
X127560100Y-86740924D01*
X127560100Y-86469506D01*
X134884300Y-86469506D01*
X134884300Y-86986493D01*
X134900079Y-87086121D01*
X134900080Y-87086124D01*
X134900081Y-87086126D01*
X134952708Y-87189412D01*
X134961273Y-87206221D01*
X134961276Y-87206225D01*
X135056574Y-87301523D01*
X135056578Y-87301526D01*
X135056580Y-87301528D01*
X135176674Y-87362719D01*
X135176676Y-87362719D01*
X135176678Y-87362720D01*
X135276307Y-87378500D01*
X135276312Y-87378500D01*
X135843293Y-87378500D01*
X135942921Y-87362720D01*
X135942921Y-87362719D01*
X135942926Y-87362719D01*
X136063020Y-87301528D01*
X136158328Y-87206220D01*
X136219519Y-87086126D01*
X136219519Y-87086123D01*
X136223949Y-87077430D01*
X136226151Y-87078552D01*
X136232152Y-87069776D01*
X136242419Y-87047297D01*
X136251529Y-87041442D01*
X136257643Y-87032502D01*
X136280408Y-87022883D01*
X136301197Y-87009523D01*
X136317613Y-87007162D01*
X136322003Y-87005308D01*
X136336132Y-87004500D01*
X136510500Y-87004500D01*
X136577539Y-87024185D01*
X136623294Y-87076989D01*
X136634500Y-87128500D01*
X136634500Y-88657652D01*
X136646131Y-88716129D01*
X136646132Y-88716130D01*
X136690447Y-88782452D01*
X136734078Y-88811605D01*
X136756769Y-88826767D01*
X136783691Y-88832122D01*
X136811820Y-88846835D01*
X136840703Y-88860026D01*
X136842559Y-88862914D01*
X136845600Y-88864505D01*
X136861309Y-88892090D01*
X136878477Y-88918804D01*
X136879137Y-88923395D01*
X136880176Y-88925220D01*
X136883500Y-88953739D01*
X136883500Y-88989158D01*
X136863815Y-89056197D01*
X136815795Y-89099643D01*
X136809297Y-89102953D01*
X136809296Y-89102954D01*
X136696258Y-89160550D01*
X136696257Y-89160551D01*
X136696252Y-89160554D01*
X136606554Y-89250252D01*
X136606551Y-89250257D01*
X136606550Y-89250258D01*
X136590948Y-89280879D01*
X136548952Y-89363298D01*
X136534100Y-89457075D01*
X136534100Y-90070117D01*
X136542122Y-90120766D01*
X136548954Y-90163904D01*
X136606550Y-90276942D01*
X136606552Y-90276944D01*
X136606554Y-90276947D01*
X136696252Y-90366645D01*
X136696254Y-90366646D01*
X136696258Y-90366650D01*
X136809294Y-90424245D01*
X136809298Y-90424247D01*
X136903075Y-90439099D01*
X136903081Y-90439100D01*
X137366118Y-90439099D01*
X137459904Y-90424246D01*
X137572942Y-90366650D01*
X137662650Y-90276942D01*
X137720246Y-90163904D01*
X137720246Y-90163902D01*
X137720247Y-90163901D01*
X137735099Y-90070124D01*
X137735100Y-90070119D01*
X137735099Y-89457082D01*
X137720246Y-89363296D01*
X137662650Y-89250258D01*
X137662646Y-89250254D01*
X137662645Y-89250252D01*
X137572947Y-89160554D01*
X137572944Y-89160552D01*
X137572942Y-89160550D01*
X137504204Y-89125526D01*
X137493140Y-89115077D01*
X137479297Y-89108755D01*
X137468255Y-89091574D01*
X137453409Y-89077552D01*
X137449167Y-89061872D01*
X137441523Y-89049977D01*
X137436500Y-89015042D01*
X137436500Y-88953739D01*
X137456185Y-88886700D01*
X137508989Y-88840945D01*
X137536305Y-88832122D01*
X137563231Y-88826767D01*
X137629552Y-88782452D01*
X137673867Y-88716131D01*
X137673867Y-88716129D01*
X137678542Y-88704846D01*
X137680201Y-88705533D01*
X137705768Y-88656657D01*
X137766483Y-88622083D01*
X137836253Y-88625822D01*
X137892925Y-88666688D01*
X137910526Y-88705231D01*
X137911458Y-88704846D01*
X137916132Y-88716130D01*
X137960447Y-88782452D01*
X138026769Y-88826767D01*
X138026770Y-88826768D01*
X138085247Y-88838399D01*
X138085250Y-88838400D01*
X138119424Y-88838400D01*
X138186463Y-88858085D01*
X138232218Y-88910889D01*
X138242162Y-88980047D01*
X138213137Y-89043603D01*
X138207105Y-89050081D01*
X138156502Y-89100683D01*
X138156500Y-89100686D01*
X138090608Y-89214812D01*
X138060982Y-89325382D01*
X138056500Y-89342108D01*
X138056500Y-89473892D01*
X138071749Y-89530801D01*
X138090608Y-89601187D01*
X138116047Y-89645248D01*
X138156500Y-89715314D01*
X138249686Y-89808500D01*
X138249689Y-89808501D01*
X138249692Y-89808504D01*
X138294350Y-89834288D01*
X138342565Y-89884855D01*
X138355787Y-89953462D01*
X138329819Y-90018327D01*
X138320031Y-90029355D01*
X138232700Y-90116686D01*
X138166808Y-90230812D01*
X138137925Y-90338608D01*
X138132700Y-90358108D01*
X138132700Y-90489892D01*
X138143062Y-90528564D01*
X138166808Y-90617187D01*
X138181571Y-90642757D01*
X138232700Y-90731314D01*
X138325886Y-90824500D01*
X138440014Y-90890392D01*
X138567308Y-90924500D01*
X138567310Y-90924500D01*
X138699090Y-90924500D01*
X138699092Y-90924500D01*
X138826386Y-90890392D01*
X138940514Y-90824500D01*
X139033700Y-90731314D01*
X139099592Y-90617186D01*
X139133700Y-90489892D01*
X139133700Y-90365891D01*
X139153385Y-90298852D01*
X139170019Y-90278210D01*
X139397211Y-90051019D01*
X139458534Y-90017534D01*
X139484892Y-90014700D01*
X142766406Y-90014700D01*
X142833445Y-90034385D01*
X142854087Y-90051019D01*
X143505073Y-90702005D01*
X143606699Y-90744100D01*
X143716697Y-90744100D01*
X144530708Y-90744100D01*
X144597747Y-90763785D01*
X144618389Y-90780419D01*
X144826389Y-90988419D01*
X144859874Y-91049742D01*
X144854890Y-91119434D01*
X144813018Y-91175367D01*
X144747554Y-91199784D01*
X144738708Y-91200100D01*
X144449147Y-91200100D01*
X144390670Y-91211731D01*
X144390669Y-91211732D01*
X144324346Y-91256048D01*
X144323115Y-91257892D01*
X144319389Y-91261005D01*
X144315712Y-91264683D01*
X144315382Y-91264353D01*
X144269503Y-91302696D01*
X144220014Y-91313000D01*
X140589000Y-91313000D01*
X140589000Y-92346100D01*
X140569315Y-92413139D01*
X140516511Y-92458894D01*
X140465000Y-92470100D01*
X139025147Y-92470100D01*
X138966670Y-92481731D01*
X138966669Y-92481732D01*
X138900347Y-92526047D01*
X138856032Y-92592369D01*
X138856032Y-92592370D01*
X138845704Y-92644292D01*
X138830989Y-92672422D01*
X138817800Y-92701303D01*
X138814910Y-92703159D01*
X138813319Y-92706203D01*
X138785726Y-92721915D01*
X138759022Y-92739077D01*
X138754428Y-92739737D01*
X138752603Y-92740777D01*
X138724087Y-92744100D01*
X138652492Y-92744100D01*
X138585453Y-92724415D01*
X138564811Y-92707781D01*
X137696819Y-91839789D01*
X137663334Y-91778466D01*
X137661687Y-91763151D01*
X137661561Y-91763168D01*
X137660500Y-91755115D01*
X137660500Y-91755108D01*
X137626392Y-91627814D01*
X137560500Y-91513686D01*
X137467314Y-91420500D01*
X137373465Y-91366316D01*
X137353187Y-91354608D01*
X137281873Y-91335500D01*
X137225892Y-91320500D01*
X137094108Y-91320500D01*
X136966812Y-91354608D01*
X136852686Y-91420500D01*
X136852683Y-91420502D01*
X136759502Y-91513683D01*
X136759500Y-91513686D01*
X136693608Y-91627812D01*
X136659500Y-91755108D01*
X136659500Y-91886891D01*
X136693608Y-92014187D01*
X136726554Y-92071250D01*
X136759500Y-92128314D01*
X136759502Y-92128316D01*
X136815247Y-92184061D01*
X136848732Y-92245384D01*
X136843748Y-92315076D01*
X136815249Y-92359422D01*
X136769525Y-92405147D01*
X136703633Y-92519273D01*
X136679078Y-92610916D01*
X136669525Y-92646569D01*
X136669525Y-92778353D01*
X136673570Y-92793449D01*
X136703633Y-92905648D01*
X136725603Y-92943700D01*
X136769525Y-93019775D01*
X136862711Y-93112961D01*
X136976839Y-93178853D01*
X137104133Y-93212961D01*
X137104135Y-93212961D01*
X137228133Y-93212961D01*
X137295172Y-93232646D01*
X137315814Y-93249280D01*
X138513759Y-94447225D01*
X138591539Y-94525005D01*
X138693165Y-94567100D01*
X138693166Y-94567100D01*
X138724087Y-94567100D01*
X138791126Y-94586785D01*
X138836881Y-94639589D01*
X138845704Y-94666908D01*
X138856032Y-94718829D01*
X138856032Y-94718830D01*
X138900348Y-94785153D01*
X138956239Y-94822499D01*
X139001043Y-94876111D01*
X139009750Y-94945436D01*
X138979595Y-95008464D01*
X138956239Y-95028701D01*
X138900348Y-95066046D01*
X138856032Y-95132369D01*
X138856031Y-95132370D01*
X138844400Y-95190847D01*
X138844400Y-95930352D01*
X138856031Y-95988829D01*
X138856032Y-95988830D01*
X138900347Y-96055152D01*
X138966669Y-96099467D01*
X138966670Y-96099468D01*
X139025147Y-96111099D01*
X139025150Y-96111100D01*
X139025152Y-96111100D01*
X140589650Y-96111100D01*
X140589651Y-96111099D01*
X140604468Y-96108152D01*
X140648129Y-96099468D01*
X140648129Y-96099467D01*
X140648131Y-96099467D01*
X140714452Y-96055152D01*
X140721282Y-96048322D01*
X140782604Y-96014835D01*
X140808966Y-96012000D01*
X141622078Y-96012000D01*
X141689117Y-96031685D01*
X141734872Y-96084489D01*
X141744816Y-96153647D01*
X141715791Y-96217203D01*
X141684078Y-96243387D01*
X141678689Y-96246498D01*
X141678683Y-96246502D01*
X141585502Y-96339683D01*
X141585500Y-96339686D01*
X141519608Y-96453812D01*
X141485500Y-96581108D01*
X141485500Y-96667389D01*
X141465815Y-96734428D01*
X141449184Y-96755067D01*
X141425472Y-96778780D01*
X141380221Y-96867591D01*
X141364279Y-96898878D01*
X141348500Y-96998506D01*
X141348500Y-97565493D01*
X141364279Y-97665121D01*
X141364280Y-97665124D01*
X141364281Y-97665126D01*
X141425471Y-97785218D01*
X141425473Y-97785221D01*
X141425476Y-97785225D01*
X141520774Y-97880523D01*
X141520778Y-97880526D01*
X141520780Y-97880528D01*
X141640874Y-97941719D01*
X141640876Y-97941719D01*
X141640878Y-97941720D01*
X141740507Y-97957500D01*
X141740512Y-97957500D01*
X142257493Y-97957500D01*
X142357121Y-97941720D01*
X142357121Y-97941719D01*
X142357126Y-97941719D01*
X142477220Y-97880528D01*
X142572528Y-97785220D01*
X142612116Y-97707523D01*
X142660089Y-97656728D01*
X142727910Y-97639933D01*
X142794045Y-97662470D01*
X142833083Y-97707523D01*
X142872671Y-97785218D01*
X142872676Y-97785225D01*
X142967974Y-97880523D01*
X142967978Y-97880526D01*
X142967980Y-97880528D01*
X143088074Y-97941719D01*
X143088076Y-97941719D01*
X143088078Y-97941720D01*
X143187707Y-97957500D01*
X143187712Y-97957500D01*
X143704693Y-97957500D01*
X143804321Y-97941720D01*
X143804321Y-97941719D01*
X143804326Y-97941719D01*
X143924420Y-97880528D01*
X144019728Y-97785220D01*
X144080919Y-97665126D01*
X144082919Y-97652500D01*
X144096700Y-97565493D01*
X144096700Y-96998506D01*
X144080920Y-96898878D01*
X144080919Y-96898876D01*
X144080919Y-96898874D01*
X144019728Y-96778780D01*
X144019726Y-96778778D01*
X144019723Y-96778774D01*
X143924425Y-96683476D01*
X143924421Y-96683473D01*
X143924420Y-96683472D01*
X143804326Y-96622281D01*
X143804324Y-96622280D01*
X143804321Y-96622279D01*
X143704693Y-96606500D01*
X143704688Y-96606500D01*
X143187712Y-96606500D01*
X143187707Y-96606500D01*
X143088078Y-96622279D01*
X143088074Y-96622280D01*
X143088074Y-96622281D01*
X143042551Y-96645476D01*
X142967978Y-96683473D01*
X142967974Y-96683476D01*
X142872676Y-96778774D01*
X142872674Y-96778778D01*
X142872672Y-96778780D01*
X142833083Y-96856476D01*
X142785110Y-96907271D01*
X142717289Y-96924066D01*
X142651154Y-96901529D01*
X142621300Y-96871694D01*
X142616161Y-96864414D01*
X142572528Y-96778780D01*
X142515319Y-96721571D01*
X142509200Y-96712903D01*
X142501198Y-96689474D01*
X142489334Y-96667747D01*
X142487292Y-96648761D01*
X142486617Y-96646783D01*
X142486939Y-96645476D01*
X142486500Y-96641389D01*
X142486500Y-96581110D01*
X142486500Y-96581108D01*
X142452392Y-96453814D01*
X142386500Y-96339686D01*
X142293314Y-96246500D01*
X142287921Y-96243386D01*
X142239707Y-96192820D01*
X142226483Y-96124213D01*
X142252451Y-96059349D01*
X142309365Y-96018820D01*
X142349922Y-96012000D01*
X144229834Y-96012000D01*
X144296873Y-96031685D01*
X144317518Y-96048322D01*
X144324347Y-96055152D01*
X144390669Y-96099467D01*
X144390670Y-96099468D01*
X144449147Y-96111099D01*
X144449150Y-96111100D01*
X144449152Y-96111100D01*
X146013650Y-96111100D01*
X146013651Y-96111099D01*
X146028468Y-96108152D01*
X146072129Y-96099468D01*
X146072129Y-96099467D01*
X146072131Y-96099467D01*
X146138452Y-96055152D01*
X146182767Y-95988831D01*
X146182767Y-95988829D01*
X146182768Y-95988829D01*
X146194399Y-95930352D01*
X146194400Y-95930350D01*
X146194400Y-95190849D01*
X146194399Y-95190847D01*
X146182768Y-95132370D01*
X146182767Y-95132369D01*
X146138452Y-95066047D01*
X146082561Y-95028702D01*
X146037756Y-94975089D01*
X146029049Y-94905764D01*
X146059204Y-94842737D01*
X146082561Y-94822498D01*
X146138452Y-94785152D01*
X146149651Y-94768392D01*
X146182767Y-94718831D01*
X146182767Y-94718829D01*
X146182768Y-94718829D01*
X146194399Y-94660352D01*
X146194400Y-94660350D01*
X146194400Y-93920849D01*
X146194399Y-93920847D01*
X146182768Y-93862370D01*
X146182767Y-93862369D01*
X146138452Y-93796047D01*
X146082561Y-93758702D01*
X146037756Y-93705089D01*
X146029049Y-93635764D01*
X146059204Y-93572737D01*
X146082561Y-93552498D01*
X146138452Y-93515152D01*
X146154256Y-93491500D01*
X146182767Y-93448831D01*
X146182767Y-93448829D01*
X146182768Y-93448829D01*
X146194399Y-93390352D01*
X146194400Y-93390350D01*
X146194400Y-92650849D01*
X146194399Y-92650847D01*
X146182768Y-92592370D01*
X146182767Y-92592369D01*
X146138452Y-92526047D01*
X146082561Y-92488702D01*
X146037756Y-92435089D01*
X146029049Y-92365764D01*
X146059204Y-92302737D01*
X146082561Y-92282498D01*
X146138452Y-92245152D01*
X146154303Y-92221429D01*
X146182767Y-92178831D01*
X146182767Y-92178829D01*
X146182768Y-92178829D01*
X146194399Y-92120352D01*
X146194400Y-92120350D01*
X146194400Y-91380849D01*
X146194399Y-91380847D01*
X146183153Y-91324307D01*
X146183152Y-91324306D01*
X146182767Y-91322369D01*
X146138452Y-91256048D01*
X146072131Y-91211733D01*
X146070193Y-91211347D01*
X146070192Y-91211346D01*
X146013652Y-91200100D01*
X146013648Y-91200100D01*
X145631900Y-91200100D01*
X145564861Y-91180415D01*
X145519106Y-91127611D01*
X145507900Y-91076100D01*
X145507900Y-90947402D01*
X145507900Y-90947401D01*
X145465805Y-90845775D01*
X145388025Y-90767995D01*
X145223811Y-90603781D01*
X145213198Y-90584344D01*
X145198698Y-90567611D01*
X145196781Y-90554279D01*
X145190326Y-90542458D01*
X145191905Y-90520371D01*
X145188754Y-90498453D01*
X145194349Y-90486201D01*
X145195310Y-90472766D01*
X145208580Y-90455039D01*
X145217779Y-90434897D01*
X145229110Y-90427614D01*
X145237182Y-90416833D01*
X145257927Y-90409095D01*
X145276557Y-90397123D01*
X145298475Y-90393971D01*
X145302646Y-90392416D01*
X145311492Y-90392100D01*
X145550308Y-90392100D01*
X145617347Y-90411785D01*
X145637989Y-90428419D01*
X147367381Y-92157811D01*
X147400866Y-92219134D01*
X147403700Y-92245492D01*
X147403700Y-92369492D01*
X147408494Y-92387384D01*
X147437808Y-92496787D01*
X147446269Y-92511441D01*
X147503700Y-92610914D01*
X147596886Y-92704100D01*
X147711014Y-92769992D01*
X147838308Y-92804100D01*
X147838310Y-92804100D01*
X147970090Y-92804100D01*
X147970092Y-92804100D01*
X148097386Y-92769992D01*
X148211514Y-92704100D01*
X148304700Y-92610914D01*
X148370592Y-92496786D01*
X148404700Y-92369492D01*
X148404700Y-92237708D01*
X148370592Y-92110414D01*
X148304700Y-91996286D01*
X148224174Y-91915760D01*
X148190689Y-91854437D01*
X148195673Y-91784745D01*
X148237545Y-91728812D01*
X148249843Y-91720699D01*
X148262314Y-91713500D01*
X148355500Y-91620314D01*
X148421392Y-91506186D01*
X148450271Y-91398405D01*
X148486636Y-91338746D01*
X148549483Y-91308217D01*
X148570046Y-91306500D01*
X151348965Y-91306500D01*
X151416004Y-91326185D01*
X151461759Y-91378989D01*
X151471703Y-91448147D01*
X151452067Y-91499391D01*
X151445132Y-91509769D01*
X151445131Y-91509770D01*
X151433500Y-91568247D01*
X151433500Y-92726108D01*
X151413815Y-92793147D01*
X151397181Y-92813789D01*
X151102589Y-93108381D01*
X151041266Y-93141866D01*
X151014908Y-93144700D01*
X149626836Y-93144700D01*
X149559797Y-93125015D01*
X149516351Y-93076994D01*
X149510128Y-93064780D01*
X149510123Y-93064774D01*
X149414825Y-92969476D01*
X149414821Y-92969473D01*
X149414820Y-92969472D01*
X149294726Y-92908281D01*
X149294724Y-92908280D01*
X149294721Y-92908279D01*
X149195093Y-92892500D01*
X149195088Y-92892500D01*
X148628112Y-92892500D01*
X148628107Y-92892500D01*
X148528478Y-92908279D01*
X148408378Y-92969473D01*
X148408374Y-92969476D01*
X148313076Y-93064774D01*
X148313073Y-93064778D01*
X148251879Y-93184878D01*
X148236100Y-93284506D01*
X148236100Y-93801493D01*
X148251879Y-93901121D01*
X148251880Y-93901124D01*
X148251881Y-93901126D01*
X148313072Y-94021220D01*
X148313073Y-94021221D01*
X148313076Y-94021225D01*
X148408374Y-94116523D01*
X148408376Y-94116524D01*
X148408380Y-94116528D01*
X148448708Y-94137076D01*
X148499503Y-94185050D01*
X148516298Y-94252871D01*
X148493761Y-94319006D01*
X148448708Y-94358044D01*
X148398259Y-94383749D01*
X148398252Y-94383754D01*
X148308554Y-94473452D01*
X148308551Y-94473457D01*
X148308550Y-94473458D01*
X148292051Y-94505839D01*
X148250952Y-94586498D01*
X148236100Y-94680275D01*
X148236100Y-95070154D01*
X148216415Y-95137193D01*
X148163611Y-95182948D01*
X148144198Y-95189927D01*
X148107720Y-95199702D01*
X148107719Y-95199702D01*
X148107717Y-95199703D01*
X147993592Y-95265594D01*
X147993589Y-95265596D01*
X147900408Y-95358777D01*
X147900406Y-95358780D01*
X147834514Y-95472906D01*
X147800406Y-95600202D01*
X147800406Y-95731985D01*
X147834514Y-95859281D01*
X147851253Y-95888273D01*
X147900406Y-95973408D01*
X147993592Y-96066594D01*
X148107720Y-96132486D01*
X148153079Y-96144639D01*
X148212739Y-96181003D01*
X148243269Y-96243850D01*
X148243459Y-96283812D01*
X148236100Y-96330275D01*
X148236100Y-96793317D01*
X148242827Y-96835789D01*
X148250954Y-96887104D01*
X148308550Y-97000142D01*
X148308552Y-97000144D01*
X148308554Y-97000147D01*
X148398252Y-97089845D01*
X148398254Y-97089846D01*
X148398258Y-97089850D01*
X148502031Y-97142725D01*
X148511298Y-97147447D01*
X148605075Y-97162299D01*
X148605081Y-97162300D01*
X149218118Y-97162299D01*
X149311904Y-97147446D01*
X149424942Y-97089850D01*
X149514650Y-97000142D01*
X149572246Y-96887104D01*
X149572246Y-96887102D01*
X149572247Y-96887101D01*
X149575288Y-96867902D01*
X149605217Y-96804767D01*
X149664529Y-96767836D01*
X149697761Y-96763300D01*
X150071487Y-96763300D01*
X150138526Y-96782985D01*
X150184281Y-96835789D01*
X150193961Y-96867905D01*
X150194280Y-96869923D01*
X150194280Y-96869924D01*
X150194281Y-96869926D01*
X150254188Y-96987500D01*
X150255473Y-96990021D01*
X150255476Y-96990025D01*
X150350774Y-97085323D01*
X150350778Y-97085326D01*
X150350780Y-97085328D01*
X150470874Y-97146519D01*
X150470876Y-97146519D01*
X150470878Y-97146520D01*
X150570507Y-97162300D01*
X150570512Y-97162300D01*
X151087493Y-97162300D01*
X151187121Y-97146520D01*
X151187121Y-97146519D01*
X151187126Y-97146519D01*
X151307220Y-97085328D01*
X151402528Y-96990020D01*
X151463719Y-96869926D01*
X151464089Y-96867590D01*
X151479500Y-96770293D01*
X151479500Y-96203306D01*
X151463720Y-96103678D01*
X151463719Y-96103676D01*
X151463719Y-96103674D01*
X151402528Y-95983580D01*
X151402526Y-95983578D01*
X151402523Y-95983574D01*
X151307225Y-95888276D01*
X151307222Y-95888274D01*
X151307220Y-95888272D01*
X151187126Y-95827081D01*
X151187124Y-95827080D01*
X151178431Y-95822651D01*
X151179552Y-95820450D01*
X151170770Y-95814443D01*
X151148297Y-95804180D01*
X151142437Y-95795062D01*
X151133493Y-95788944D01*
X151123880Y-95766186D01*
X151110523Y-95745402D01*
X151108160Y-95728971D01*
X151106306Y-95724581D01*
X151105500Y-95710467D01*
X151105500Y-95499861D01*
X151125185Y-95432822D01*
X151177989Y-95387067D01*
X151205313Y-95378243D01*
X151212231Y-95376867D01*
X151278552Y-95332552D01*
X151297489Y-95304211D01*
X151322867Y-95266231D01*
X151322867Y-95266229D01*
X151322868Y-95266229D01*
X151334499Y-95207752D01*
X151334500Y-95207750D01*
X151334500Y-93768253D01*
X151332600Y-93758702D01*
X151329226Y-93741739D01*
X151335452Y-93672151D01*
X151363160Y-93629869D01*
X151768211Y-93224819D01*
X151829534Y-93191334D01*
X151855892Y-93188500D01*
X152853750Y-93188500D01*
X152853751Y-93188499D01*
X152871977Y-93184874D01*
X152912229Y-93176868D01*
X152912229Y-93176867D01*
X152912231Y-93176867D01*
X152978552Y-93132552D01*
X153022867Y-93066231D01*
X153022867Y-93066229D01*
X153022868Y-93066229D01*
X153034499Y-93007752D01*
X153034500Y-93007750D01*
X153034500Y-91568249D01*
X153034499Y-91568247D01*
X153022868Y-91509770D01*
X153022867Y-91509769D01*
X153015933Y-91499391D01*
X152995055Y-91432713D01*
X153013540Y-91365333D01*
X153065519Y-91318643D01*
X153119035Y-91306500D01*
X155150997Y-91306500D01*
X155150999Y-91306500D01*
X155154468Y-91305062D01*
X155162639Y-91304184D01*
X155162977Y-91304117D01*
X155162983Y-91304147D01*
X155223935Y-91297593D01*
X155234010Y-91299847D01*
X155255108Y-91305500D01*
X155255110Y-91305500D01*
X155386890Y-91305500D01*
X155386892Y-91305500D01*
X155514186Y-91271392D01*
X155628314Y-91205500D01*
X155721500Y-91112314D01*
X155787392Y-90998186D01*
X155821500Y-90870892D01*
X155821500Y-90739108D01*
X155787392Y-90611814D01*
X155721500Y-90497686D01*
X155628314Y-90404500D01*
X155571652Y-90371786D01*
X155523436Y-90321219D01*
X155510214Y-90252612D01*
X155513873Y-90232324D01*
X155543800Y-90120636D01*
X155543800Y-89988852D01*
X155509692Y-89861558D01*
X155443800Y-89747430D01*
X155350614Y-89654244D01*
X155293550Y-89621298D01*
X155236487Y-89588352D01*
X155172839Y-89571298D01*
X155109192Y-89554244D01*
X154977408Y-89554244D01*
X154850112Y-89588352D01*
X154735986Y-89654244D01*
X154735983Y-89654246D01*
X154642802Y-89747427D01*
X154642800Y-89747430D01*
X154576908Y-89861556D01*
X154542800Y-89988852D01*
X154542800Y-90112851D01*
X154534155Y-90142291D01*
X154527632Y-90172278D01*
X154523877Y-90177293D01*
X154523115Y-90179890D01*
X154506485Y-90200527D01*
X154341831Y-90365182D01*
X154280510Y-90398666D01*
X154254152Y-90401500D01*
X153345334Y-90401500D01*
X153278295Y-90381815D01*
X153232540Y-90329011D01*
X153222596Y-90259853D01*
X153234848Y-90221207D01*
X153264046Y-90163904D01*
X153264046Y-90163902D01*
X153264047Y-90163901D01*
X153278899Y-90070124D01*
X153278900Y-90070119D01*
X153278899Y-89457082D01*
X153264046Y-89363296D01*
X153206450Y-89250258D01*
X153206446Y-89250254D01*
X153206445Y-89250252D01*
X153116747Y-89160554D01*
X153116743Y-89160551D01*
X153116742Y-89160550D01*
X153098804Y-89151410D01*
X153022604Y-89112583D01*
X152971808Y-89064608D01*
X152954900Y-89002099D01*
X152954900Y-88229321D01*
X152974585Y-88162282D01*
X153016900Y-88121934D01*
X153025964Y-88116701D01*
X153088314Y-88080703D01*
X153181500Y-87987517D01*
X153247392Y-87873389D01*
X153281500Y-87746095D01*
X153281500Y-87614311D01*
X153247392Y-87487017D01*
X153181500Y-87372889D01*
X153088314Y-87279703D01*
X153015182Y-87237480D01*
X152974187Y-87213811D01*
X152910539Y-87196757D01*
X152846892Y-87179703D01*
X152715108Y-87179703D01*
X152587812Y-87213811D01*
X152473686Y-87279703D01*
X152473683Y-87279705D01*
X152380502Y-87372886D01*
X152380500Y-87372889D01*
X152314608Y-87487015D01*
X152280500Y-87614311D01*
X152280500Y-87746094D01*
X152314608Y-87873390D01*
X152342223Y-87921219D01*
X152380500Y-87987517D01*
X152380501Y-87987518D01*
X152384564Y-87994555D01*
X152381750Y-87996179D01*
X152401469Y-88047166D01*
X152401900Y-88057498D01*
X152401900Y-89002099D01*
X152382215Y-89069138D01*
X152334196Y-89112583D01*
X152240059Y-89160549D01*
X152240052Y-89160554D01*
X152150354Y-89250252D01*
X152150351Y-89250257D01*
X152150350Y-89250258D01*
X152134748Y-89280879D01*
X152092752Y-89363298D01*
X152077900Y-89457075D01*
X152077900Y-90070117D01*
X152085922Y-90120766D01*
X152092754Y-90163904D01*
X152121951Y-90221206D01*
X152134847Y-90289875D01*
X152108570Y-90354615D01*
X152051464Y-90394872D01*
X152011466Y-90401500D01*
X151695334Y-90401500D01*
X151628295Y-90381815D01*
X151582540Y-90329011D01*
X151572596Y-90259853D01*
X151584848Y-90221207D01*
X151614046Y-90163904D01*
X151614046Y-90163902D01*
X151614047Y-90163901D01*
X151628899Y-90070124D01*
X151628900Y-90070119D01*
X151628899Y-89457082D01*
X151614046Y-89363296D01*
X151556450Y-89250258D01*
X151556446Y-89250254D01*
X151556445Y-89250252D01*
X151466747Y-89160554D01*
X151466743Y-89160551D01*
X151466742Y-89160550D01*
X151448804Y-89151410D01*
X151437741Y-89140961D01*
X151423897Y-89134639D01*
X151412854Y-89117456D01*
X151398009Y-89103435D01*
X151393768Y-89087756D01*
X151386123Y-89075861D01*
X151381100Y-89040926D01*
X151381100Y-89010113D01*
X151400785Y-88943074D01*
X151453589Y-88897319D01*
X151485704Y-88887639D01*
X151487726Y-88887319D01*
X151607820Y-88826128D01*
X151703128Y-88730820D01*
X151764319Y-88610726D01*
X151765342Y-88604268D01*
X151780100Y-88511093D01*
X151780100Y-87994106D01*
X151764320Y-87894478D01*
X151764319Y-87894476D01*
X151764319Y-87894474D01*
X151703128Y-87774380D01*
X151703126Y-87774378D01*
X151703123Y-87774374D01*
X151607825Y-87679076D01*
X151607821Y-87679073D01*
X151607820Y-87679072D01*
X151487726Y-87617881D01*
X151487724Y-87617880D01*
X151487721Y-87617879D01*
X151388093Y-87602100D01*
X151388088Y-87602100D01*
X150821112Y-87602100D01*
X150821107Y-87602100D01*
X150721478Y-87617879D01*
X150721474Y-87617880D01*
X150721474Y-87617881D01*
X150671628Y-87643279D01*
X150601378Y-87679073D01*
X150601374Y-87679076D01*
X150506076Y-87774374D01*
X150506069Y-87774383D01*
X150478484Y-87828523D01*
X150430510Y-87879319D01*
X150362689Y-87896114D01*
X150296554Y-87873576D01*
X150257516Y-87828523D01*
X150229930Y-87774383D01*
X150229923Y-87774374D01*
X150134625Y-87679076D01*
X150134621Y-87679073D01*
X150134620Y-87679072D01*
X150014526Y-87617881D01*
X150014524Y-87617880D01*
X150014521Y-87617879D01*
X149914893Y-87602100D01*
X149914888Y-87602100D01*
X149347912Y-87602100D01*
X149347907Y-87602100D01*
X149248278Y-87617879D01*
X149248274Y-87617880D01*
X149248274Y-87617881D01*
X149198428Y-87643279D01*
X149128178Y-87679073D01*
X149128174Y-87679076D01*
X149032876Y-87774374D01*
X149032873Y-87774378D01*
X148971679Y-87894478D01*
X148955900Y-87994106D01*
X148955900Y-88485707D01*
X148936215Y-88552746D01*
X148919581Y-88573388D01*
X148433718Y-89059250D01*
X148372395Y-89092735D01*
X148326638Y-89094042D01*
X148289123Y-89088100D01*
X147826082Y-89088100D01*
X147746636Y-89100683D01*
X147732296Y-89102954D01*
X147619258Y-89160550D01*
X147619257Y-89160551D01*
X147619252Y-89160554D01*
X147529554Y-89250252D01*
X147529551Y-89250257D01*
X147529550Y-89250258D01*
X147513948Y-89280879D01*
X147471952Y-89363298D01*
X147468912Y-89382498D01*
X147454315Y-89413289D01*
X147440152Y-89444303D01*
X147439377Y-89444800D01*
X147438983Y-89445633D01*
X147410044Y-89463651D01*
X147381374Y-89482077D01*
X147380176Y-89482249D01*
X147379671Y-89482564D01*
X147346439Y-89487100D01*
X147335305Y-89487100D01*
X147268266Y-89467415D01*
X147222511Y-89414611D01*
X147212567Y-89345453D01*
X147215530Y-89331007D01*
X147219505Y-89316172D01*
X147236300Y-89253492D01*
X147236300Y-89121708D01*
X147202192Y-88994414D01*
X147172831Y-88943560D01*
X147156359Y-88875662D01*
X147179211Y-88809635D01*
X147197506Y-88791877D01*
X147196717Y-88791088D01*
X147205351Y-88782453D01*
X147206088Y-88781350D01*
X147249667Y-88716131D01*
X147249667Y-88716129D01*
X147249668Y-88716129D01*
X147260042Y-88663974D01*
X147261300Y-88657648D01*
X147261300Y-87093152D01*
X147261300Y-87093149D01*
X147261299Y-87093147D01*
X147249668Y-87034670D01*
X147249667Y-87034669D01*
X147205352Y-86968347D01*
X147203018Y-86966788D01*
X147161560Y-86920250D01*
X147155546Y-86908518D01*
X147151392Y-86893014D01*
X147088007Y-86783229D01*
X153729501Y-86783229D01*
X153729501Y-86915013D01*
X153743374Y-86966788D01*
X153763609Y-87042308D01*
X153792963Y-87093149D01*
X153829501Y-87156435D01*
X153922687Y-87249621D01*
X154036815Y-87315513D01*
X154101255Y-87332779D01*
X154156842Y-87364872D01*
X154493181Y-87701211D01*
X154526666Y-87762534D01*
X154529500Y-87788891D01*
X154529500Y-88012056D01*
X154529502Y-88012082D01*
X154532413Y-88037187D01*
X154532415Y-88037191D01*
X154577793Y-88139964D01*
X154577794Y-88139965D01*
X154657235Y-88219406D01*
X154760009Y-88264785D01*
X154785135Y-88267700D01*
X156374864Y-88267699D01*
X156374879Y-88267697D01*
X156374882Y-88267697D01*
X156399987Y-88264786D01*
X156399988Y-88264785D01*
X156399991Y-88264785D01*
X156502765Y-88219406D01*
X156582206Y-88139965D01*
X156627585Y-88037191D01*
X156630500Y-88012065D01*
X156630499Y-87622336D01*
X156630497Y-87622317D01*
X156627586Y-87597212D01*
X156627585Y-87597210D01*
X156627585Y-87597209D01*
X156582206Y-87494435D01*
X156502765Y-87414994D01*
X156420114Y-87378500D01*
X156399992Y-87369615D01*
X156374868Y-87366700D01*
X156374865Y-87366700D01*
X154992092Y-87366700D01*
X154962651Y-87358055D01*
X154932665Y-87351532D01*
X154927649Y-87347777D01*
X154925053Y-87347015D01*
X154904411Y-87330381D01*
X154730097Y-87156067D01*
X154696612Y-87094744D01*
X154698002Y-87036298D01*
X154730501Y-86915013D01*
X154730501Y-86783229D01*
X154696393Y-86655935D01*
X154630501Y-86541807D01*
X154554699Y-86466005D01*
X154542717Y-86444062D01*
X154527264Y-86424413D01*
X154526262Y-86413927D01*
X154521214Y-86404682D01*
X154522997Y-86379746D01*
X154520620Y-86354860D01*
X154525446Y-86345497D01*
X154526198Y-86334990D01*
X154541181Y-86314975D01*
X154552635Y-86292757D01*
X154565228Y-86282852D01*
X154568070Y-86279057D01*
X154580377Y-86270939D01*
X154585987Y-86267700D01*
X154609751Y-86253979D01*
X154677649Y-86237505D01*
X154721837Y-86247930D01*
X154760009Y-86264785D01*
X154785135Y-86267700D01*
X156374864Y-86267699D01*
X156374879Y-86267697D01*
X156374882Y-86267697D01*
X156399987Y-86264786D01*
X156399988Y-86264785D01*
X156399991Y-86264785D01*
X156502765Y-86219406D01*
X156582206Y-86139965D01*
X156627585Y-86037191D01*
X156630500Y-86012065D01*
X156630499Y-85622336D01*
X156630497Y-85622317D01*
X156627586Y-85597212D01*
X156627585Y-85597210D01*
X156627585Y-85597209D01*
X156582206Y-85494435D01*
X156502765Y-85414994D01*
X156436212Y-85385608D01*
X156399992Y-85369615D01*
X156374865Y-85366700D01*
X154785143Y-85366700D01*
X154785117Y-85366702D01*
X154760013Y-85369613D01*
X154653530Y-85416630D01*
X154584251Y-85425701D01*
X154541445Y-85410583D01*
X154498187Y-85385608D01*
X154427620Y-85366700D01*
X154370892Y-85351500D01*
X154239108Y-85351500D01*
X154111812Y-85385608D01*
X153997686Y-85451500D01*
X153997683Y-85451502D01*
X153904502Y-85544683D01*
X153904500Y-85544686D01*
X153838608Y-85658812D01*
X153811136Y-85761341D01*
X153804500Y-85786108D01*
X153804500Y-85917892D01*
X153809945Y-85938213D01*
X153838608Y-86045187D01*
X153866376Y-86093281D01*
X153904500Y-86159314D01*
X153904502Y-86159316D01*
X153980301Y-86235115D01*
X154013786Y-86296438D01*
X154008802Y-86366130D01*
X153966930Y-86422063D01*
X153954623Y-86430181D01*
X153922693Y-86448616D01*
X153922684Y-86448623D01*
X153829503Y-86541804D01*
X153829501Y-86541807D01*
X153763609Y-86655933D01*
X153755633Y-86685702D01*
X153729501Y-86783229D01*
X147088007Y-86783229D01*
X147085500Y-86778886D01*
X146992314Y-86685700D01*
X146928041Y-86648592D01*
X146878187Y-86619808D01*
X146796020Y-86597792D01*
X146750892Y-86585700D01*
X146619108Y-86585700D01*
X146491812Y-86619808D01*
X146377686Y-86685700D01*
X146377683Y-86685702D01*
X146284502Y-86778883D01*
X146284500Y-86778886D01*
X146218608Y-86893012D01*
X146200174Y-86961813D01*
X146194317Y-86983672D01*
X146193956Y-86985018D01*
X146187404Y-86995766D01*
X146185200Y-87008159D01*
X146169564Y-87025035D01*
X146157591Y-87044679D01*
X146146269Y-87050178D01*
X146137715Y-87059412D01*
X146115437Y-87065155D01*
X146094744Y-87075208D01*
X146082245Y-87073713D01*
X146070058Y-87076856D01*
X146048213Y-87069644D01*
X146025368Y-87066913D01*
X146014073Y-87058374D01*
X146003710Y-87054953D01*
X145986703Y-87037683D01*
X145977820Y-87030967D01*
X145974238Y-87026544D01*
X145935352Y-86968348D01*
X145917380Y-86956339D01*
X145905546Y-86941727D01*
X145899043Y-86926135D01*
X145888212Y-86913176D01*
X145882132Y-86895778D01*
X145881392Y-86893014D01*
X145815500Y-86778886D01*
X145722314Y-86685700D01*
X145658041Y-86648592D01*
X145608187Y-86619808D01*
X145526020Y-86597792D01*
X145480892Y-86585700D01*
X145349108Y-86585700D01*
X145221812Y-86619808D01*
X145107686Y-86685700D01*
X145107683Y-86685702D01*
X145014502Y-86778883D01*
X145014500Y-86778886D01*
X144948608Y-86893012D01*
X144930174Y-86961813D01*
X144924317Y-86983672D01*
X144923956Y-86985018D01*
X144887591Y-87044679D01*
X144824744Y-87075208D01*
X144755368Y-87066913D01*
X144701491Y-87022428D01*
X144701079Y-87021816D01*
X144665352Y-86968347D01*
X144599030Y-86924032D01*
X144599029Y-86924031D01*
X144540552Y-86912400D01*
X144540548Y-86912400D01*
X143851052Y-86912400D01*
X143851047Y-86912400D01*
X143792570Y-86924031D01*
X143792569Y-86924032D01*
X143726247Y-86968347D01*
X143681932Y-87034669D01*
X143681931Y-87034670D01*
X143670300Y-87093147D01*
X143670300Y-88657652D01*
X143681931Y-88716129D01*
X143681932Y-88716130D01*
X143726247Y-88782452D01*
X143769878Y-88811605D01*
X143792569Y-88826767D01*
X143819491Y-88832122D01*
X143881400Y-88864505D01*
X143915976Y-88925220D01*
X143919300Y-88953739D01*
X143919300Y-89537006D01*
X143899615Y-89604045D01*
X143846811Y-89649800D01*
X143777653Y-89659744D01*
X143714097Y-89630719D01*
X143707619Y-89624687D01*
X143053603Y-88970671D01*
X143020118Y-88909348D01*
X143017284Y-88882990D01*
X143017284Y-88758992D01*
X143017284Y-88758990D01*
X142983176Y-88631696D01*
X142978514Y-88623622D01*
X142956158Y-88584900D01*
X142917284Y-88517568D01*
X142824098Y-88424382D01*
X142767034Y-88391436D01*
X142709971Y-88358490D01*
X142646323Y-88341436D01*
X142582676Y-88324382D01*
X142450892Y-88324382D01*
X142323596Y-88358490D01*
X142209470Y-88424382D01*
X142209467Y-88424384D01*
X142116286Y-88517565D01*
X142116284Y-88517568D01*
X142050392Y-88631694D01*
X142016284Y-88758990D01*
X142016284Y-88890773D01*
X142050392Y-89018069D01*
X142068875Y-89050081D01*
X142116284Y-89132196D01*
X142209470Y-89225382D01*
X142213975Y-89227983D01*
X142218010Y-89230313D01*
X142266226Y-89280879D01*
X142279450Y-89349486D01*
X142253482Y-89414351D01*
X142196568Y-89454880D01*
X142156011Y-89461700D01*
X139263998Y-89461700D01*
X139228953Y-89476217D01*
X139159484Y-89483686D01*
X139097004Y-89452411D01*
X139061352Y-89392322D01*
X139057500Y-89361656D01*
X139057500Y-89342110D01*
X139057500Y-89342108D01*
X139023392Y-89214814D01*
X138957500Y-89100686D01*
X138864314Y-89007500D01*
X138864313Y-89007499D01*
X138861223Y-89005128D01*
X138859277Y-89002463D01*
X138858567Y-89001753D01*
X138858677Y-89001642D01*
X138820022Y-88948699D01*
X138815870Y-88878953D01*
X138839046Y-88830354D01*
X138851292Y-88814698D01*
X138899552Y-88782452D01*
X138943867Y-88716131D01*
X138949141Y-88689612D01*
X138967333Y-88666358D01*
X138972705Y-88662511D01*
X138975768Y-88656657D01*
X139000757Y-88642426D01*
X139024142Y-88625684D01*
X139030741Y-88625352D01*
X139036483Y-88622083D01*
X139065203Y-88623622D01*
X139093924Y-88622180D01*
X139099653Y-88625468D01*
X139106253Y-88625822D01*
X139129584Y-88642646D01*
X139154523Y-88656959D01*
X139157565Y-88662823D01*
X139162925Y-88666688D01*
X139180526Y-88705231D01*
X139181458Y-88704846D01*
X139186132Y-88716130D01*
X139230447Y-88782452D01*
X139296769Y-88826767D01*
X139296770Y-88826768D01*
X139355247Y-88838399D01*
X139355250Y-88838400D01*
X139355252Y-88838400D01*
X140044750Y-88838400D01*
X140044751Y-88838399D01*
X140059568Y-88835452D01*
X140103229Y-88826768D01*
X140103229Y-88826767D01*
X140103231Y-88826767D01*
X140169552Y-88782452D01*
X140213867Y-88716131D01*
X140213867Y-88716129D01*
X140213868Y-88716129D01*
X140224242Y-88663974D01*
X140225500Y-88657648D01*
X140225500Y-87093152D01*
X140225500Y-87093149D01*
X140225499Y-87093147D01*
X140213868Y-87034670D01*
X140209940Y-87025188D01*
X140200500Y-86977733D01*
X140200500Y-86969510D01*
X140200500Y-86969508D01*
X140166392Y-86842214D01*
X140164174Y-86838373D01*
X140132338Y-86783231D01*
X140100500Y-86728086D01*
X140007314Y-86634900D01*
X139943041Y-86597792D01*
X139893187Y-86569008D01*
X139829539Y-86551954D01*
X139765892Y-86534900D01*
X139634108Y-86534900D01*
X139506812Y-86569008D01*
X139392686Y-86634900D01*
X139392683Y-86634902D01*
X139299502Y-86728083D01*
X139299500Y-86728086D01*
X139233608Y-86842212D01*
X139199500Y-86969508D01*
X139199500Y-86977733D01*
X139196949Y-86986418D01*
X139198238Y-86995380D01*
X139190060Y-87025188D01*
X139181458Y-87045954D01*
X139179798Y-87045266D01*
X139154231Y-87094144D01*
X139093514Y-87128717D01*
X139023745Y-87124976D01*
X138967074Y-87084109D01*
X138949473Y-87045568D01*
X138948542Y-87045954D01*
X138939940Y-87025188D01*
X138930500Y-86977733D01*
X138930500Y-86969510D01*
X138930500Y-86969508D01*
X138896392Y-86842214D01*
X138894174Y-86838373D01*
X138862338Y-86783231D01*
X138830500Y-86728086D01*
X138737314Y-86634900D01*
X138673041Y-86597792D01*
X138623187Y-86569008D01*
X138559539Y-86551954D01*
X138495892Y-86534900D01*
X138364108Y-86534900D01*
X138236812Y-86569008D01*
X138122686Y-86634900D01*
X138122683Y-86634902D01*
X138029502Y-86728083D01*
X138029500Y-86728086D01*
X137963608Y-86842212D01*
X137929500Y-86969508D01*
X137929500Y-86977733D01*
X137928851Y-86981583D01*
X137929358Y-86983672D01*
X137925905Y-86999089D01*
X137922667Y-87018326D01*
X137917943Y-87031958D01*
X137916133Y-87034669D01*
X137914957Y-87040578D01*
X137912167Y-87048633D01*
X137896637Y-87070427D01*
X137884231Y-87094144D01*
X137876669Y-87098449D01*
X137871621Y-87105535D01*
X137846771Y-87115474D01*
X137823514Y-87128717D01*
X137814825Y-87128251D01*
X137806748Y-87131482D01*
X137780470Y-87126409D01*
X137753745Y-87124976D01*
X137746688Y-87119887D01*
X137738145Y-87118238D01*
X137718780Y-87099761D01*
X137697074Y-87084109D01*
X137692981Y-87075146D01*
X137687593Y-87070006D01*
X137684157Y-87055826D01*
X137679473Y-87045568D01*
X137678542Y-87045954D01*
X137673867Y-87034669D01*
X137629552Y-86968347D01*
X137563230Y-86924032D01*
X137563229Y-86924031D01*
X137504752Y-86912400D01*
X137498688Y-86911803D01*
X137498890Y-86909748D01*
X137440882Y-86892715D01*
X137402080Y-86847935D01*
X137401190Y-86848530D01*
X137396455Y-86841443D01*
X137395127Y-86839911D01*
X137394557Y-86838604D01*
X137394406Y-86838377D01*
X137394405Y-86838375D01*
X137316625Y-86760595D01*
X137049625Y-86493595D01*
X136947999Y-86451500D01*
X136336132Y-86451500D01*
X136269093Y-86431815D01*
X136223338Y-86379011D01*
X136220629Y-86372054D01*
X136219519Y-86369876D01*
X136219519Y-86369874D01*
X136158328Y-86249780D01*
X136158326Y-86249778D01*
X136158323Y-86249774D01*
X136063025Y-86154476D01*
X136063021Y-86154473D01*
X136063020Y-86154472D01*
X135942926Y-86093281D01*
X135942924Y-86093280D01*
X135942921Y-86093279D01*
X135843293Y-86077500D01*
X135843288Y-86077500D01*
X135276312Y-86077500D01*
X135276307Y-86077500D01*
X135176678Y-86093279D01*
X135056578Y-86154473D01*
X135056574Y-86154476D01*
X134961276Y-86249774D01*
X134961273Y-86249778D01*
X134900079Y-86369878D01*
X134884300Y-86469506D01*
X127560100Y-86469506D01*
X127560100Y-86464640D01*
X127560099Y-85877882D01*
X127558736Y-85869278D01*
X127545246Y-85784096D01*
X127487650Y-85671058D01*
X127487646Y-85671054D01*
X127487645Y-85671052D01*
X127397947Y-85581354D01*
X127397944Y-85581352D01*
X127397942Y-85581350D01*
X127321117Y-85542205D01*
X127284901Y-85523752D01*
X127191124Y-85508900D01*
X127191119Y-85508900D01*
X125164500Y-85508900D01*
X125097461Y-85489215D01*
X125051706Y-85436411D01*
X125040500Y-85384900D01*
X125040500Y-80554038D01*
X127939500Y-80554038D01*
X127939500Y-80554505D01*
X127939500Y-80805962D01*
X127972433Y-81013889D01*
X127978910Y-81054785D01*
X128056760Y-81294383D01*
X128116234Y-81411105D01*
X128161544Y-81500032D01*
X128171132Y-81518848D01*
X128319201Y-81722649D01*
X128319205Y-81722654D01*
X128497345Y-81900794D01*
X128497350Y-81900798D01*
X128675117Y-82029952D01*
X128701155Y-82048870D01*
X128844184Y-82121747D01*
X128925616Y-82163239D01*
X128925618Y-82163239D01*
X128925621Y-82163241D01*
X129165215Y-82241090D01*
X129414038Y-82280500D01*
X129414039Y-82280500D01*
X129665961Y-82280500D01*
X129665962Y-82280500D01*
X129914785Y-82241090D01*
X130154379Y-82163241D01*
X130378845Y-82048870D01*
X130582656Y-81900793D01*
X130760793Y-81722656D01*
X130908870Y-81518845D01*
X131023241Y-81294379D01*
X131101090Y-81054785D01*
X131140500Y-80805962D01*
X131140500Y-80554038D01*
X131101090Y-80305215D01*
X131023241Y-80065621D01*
X131023239Y-80065618D01*
X131023239Y-80065616D01*
X130958332Y-79938230D01*
X130908870Y-79841155D01*
X130841631Y-79748608D01*
X130802288Y-79694456D01*
X130760798Y-79637350D01*
X130760794Y-79637345D01*
X130749452Y-79626003D01*
X133017500Y-79626003D01*
X133017500Y-80775007D01*
X133022197Y-80818686D01*
X133033397Y-80870174D01*
X133035342Y-80878133D01*
X133035890Y-80880373D01*
X133076031Y-80955702D01*
X133078899Y-80961083D01*
X133078901Y-80961086D01*
X133124660Y-81013895D01*
X133138599Y-81028121D01*
X133142246Y-81031843D01*
X133142247Y-81031844D01*
X133142249Y-81031845D01*
X133172714Y-81048886D01*
X133222063Y-81076490D01*
X133289102Y-81096175D01*
X133347000Y-81104500D01*
X133717563Y-81104500D01*
X133749654Y-81108724D01*
X133792108Y-81120100D01*
X133792110Y-81120100D01*
X133923890Y-81120100D01*
X133923892Y-81120100D01*
X133966345Y-81108724D01*
X133998437Y-81104500D01*
X134327163Y-81104500D01*
X134359254Y-81108724D01*
X134401708Y-81120100D01*
X134401710Y-81120100D01*
X134533490Y-81120100D01*
X134533492Y-81120100D01*
X134575945Y-81108724D01*
X134608037Y-81104500D01*
X136535500Y-81104500D01*
X136602539Y-81124185D01*
X136648294Y-81176989D01*
X136659500Y-81228500D01*
X136659500Y-81553733D01*
X136650060Y-81601188D01*
X136646131Y-81610670D01*
X136634500Y-81669147D01*
X136634500Y-82916556D01*
X136614815Y-82983595D01*
X136562011Y-83029350D01*
X136492853Y-83039294D01*
X136429297Y-83010269D01*
X136422819Y-83004237D01*
X136259942Y-82841360D01*
X136226457Y-82780037D01*
X136230581Y-82712725D01*
X136251446Y-82653099D01*
X136254300Y-82622666D01*
X136254300Y-81889134D01*
X136251446Y-81858701D01*
X136251446Y-81858700D01*
X136251446Y-81858698D01*
X136206593Y-81730519D01*
X136206592Y-81730517D01*
X136125950Y-81621250D01*
X136016682Y-81540607D01*
X136016680Y-81540606D01*
X135888500Y-81495753D01*
X135858070Y-81492900D01*
X135858066Y-81492900D01*
X134499534Y-81492900D01*
X134499530Y-81492900D01*
X134469100Y-81495753D01*
X134469098Y-81495753D01*
X134340919Y-81540606D01*
X134340917Y-81540607D01*
X134231650Y-81621250D01*
X134151007Y-81730517D01*
X134151006Y-81730519D01*
X134106153Y-81858698D01*
X134106153Y-81858700D01*
X134103300Y-81889130D01*
X134103300Y-82622669D01*
X134106153Y-82653099D01*
X134106153Y-82653101D01*
X134150571Y-82780037D01*
X134151007Y-82781282D01*
X134231650Y-82890550D01*
X134340918Y-82971193D01*
X134371274Y-82981815D01*
X134469099Y-83016046D01*
X134499530Y-83018900D01*
X134499534Y-83018900D01*
X134605100Y-83018900D01*
X134672139Y-83038585D01*
X134717894Y-83091389D01*
X134729100Y-83142900D01*
X134729100Y-83149292D01*
X134755855Y-83249142D01*
X134763208Y-83276585D01*
X134763208Y-83276586D01*
X134791853Y-83326201D01*
X134808325Y-83394101D01*
X134791853Y-83450199D01*
X134763208Y-83499813D01*
X134763208Y-83499814D01*
X134729100Y-83627108D01*
X134729100Y-83758891D01*
X134763208Y-83886187D01*
X134779497Y-83914399D01*
X134829100Y-84000314D01*
X134922286Y-84093500D01*
X135036414Y-84159392D01*
X135163708Y-84193500D01*
X135163710Y-84193500D01*
X135295490Y-84193500D01*
X135295492Y-84193500D01*
X135422786Y-84159392D01*
X135536914Y-84093500D01*
X135630100Y-84000314D01*
X135695992Y-83886186D01*
X135730100Y-83758892D01*
X135730100Y-83627108D01*
X135730099Y-83627106D01*
X135729039Y-83619052D01*
X135731496Y-83618728D01*
X135732862Y-83561362D01*
X135772025Y-83503499D01*
X135836253Y-83475995D01*
X135905155Y-83487582D01*
X135938655Y-83511437D01*
X136273688Y-83846470D01*
X136349975Y-83890514D01*
X136353612Y-83892614D01*
X136442756Y-83916500D01*
X136442758Y-83916500D01*
X139060342Y-83916500D01*
X139060344Y-83916500D01*
X139149488Y-83892614D01*
X139153125Y-83890514D01*
X139229412Y-83846470D01*
X139625163Y-83450719D01*
X139652090Y-83436015D01*
X139677909Y-83419423D01*
X139684109Y-83418531D01*
X139686486Y-83417234D01*
X139712844Y-83414400D01*
X139737956Y-83414400D01*
X139804995Y-83434085D01*
X139825637Y-83450719D01*
X140373181Y-83998262D01*
X140406666Y-84059585D01*
X140409500Y-84085943D01*
X140409500Y-85159478D01*
X140389815Y-85226517D01*
X140373181Y-85247159D01*
X140359502Y-85260837D01*
X140359500Y-85260840D01*
X140293608Y-85374966D01*
X140273101Y-85451502D01*
X140259500Y-85502262D01*
X140259500Y-85634046D01*
X140278510Y-85704991D01*
X140293608Y-85761339D01*
X140293608Y-85761340D01*
X140323536Y-85813178D01*
X140340007Y-85881079D01*
X140323536Y-85937176D01*
X140293608Y-85989013D01*
X140293608Y-85989014D01*
X140259500Y-86116308D01*
X140259500Y-86248092D01*
X140260681Y-86252500D01*
X140293608Y-86375387D01*
X140304150Y-86393646D01*
X140359500Y-86489514D01*
X140452686Y-86582700D01*
X140566814Y-86648592D01*
X140694108Y-86682700D01*
X140694110Y-86682700D01*
X140825890Y-86682700D01*
X140825892Y-86682700D01*
X140953186Y-86648592D01*
X141067314Y-86582700D01*
X141160500Y-86489514D01*
X141226392Y-86375386D01*
X141260500Y-86248092D01*
X141260500Y-86116308D01*
X141226392Y-85989014D01*
X141196463Y-85937176D01*
X141179991Y-85869278D01*
X141196464Y-85813176D01*
X141213253Y-85784097D01*
X141226392Y-85761340D01*
X141260500Y-85634046D01*
X141260500Y-85502262D01*
X141226392Y-85374968D01*
X141223301Y-85369615D01*
X141193856Y-85318614D01*
X141160500Y-85260840D01*
X141146819Y-85247159D01*
X141113334Y-85185836D01*
X141110500Y-85159478D01*
X141110500Y-84229275D01*
X141894700Y-84229275D01*
X141894700Y-84692317D01*
X141905492Y-84760457D01*
X141909554Y-84786104D01*
X141967150Y-84899142D01*
X141967152Y-84899144D01*
X141967154Y-84899147D01*
X142056852Y-84988845D01*
X142056855Y-84988847D01*
X142056858Y-84988850D01*
X142100233Y-85010950D01*
X142125678Y-85023916D01*
X142176473Y-85071890D01*
X142193268Y-85139711D01*
X142170730Y-85205846D01*
X142125678Y-85244884D01*
X142056859Y-85279949D01*
X142056852Y-85279954D01*
X141967154Y-85369652D01*
X141967151Y-85369657D01*
X141967150Y-85369658D01*
X141959384Y-85384900D01*
X141909552Y-85482698D01*
X141894700Y-85576475D01*
X141894700Y-86039517D01*
X141905492Y-86107657D01*
X141909554Y-86133304D01*
X141967150Y-86246342D01*
X141967152Y-86246344D01*
X141967154Y-86246347D01*
X142056852Y-86336045D01*
X142056854Y-86336046D01*
X142056858Y-86336050D01*
X142169894Y-86393645D01*
X142169898Y-86393647D01*
X142263675Y-86408499D01*
X142263681Y-86408500D01*
X142876718Y-86408499D01*
X142970504Y-86393646D01*
X143083542Y-86336050D01*
X143173250Y-86246342D01*
X143230846Y-86133304D01*
X143230846Y-86133302D01*
X143230847Y-86133301D01*
X143245699Y-86039524D01*
X143245700Y-86039519D01*
X143245699Y-85576482D01*
X143230846Y-85482696D01*
X143173250Y-85369658D01*
X143173246Y-85369654D01*
X143173245Y-85369652D01*
X143083547Y-85279954D01*
X143083543Y-85279951D01*
X143083542Y-85279950D01*
X143081917Y-85279122D01*
X143014721Y-85244883D01*
X142963925Y-85196908D01*
X142947131Y-85129087D01*
X142969669Y-85062952D01*
X143014719Y-85023916D01*
X143083542Y-84988850D01*
X143173250Y-84899142D01*
X143230846Y-84786104D01*
X143230846Y-84786102D01*
X143230847Y-84786101D01*
X143245699Y-84692324D01*
X143245700Y-84692319D01*
X143245699Y-84229282D01*
X143230846Y-84135496D01*
X143173250Y-84022458D01*
X143173246Y-84022454D01*
X143173245Y-84022452D01*
X143083547Y-83932754D01*
X143083544Y-83932752D01*
X143083542Y-83932750D01*
X143000642Y-83890510D01*
X142970501Y-83875152D01*
X142876724Y-83860300D01*
X142263682Y-83860300D01*
X142182719Y-83873123D01*
X142169896Y-83875154D01*
X142056858Y-83932750D01*
X142056857Y-83932751D01*
X142056852Y-83932754D01*
X141967154Y-84022452D01*
X141967151Y-84022457D01*
X141967150Y-84022458D01*
X141952549Y-84051114D01*
X141909552Y-84135498D01*
X141894700Y-84229275D01*
X141110500Y-84229275D01*
X141110500Y-83843258D01*
X141110500Y-83843256D01*
X141092262Y-83775190D01*
X141093925Y-83705344D01*
X141133087Y-83647481D01*
X141197316Y-83619977D01*
X141212037Y-83619100D01*
X141684191Y-83619100D01*
X141684200Y-83619100D01*
X141727884Y-83614403D01*
X141757075Y-83608052D01*
X141779374Y-83603202D01*
X141779390Y-83603198D01*
X141779395Y-83603197D01*
X141789573Y-83600710D01*
X141870285Y-83557700D01*
X141923089Y-83511945D01*
X141941043Y-83494354D01*
X141976190Y-83431519D01*
X142026094Y-83382624D01*
X142094514Y-83368469D01*
X142140701Y-83381570D01*
X142165294Y-83394101D01*
X142169898Y-83396447D01*
X142263675Y-83411299D01*
X142263681Y-83411300D01*
X142876718Y-83411299D01*
X142970504Y-83396446D01*
X143083542Y-83338850D01*
X143173250Y-83249142D01*
X143230846Y-83136104D01*
X143230846Y-83136102D01*
X143230847Y-83136101D01*
X143242860Y-83060252D01*
X143245700Y-83042319D01*
X143245699Y-82579282D01*
X143230846Y-82485496D01*
X143173250Y-82372458D01*
X143173246Y-82372454D01*
X143173245Y-82372452D01*
X143083547Y-82282754D01*
X143083543Y-82282751D01*
X143083542Y-82282750D01*
X143067486Y-82274569D01*
X142988404Y-82234274D01*
X142937609Y-82186300D01*
X142920700Y-82123790D01*
X142920700Y-81764876D01*
X142940385Y-81697837D01*
X142957019Y-81677195D01*
X142970700Y-81663514D01*
X143036592Y-81549386D01*
X143070700Y-81422092D01*
X143070700Y-81290308D01*
X143036592Y-81163014D01*
X143035292Y-81160763D01*
X143019624Y-81133625D01*
X142970700Y-81048886D01*
X142877514Y-80955700D01*
X142877511Y-80955698D01*
X142877507Y-80955695D01*
X142862249Y-80946886D01*
X142814034Y-80896319D01*
X142800812Y-80827712D01*
X142826780Y-80762847D01*
X142883695Y-80722319D01*
X142924250Y-80715500D01*
X143354724Y-80715500D01*
X143421763Y-80735185D01*
X143442405Y-80751819D01*
X143658981Y-80968395D01*
X143692466Y-81029718D01*
X143695300Y-81056076D01*
X143695300Y-81553733D01*
X143685860Y-81601188D01*
X143681931Y-81610670D01*
X143670300Y-81669147D01*
X143670300Y-83233652D01*
X143681931Y-83292129D01*
X143681932Y-83292130D01*
X143726247Y-83358452D01*
X143792569Y-83402767D01*
X143792570Y-83402768D01*
X143851047Y-83414399D01*
X143851050Y-83414400D01*
X143851052Y-83414400D01*
X143990685Y-83414400D01*
X143996508Y-83416109D01*
X144002469Y-83414961D01*
X144029647Y-83425840D01*
X144057724Y-83434085D01*
X144061697Y-83438670D01*
X144067334Y-83440927D01*
X144084315Y-83464773D01*
X144103479Y-83486889D01*
X144104342Y-83492896D01*
X144107864Y-83497841D01*
X144109257Y-83527075D01*
X144113423Y-83556047D01*
X144110975Y-83563120D01*
X144111190Y-83567631D01*
X144098074Y-83600397D01*
X144091294Y-83612141D01*
X144091291Y-83612146D01*
X144079186Y-83633110D01*
X144055300Y-83722256D01*
X144055300Y-85103126D01*
X144035615Y-85170165D01*
X144018981Y-85190807D01*
X144005302Y-85204485D01*
X144005300Y-85204488D01*
X143939408Y-85318614D01*
X143914766Y-85410583D01*
X143905300Y-85445910D01*
X143905300Y-85577694D01*
X143930316Y-85671057D01*
X143939409Y-85704990D01*
X143939409Y-85704991D01*
X143970938Y-85759601D01*
X143987411Y-85827501D01*
X143970938Y-85883601D01*
X143939409Y-85938210D01*
X143939409Y-85938211D01*
X143939408Y-85938213D01*
X143939408Y-85938214D01*
X143905300Y-86065508D01*
X143905300Y-86197292D01*
X143915435Y-86235115D01*
X143939408Y-86324587D01*
X143965555Y-86369874D01*
X144005300Y-86438714D01*
X144098486Y-86531900D01*
X144212614Y-86597792D01*
X144339908Y-86631900D01*
X144339910Y-86631900D01*
X144471690Y-86631900D01*
X144471692Y-86631900D01*
X144598986Y-86597792D01*
X144713114Y-86531900D01*
X144806300Y-86438714D01*
X144872192Y-86324586D01*
X144906300Y-86197292D01*
X144906300Y-86065508D01*
X144872192Y-85938214D01*
X144840660Y-85883600D01*
X144824188Y-85815702D01*
X144840661Y-85759601D01*
X144872192Y-85704988D01*
X144906300Y-85577694D01*
X144906300Y-85445910D01*
X144872192Y-85318616D01*
X144806300Y-85204488D01*
X144792619Y-85190807D01*
X144759134Y-85129484D01*
X144756300Y-85103126D01*
X144756300Y-84092900D01*
X144775985Y-84025861D01*
X144828789Y-83980106D01*
X144880300Y-83968900D01*
X146094542Y-83968900D01*
X146094544Y-83968900D01*
X146183688Y-83945014D01*
X146200092Y-83935543D01*
X146263612Y-83898870D01*
X146660820Y-83501660D01*
X146722141Y-83468177D01*
X146791832Y-83473161D01*
X146836180Y-83501662D01*
X147178888Y-83844370D01*
X147178889Y-83844371D01*
X147178891Y-83844372D01*
X147232205Y-83875152D01*
X147232207Y-83875154D01*
X147250376Y-83885643D01*
X147258812Y-83890514D01*
X147347956Y-83914400D01*
X147347958Y-83914400D01*
X148750542Y-83914400D01*
X148750544Y-83914400D01*
X148839688Y-83890514D01*
X148866292Y-83875154D01*
X148919612Y-83844370D01*
X149631936Y-83132044D01*
X149693257Y-83098561D01*
X149762948Y-83103545D01*
X149818882Y-83145416D01*
X149836469Y-83178240D01*
X149842100Y-83194100D01*
X149842100Y-83200092D01*
X149876208Y-83327386D01*
X149910523Y-83386822D01*
X149914319Y-83397513D01*
X149915654Y-83421524D01*
X149921325Y-83444901D01*
X149917649Y-83457417D01*
X149918198Y-83467274D01*
X149911055Y-83479876D01*
X149904853Y-83500999D01*
X149876208Y-83550613D01*
X149876208Y-83550614D01*
X149842100Y-83677908D01*
X149842100Y-83809692D01*
X149851954Y-83846468D01*
X149876208Y-83936987D01*
X149901103Y-83980106D01*
X149942100Y-84051114D01*
X150035286Y-84144300D01*
X150149414Y-84210192D01*
X150276708Y-84244300D01*
X150276710Y-84244300D01*
X150408490Y-84244300D01*
X150408492Y-84244300D01*
X150535786Y-84210192D01*
X150649914Y-84144300D01*
X150743100Y-84051114D01*
X150808992Y-83936986D01*
X150843100Y-83809692D01*
X150843100Y-83677908D01*
X150808992Y-83550614D01*
X150786666Y-83511945D01*
X150780348Y-83501001D01*
X150763874Y-83433101D01*
X150780348Y-83376999D01*
X150808989Y-83327391D01*
X150808988Y-83327391D01*
X150808992Y-83327386D01*
X150843100Y-83200092D01*
X150843100Y-83068308D01*
X150843099Y-83068306D01*
X150842039Y-83060252D01*
X150844764Y-83059893D01*
X150846094Y-83003490D01*
X150885244Y-82945619D01*
X150890549Y-82941474D01*
X150959550Y-82890550D01*
X151040193Y-82781282D01*
X151064183Y-82712722D01*
X151085046Y-82653101D01*
X151085046Y-82653099D01*
X151087900Y-82622669D01*
X151087900Y-81889130D01*
X151085046Y-81858700D01*
X151085046Y-81858698D01*
X151040193Y-81730519D01*
X151040192Y-81730517D01*
X150959550Y-81621250D01*
X150850282Y-81540607D01*
X150850280Y-81540606D01*
X150722100Y-81495753D01*
X150691670Y-81492900D01*
X150691666Y-81492900D01*
X150225296Y-81492900D01*
X150158257Y-81473215D01*
X150112502Y-81420411D01*
X150102558Y-81351253D01*
X150131583Y-81287697D01*
X150169000Y-81258415D01*
X150198220Y-81243528D01*
X150293528Y-81148220D01*
X150354719Y-81028126D01*
X150358427Y-81004714D01*
X150370500Y-80928493D01*
X150370500Y-80554038D01*
X153939500Y-80554038D01*
X153939500Y-80554505D01*
X153939500Y-80805962D01*
X153972433Y-81013889D01*
X153978910Y-81054785D01*
X154056760Y-81294383D01*
X154116234Y-81411105D01*
X154161544Y-81500032D01*
X154171132Y-81518848D01*
X154319201Y-81722649D01*
X154319205Y-81722654D01*
X154497345Y-81900794D01*
X154497350Y-81900798D01*
X154675117Y-82029952D01*
X154701155Y-82048870D01*
X154844184Y-82121747D01*
X154925616Y-82163239D01*
X154925618Y-82163239D01*
X154925621Y-82163241D01*
X155165215Y-82241090D01*
X155414038Y-82280500D01*
X155414039Y-82280500D01*
X155665961Y-82280500D01*
X155665962Y-82280500D01*
X155914785Y-82241090D01*
X156154379Y-82163241D01*
X156378845Y-82048870D01*
X156582656Y-81900793D01*
X156760793Y-81722656D01*
X156908870Y-81518845D01*
X157023241Y-81294379D01*
X157101090Y-81054785D01*
X157140500Y-80805962D01*
X157140500Y-80554038D01*
X157101090Y-80305215D01*
X157023241Y-80065621D01*
X157023239Y-80065618D01*
X157023239Y-80065616D01*
X156958332Y-79938230D01*
X156908870Y-79841155D01*
X156808267Y-79702686D01*
X156760798Y-79637350D01*
X156760794Y-79637345D01*
X156582654Y-79459205D01*
X156582649Y-79459201D01*
X156378848Y-79311132D01*
X156378847Y-79311131D01*
X156378845Y-79311130D01*
X156285028Y-79263328D01*
X156154383Y-79196760D01*
X155914785Y-79118910D01*
X155810369Y-79102372D01*
X155665962Y-79079500D01*
X155414038Y-79079500D01*
X155289626Y-79099205D01*
X155165214Y-79118910D01*
X154925616Y-79196760D01*
X154701151Y-79311132D01*
X154497350Y-79459201D01*
X154497345Y-79459205D01*
X154319205Y-79637345D01*
X154319201Y-79637350D01*
X154171132Y-79841151D01*
X154056760Y-80065616D01*
X153978910Y-80305214D01*
X153962234Y-80410500D01*
X153939500Y-80554038D01*
X150370500Y-80554038D01*
X150370500Y-80361506D01*
X150354720Y-80261878D01*
X150354719Y-80261876D01*
X150354719Y-80261874D01*
X150293528Y-80141780D01*
X150293526Y-80141778D01*
X150293523Y-80141774D01*
X150198225Y-80046476D01*
X150198221Y-80046473D01*
X150198220Y-80046472D01*
X150078126Y-79985281D01*
X150078124Y-79985280D01*
X150078121Y-79985279D01*
X149978493Y-79969500D01*
X149978488Y-79969500D01*
X149573452Y-79969500D01*
X149506413Y-79949815D01*
X149460658Y-79897011D01*
X149453679Y-79877598D01*
X149437392Y-79816814D01*
X149371500Y-79702686D01*
X149278314Y-79609500D01*
X149206611Y-79568102D01*
X149164187Y-79543608D01*
X149078419Y-79520627D01*
X149036892Y-79509500D01*
X148905108Y-79509500D01*
X148777812Y-79543608D01*
X148663686Y-79609500D01*
X148663683Y-79609502D01*
X148570502Y-79702683D01*
X148570500Y-79702686D01*
X148504608Y-79816812D01*
X148475756Y-79924491D01*
X148470500Y-79944108D01*
X148470500Y-80075892D01*
X148483721Y-80125235D01*
X148504608Y-80203187D01*
X148523322Y-80235600D01*
X148570500Y-80317314D01*
X148663686Y-80410500D01*
X148777814Y-80476392D01*
X148905108Y-80510500D01*
X148905110Y-80510500D01*
X148945500Y-80510500D01*
X149012539Y-80530185D01*
X149058294Y-80582989D01*
X149069500Y-80634500D01*
X149069500Y-80928493D01*
X149085280Y-81028124D01*
X149088295Y-81037402D01*
X149086862Y-81037867D01*
X149097784Y-81096022D01*
X149071508Y-81160763D01*
X149014402Y-81201020D01*
X148944596Y-81204012D01*
X148913869Y-81191868D01*
X148862285Y-81163014D01*
X148844937Y-81153310D01*
X148844936Y-81153309D01*
X148844935Y-81153309D01*
X148777903Y-81133626D01*
X148777899Y-81133625D01*
X148777898Y-81133625D01*
X148720000Y-81125300D01*
X147799600Y-81125300D01*
X147799592Y-81125300D01*
X147755913Y-81129997D01*
X147704425Y-81141197D01*
X147694227Y-81143690D01*
X147694224Y-81143691D01*
X147613516Y-81186699D01*
X147613513Y-81186701D01*
X147560704Y-81232460D01*
X147542760Y-81250042D01*
X147542754Y-81250049D01*
X147498111Y-81329859D01*
X147498109Y-81329864D01*
X147478426Y-81396896D01*
X147478425Y-81396901D01*
X147478425Y-81396902D01*
X147474804Y-81422090D01*
X147470100Y-81454803D01*
X147470100Y-81531796D01*
X147450415Y-81598835D01*
X147397611Y-81644590D01*
X147328453Y-81654534D01*
X147264897Y-81625509D01*
X147242999Y-81600688D01*
X147205353Y-81544348D01*
X147139030Y-81500032D01*
X147139029Y-81500031D01*
X147080552Y-81488400D01*
X147080548Y-81488400D01*
X146391052Y-81488400D01*
X146384960Y-81488400D01*
X146384960Y-81487074D01*
X146322993Y-81475313D01*
X146272289Y-81427241D01*
X146255500Y-81364937D01*
X146255500Y-80235608D01*
X146255499Y-80235592D01*
X146253984Y-80221500D01*
X146250803Y-80191916D01*
X146243903Y-80160198D01*
X146239602Y-80140425D01*
X146239348Y-80139389D01*
X146237110Y-80130227D01*
X146194100Y-80049515D01*
X146148345Y-79996711D01*
X146148339Y-79996704D01*
X146130757Y-79978760D01*
X146130756Y-79978759D01*
X146130754Y-79978757D01*
X146130752Y-79978756D01*
X146130750Y-79978754D01*
X146050940Y-79934111D01*
X146050935Y-79934109D01*
X145983903Y-79914426D01*
X145983899Y-79914425D01*
X145983898Y-79914425D01*
X145926000Y-79906100D01*
X144827800Y-79906100D01*
X144827792Y-79906100D01*
X144784113Y-79910797D01*
X144732625Y-79921997D01*
X144722427Y-79924490D01*
X144722424Y-79924491D01*
X144641716Y-79967499D01*
X144641713Y-79967501D01*
X144588904Y-80013260D01*
X144570960Y-80030842D01*
X144570954Y-80030849D01*
X144526311Y-80110659D01*
X144526308Y-80110669D01*
X144514952Y-80149339D01*
X144477175Y-80208116D01*
X144413618Y-80237139D01*
X144344460Y-80227192D01*
X144308295Y-80202081D01*
X143920716Y-79814502D01*
X143920714Y-79814500D01*
X143863650Y-79781554D01*
X143806587Y-79748608D01*
X143742939Y-79731554D01*
X143679292Y-79714500D01*
X143679291Y-79714500D01*
X142820397Y-79714500D01*
X142753358Y-79694815D01*
X142707603Y-79642011D01*
X142697108Y-79603762D01*
X142694803Y-79582316D01*
X142689388Y-79557427D01*
X142683602Y-79530825D01*
X142683348Y-79529789D01*
X142681110Y-79520627D01*
X142638100Y-79439915D01*
X142592345Y-79387111D01*
X142592339Y-79387104D01*
X142574757Y-79369160D01*
X142574756Y-79369159D01*
X142574754Y-79369157D01*
X142574752Y-79369156D01*
X142574750Y-79369154D01*
X142494940Y-79324511D01*
X142494935Y-79324509D01*
X142427903Y-79304826D01*
X142427899Y-79304825D01*
X142427898Y-79304825D01*
X142370000Y-79296500D01*
X133347000Y-79296500D01*
X133346992Y-79296500D01*
X133303313Y-79301197D01*
X133251825Y-79312397D01*
X133241627Y-79314890D01*
X133241624Y-79314891D01*
X133160916Y-79357899D01*
X133160913Y-79357901D01*
X133108104Y-79403660D01*
X133090160Y-79421242D01*
X133090154Y-79421249D01*
X133045511Y-79501059D01*
X133045509Y-79501064D01*
X133025826Y-79568096D01*
X133025825Y-79568101D01*
X133025825Y-79568102D01*
X133019873Y-79609502D01*
X133017500Y-79626003D01*
X130749452Y-79626003D01*
X130582654Y-79459205D01*
X130582649Y-79459201D01*
X130378848Y-79311132D01*
X130378847Y-79311131D01*
X130378845Y-79311130D01*
X130285028Y-79263328D01*
X130154383Y-79196760D01*
X129914785Y-79118910D01*
X129810369Y-79102372D01*
X129665962Y-79079500D01*
X129414038Y-79079500D01*
X129289626Y-79099205D01*
X129165214Y-79118910D01*
X128925616Y-79196760D01*
X128701151Y-79311132D01*
X128497350Y-79459201D01*
X128497345Y-79459205D01*
X128319205Y-79637345D01*
X128319201Y-79637350D01*
X128171132Y-79841151D01*
X128056760Y-80065616D01*
X127978910Y-80305214D01*
X127962234Y-80410500D01*
X127939500Y-80554038D01*
X125040500Y-80554038D01*
X125040500Y-80275690D01*
X125040649Y-80269608D01*
X125043911Y-80203186D01*
X125053579Y-80006345D01*
X125054203Y-79998623D01*
X125061007Y-79938230D01*
X125061549Y-79934077D01*
X125096244Y-79700155D01*
X125098001Y-79690810D01*
X125105053Y-79659908D01*
X125105593Y-79657656D01*
X125168169Y-79407822D01*
X125171695Y-79396201D01*
X125266761Y-79130499D01*
X125271412Y-79119271D01*
X125392061Y-78864172D01*
X125397783Y-78853468D01*
X125530247Y-78632456D01*
X125531355Y-78630652D01*
X125548285Y-78603707D01*
X125553619Y-78595903D01*
X125675691Y-78431306D01*
X142656700Y-78431306D01*
X142656700Y-78948293D01*
X142672479Y-79047921D01*
X142672480Y-79047924D01*
X142672481Y-79047926D01*
X142714562Y-79130514D01*
X142733673Y-79168021D01*
X142733676Y-79168025D01*
X142828974Y-79263323D01*
X142828978Y-79263326D01*
X142828980Y-79263328D01*
X142949074Y-79324519D01*
X142949076Y-79324519D01*
X142949078Y-79324520D01*
X143048707Y-79340300D01*
X143048712Y-79340300D01*
X143615693Y-79340300D01*
X143715321Y-79324520D01*
X143715321Y-79324519D01*
X143715326Y-79324519D01*
X143835420Y-79263328D01*
X143930728Y-79168020D01*
X143932112Y-79165303D01*
X143961308Y-79108005D01*
X143971756Y-79096942D01*
X143978079Y-79083097D01*
X143995260Y-79072055D01*
X144009282Y-79057209D01*
X144024961Y-79052967D01*
X144036857Y-79045323D01*
X144071792Y-79040300D01*
X144091208Y-79040300D01*
X144158247Y-79059985D01*
X144201692Y-79108005D01*
X144232269Y-79168016D01*
X144232276Y-79168025D01*
X144327574Y-79263323D01*
X144327578Y-79263326D01*
X144327580Y-79263328D01*
X144447674Y-79324519D01*
X144447676Y-79324519D01*
X144447678Y-79324520D01*
X144547307Y-79340300D01*
X144547312Y-79340300D01*
X145114293Y-79340300D01*
X145213921Y-79324520D01*
X145213921Y-79324519D01*
X145213926Y-79324519D01*
X145334020Y-79263328D01*
X145429328Y-79168020D01*
X145430712Y-79165303D01*
X145459908Y-79108005D01*
X145507882Y-79057209D01*
X145570392Y-79040300D01*
X146515656Y-79040300D01*
X146545096Y-79048944D01*
X146575083Y-79055468D01*
X146580098Y-79059222D01*
X146582695Y-79059985D01*
X146603337Y-79076619D01*
X146769081Y-79242363D01*
X146802566Y-79303686D01*
X146805400Y-79330044D01*
X146805400Y-79904260D01*
X146815326Y-79972391D01*
X146866703Y-80077485D01*
X146949414Y-80160196D01*
X146949415Y-80160196D01*
X146949417Y-80160198D01*
X147054507Y-80211573D01*
X147088573Y-80216536D01*
X147122639Y-80221500D01*
X147122640Y-80221500D01*
X147489161Y-80221500D01*
X147511871Y-80218191D01*
X147557293Y-80211573D01*
X147662383Y-80160198D01*
X147745098Y-80077483D01*
X147796473Y-79972393D01*
X147806400Y-79904260D01*
X147806400Y-78662740D01*
X147802018Y-78632668D01*
X147796746Y-78596483D01*
X147796473Y-78594607D01*
X147745098Y-78489517D01*
X147745096Y-78489515D01*
X147745096Y-78489514D01*
X147662385Y-78406803D01*
X147653918Y-78402664D01*
X147557293Y-78355427D01*
X147557291Y-78355426D01*
X147489161Y-78345500D01*
X147489160Y-78345500D01*
X147122640Y-78345500D01*
X147122639Y-78345500D01*
X147054507Y-78355426D01*
X147054506Y-78355426D01*
X146994427Y-78384797D01*
X146925554Y-78396555D01*
X146877969Y-78380784D01*
X146847488Y-78363186D01*
X146818527Y-78355426D01*
X146758344Y-78339300D01*
X146758343Y-78339300D01*
X145570392Y-78339300D01*
X145503353Y-78319615D01*
X145459908Y-78271595D01*
X145429330Y-78211583D01*
X145429323Y-78211574D01*
X145334025Y-78116276D01*
X145334021Y-78116273D01*
X145334020Y-78116272D01*
X145213926Y-78055081D01*
X145213924Y-78055080D01*
X145213921Y-78055079D01*
X145114293Y-78039300D01*
X145114288Y-78039300D01*
X144547312Y-78039300D01*
X144547307Y-78039300D01*
X144447678Y-78055079D01*
X144327578Y-78116273D01*
X144327574Y-78116276D01*
X144232276Y-78211574D01*
X144232269Y-78211583D01*
X144201692Y-78271595D01*
X144191243Y-78282657D01*
X144184921Y-78296503D01*
X144167739Y-78307544D01*
X144153718Y-78322391D01*
X144138038Y-78326632D01*
X144126143Y-78334277D01*
X144091208Y-78339300D01*
X144071792Y-78339300D01*
X144004753Y-78319615D01*
X143961308Y-78271595D01*
X143930730Y-78211583D01*
X143930723Y-78211574D01*
X143835425Y-78116276D01*
X143835421Y-78116273D01*
X143835420Y-78116272D01*
X143715326Y-78055081D01*
X143715324Y-78055080D01*
X143715321Y-78055079D01*
X143615693Y-78039300D01*
X143615688Y-78039300D01*
X143048712Y-78039300D01*
X143048707Y-78039300D01*
X142949078Y-78055079D01*
X142828978Y-78116273D01*
X142828974Y-78116276D01*
X142733676Y-78211574D01*
X142733673Y-78211578D01*
X142672479Y-78331678D01*
X142656700Y-78431306D01*
X125675691Y-78431306D01*
X125694478Y-78405974D01*
X125697023Y-78402664D01*
X125734986Y-78355059D01*
X125739957Y-78349213D01*
X125916597Y-78154318D01*
X125920755Y-78149951D01*
X127009517Y-77061189D01*
X127013883Y-77057031D01*
X127209891Y-76879383D01*
X127215798Y-76874360D01*
X127261333Y-76838048D01*
X127264667Y-76835484D01*
X127329045Y-76787739D01*
X147755400Y-76787739D01*
X147755400Y-78029260D01*
X147765326Y-78097391D01*
X147816703Y-78202485D01*
X147899414Y-78285196D01*
X147899415Y-78285196D01*
X147899417Y-78285198D01*
X148004507Y-78336573D01*
X148038573Y-78341536D01*
X148072639Y-78346500D01*
X148072640Y-78346500D01*
X148439161Y-78346500D01*
X148462063Y-78343163D01*
X148507293Y-78336573D01*
X148612383Y-78285198D01*
X148695098Y-78202483D01*
X148746473Y-78097393D01*
X148756400Y-78029260D01*
X148756400Y-77614300D01*
X148758950Y-77605614D01*
X148757662Y-77596653D01*
X148768640Y-77572612D01*
X148776085Y-77547261D01*
X148782925Y-77541333D01*
X148786687Y-77533097D01*
X148808921Y-77518807D01*
X148828889Y-77501506D01*
X148839403Y-77499218D01*
X148845465Y-77495323D01*
X148880400Y-77490300D01*
X148993408Y-77490300D01*
X149060447Y-77509985D01*
X149103892Y-77558005D01*
X149134469Y-77618016D01*
X149134476Y-77618025D01*
X149229774Y-77713323D01*
X149229778Y-77713326D01*
X149229780Y-77713328D01*
X149349874Y-77774519D01*
X149349876Y-77774519D01*
X149349878Y-77774520D01*
X149449507Y-77790300D01*
X149449512Y-77790300D01*
X150016493Y-77790300D01*
X150116121Y-77774520D01*
X150116121Y-77774519D01*
X150116126Y-77774519D01*
X150236220Y-77713328D01*
X150252983Y-77696565D01*
X150331819Y-77617730D01*
X150393142Y-77584245D01*
X150462834Y-77589229D01*
X150518767Y-77631101D01*
X150543184Y-77696565D01*
X150543500Y-77705411D01*
X150543500Y-77929660D01*
X150543505Y-77930970D01*
X150543519Y-77932955D01*
X150543519Y-77932956D01*
X150552683Y-77992148D01*
X150552684Y-77992155D01*
X150573312Y-78058867D01*
X150573322Y-78058898D01*
X150582204Y-78082418D01*
X150582205Y-78082420D01*
X150634490Y-78151673D01*
X150637310Y-78155408D01*
X150690762Y-78200404D01*
X150690775Y-78200414D01*
X150690774Y-78200414D01*
X150710383Y-78214967D01*
X150710946Y-78215385D01*
X150796765Y-78246996D01*
X150866058Y-78255951D01*
X150866059Y-78255950D01*
X150866060Y-78255951D01*
X150880679Y-78255742D01*
X150924544Y-78255116D01*
X150980037Y-78246326D01*
X150999434Y-78244800D01*
X151514561Y-78244800D01*
X151533956Y-78246325D01*
X151556430Y-78249885D01*
X151593324Y-78261872D01*
X151620428Y-78275682D01*
X151651810Y-78298483D01*
X151673314Y-78319987D01*
X151696116Y-78351371D01*
X151698382Y-78355817D01*
X151709925Y-78378472D01*
X151710652Y-78380710D01*
X151711484Y-78381643D01*
X151721912Y-78415362D01*
X151725473Y-78437839D01*
X151727000Y-78457242D01*
X151727000Y-78922362D01*
X151725473Y-78941762D01*
X151724876Y-78945526D01*
X151724702Y-78946656D01*
X151724407Y-78948602D01*
X151724407Y-78948604D01*
X151724184Y-79008593D01*
X151724185Y-79008598D01*
X151724185Y-79008600D01*
X151734129Y-79077758D01*
X151739221Y-79102373D01*
X151782231Y-79183085D01*
X151798404Y-79201750D01*
X151827991Y-79235895D01*
X151834329Y-79242363D01*
X151845577Y-79253843D01*
X151845578Y-79253844D01*
X151845580Y-79253845D01*
X151921836Y-79296500D01*
X151925394Y-79298490D01*
X151992433Y-79318175D01*
X152050331Y-79326500D01*
X152050335Y-79326500D01*
X152910991Y-79326500D01*
X152911000Y-79326500D01*
X152954684Y-79321803D01*
X152986461Y-79314890D01*
X153006174Y-79310602D01*
X153006190Y-79310598D01*
X153006195Y-79310597D01*
X153016373Y-79308110D01*
X153097085Y-79265100D01*
X153149889Y-79219345D01*
X153167843Y-79201754D01*
X153212490Y-79121937D01*
X153232175Y-79054898D01*
X153240500Y-78997000D01*
X153240500Y-76832000D01*
X153235803Y-76788316D01*
X153226707Y-76746503D01*
X153224602Y-76736825D01*
X153223583Y-76732657D01*
X153222110Y-76726627D01*
X153179100Y-76645915D01*
X153133345Y-76593111D01*
X153133339Y-76593104D01*
X153115757Y-76575160D01*
X153115756Y-76575159D01*
X153115754Y-76575157D01*
X153115752Y-76575156D01*
X153115750Y-76575154D01*
X153035940Y-76530511D01*
X153035935Y-76530509D01*
X152968903Y-76510826D01*
X152968899Y-76510825D01*
X152968898Y-76510825D01*
X152911000Y-76502500D01*
X152910996Y-76502500D01*
X151633587Y-76502500D01*
X151614189Y-76500973D01*
X151601323Y-76498935D01*
X151540492Y-76489300D01*
X151540488Y-76489300D01*
X150973512Y-76489300D01*
X150973508Y-76489300D01*
X150912676Y-76498935D01*
X150899810Y-76500973D01*
X150880413Y-76502500D01*
X150872992Y-76502500D01*
X150829313Y-76507197D01*
X150777825Y-76518397D01*
X150767627Y-76520890D01*
X150767624Y-76520891D01*
X150686916Y-76563899D01*
X150686913Y-76563901D01*
X150634104Y-76609660D01*
X150616160Y-76627242D01*
X150616154Y-76627249D01*
X150571371Y-76707310D01*
X150521464Y-76756208D01*
X150453043Y-76770361D01*
X150387831Y-76745277D01*
X150352668Y-76703071D01*
X150331528Y-76661580D01*
X150331526Y-76661578D01*
X150331523Y-76661574D01*
X150236225Y-76566276D01*
X150236221Y-76566273D01*
X150236220Y-76566272D01*
X150116126Y-76505081D01*
X150116124Y-76505080D01*
X150116121Y-76505079D01*
X150016493Y-76489300D01*
X150016488Y-76489300D01*
X149449512Y-76489300D01*
X149449507Y-76489300D01*
X149349878Y-76505079D01*
X149349874Y-76505080D01*
X149349874Y-76505081D01*
X149291818Y-76534662D01*
X149229778Y-76566273D01*
X149229774Y-76566276D01*
X149134476Y-76661574D01*
X149134469Y-76661583D01*
X149103892Y-76721595D01*
X149093443Y-76732657D01*
X149087121Y-76746503D01*
X149069939Y-76757544D01*
X149055918Y-76772391D01*
X149040238Y-76776632D01*
X149028343Y-76784277D01*
X148993408Y-76789300D01*
X148857949Y-76789300D01*
X148790910Y-76769615D01*
X148746549Y-76719760D01*
X148695099Y-76614517D01*
X148612385Y-76531803D01*
X148507291Y-76480426D01*
X148439161Y-76470500D01*
X148439160Y-76470500D01*
X148072640Y-76470500D01*
X148072639Y-76470500D01*
X148004508Y-76480426D01*
X147899414Y-76531803D01*
X147816703Y-76614514D01*
X147765326Y-76719608D01*
X147755400Y-76787739D01*
X127329045Y-76787739D01*
X127456520Y-76693199D01*
X127464338Y-76687855D01*
X127488139Y-76672900D01*
X127490227Y-76671618D01*
X127713478Y-76537809D01*
X127724182Y-76532088D01*
X127979294Y-76411433D01*
X127990498Y-76406792D01*
X128256205Y-76311724D01*
X128267836Y-76308196D01*
X128520331Y-76244953D01*
X128522574Y-76244416D01*
X128550079Y-76238138D01*
X128559418Y-76236383D01*
X128795646Y-76201345D01*
X128799856Y-76200796D01*
X128857727Y-76194276D01*
X128865463Y-76193650D01*
X129130207Y-76180648D01*
X129136270Y-76180500D01*
X155944310Y-76180500D01*
X155950392Y-76180649D01*
G37*
%TD.AperFunction*%
%TD*%
%TA.AperFunction,Conductor*%
%TO.N,/H_BRID/MOTOR_OUT_B-*%
G36*
X141751239Y-81350485D02*
G01*
X141796994Y-81403289D01*
X141808200Y-81454800D01*
X141808200Y-83289600D01*
X141788515Y-83356639D01*
X141735711Y-83402394D01*
X141684200Y-83413600D01*
X140831243Y-83413600D01*
X140764204Y-83393915D01*
X140743562Y-83377281D01*
X140599929Y-83233648D01*
X140295119Y-82928837D01*
X140261634Y-82867514D01*
X140258800Y-82841156D01*
X140258800Y-81454800D01*
X140278485Y-81387761D01*
X140331289Y-81342006D01*
X140382800Y-81330800D01*
X141684200Y-81330800D01*
X141751239Y-81350485D01*
G37*
%TD.AperFunction*%
%TD*%
%TA.AperFunction,Conductor*%
%TO.N,VCC*%
G36*
X133080761Y-99968685D02*
G01*
X133126516Y-100021489D01*
X133137722Y-100073000D01*
X133137722Y-103505000D01*
X135001000Y-106045000D01*
X137394000Y-106045000D01*
X137461039Y-106064685D01*
X137506794Y-106117489D01*
X137518000Y-106169000D01*
X137518000Y-106850869D01*
X137520853Y-106881299D01*
X137520853Y-106881301D01*
X137565706Y-107009480D01*
X137565707Y-107009482D01*
X137646350Y-107118750D01*
X137755618Y-107199393D01*
X137798345Y-107214344D01*
X137883799Y-107244246D01*
X137914230Y-107247100D01*
X137914234Y-107247100D01*
X138672770Y-107247100D01*
X138703199Y-107244246D01*
X138703201Y-107244246D01*
X138767290Y-107221819D01*
X138831382Y-107199393D01*
X138940650Y-107118750D01*
X139021293Y-107009482D01*
X139043719Y-106945390D01*
X139066146Y-106881301D01*
X139066146Y-106881299D01*
X139069000Y-106850869D01*
X139069000Y-106169000D01*
X139088685Y-106101961D01*
X139141489Y-106056206D01*
X139193000Y-106045000D01*
X139795522Y-106045000D01*
X139862561Y-106064685D01*
X139908316Y-106117489D01*
X139919522Y-106169000D01*
X139919522Y-108892800D01*
X139899837Y-108959839D01*
X139847033Y-109005594D01*
X139795522Y-109016800D01*
X134770362Y-109016800D01*
X134703323Y-108997115D01*
X134675354Y-108972484D01*
X130118714Y-103539567D01*
X130090716Y-103475552D01*
X130089722Y-103459883D01*
X130089722Y-100073000D01*
X130109407Y-100005961D01*
X130162211Y-99960206D01*
X130213722Y-99949000D01*
X133013722Y-99949000D01*
X133080761Y-99968685D01*
G37*
%TD.AperFunction*%
%TD*%
%TA.AperFunction,Conductor*%
%TO.N,/H_BRID/MOTOR_OUT_B+*%
G36*
X138779439Y-81350485D02*
G01*
X138825194Y-81403289D01*
X138836400Y-81454800D01*
X138836400Y-83091500D01*
X138816715Y-83158539D01*
X138763911Y-83204294D01*
X138712400Y-83215500D01*
X137809500Y-83215500D01*
X137742461Y-83195815D01*
X137696706Y-83143011D01*
X137685500Y-83091500D01*
X137685500Y-81669149D01*
X137685499Y-81669147D01*
X137673868Y-81610670D01*
X137669940Y-81601188D01*
X137668313Y-81593009D01*
X137665523Y-81588668D01*
X137660500Y-81553733D01*
X137660500Y-81454800D01*
X137680185Y-81387761D01*
X137732989Y-81342006D01*
X137784500Y-81330800D01*
X138712400Y-81330800D01*
X138779439Y-81350485D01*
G37*
%TD.AperFunction*%
%TD*%
%TA.AperFunction,Conductor*%
%TO.N,VCC*%
G36*
X142437039Y-79521685D02*
G01*
X142482794Y-79574489D01*
X142494000Y-79626000D01*
X142494000Y-80763312D01*
X142486550Y-80788682D01*
X142482781Y-80814852D01*
X142476860Y-80821680D01*
X142474315Y-80830351D01*
X142454334Y-80847664D01*
X142437013Y-80867644D01*
X142424892Y-80873175D01*
X142421511Y-80876106D01*
X142407189Y-80881255D01*
X142404905Y-80882298D01*
X142403460Y-80882721D01*
X142377014Y-80889808D01*
X142374648Y-80891173D01*
X142365062Y-80893986D01*
X142330157Y-80899000D01*
X133347000Y-80899000D01*
X133279961Y-80879315D01*
X133234206Y-80826511D01*
X133223000Y-80775000D01*
X133223000Y-79626000D01*
X133242685Y-79558961D01*
X133295489Y-79513206D01*
X133347000Y-79502000D01*
X142370000Y-79502000D01*
X142437039Y-79521685D01*
G37*
%TD.AperFunction*%
%TD*%
%TA.AperFunction,Conductor*%
%TO.N,/H_BRID/MOTOR_OUT_A+*%
G36*
X145993039Y-80131285D02*
G01*
X146038794Y-80184089D01*
X146050000Y-80235600D01*
X146050000Y-83069756D01*
X146041355Y-83099196D01*
X146034832Y-83129183D01*
X146031077Y-83134198D01*
X146030315Y-83136795D01*
X146013681Y-83157437D01*
X145939537Y-83231581D01*
X145878214Y-83265066D01*
X145851856Y-83267900D01*
X144845300Y-83267900D01*
X144778261Y-83248215D01*
X144732506Y-83195411D01*
X144721300Y-83143900D01*
X144721300Y-81669149D01*
X144721299Y-81669147D01*
X144707285Y-81598691D01*
X144709069Y-81598335D01*
X144703800Y-81571839D01*
X144703800Y-80235600D01*
X144723485Y-80168561D01*
X144776289Y-80122806D01*
X144827800Y-80111600D01*
X145926000Y-80111600D01*
X145993039Y-80131285D01*
G37*
%TD.AperFunction*%
%TD*%
M02*
