%TF.GenerationSoftware,KiCad,Pcbnew,9.0.6*%
%TF.CreationDate,2026-03-07T10:39:48+08:00*%
%TF.ProjectId,Motor35,4d6f746f-7233-4352-9e6b-696361645f70,rev?*%
%TF.SameCoordinates,Original*%
%TF.FileFunction,Paste,Top*%
%TF.FilePolarity,Positive*%
%FSLAX46Y46*%
G04 Gerber Fmt 4.6, Leading zero omitted, Abs format (unit mm)*
G04 Created by KiCad (PCBNEW 9.0.6) date 2026-03-07 10:39:48*
%MOMM*%
%LPD*%
G01*
G04 APERTURE LIST*
G04 Aperture macros list*
%AMRoundRect*
0 Rectangle with rounded corners*
0 $1 Rounding radius*
0 $2 $3 $4 $5 $6 $7 $8 $9 X,Y pos of 4 corners*
0 Add a 4 corners polygon primitive as box body*
4,1,4,$2,$3,$4,$5,$6,$7,$8,$9,$2,$3,0*
0 Add four circle primitives for the rounded corners*
1,1,$1+$1,$2,$3*
1,1,$1+$1,$4,$5*
1,1,$1+$1,$6,$7*
1,1,$1+$1,$8,$9*
0 Add four rect primitives between the rounded corners*
20,1,$1+$1,$2,$3,$4,$5,0*
20,1,$1+$1,$4,$5,$6,$7,0*
20,1,$1+$1,$6,$7,$8,$9,0*
20,1,$1+$1,$8,$9,$2,$3,0*%
G04 Aperture macros list end*
%ADD10RoundRect,0.225000X0.225000X0.250000X-0.225000X0.250000X-0.225000X-0.250000X0.225000X-0.250000X0*%
%ADD11RoundRect,0.200000X-0.200000X-0.275000X0.200000X-0.275000X0.200000X0.275000X-0.200000X0.275000X0*%
%ADD12R,1.000000X3.500000*%
%ADD13R,1.600000X3.500000*%
%ADD14RoundRect,0.337500X0.337500X0.562500X-0.337500X0.562500X-0.337500X-0.562500X0.337500X-0.562500X0*%
%ADD15RoundRect,0.337500X-0.337500X-0.562500X0.337500X-0.562500X0.337500X0.562500X-0.337500X0.562500X0*%
%ADD16RoundRect,0.075000X0.662500X0.075000X-0.662500X0.075000X-0.662500X-0.075000X0.662500X-0.075000X0*%
%ADD17RoundRect,0.075000X0.075000X0.662500X-0.075000X0.662500X-0.075000X-0.662500X0.075000X-0.662500X0*%
%ADD18R,3.500000X1.000000*%
%ADD19R,3.500000X1.600000*%
%ADD20RoundRect,0.225000X-0.225000X-0.250000X0.225000X-0.250000X0.225000X0.250000X-0.225000X0.250000X0*%
G04 APERTURE END LIST*
D10*
%TO.C,C3*%
X137820400Y-89408000D03*
X136270400Y-89408000D03*
%TD*%
D11*
%TO.C,R5*%
X147257000Y-89808000D03*
X148907000Y-89808000D03*
%TD*%
%TO.C,R10*%
X143345400Y-100203000D03*
X144995400Y-100203000D03*
%TD*%
D12*
%TO.C,J4*%
X147549805Y-83410705D03*
X145549805Y-83410705D03*
X143549805Y-83410705D03*
X141549805Y-83410705D03*
X139549805Y-83410705D03*
X137549805Y-83410705D03*
D13*
X149949805Y-77710705D03*
X135149805Y-77710705D03*
%TD*%
D10*
%TO.C,C11*%
X148857000Y-88284000D03*
X147307000Y-88284000D03*
%TD*%
%TO.C,C7*%
X137820400Y-98806000D03*
X136270400Y-98806000D03*
%TD*%
D11*
%TO.C,R9*%
X141897600Y-87223600D03*
X143547600Y-87223600D03*
%TD*%
D14*
%TO.C,S2*%
X149165200Y-108712000D03*
X144865200Y-108712000D03*
%TD*%
D15*
%TO.C,S1*%
X135899000Y-108712000D03*
X140199000Y-108712000D03*
%TD*%
D16*
%TO.C,U2*%
X146681900Y-97026800D03*
X146681900Y-96526800D03*
X146681900Y-96026800D03*
X146681900Y-95526800D03*
X146681900Y-95026800D03*
X146681900Y-94526800D03*
X146681900Y-94026800D03*
X146681900Y-93526800D03*
X146681900Y-93026800D03*
X146681900Y-92526800D03*
X146681900Y-92026800D03*
X146681900Y-91526800D03*
D17*
X145269400Y-90114300D03*
X144769400Y-90114300D03*
X144269400Y-90114300D03*
X143769400Y-90114300D03*
X143269400Y-90114300D03*
X142769400Y-90114300D03*
X142269400Y-90114300D03*
X141769400Y-90114300D03*
X141269400Y-90114300D03*
X140769400Y-90114300D03*
X140269400Y-90114300D03*
X139769400Y-90114300D03*
D16*
X138356900Y-91526800D03*
X138356900Y-92026800D03*
X138356900Y-92526800D03*
X138356900Y-93026800D03*
X138356900Y-93526800D03*
X138356900Y-94026800D03*
X138356900Y-94526800D03*
X138356900Y-95026800D03*
X138356900Y-95526800D03*
X138356900Y-96026800D03*
X138356900Y-96526800D03*
X138356900Y-97026800D03*
D17*
X139769400Y-98439300D03*
X140269400Y-98439300D03*
X140769400Y-98439300D03*
X141269400Y-98439300D03*
X141769400Y-98439300D03*
X142269400Y-98439300D03*
X142769400Y-98439300D03*
X143269400Y-98439300D03*
X143769400Y-98439300D03*
X144269400Y-98439300D03*
X144769400Y-98439300D03*
X145269400Y-98439300D03*
%TD*%
D18*
%TO.C,J5*%
X132254905Y-88644795D03*
X132254905Y-90644795D03*
X132254905Y-92644795D03*
X132254905Y-94644795D03*
X132254905Y-96644795D03*
X132254905Y-98644795D03*
D19*
X126554905Y-86244795D03*
X126554905Y-101044795D03*
%TD*%
D18*
%TO.C,J6*%
X152809295Y-98680205D03*
X152809295Y-96680205D03*
X152809295Y-94680205D03*
X152809295Y-92680205D03*
X152809295Y-90680205D03*
X152809295Y-88680205D03*
D19*
X158509295Y-101080205D03*
X158509295Y-86280205D03*
%TD*%
D20*
%TO.C,C5*%
X147180000Y-98806000D03*
X148730000Y-98806000D03*
%TD*%
M02*
