%TF.GenerationSoftware,KiCad,Pcbnew,9.0.6*%
%TF.CreationDate,2026-03-07T10:39:48+08:00*%
%TF.ProjectId,Motor35,4d6f746f-7233-4352-9e6b-696361645f70,rev?*%
%TF.SameCoordinates,Original*%
%TF.FileFunction,Copper,L1,Top*%
%TF.FilePolarity,Positive*%
%FSLAX46Y46*%
G04 Gerber Fmt 4.6, Leading zero omitted, Abs format (unit mm)*
G04 Created by KiCad (PCBNEW 9.0.6) date 2026-03-07 10:39:48*
%MOMM*%
%LPD*%
G01*
G04 APERTURE LIST*
G04 Aperture macros list*
%AMRoundRect*
0 Rectangle with rounded corners*
0 $1 Rounding radius*
0 $2 $3 $4 $5 $6 $7 $8 $9 X,Y pos of 4 corners*
0 Add a 4 corners polygon primitive as box body*
4,1,4,$2,$3,$4,$5,$6,$7,$8,$9,$2,$3,0*
0 Add four circle primitives for the rounded corners*
1,1,$1+$1,$2,$3*
1,1,$1+$1,$4,$5*
1,1,$1+$1,$6,$7*
1,1,$1+$1,$8,$9*
0 Add four rect primitives between the rounded corners*
20,1,$1+$1,$2,$3,$4,$5,0*
20,1,$1+$1,$4,$5,$6,$7,0*
20,1,$1+$1,$6,$7,$8,$9,0*
20,1,$1+$1,$8,$9,$2,$3,0*%
G04 Aperture macros list end*
%ADD10C,0.317500*%
%ADD11C,0.250000*%
%TA.AperFunction,SMDPad,CuDef*%
%ADD12RoundRect,0.225000X0.225000X0.250000X-0.225000X0.250000X-0.225000X-0.250000X0.225000X-0.250000X0*%
%TD*%
%TA.AperFunction,SMDPad,CuDef*%
%ADD13RoundRect,0.200000X-0.200000X-0.275000X0.200000X-0.275000X0.200000X0.275000X-0.200000X0.275000X0*%
%TD*%
%TA.AperFunction,SMDPad,CuDef*%
%ADD14R,1.000000X3.500000*%
%TD*%
%TA.AperFunction,SMDPad,CuDef*%
%ADD15R,1.600000X3.500000*%
%TD*%
%TA.AperFunction,SMDPad,CuDef*%
%ADD16RoundRect,0.337500X0.337500X0.562500X-0.337500X0.562500X-0.337500X-0.562500X0.337500X-0.562500X0*%
%TD*%
%TA.AperFunction,SMDPad,CuDef*%
%ADD17RoundRect,0.337500X-0.337500X-0.562500X0.337500X-0.562500X0.337500X0.562500X-0.337500X0.562500X0*%
%TD*%
%TA.AperFunction,SMDPad,CuDef*%
%ADD18RoundRect,0.075000X0.662500X0.075000X-0.662500X0.075000X-0.662500X-0.075000X0.662500X-0.075000X0*%
%TD*%
%TA.AperFunction,SMDPad,CuDef*%
%ADD19RoundRect,0.075000X0.075000X0.662500X-0.075000X0.662500X-0.075000X-0.662500X0.075000X-0.662500X0*%
%TD*%
%TA.AperFunction,SMDPad,CuDef*%
%ADD20R,3.500000X1.000000*%
%TD*%
%TA.AperFunction,SMDPad,CuDef*%
%ADD21R,3.500000X1.600000*%
%TD*%
%TA.AperFunction,SMDPad,CuDef*%
%ADD22RoundRect,0.225000X-0.225000X-0.250000X0.225000X-0.250000X0.225000X0.250000X-0.225000X0.250000X0*%
%TD*%
%TA.AperFunction,ViaPad*%
%ADD23C,0.600000*%
%TD*%
%TA.AperFunction,Conductor*%
%ADD24C,0.152000*%
%TD*%
%TA.AperFunction,Conductor*%
%ADD25C,0.300000*%
%TD*%
G04 APERTURE END LIST*
D10*
G36*
X151796683Y-109385100D02*
G01*
X150782522Y-109385100D01*
X150782522Y-109170759D01*
X151015396Y-108993099D01*
X151125379Y-108901319D01*
X151202362Y-108830948D01*
X151297130Y-108730625D01*
X151351563Y-108655071D01*
X151376780Y-108603654D01*
X151391178Y-108554479D01*
X151395842Y-108506723D01*
X151389050Y-108450675D01*
X151370007Y-108406304D01*
X151339000Y-108370861D01*
X151298410Y-108345541D01*
X151245110Y-108329079D01*
X151175453Y-108323014D01*
X151095278Y-108330738D01*
X151007564Y-108355196D01*
X150922342Y-108391914D01*
X150844094Y-108437164D01*
X150816333Y-108437164D01*
X150816333Y-108150472D01*
X150885681Y-108125692D01*
X150998025Y-108096809D01*
X151118626Y-108076594D01*
X151238809Y-108069901D01*
X151362209Y-108077398D01*
X151462546Y-108098078D01*
X151543790Y-108129864D01*
X151609252Y-108171642D01*
X151664438Y-108226950D01*
X151703803Y-108291896D01*
X151728212Y-108368401D01*
X151736817Y-108459342D01*
X151730056Y-108539110D01*
X151709825Y-108616078D01*
X151675632Y-108691286D01*
X151630594Y-108761318D01*
X151569180Y-108836662D01*
X151488666Y-108918033D01*
X151408831Y-108988342D01*
X151329849Y-109051725D01*
X151216243Y-109136949D01*
X151796683Y-109136949D01*
X151796683Y-109385100D01*
G37*
G36*
X152901884Y-108849094D02*
G01*
X153077994Y-108849094D01*
X153077994Y-109087319D01*
X152901884Y-109087319D01*
X152901884Y-109390063D01*
X152583476Y-109390063D01*
X152583476Y-109087319D01*
X151957981Y-109087319D01*
X151957981Y-108849094D01*
X152207838Y-108849094D01*
X152583476Y-108849094D01*
X152583476Y-108382338D01*
X152207838Y-108849094D01*
X151957981Y-108849094D01*
X151957981Y-108840409D01*
X152562616Y-108094716D01*
X152901884Y-108094716D01*
X152901884Y-108849094D01*
G37*
G36*
X154484233Y-108094716D02*
G01*
X154013134Y-109385100D01*
X153640133Y-109385100D01*
X153169034Y-108094716D01*
X153518616Y-108094716D01*
X153830976Y-109001164D01*
X154143258Y-108094716D01*
X154484233Y-108094716D01*
G37*
D11*
G36*
X152810714Y-110247636D02*
G01*
X152780016Y-110269726D01*
X152744097Y-110287387D01*
X152706029Y-110298743D01*
X152669359Y-110302408D01*
X152625970Y-110300480D01*
X152601032Y-110295935D01*
X152580503Y-110287502D01*
X152563480Y-110275724D01*
X152549726Y-110261111D01*
X152542963Y-110246965D01*
X152538872Y-110207947D01*
X152544002Y-110174418D01*
X152558351Y-110149451D01*
X152581220Y-110130418D01*
X152614710Y-110115562D01*
X152648368Y-110107226D01*
X152702759Y-110098770D01*
X152810714Y-110087474D01*
X152810714Y-110247636D01*
G37*
G36*
X154208159Y-110595447D02*
G01*
X150740137Y-110595447D01*
X150740137Y-109681054D01*
X150865137Y-109681054D01*
X150865137Y-110447000D01*
X151111028Y-110447000D01*
X151111028Y-109902704D01*
X151172517Y-109871624D01*
X151207280Y-109860564D01*
X151242859Y-109856909D01*
X151285237Y-109860121D01*
X151312895Y-109868205D01*
X151334686Y-109882822D01*
X151350142Y-109904109D01*
X151359673Y-109930891D01*
X151365163Y-109968039D01*
X151367911Y-110063416D01*
X151367911Y-110447000D01*
X151615207Y-110447000D01*
X151615207Y-109902704D01*
X151686953Y-109867533D01*
X151716720Y-109859554D01*
X151747037Y-109856909D01*
X151790003Y-109860122D01*
X151818050Y-109868205D01*
X151839951Y-109882869D01*
X151854931Y-109904109D01*
X151864435Y-109930857D01*
X151869647Y-109967673D01*
X151872028Y-110063416D01*
X151872028Y-110447000D01*
X152119324Y-110447000D01*
X152119324Y-110228646D01*
X152288829Y-110228646D01*
X152293634Y-110280175D01*
X152307522Y-110325564D01*
X152330304Y-110366034D01*
X152362590Y-110402425D01*
X152401375Y-110431989D01*
X152444233Y-110453066D01*
X152491966Y-110465980D01*
X152545650Y-110470447D01*
X152591049Y-110468115D01*
X152631013Y-110461471D01*
X152669275Y-110450467D01*
X152706178Y-110435398D01*
X152761500Y-110401937D01*
X152810714Y-110365728D01*
X152810714Y-110447000D01*
X153054591Y-110447000D01*
X153182818Y-110447000D01*
X153464247Y-110447000D01*
X153632286Y-110217839D01*
X153796234Y-110447000D01*
X154083159Y-110447000D01*
X153781213Y-110058226D01*
X154079739Y-109681054D01*
X153797639Y-109681054D01*
X153635706Y-109906124D01*
X153474505Y-109681054D01*
X153187581Y-109681054D01*
X153485435Y-110064393D01*
X153182818Y-110447000D01*
X153054591Y-110447000D01*
X153054591Y-109924808D01*
X153048109Y-109857116D01*
X153030023Y-109802445D01*
X153001289Y-109758067D01*
X152961351Y-109722209D01*
X152914489Y-109696826D01*
X152851268Y-109676525D01*
X152767522Y-109662754D01*
X152658429Y-109657607D01*
X152570490Y-109661095D01*
X152482513Y-109671590D01*
X152355812Y-109695770D01*
X152355812Y-109880356D01*
X152378344Y-109880356D01*
X152477384Y-109847200D01*
X152545753Y-109830802D01*
X152607199Y-109825646D01*
X152674863Y-109828952D01*
X152724577Y-109837625D01*
X152760217Y-109850131D01*
X152788866Y-109870657D01*
X152805961Y-109899263D01*
X152812119Y-109938730D01*
X152812119Y-109942882D01*
X152704486Y-109950856D01*
X152602375Y-109962116D01*
X152506051Y-109980539D01*
X152432993Y-110006080D01*
X152389446Y-110029885D01*
X152354265Y-110058024D01*
X152326381Y-110090588D01*
X152306196Y-110128022D01*
X152293405Y-110173414D01*
X152290544Y-110207947D01*
X152288829Y-110228646D01*
X152119324Y-110228646D01*
X152119324Y-109946973D01*
X152114642Y-109876185D01*
X152101660Y-109818205D01*
X152081536Y-109770801D01*
X152054783Y-109732162D01*
X152020115Y-109700494D01*
X151978182Y-109677407D01*
X151927478Y-109662818D01*
X151865922Y-109657607D01*
X151822041Y-109661377D01*
X151776694Y-109672990D01*
X151729268Y-109693205D01*
X151660543Y-109734091D01*
X151585837Y-109791024D01*
X151560678Y-109750113D01*
X151530497Y-109717244D01*
X151494978Y-109691495D01*
X151455033Y-109672931D01*
X151410704Y-109661543D01*
X151361072Y-109657607D01*
X151293112Y-109664764D01*
X151232661Y-109685633D01*
X151175024Y-109717987D01*
X151111028Y-109763608D01*
X151111028Y-109681054D01*
X150865137Y-109681054D01*
X150740137Y-109681054D01*
X150740137Y-109532607D01*
X154208159Y-109532607D01*
X154208159Y-110595447D01*
G37*
D12*
%TO.P,C3,1*%
%TO.N,+3.3V*%
X137820400Y-89408000D03*
%TO.P,C3,2*%
%TO.N,GND*%
X136270400Y-89408000D03*
%TD*%
D13*
%TO.P,R5,1*%
%TO.N,+3.3V*%
X147257000Y-89808000D03*
%TO.P,R5,2*%
%TO.N,/nRST*%
X148907000Y-89808000D03*
%TD*%
%TO.P,R10,1*%
%TO.N,Net-(U2-BOOT0)*%
X143345400Y-100203000D03*
%TO.P,R10,2*%
%TO.N,GND*%
X144995400Y-100203000D03*
%TD*%
D14*
%TO.P,J4,1,01*%
%TO.N,/H_BRID/MOTOR_OUT_A-*%
X147549805Y-83410705D03*
%TO.P,J4,2,02*%
%TO.N,unconnected-(J4-02-Pad2)*%
X145549805Y-83410705D03*
%TO.P,J4,3,03*%
%TO.N,/H_BRID/MOTOR_OUT_A+*%
X143549805Y-83410705D03*
%TO.P,J4,4,04*%
%TO.N,/H_BRID/MOTOR_OUT_B-*%
X141549805Y-83410705D03*
%TO.P,J4,5,05*%
%TO.N,unconnected-(J4-05-Pad5)*%
X139549805Y-83410705D03*
%TO.P,J4,6,06*%
%TO.N,/H_BRID/MOTOR_OUT_B+*%
X137549805Y-83410705D03*
D15*
%TO.P,J4,MP1*%
%TO.N,N/C*%
X149949805Y-77710705D03*
%TO.P,J4,MP2*%
X135149805Y-77710705D03*
%TD*%
D12*
%TO.P,C11,1*%
%TO.N,/nRST*%
X148857000Y-88284000D03*
%TO.P,C11,2*%
%TO.N,GND*%
X147307000Y-88284000D03*
%TD*%
%TO.P,C7,1*%
%TO.N,+3.3V*%
X137820400Y-98806000D03*
%TO.P,C7,2*%
%TO.N,GND*%
X136270400Y-98806000D03*
%TD*%
D13*
%TO.P,R9,1*%
%TO.N,Net-(U2-PB2)*%
X141897600Y-87223600D03*
%TO.P,R9,2*%
%TO.N,GND*%
X143547600Y-87223600D03*
%TD*%
D16*
%TO.P,S2,1*%
%TO.N,GND*%
X149165200Y-108712000D03*
%TO.P,S2,2*%
%TO.N,/KEY2*%
X144865200Y-108712000D03*
%TD*%
D17*
%TO.P,S1,1*%
%TO.N,GND*%
X135899000Y-108712000D03*
%TO.P,S1,2*%
%TO.N,/KEY1*%
X140199000Y-108712000D03*
%TD*%
D18*
%TO.P,U2,1,VBAT*%
%TO.N,+3.3V*%
X146681900Y-97026800D03*
%TO.P,U2,2,PC13*%
%TO.N,unconnected-(U2-PC13-Pad2)*%
X146681900Y-96526800D03*
%TO.P,U2,3,PC14*%
%TO.N,unconnected-(U2-PC14-Pad3)*%
X146681900Y-96026800D03*
%TO.P,U2,4,PC15*%
%TO.N,unconnected-(U2-PC15-Pad4)*%
X146681900Y-95526800D03*
%TO.P,U2,5,PD0*%
%TO.N,/OSC_IN*%
X146681900Y-95026800D03*
%TO.P,U2,6,PD1*%
%TO.N,/OSC_OUT*%
X146681900Y-94526800D03*
%TO.P,U2,7,NRST*%
%TO.N,/nRST*%
X146681900Y-94026800D03*
%TO.P,U2,8,VSSA*%
%TO.N,GND*%
X146681900Y-93526800D03*
%TO.P,U2,9,VDDA*%
%TO.N,+3.3V*%
X146681900Y-93026800D03*
%TO.P,U2,10,PA0*%
%TO.N,unconnected-(U2-PA0-Pad10)*%
X146681900Y-92526800D03*
%TO.P,U2,11,PA1*%
%TO.N,/TB_Temp*%
X146681900Y-92026800D03*
%TO.P,U2,12,PA2*%
%TO.N,/DEBUG_TX*%
X146681900Y-91526800D03*
D19*
%TO.P,U2,13,PA3*%
%TO.N,/DEBUG_RX*%
X145269400Y-90114300D03*
%TO.P,U2,14,PA4*%
%TO.N,/TB_IN_AM*%
X144769400Y-90114300D03*
%TO.P,U2,15,PA5*%
%TO.N,/TB_IN_AP*%
X144269400Y-90114300D03*
%TO.P,U2,16,PA6*%
%TO.N,unconnected-(U2-PA6-Pad16)*%
X143769400Y-90114300D03*
%TO.P,U2,17,PA7*%
%TO.N,unconnected-(U2-PA7-Pad17)*%
X143269400Y-90114300D03*
%TO.P,U2,18,PB0*%
%TO.N,unconnected-(U2-PB0-Pad18)*%
X142769400Y-90114300D03*
%TO.P,U2,19,PB1*%
%TO.N,unconnected-(U2-PB1-Pad19)*%
X142269400Y-90114300D03*
%TO.P,U2,20,PB2*%
%TO.N,Net-(U2-PB2)*%
X141769400Y-90114300D03*
%TO.P,U2,21,PB10*%
%TO.N,/TB_IN_BM*%
X141269400Y-90114300D03*
%TO.P,U2,22,PB11*%
%TO.N,/TB_IN_BP*%
X140769400Y-90114300D03*
%TO.P,U2,23,VSS*%
%TO.N,GND*%
X140269400Y-90114300D03*
%TO.P,U2,24,VDD*%
%TO.N,+3.3V*%
X139769400Y-90114300D03*
D18*
%TO.P,U2,25,PB12*%
%TO.N,/MT6816_CS*%
X138356900Y-91526800D03*
%TO.P,U2,26,PB13*%
%TO.N,/MT6816_SCK*%
X138356900Y-92026800D03*
%TO.P,U2,27,PB14*%
%TO.N,/MT6816_MISO*%
X138356900Y-92526800D03*
%TO.P,U2,28,PB15*%
%TO.N,/MT6816_MOSI*%
X138356900Y-93026800D03*
%TO.P,U2,29,PA8*%
%TO.N,/CAN_SILENT*%
X138356900Y-93526800D03*
%TO.P,U2,30,PA9*%
%TO.N,unconnected-(U2-PA9-Pad30)*%
X138356900Y-94026800D03*
%TO.P,U2,31,PA10*%
%TO.N,unconnected-(U2-PA10-Pad31)*%
X138356900Y-94526800D03*
%TO.P,U2,32,PA11*%
%TO.N,/CAN_RX*%
X138356900Y-95026800D03*
%TO.P,U2,33,PA12*%
%TO.N,/CAN_TX*%
X138356900Y-95526800D03*
%TO.P,U2,34,PA13*%
%TO.N,/SWD_DIO*%
X138356900Y-96026800D03*
%TO.P,U2,35,VSS*%
%TO.N,GND*%
X138356900Y-96526800D03*
%TO.P,U2,36,VDD*%
%TO.N,+3.3V*%
X138356900Y-97026800D03*
D19*
%TO.P,U2,37,PA14*%
%TO.N,/SWD_CLK*%
X139769400Y-98439300D03*
%TO.P,U2,38,PA15*%
%TO.N,unconnected-(U2-PA15-Pad38)*%
X140269400Y-98439300D03*
%TO.P,U2,39,PB3*%
%TO.N,/KEY1*%
X140769400Y-98439300D03*
%TO.P,U2,40,PB4*%
%TO.N,/KEY2*%
X141269400Y-98439300D03*
%TO.P,U2,41,PB5*%
%TO.N,unconnected-(U2-PB5-Pad41)*%
X141769400Y-98439300D03*
%TO.P,U2,42,PB6*%
%TO.N,/TB_IN_PWM_B*%
X142269400Y-98439300D03*
%TO.P,U2,43,PB7*%
%TO.N,/TB_IN_PWM_A*%
X142769400Y-98439300D03*
%TO.P,U2,44,BOOT0*%
%TO.N,Net-(U2-BOOT0)*%
X143269400Y-98439300D03*
%TO.P,U2,45,PB8*%
%TO.N,unconnected-(U2-PB8-Pad45)*%
X143769400Y-98439300D03*
%TO.P,U2,46,PB9*%
%TO.N,unconnected-(U2-PB9-Pad46)*%
X144269400Y-98439300D03*
%TO.P,U2,47,VSS*%
%TO.N,GND*%
X144769400Y-98439300D03*
%TO.P,U2,48,VDD*%
%TO.N,+3.3V*%
X145269400Y-98439300D03*
%TD*%
D20*
%TO.P,J5,1,01*%
%TO.N,GND*%
X132254905Y-88644795D03*
%TO.P,J5,2,02*%
X132254905Y-90644795D03*
%TO.P,J5,3,03*%
X132254905Y-92644795D03*
%TO.P,J5,4,04*%
%TO.N,+24V*%
X132254905Y-94644795D03*
%TO.P,J5,5,05*%
X132254905Y-96644795D03*
%TO.P,J5,6,06*%
X132254905Y-98644795D03*
D21*
%TO.P,J5,MP1*%
%TO.N,N/C*%
X126554905Y-86244795D03*
%TO.P,J5,MP2*%
X126554905Y-101044795D03*
%TD*%
D20*
%TO.P,J6,1,01*%
%TO.N,+24V*%
X152809295Y-98680205D03*
%TO.P,J6,2,02*%
X152809295Y-96680205D03*
%TO.P,J6,3,03*%
X152809295Y-94680205D03*
%TO.P,J6,4,04*%
%TO.N,GND*%
X152809295Y-92680205D03*
%TO.P,J6,5,05*%
X152809295Y-90680205D03*
%TO.P,J6,6,06*%
X152809295Y-88680205D03*
D21*
%TO.P,J6,MP1*%
%TO.N,N/C*%
X158509295Y-101080205D03*
%TO.P,J6,MP2*%
X158509295Y-86280205D03*
%TD*%
D22*
%TO.P,C5,1*%
%TO.N,+3.3V*%
X147180000Y-98806000D03*
%TO.P,C5,2*%
%TO.N,GND*%
X148730000Y-98806000D03*
%TD*%
D23*
%TO.N,GND*%
X151409400Y-84836000D03*
X156362400Y-95758000D03*
X145516600Y-85775800D03*
X128295400Y-94361000D03*
X128905000Y-94996000D03*
X156972000Y-95123000D03*
X133121400Y-84836000D03*
X128905000Y-94361000D03*
X138455400Y-85725000D03*
X129032000Y-90043000D03*
X128295400Y-94996000D03*
X143144800Y-88011000D03*
X139807400Y-91750600D03*
X156362400Y-90170000D03*
X129032000Y-90678000D03*
X128422400Y-90678000D03*
X146151600Y-85775800D03*
X156972000Y-90170000D03*
X151409400Y-85471000D03*
X156972000Y-95758000D03*
X147936600Y-93112720D03*
X128422400Y-90043000D03*
X156362400Y-95123000D03*
X133731000Y-84836000D03*
X136270400Y-98806000D03*
X156972000Y-89535000D03*
X133731000Y-85471000D03*
X156362400Y-89535000D03*
X139090400Y-85725000D03*
X133121400Y-85471000D03*
X152019000Y-84836000D03*
X152019000Y-85471000D03*
X139725400Y-85725000D03*
X146786600Y-85775800D03*
%TO.N,+5V*%
X135686997Y-97604000D03*
X135763000Y-94302000D03*
X144907000Y-78689800D03*
X139700000Y-102743000D03*
X143383000Y-78689800D03*
X138198500Y-102743000D03*
%TO.N,/OSC_IN*%
X148300906Y-95666094D03*
%TO.N,+3.3V*%
X127635000Y-95631000D03*
X156718000Y-98552000D03*
X152654000Y-78105000D03*
X152654000Y-78740000D03*
X141986000Y-96647000D03*
X138557000Y-89408000D03*
X146735800Y-89187600D03*
X145231400Y-95560600D03*
X142570200Y-81356200D03*
X146812000Y-109982000D03*
X138430000Y-98806000D03*
X145231400Y-93020600D03*
%TO.N,/OSC_OUT*%
X149461400Y-96012000D03*
%TO.N,VCC*%
X134264400Y-106426000D03*
X134874000Y-106426000D03*
X133858000Y-79984600D03*
X134467600Y-80619600D03*
X133858000Y-80619600D03*
X134264400Y-107061000D03*
X134874000Y-107061000D03*
X134467600Y-79984600D03*
%TO.N,+24V*%
X135890000Y-104140000D03*
X135890000Y-103505000D03*
X135890000Y-102870000D03*
X135280400Y-103505000D03*
X135280400Y-102870000D03*
X135280400Y-104140000D03*
%TO.N,Net-(IC1-RS)*%
X144405800Y-86131400D03*
X144405800Y-85511802D03*
X150342600Y-83134200D03*
X150342600Y-83743800D03*
%TO.N,/H_BRID/MOTOR_OUT_A-*%
X148005800Y-81635600D03*
X148005800Y-82905600D03*
X148005800Y-82273600D03*
%TO.N,/TB_IN_AM*%
X146685000Y-87086200D03*
%TO.N,/TB_IN_AP*%
X145415000Y-87086200D03*
%TO.N,/H_BRID/MOTOR_OUT_A+*%
X145643600Y-80416400D03*
X145008600Y-81051400D03*
X145643600Y-81076800D03*
X145008600Y-80416400D03*
%TO.N,/TB_IN_BP*%
X138430000Y-87035400D03*
%TO.N,/TB_IN_BM*%
X139700000Y-87035400D03*
%TO.N,/H_BRID/MOTOR_OUT_B+*%
X138404600Y-81635600D03*
X138430000Y-82905600D03*
X138430000Y-82273600D03*
%TO.N,Net-(IC2-RS)*%
X140760000Y-85568154D03*
X135229600Y-83083400D03*
X140760000Y-86182200D03*
X135229600Y-83693000D03*
%TO.N,/H_BRID/MOTOR_OUT_B-*%
X140970000Y-81635600D03*
X140970000Y-82273600D03*
X140970000Y-82905600D03*
%TO.N,/MT6816_MOSI*%
X139807400Y-95560600D03*
%TO.N,/MT6816_MISO*%
X137170025Y-92712461D03*
%TO.N,/MT6816_CS*%
X138633200Y-90424000D03*
%TO.N,/MT6816_SCK*%
X137160000Y-91821000D03*
%TO.N,/DEBUG_RX*%
X154230001Y-86849121D03*
X147355751Y-90783000D03*
X155043300Y-90054744D03*
%TO.N,/DEBUG_TX*%
X154305000Y-85852000D03*
X155321000Y-90805000D03*
X147955000Y-91313000D03*
%TO.N,/SWD_DIO*%
X139119400Y-98018600D03*
X154584400Y-100525200D03*
%TO.N,/SWD_CLK*%
X154787600Y-101549200D03*
X139750800Y-99593400D03*
%TO.N,/PORT/_CAN_H*%
X128016000Y-87544797D03*
X126238000Y-97663000D03*
X125789000Y-93091000D03*
X157226000Y-92710000D03*
%TO.N,/PORT/_CAN_L*%
X127000000Y-88392000D03*
X125857000Y-94361000D03*
X129159000Y-96647000D03*
X157226000Y-93599000D03*
%TO.N,/TB_IN_PWM_A*%
X152781000Y-87680203D03*
X142278003Y-101486600D03*
X149733000Y-99187000D03*
%TO.N,/TB_IN_PWM_B*%
X135001000Y-97028000D03*
X134620000Y-91059000D03*
X141845400Y-99676799D03*
%TO.N,/KEY1*%
X140588028Y-101484583D03*
X141029000Y-109542000D03*
%TO.N,/KEY2*%
X141478000Y-101486600D03*
X144018000Y-109601000D03*
%TO.N,/TB_Temp*%
X148971000Y-80010000D03*
X142516784Y-88824882D03*
X147904200Y-92303600D03*
X142570200Y-85808000D03*
%TO.N,/CAN_RX*%
X137248625Y-95086971D03*
%TO.N,/CAN_SILENT*%
X128016000Y-91948000D03*
%TO.N,/CAN_TX*%
X137119690Y-96126205D03*
%TD*%
D24*
%TO.N,GND*%
X143547600Y-87608200D02*
X143547600Y-87223600D01*
X143144800Y-88011000D02*
X143547600Y-87608200D01*
X144769400Y-98439300D02*
X144769400Y-99977000D01*
X144769400Y-99977000D02*
X144995400Y-100203000D01*
D25*
X147522520Y-93526800D02*
X146681900Y-93526800D01*
X140269400Y-90114300D02*
X140269400Y-91288600D01*
X140269400Y-91288600D02*
X139807400Y-91750600D01*
X147936600Y-93112720D02*
X147522520Y-93526800D01*
D24*
%TO.N,/OSC_IN*%
X147661612Y-95026800D02*
X148300906Y-95666094D01*
X146681900Y-95026800D02*
X147661612Y-95026800D01*
%TO.N,+3.3V*%
X138356900Y-97026800D02*
X137720000Y-97026800D01*
X139769400Y-90114300D02*
X139769400Y-89223400D01*
X145269400Y-98439300D02*
X145269400Y-99041400D01*
X137820400Y-98806000D02*
X138430000Y-98806000D01*
X147257000Y-89708800D02*
X146735800Y-89187600D01*
X145269400Y-99041400D02*
X145745200Y-99517200D01*
X139192000Y-88646000D02*
X138557000Y-88646000D01*
X137160000Y-98145600D02*
X137820400Y-98806000D01*
X146681900Y-97026800D02*
X147420400Y-97026800D01*
X145794800Y-97026800D02*
X145231400Y-96463400D01*
X138557000Y-88646000D02*
X137820400Y-89382600D01*
X147257000Y-89808000D02*
X147257000Y-89708800D01*
X145745200Y-99517200D02*
X146468800Y-99517200D01*
X137720000Y-97026800D02*
X137160000Y-97586800D01*
D25*
X146681900Y-93026800D02*
X145237600Y-93026800D01*
D24*
X139769400Y-89223400D02*
X139192000Y-88646000D01*
X146468800Y-99517200D02*
X147180000Y-98806000D01*
X147878800Y-98107200D02*
X147180000Y-98806000D01*
X145231400Y-96463400D02*
X145231400Y-95560600D01*
X146681900Y-97026800D02*
X145794800Y-97026800D01*
X137820400Y-89382600D02*
X137820400Y-89408000D01*
X147878800Y-97485200D02*
X147878800Y-98107200D01*
D25*
X145237600Y-93026800D02*
X145231400Y-93020600D01*
D24*
X137160000Y-97586800D02*
X137160000Y-98145600D01*
X147420400Y-97026800D02*
X147878800Y-97485200D01*
X137820400Y-89408000D02*
X138557000Y-89408000D01*
%TO.N,/OSC_OUT*%
X149461400Y-96012000D02*
X147976200Y-94526800D01*
X147976200Y-94526800D02*
X146681900Y-94526800D01*
%TO.N,/nRST*%
X148907000Y-90106000D02*
X149352000Y-90551000D01*
X149352000Y-93218000D02*
X148543200Y-94026800D01*
X148857000Y-88284000D02*
X148857000Y-89758000D01*
X148857000Y-89758000D02*
X148907000Y-89808000D01*
X149352000Y-90551000D02*
X149352000Y-93218000D01*
X148907000Y-89808000D02*
X148907000Y-90106000D01*
X148543200Y-94026800D02*
X146681900Y-94026800D01*
D25*
%TO.N,Net-(IC1-RS)*%
X150342600Y-83743800D02*
X150342600Y-83134200D01*
X144405800Y-86131400D02*
X144405800Y-85511802D01*
X150342600Y-86029800D02*
X149936200Y-86436200D01*
X149936200Y-86436200D02*
X144678400Y-86436200D01*
X144678400Y-86436200D02*
X144405800Y-86163600D01*
X150342600Y-83743800D02*
X150342600Y-86029800D01*
X144405800Y-86163600D02*
X144405800Y-86131400D01*
D24*
%TO.N,/TB_IN_AM*%
X144769400Y-88229604D02*
X144769400Y-90114300D01*
X145890800Y-87662200D02*
X145336804Y-87662200D01*
X145336804Y-87662200D02*
X144769400Y-88229604D01*
X146466800Y-87086200D02*
X145890800Y-87662200D01*
X146685000Y-87086200D02*
X146466800Y-87086200D01*
%TO.N,/TB_IN_AP*%
X144269400Y-90114300D02*
X144269400Y-88231800D01*
X144269400Y-88231800D02*
X145415000Y-87086200D01*
%TO.N,/TB_IN_BP*%
X139681400Y-87611400D02*
X140769400Y-88699400D01*
X140769400Y-88699400D02*
X140769400Y-90114300D01*
X138430000Y-87035400D02*
X139006000Y-87611400D01*
X139006000Y-87611400D02*
X139681400Y-87611400D01*
%TO.N,/TB_IN_BM*%
X141224000Y-88559400D02*
X141224000Y-90068900D01*
X141224000Y-90068900D02*
X141269400Y-90114300D01*
X139700000Y-87035400D02*
X141224000Y-88559400D01*
D25*
%TO.N,Net-(IC2-RS)*%
X140760000Y-86182200D02*
X140760000Y-85568154D01*
X135712200Y-86385400D02*
X140563600Y-86385400D01*
X140563600Y-86385400D02*
X140760000Y-86189000D01*
X135229600Y-83693000D02*
X135229600Y-83083400D01*
X140760000Y-86189000D02*
X140760000Y-86182200D01*
X135229600Y-83693000D02*
X135229600Y-85902800D01*
X135229600Y-85902800D02*
X135712200Y-86385400D01*
D24*
%TO.N,/MT6816_MOSI*%
X139807400Y-93739801D02*
X139807400Y-95560600D01*
X138356900Y-93026800D02*
X139094399Y-93026800D01*
X139094399Y-93026800D02*
X139807400Y-93739801D01*
%TO.N,/MT6816_MISO*%
X137170025Y-92712461D02*
X137355686Y-92526800D01*
X137355686Y-92526800D02*
X138356900Y-92526800D01*
%TO.N,/MT6816_CS*%
X139206800Y-91526800D02*
X139420600Y-91313000D01*
X139420600Y-91313000D02*
X139420600Y-91160600D01*
X139420600Y-91160600D02*
X138684000Y-90424000D01*
X138356900Y-91526800D02*
X139206800Y-91526800D01*
X138684000Y-90424000D02*
X138633200Y-90424000D01*
%TO.N,/MT6816_SCK*%
X137365800Y-92026800D02*
X137160000Y-91821000D01*
X138356900Y-92026800D02*
X137365800Y-92026800D01*
%TO.N,/DEBUG_RX*%
X147079751Y-91059000D02*
X147355751Y-90783000D01*
X155043300Y-90054744D02*
X155267300Y-89830744D01*
X145415000Y-91059000D02*
X147079751Y-91059000D01*
X145269400Y-90114300D02*
X145269400Y-90913400D01*
X155267300Y-87886420D02*
X154230001Y-86849121D01*
X145269400Y-90913400D02*
X145415000Y-91059000D01*
X155267300Y-89830744D02*
X155267300Y-87886420D01*
%TO.N,/DEBUG_TX*%
X155619300Y-90506700D02*
X155321000Y-90805000D01*
X146681900Y-91526800D02*
X147741200Y-91526800D01*
X154305000Y-85852000D02*
X155619300Y-87166300D01*
X155619300Y-87166300D02*
X155619300Y-90506700D01*
X147741200Y-91526800D02*
X147955000Y-91313000D01*
%TO.N,/SWD_DIO*%
X139257600Y-96026800D02*
X138356900Y-96026800D01*
X139674600Y-97298132D02*
X139674600Y-96443800D01*
X139119400Y-97853332D02*
X139674600Y-97298132D01*
X139119400Y-98018600D02*
X139119400Y-97853332D01*
X139674600Y-96443800D02*
X139257600Y-96026800D01*
%TO.N,/SWD_CLK*%
X139769400Y-99574800D02*
X139750800Y-99593400D01*
X139769400Y-98439300D02*
X139769400Y-99574800D01*
%TO.N,/PORT/_CAN_H*%
X125789000Y-93091000D02*
X126013000Y-92867000D01*
X126704203Y-87544797D02*
X128016000Y-87544797D01*
X126013000Y-88236000D02*
X126704203Y-87544797D01*
X126013000Y-92867000D02*
X126013000Y-88236000D01*
%TO.N,/PORT/_CAN_L*%
X129159000Y-96647000D02*
X126746000Y-96647000D01*
X125857000Y-94361000D02*
X126365000Y-93853000D01*
X126492000Y-96393000D02*
X126492000Y-94996000D01*
X126492000Y-94996000D02*
X125857000Y-94361000D01*
X126365000Y-93853000D02*
X126365000Y-88646000D01*
X126746000Y-96647000D02*
X126492000Y-96393000D01*
X126619000Y-88392000D02*
X127000000Y-88392000D01*
X126365000Y-88646000D02*
X126619000Y-88392000D01*
%TO.N,Net-(U2-PB2)*%
X141769400Y-87351800D02*
X141897600Y-87223600D01*
X141769400Y-90114300D02*
X141769400Y-87351800D01*
%TO.N,Net-(U2-BOOT0)*%
X143269400Y-98439300D02*
X143269400Y-100127000D01*
X143269400Y-100127000D02*
X143345400Y-100203000D01*
%TO.N,/TB_IN_PWM_A*%
X142278003Y-100116689D02*
X142278003Y-101486600D01*
X142769400Y-99625292D02*
X142278003Y-100116689D01*
X142769400Y-98439300D02*
X142769400Y-99625292D01*
%TO.N,/TB_IN_PWM_B*%
X142269400Y-99252799D02*
X142269400Y-98439300D01*
X141845400Y-99676799D02*
X142269400Y-99252799D01*
%TO.N,/KEY1*%
X140769400Y-98439300D02*
X140769400Y-101303211D01*
X141029000Y-109542000D02*
X140199000Y-108712000D01*
X140769400Y-101303211D02*
X140588028Y-101484583D01*
%TO.N,/KEY2*%
X144865200Y-108753800D02*
X144865200Y-108712000D01*
X141269400Y-98439300D02*
X141269400Y-101278000D01*
X144018000Y-109601000D02*
X144865200Y-108753800D01*
X141269400Y-101278000D02*
X141478000Y-101486600D01*
%TO.N,/TB_Temp*%
X146681900Y-92026800D02*
X147627400Y-92026800D01*
X147627400Y-92026800D02*
X147904200Y-92303600D01*
%TO.N,/CAN_RX*%
X137248625Y-95086971D02*
X138296729Y-95086971D01*
X138296729Y-95086971D02*
X138356900Y-95026800D01*
%TO.N,/CAN_SILENT*%
X138356900Y-93526800D02*
X136470200Y-93526800D01*
X129794000Y-93726000D02*
X128016000Y-91948000D01*
X136271000Y-93726000D02*
X129794000Y-93726000D01*
X136470200Y-93526800D02*
X136271000Y-93726000D01*
%TO.N,/CAN_TX*%
X137119690Y-96126205D02*
X137119690Y-96028042D01*
X137620932Y-95526800D02*
X138356900Y-95526800D01*
X137119690Y-96028042D02*
X137620932Y-95526800D01*
%TD*%
%TA.AperFunction,Conductor*%
%TO.N,/H_BRID/MOTOR_OUT_A+*%
G36*
X145993039Y-80131285D02*
G01*
X146038794Y-80184089D01*
X146050000Y-80235600D01*
X146050000Y-81336205D01*
X146030315Y-81403244D01*
X145977511Y-81448999D01*
X145926000Y-81460205D01*
X145030052Y-81460205D01*
X144971575Y-81471836D01*
X144971574Y-81471837D01*
X144905252Y-81516152D01*
X144860937Y-81582474D01*
X144860936Y-81582475D01*
X144849305Y-81640952D01*
X144849305Y-84975157D01*
X144829620Y-85042196D01*
X144776816Y-85087951D01*
X144707658Y-85097895D01*
X144663305Y-85082544D01*
X144598989Y-85045411D01*
X144598986Y-85045410D01*
X144471692Y-85011302D01*
X144339908Y-85011302D01*
X144212612Y-85045410D01*
X144098486Y-85111302D01*
X144098483Y-85111304D01*
X144054507Y-85155281D01*
X143993184Y-85188766D01*
X143966826Y-85191600D01*
X143176800Y-85191600D01*
X143109761Y-85171915D01*
X143064006Y-85119111D01*
X143052800Y-85067600D01*
X143052800Y-81505220D01*
X143057025Y-81473127D01*
X143070700Y-81422092D01*
X143070700Y-81290308D01*
X143057025Y-81239270D01*
X143052800Y-81207178D01*
X143052800Y-80235600D01*
X143072485Y-80168561D01*
X143125289Y-80122806D01*
X143176800Y-80111600D01*
X145926000Y-80111600D01*
X145993039Y-80131285D01*
G37*
%TD.AperFunction*%
%TD*%
%TA.AperFunction,Conductor*%
%TO.N,GND*%
G36*
X137361939Y-93822985D02*
G01*
X137407694Y-93875789D01*
X137418900Y-93927299D01*
X137418900Y-94128929D01*
X137421375Y-94141371D01*
X137434560Y-94207663D01*
X137434886Y-94209298D01*
X137439559Y-94220580D01*
X137438114Y-94221178D01*
X137454836Y-94274588D01*
X137452594Y-94300374D01*
X137447841Y-94324913D01*
X137434885Y-94344305D01*
X137418900Y-94424667D01*
X137418900Y-94474365D01*
X137416638Y-94486046D01*
X137405841Y-94506942D01*
X137399215Y-94529510D01*
X137390102Y-94537406D01*
X137384567Y-94548120D01*
X137364186Y-94559862D01*
X137346411Y-94575265D01*
X137332020Y-94578395D01*
X137324027Y-94583001D01*
X137313253Y-94582478D01*
X137294900Y-94586471D01*
X137182733Y-94586471D01*
X137055437Y-94620579D01*
X136941311Y-94686471D01*
X136941308Y-94686473D01*
X136848127Y-94779654D01*
X136848125Y-94779657D01*
X136782233Y-94893783D01*
X136769581Y-94941002D01*
X136748125Y-95021079D01*
X136748125Y-95152863D01*
X136757764Y-95188836D01*
X136782233Y-95280158D01*
X136815179Y-95337221D01*
X136848125Y-95394285D01*
X136848127Y-95394287D01*
X136930883Y-95477043D01*
X136964368Y-95538366D01*
X136959384Y-95608058D01*
X136917512Y-95663991D01*
X136905203Y-95672111D01*
X136812376Y-95725705D01*
X136812373Y-95725707D01*
X136719192Y-95818888D01*
X136719190Y-95818891D01*
X136653298Y-95933017D01*
X136626910Y-96031500D01*
X136619190Y-96060313D01*
X136619190Y-96192097D01*
X136623798Y-96209293D01*
X136653298Y-96319392D01*
X136677503Y-96361315D01*
X136719190Y-96433519D01*
X136812376Y-96526705D01*
X136926504Y-96592597D01*
X137053798Y-96626705D01*
X137053800Y-96626705D01*
X137185580Y-96626705D01*
X137185582Y-96626705D01*
X137312876Y-96592597D01*
X137324770Y-96585729D01*
X137392669Y-96569255D01*
X137434423Y-96583704D01*
X137434745Y-96581874D01*
X137433510Y-96578373D01*
X137440750Y-96547734D01*
X137446206Y-96516719D01*
X137448999Y-96512826D01*
X137449579Y-96510376D01*
X137466208Y-96487640D01*
X137467871Y-96485837D01*
X137520190Y-96433519D01*
X137526929Y-96421844D01*
X137536289Y-96411704D01*
X137554891Y-96400556D01*
X137570581Y-96385593D01*
X137584264Y-96382954D01*
X137596221Y-96375789D01*
X137617895Y-96376468D01*
X137639186Y-96372362D01*
X137651605Y-96374185D01*
X137659058Y-96375667D01*
X137667267Y-96377300D01*
X139046532Y-96377299D01*
X139123771Y-96361936D01*
X139193362Y-96368163D01*
X139235642Y-96395872D01*
X139361781Y-96522011D01*
X139376484Y-96548938D01*
X139393077Y-96574757D01*
X139393968Y-96580957D01*
X139395266Y-96583334D01*
X139398100Y-96609692D01*
X139398100Y-96641510D01*
X139378415Y-96708549D01*
X139325611Y-96754304D01*
X139256453Y-96764248D01*
X139205210Y-96744613D01*
X139148519Y-96706734D01*
X139126895Y-96692285D01*
X139126894Y-96692284D01*
X139126893Y-96692284D01*
X139126890Y-96692283D01*
X139046536Y-96676300D01*
X137667269Y-96676300D01*
X137581521Y-96693356D01*
X137550162Y-96690549D01*
X137518688Y-96689563D01*
X137515627Y-96687457D01*
X137511930Y-96687127D01*
X137505221Y-96681915D01*
X137508533Y-96716578D01*
X137499481Y-96744815D01*
X137495360Y-96753797D01*
X137434885Y-96844305D01*
X137420369Y-96917280D01*
X137414298Y-96930516D01*
X137400540Y-96946339D01*
X137390822Y-96964919D01*
X137389271Y-96966497D01*
X137003375Y-97352395D01*
X136925596Y-97430173D01*
X136884868Y-97528499D01*
X136883500Y-97531801D01*
X136883500Y-98090601D01*
X136883500Y-98200599D01*
X136925595Y-98302225D01*
X136925596Y-98302226D01*
X137133581Y-98510211D01*
X137167066Y-98571534D01*
X137169900Y-98597892D01*
X137169900Y-99089493D01*
X137185679Y-99189121D01*
X137185680Y-99189124D01*
X137185681Y-99189126D01*
X137246872Y-99309220D01*
X137246873Y-99309221D01*
X137246876Y-99309225D01*
X137342174Y-99404523D01*
X137342178Y-99404526D01*
X137342180Y-99404528D01*
X137462274Y-99465719D01*
X137462276Y-99465719D01*
X137462278Y-99465720D01*
X137561907Y-99481500D01*
X137561912Y-99481500D01*
X138078893Y-99481500D01*
X138178521Y-99465720D01*
X138178521Y-99465719D01*
X138178526Y-99465719D01*
X138298620Y-99404528D01*
X138360330Y-99342817D01*
X138421651Y-99309334D01*
X138448010Y-99306500D01*
X138495890Y-99306500D01*
X138495892Y-99306500D01*
X138623186Y-99272392D01*
X138737314Y-99206500D01*
X138830500Y-99113314D01*
X138896392Y-98999186D01*
X138930500Y-98871892D01*
X138930500Y-98740108D01*
X138912648Y-98673483D01*
X138914311Y-98603637D01*
X138953473Y-98545774D01*
X139017701Y-98518270D01*
X139048618Y-98518455D01*
X139053502Y-98519098D01*
X139053508Y-98519100D01*
X139053514Y-98519100D01*
X139185289Y-98519100D01*
X139185292Y-98519100D01*
X139262810Y-98498329D01*
X139332656Y-98499992D01*
X139390518Y-98539154D01*
X139418023Y-98603382D01*
X139418900Y-98618104D01*
X139418900Y-99128930D01*
X139418901Y-99128934D01*
X139420663Y-99137794D01*
X139414431Y-99207385D01*
X139386727Y-99249656D01*
X139350304Y-99286080D01*
X139350301Y-99286084D01*
X139350300Y-99286086D01*
X139322685Y-99333916D01*
X139284408Y-99400213D01*
X139283252Y-99404528D01*
X139250300Y-99527508D01*
X139250300Y-99659292D01*
X139260283Y-99696549D01*
X139284408Y-99786587D01*
X139317354Y-99843650D01*
X139350300Y-99900714D01*
X139443486Y-99993900D01*
X139542321Y-100050963D01*
X139555909Y-100058808D01*
X139557614Y-100059792D01*
X139684908Y-100093900D01*
X139684910Y-100093900D01*
X139816690Y-100093900D01*
X139816692Y-100093900D01*
X139943986Y-100059792D01*
X140058114Y-99993900D01*
X140151300Y-99900714D01*
X140217192Y-99786586D01*
X140249126Y-99667405D01*
X140285490Y-99607746D01*
X140348337Y-99577217D01*
X140417712Y-99585512D01*
X140471590Y-99629997D01*
X140492865Y-99696549D01*
X140492900Y-99699500D01*
X140492900Y-100896768D01*
X140473215Y-100963807D01*
X140420411Y-101009562D01*
X140400995Y-101016542D01*
X140394843Y-101018190D01*
X140394842Y-101018190D01*
X140280714Y-101084083D01*
X140280711Y-101084085D01*
X140187530Y-101177266D01*
X140187528Y-101177269D01*
X140121636Y-101291395D01*
X140092537Y-101399997D01*
X140087528Y-101418691D01*
X140087528Y-101550475D01*
X140098949Y-101593102D01*
X140097287Y-101662950D01*
X140058125Y-101720813D01*
X139993896Y-101748317D01*
X139924994Y-101736731D01*
X139923721Y-101736103D01*
X139310092Y-101429289D01*
X139310074Y-101429281D01*
X139265401Y-101413090D01*
X139265402Y-101413090D01*
X139265393Y-101413087D01*
X139209940Y-101399997D01*
X139181612Y-101396698D01*
X139162730Y-101394500D01*
X139162728Y-101394500D01*
X134416100Y-101394500D01*
X134349061Y-101374815D01*
X134303306Y-101322011D01*
X134292100Y-101270500D01*
X134292100Y-97258006D01*
X134311785Y-97190967D01*
X134364589Y-97145212D01*
X134433747Y-97135268D01*
X134497303Y-97164293D01*
X134529559Y-97214485D01*
X134531500Y-97213682D01*
X134534607Y-97221185D01*
X134543500Y-97236588D01*
X134600500Y-97335314D01*
X134693686Y-97428500D01*
X134765244Y-97469814D01*
X134803052Y-97491643D01*
X134807814Y-97494392D01*
X134935108Y-97528500D01*
X134935110Y-97528500D01*
X135062497Y-97528500D01*
X135129536Y-97548185D01*
X135175291Y-97600989D01*
X135186497Y-97652500D01*
X135186497Y-97669891D01*
X135220605Y-97797187D01*
X135236901Y-97825412D01*
X135286497Y-97911314D01*
X135379683Y-98004500D01*
X135466434Y-98054586D01*
X135488609Y-98067389D01*
X135493811Y-98070392D01*
X135621105Y-98104500D01*
X135621107Y-98104500D01*
X135752887Y-98104500D01*
X135752889Y-98104500D01*
X135880183Y-98070392D01*
X135994311Y-98004500D01*
X136087497Y-97911314D01*
X136153389Y-97797186D01*
X136187497Y-97669892D01*
X136187497Y-97538108D01*
X136153389Y-97410814D01*
X136087497Y-97296686D01*
X135994311Y-97203500D01*
X135923297Y-97162500D01*
X135880184Y-97137608D01*
X135816536Y-97120554D01*
X135752889Y-97103500D01*
X135625500Y-97103500D01*
X135558461Y-97083815D01*
X135512706Y-97031011D01*
X135501500Y-96979500D01*
X135501500Y-96962110D01*
X135501500Y-96962108D01*
X135467392Y-96834814D01*
X135401500Y-96720686D01*
X135308314Y-96627500D01*
X135247859Y-96592596D01*
X135194187Y-96561608D01*
X135130539Y-96544554D01*
X135066892Y-96527500D01*
X134935108Y-96527500D01*
X134807812Y-96561608D01*
X134693686Y-96627500D01*
X134693683Y-96627502D01*
X134600502Y-96720683D01*
X134600500Y-96720686D01*
X134534607Y-96834814D01*
X134531500Y-96842318D01*
X134529041Y-96841299D01*
X134499505Y-96889752D01*
X134436656Y-96920277D01*
X134367281Y-96911978D01*
X134313405Y-96867490D01*
X134292135Y-96800937D01*
X134292100Y-96797993D01*
X134292100Y-94307208D01*
X134292099Y-94307192D01*
X134287403Y-94263516D01*
X134281385Y-94235852D01*
X134276202Y-94212025D01*
X134275948Y-94210989D01*
X134273710Y-94201827D01*
X134273706Y-94201819D01*
X134264644Y-94184812D01*
X134250490Y-94116391D01*
X134275574Y-94051180D01*
X134331932Y-94009882D01*
X134374077Y-94002500D01*
X135163495Y-94002500D01*
X135230534Y-94022185D01*
X135276289Y-94074989D01*
X135286233Y-94144147D01*
X135283270Y-94158591D01*
X135270123Y-94207658D01*
X135262500Y-94236108D01*
X135262500Y-94367891D01*
X135296608Y-94495187D01*
X135329554Y-94552250D01*
X135362500Y-94609314D01*
X135455686Y-94702500D01*
X135554521Y-94759563D01*
X135557871Y-94761497D01*
X135569814Y-94768392D01*
X135697108Y-94802500D01*
X135697110Y-94802500D01*
X135828890Y-94802500D01*
X135828892Y-94802500D01*
X135956186Y-94768392D01*
X136070314Y-94702500D01*
X136163500Y-94609314D01*
X136229392Y-94495186D01*
X136263500Y-94367892D01*
X136263500Y-94236108D01*
X136241500Y-94154002D01*
X136243163Y-94084156D01*
X136282325Y-94026293D01*
X136316016Y-94010315D01*
X136314715Y-94007174D01*
X136325999Y-94002500D01*
X136427625Y-93960405D01*
X136548411Y-93839619D01*
X136609734Y-93806134D01*
X136636092Y-93803300D01*
X137294900Y-93803300D01*
X137361939Y-93822985D01*
G37*
%TD.AperFunction*%
%TA.AperFunction,Conductor*%
G36*
X142047628Y-85393521D02*
G01*
X142063966Y-85394690D01*
X142079393Y-85406238D01*
X142097287Y-85413402D01*
X142106788Y-85426745D01*
X142119900Y-85436560D01*
X142126635Y-85454617D01*
X142137815Y-85470317D01*
X142138594Y-85486677D01*
X142144319Y-85502024D01*
X142140222Y-85520856D01*
X142141140Y-85540107D01*
X142129963Y-85568023D01*
X142129469Y-85570297D01*
X142128022Y-85572873D01*
X142103809Y-85614810D01*
X142103809Y-85614811D01*
X142103808Y-85614813D01*
X142103808Y-85614814D01*
X142069700Y-85742108D01*
X142069700Y-85873892D01*
X142072302Y-85883602D01*
X142103808Y-86001187D01*
X142115314Y-86021115D01*
X142169700Y-86115314D01*
X142262886Y-86208500D01*
X142377014Y-86274392D01*
X142504308Y-86308500D01*
X142504310Y-86308500D01*
X142636090Y-86308500D01*
X142636092Y-86308500D01*
X142763386Y-86274392D01*
X142877514Y-86208500D01*
X142970700Y-86115314D01*
X143036592Y-86001186D01*
X143070700Y-85873892D01*
X143070700Y-85742108D01*
X143036592Y-85614814D01*
X143036590Y-85614810D01*
X143014456Y-85576472D01*
X142997983Y-85508572D01*
X143020836Y-85442545D01*
X143075757Y-85399354D01*
X143139490Y-85391735D01*
X143176800Y-85397100D01*
X143781300Y-85397100D01*
X143848339Y-85416785D01*
X143894094Y-85469589D01*
X143905300Y-85521100D01*
X143905300Y-85577694D01*
X143927035Y-85658812D01*
X143939409Y-85704990D01*
X143939409Y-85704991D01*
X143970938Y-85759601D01*
X143987411Y-85827501D01*
X143970938Y-85883601D01*
X143939409Y-85938210D01*
X143939409Y-85938211D01*
X143939409Y-85938212D01*
X143939408Y-85938214D01*
X143905300Y-86065508D01*
X143905300Y-86197292D01*
X143908303Y-86208499D01*
X143939408Y-86324587D01*
X143968737Y-86375386D01*
X144005300Y-86438714D01*
X144098486Y-86531900D01*
X144212614Y-86597792D01*
X144339908Y-86631900D01*
X144339918Y-86631900D01*
X144342521Y-86632243D01*
X144345067Y-86633282D01*
X144347758Y-86634003D01*
X144347666Y-86634342D01*
X144356923Y-86638119D01*
X144369832Y-86639061D01*
X144388197Y-86650881D01*
X144400785Y-86656018D01*
X144407809Y-86661291D01*
X144463188Y-86716670D01*
X144536333Y-86758900D01*
X144543112Y-86762814D01*
X144632256Y-86786700D01*
X144632257Y-86786700D01*
X144724544Y-86786700D01*
X144815495Y-86786700D01*
X144882534Y-86806385D01*
X144928289Y-86859189D01*
X144938791Y-86923892D01*
X144937765Y-86933480D01*
X144914500Y-87020308D01*
X144914500Y-87150919D01*
X144913796Y-87157499D01*
X144902869Y-87183917D01*
X144894815Y-87211346D01*
X144888053Y-87219736D01*
X144887091Y-87222064D01*
X144885015Y-87223506D01*
X144878181Y-87231988D01*
X144112775Y-87997395D01*
X144034996Y-88075173D01*
X144034995Y-88075174D01*
X144034995Y-88075175D01*
X144022666Y-88104938D01*
X143992900Y-88176800D01*
X143992900Y-89052300D01*
X143973215Y-89119339D01*
X143920411Y-89165094D01*
X143868901Y-89176300D01*
X143667270Y-89176300D01*
X143607267Y-89188234D01*
X143586905Y-89192285D01*
X143586904Y-89192285D01*
X143586901Y-89192286D01*
X143575620Y-89196959D01*
X143575021Y-89195514D01*
X143521604Y-89212236D01*
X143463461Y-89196281D01*
X143463181Y-89196959D01*
X143457783Y-89194723D01*
X143454225Y-89193747D01*
X143452048Y-89192347D01*
X143451894Y-89192284D01*
X143371535Y-89176300D01*
X143167269Y-89176300D01*
X143122747Y-89185156D01*
X143053155Y-89178927D01*
X142997979Y-89136063D01*
X142974736Y-89070172D01*
X142982258Y-89026236D01*
X142981072Y-89025919D01*
X142983176Y-89018068D01*
X143017284Y-88890774D01*
X143017284Y-88758990D01*
X142983176Y-88631696D01*
X142917284Y-88517568D01*
X142824098Y-88424382D01*
X142729040Y-88369500D01*
X142709971Y-88358490D01*
X142646323Y-88341436D01*
X142582676Y-88324382D01*
X142450892Y-88324382D01*
X142323598Y-88358490D01*
X142323597Y-88358490D01*
X142323595Y-88358491D01*
X142323594Y-88358491D01*
X142231900Y-88411431D01*
X142164000Y-88427904D01*
X142097973Y-88405051D01*
X142054782Y-88350130D01*
X142045900Y-88304044D01*
X142045900Y-88018186D01*
X142065585Y-87951147D01*
X142118389Y-87905392D01*
X142150501Y-87895712D01*
X142222904Y-87884246D01*
X142335942Y-87826650D01*
X142425650Y-87736942D01*
X142483246Y-87623904D01*
X142483246Y-87623902D01*
X142483247Y-87623901D01*
X142497184Y-87535900D01*
X142498100Y-87530119D01*
X142498099Y-86917082D01*
X142483246Y-86823296D01*
X142425650Y-86710258D01*
X142425646Y-86710254D01*
X142425645Y-86710252D01*
X142335947Y-86620554D01*
X142335944Y-86620552D01*
X142335942Y-86620550D01*
X142259117Y-86581405D01*
X142222901Y-86562952D01*
X142129124Y-86548100D01*
X141666082Y-86548100D01*
X141585119Y-86560923D01*
X141572296Y-86562954D01*
X141459258Y-86620550D01*
X141459257Y-86620551D01*
X141459252Y-86620554D01*
X141369554Y-86710252D01*
X141369551Y-86710257D01*
X141369550Y-86710258D01*
X141366283Y-86716670D01*
X141311952Y-86823298D01*
X141297100Y-86917075D01*
X141297100Y-87530117D01*
X141306062Y-87586699D01*
X141311954Y-87623904D01*
X141369550Y-87736942D01*
X141456582Y-87823974D01*
X141471288Y-87850905D01*
X141487877Y-87876719D01*
X141488768Y-87882918D01*
X141490066Y-87885295D01*
X141492900Y-87911654D01*
X141492900Y-88137908D01*
X141473215Y-88204947D01*
X141420411Y-88250702D01*
X141351253Y-88260646D01*
X141287697Y-88231621D01*
X141281219Y-88225589D01*
X140236819Y-87181189D01*
X140203334Y-87119866D01*
X140200500Y-87093508D01*
X140200500Y-86969510D01*
X140200500Y-86969508D01*
X140179730Y-86891992D01*
X140181393Y-86822143D01*
X140220556Y-86764281D01*
X140284784Y-86736777D01*
X140299505Y-86735900D01*
X140609742Y-86735900D01*
X140609744Y-86735900D01*
X140698888Y-86712014D01*
X140702316Y-86710034D01*
X140720886Y-86699314D01*
X140782887Y-86682700D01*
X140825890Y-86682700D01*
X140825892Y-86682700D01*
X140953186Y-86648592D01*
X141067314Y-86582700D01*
X141160500Y-86489514D01*
X141226392Y-86375386D01*
X141260500Y-86248092D01*
X141260500Y-86116308D01*
X141226392Y-85989014D01*
X141196463Y-85937175D01*
X141179991Y-85869278D01*
X141196464Y-85813176D01*
X141226391Y-85761341D01*
X141226392Y-85761340D01*
X141260500Y-85634046D01*
X141260500Y-85521100D01*
X141280185Y-85454061D01*
X141332989Y-85408306D01*
X141384500Y-85397100D01*
X141938191Y-85397100D01*
X141938200Y-85397100D01*
X141981884Y-85392403D01*
X141994276Y-85389707D01*
X142013497Y-85391081D01*
X142032422Y-85387434D01*
X142047628Y-85393521D01*
G37*
%TD.AperFunction*%
%TA.AperFunction,Conductor*%
G36*
X134092344Y-76200185D02*
G01*
X134138099Y-76252989D01*
X134149305Y-76304500D01*
X134149305Y-79382899D01*
X134129620Y-79449938D01*
X134076816Y-79495693D01*
X134007658Y-79505637D01*
X133993212Y-79502674D01*
X133967158Y-79495693D01*
X133923892Y-79484100D01*
X133792108Y-79484100D01*
X133664812Y-79518208D01*
X133550686Y-79584100D01*
X133550683Y-79584102D01*
X133457502Y-79677283D01*
X133457500Y-79677286D01*
X133391608Y-79791412D01*
X133384802Y-79816814D01*
X133357500Y-79918708D01*
X133357500Y-80050492D01*
X133391585Y-80177702D01*
X133391609Y-80177788D01*
X133391609Y-80177789D01*
X133427584Y-80240100D01*
X133444057Y-80308001D01*
X133427584Y-80364100D01*
X133391609Y-80426410D01*
X133391609Y-80426411D01*
X133391609Y-80426412D01*
X133391608Y-80426414D01*
X133357500Y-80553708D01*
X133357500Y-80685491D01*
X133391608Y-80812787D01*
X133416384Y-80855700D01*
X133457500Y-80926914D01*
X133550686Y-81020100D01*
X133649521Y-81077163D01*
X133664810Y-81085990D01*
X133664814Y-81085992D01*
X133792108Y-81120100D01*
X133792110Y-81120100D01*
X133923890Y-81120100D01*
X133923892Y-81120100D01*
X134051186Y-81085992D01*
X134063119Y-81079102D01*
X134100799Y-81057348D01*
X134168699Y-81040874D01*
X134224801Y-81057348D01*
X134274408Y-81085989D01*
X134274409Y-81085989D01*
X134274414Y-81085992D01*
X134401708Y-81120100D01*
X134401710Y-81120100D01*
X134533490Y-81120100D01*
X134533492Y-81120100D01*
X134660786Y-81085992D01*
X134774914Y-81020100D01*
X134868100Y-80926914D01*
X134933992Y-80812786D01*
X134968100Y-80685492D01*
X134968100Y-80553708D01*
X134933992Y-80426414D01*
X134898014Y-80364099D01*
X134881542Y-80296201D01*
X134898015Y-80240099D01*
X134900618Y-80235592D01*
X134933992Y-80177786D01*
X134968100Y-80050492D01*
X134968100Y-79918708D01*
X134940927Y-79817296D01*
X134942590Y-79747449D01*
X134981753Y-79689586D01*
X135045981Y-79662082D01*
X135060702Y-79661205D01*
X135969555Y-79661205D01*
X135969556Y-79661204D01*
X135988084Y-79657519D01*
X136028034Y-79649573D01*
X136028034Y-79649572D01*
X136028036Y-79649572D01*
X136094357Y-79605257D01*
X136138672Y-79538936D01*
X136138672Y-79538934D01*
X136138673Y-79538934D01*
X136147357Y-79495273D01*
X136150305Y-79480453D01*
X136150305Y-78623908D01*
X142882500Y-78623908D01*
X142882500Y-78755691D01*
X142916608Y-78882987D01*
X142945591Y-78933186D01*
X142982500Y-78997114D01*
X143075686Y-79090300D01*
X143189814Y-79156192D01*
X143317108Y-79190300D01*
X143317110Y-79190300D01*
X143448890Y-79190300D01*
X143448892Y-79190300D01*
X143576186Y-79156192D01*
X143690314Y-79090300D01*
X143783500Y-78997114D01*
X143849392Y-78882986D01*
X143883500Y-78755692D01*
X143883500Y-78623908D01*
X144406500Y-78623908D01*
X144406500Y-78755691D01*
X144440608Y-78882987D01*
X144469591Y-78933186D01*
X144506500Y-78997114D01*
X144599686Y-79090300D01*
X144713814Y-79156192D01*
X144841108Y-79190300D01*
X144841110Y-79190300D01*
X144972890Y-79190300D01*
X144972892Y-79190300D01*
X145100186Y-79156192D01*
X145214314Y-79090300D01*
X145307500Y-78997114D01*
X145373392Y-78882986D01*
X145407500Y-78755692D01*
X145407500Y-78623908D01*
X145373392Y-78496614D01*
X145307500Y-78382486D01*
X145214314Y-78289300D01*
X145155215Y-78255179D01*
X145100187Y-78223408D01*
X145036539Y-78206354D01*
X144972892Y-78189300D01*
X144841108Y-78189300D01*
X144713812Y-78223408D01*
X144599686Y-78289300D01*
X144599683Y-78289302D01*
X144506502Y-78382483D01*
X144506500Y-78382486D01*
X144440608Y-78496612D01*
X144406500Y-78623908D01*
X143883500Y-78623908D01*
X143849392Y-78496614D01*
X143783500Y-78382486D01*
X143690314Y-78289300D01*
X143631215Y-78255179D01*
X143576187Y-78223408D01*
X143512539Y-78206354D01*
X143448892Y-78189300D01*
X143317108Y-78189300D01*
X143189812Y-78223408D01*
X143075686Y-78289300D01*
X143075683Y-78289302D01*
X142982502Y-78382483D01*
X142982500Y-78382486D01*
X142916608Y-78496612D01*
X142882500Y-78623908D01*
X136150305Y-78623908D01*
X136150305Y-76304500D01*
X136169990Y-76237461D01*
X136222794Y-76191706D01*
X136274305Y-76180500D01*
X148825305Y-76180500D01*
X148892344Y-76200185D01*
X148938099Y-76252989D01*
X148949305Y-76304500D01*
X148949305Y-79402509D01*
X148929620Y-79469548D01*
X148876816Y-79515303D01*
X148857400Y-79522282D01*
X148831021Y-79529351D01*
X148777812Y-79543608D01*
X148663686Y-79609500D01*
X148663683Y-79609502D01*
X148570502Y-79702683D01*
X148570500Y-79702686D01*
X148504608Y-79816812D01*
X148470500Y-79944108D01*
X148470500Y-80075891D01*
X148504608Y-80203187D01*
X148523322Y-80235600D01*
X148570500Y-80317314D01*
X148663686Y-80410500D01*
X148762521Y-80467563D01*
X148777810Y-80476390D01*
X148777814Y-80476392D01*
X148905108Y-80510500D01*
X148905110Y-80510500D01*
X149036890Y-80510500D01*
X149036892Y-80510500D01*
X149164186Y-80476392D01*
X149278314Y-80410500D01*
X149371500Y-80317314D01*
X149437392Y-80203186D01*
X149471500Y-80075892D01*
X149471500Y-79944108D01*
X149437521Y-79817295D01*
X149439184Y-79747449D01*
X149478346Y-79689586D01*
X149542575Y-79662082D01*
X149557296Y-79661205D01*
X150769555Y-79661205D01*
X150769556Y-79661204D01*
X150788084Y-79657519D01*
X150828034Y-79649573D01*
X150828034Y-79649572D01*
X150828036Y-79649572D01*
X150894357Y-79605257D01*
X150938672Y-79538936D01*
X150938672Y-79538934D01*
X150938673Y-79538934D01*
X150947357Y-79495273D01*
X150950305Y-79480453D01*
X150950305Y-78039108D01*
X152153500Y-78039108D01*
X152153500Y-78170892D01*
X152176084Y-78255179D01*
X152187609Y-78298188D01*
X152187609Y-78298189D01*
X152223584Y-78360500D01*
X152240057Y-78428401D01*
X152223584Y-78484500D01*
X152187609Y-78546810D01*
X152187609Y-78546811D01*
X152187609Y-78546812D01*
X152187608Y-78546814D01*
X152174299Y-78596483D01*
X152153500Y-78674108D01*
X152153500Y-78805891D01*
X152187608Y-78933187D01*
X152219373Y-78988204D01*
X152253500Y-79047314D01*
X152346686Y-79140500D01*
X152432940Y-79190299D01*
X152453648Y-79202255D01*
X152460814Y-79206392D01*
X152588108Y-79240500D01*
X152588110Y-79240500D01*
X152719890Y-79240500D01*
X152719892Y-79240500D01*
X152847186Y-79206392D01*
X152961314Y-79140500D01*
X153054500Y-79047314D01*
X153120392Y-78933186D01*
X153154500Y-78805892D01*
X153154500Y-78674108D01*
X153120392Y-78546814D01*
X153084414Y-78484499D01*
X153067942Y-78416601D01*
X153084415Y-78360499D01*
X153087119Y-78355817D01*
X153120392Y-78298186D01*
X153154500Y-78170892D01*
X153154500Y-78039108D01*
X153120392Y-77911814D01*
X153054500Y-77797686D01*
X152961314Y-77704500D01*
X152904250Y-77671554D01*
X152847187Y-77638608D01*
X152783539Y-77621554D01*
X152719892Y-77604500D01*
X152588108Y-77604500D01*
X152460812Y-77638608D01*
X152346686Y-77704500D01*
X152346683Y-77704502D01*
X152253502Y-77797683D01*
X152253500Y-77797686D01*
X152187608Y-77911812D01*
X152153500Y-78039108D01*
X150950305Y-78039108D01*
X150950305Y-76304500D01*
X150969990Y-76237461D01*
X151022794Y-76191706D01*
X151074305Y-76180500D01*
X155944310Y-76180500D01*
X155950392Y-76180649D01*
X155958286Y-76181036D01*
X156213648Y-76193578D01*
X156221381Y-76194204D01*
X156281754Y-76201006D01*
X156285937Y-76201551D01*
X156519834Y-76236243D01*
X156529189Y-76238001D01*
X156560057Y-76245046D01*
X156562424Y-76245613D01*
X156794022Y-76303622D01*
X156812161Y-76308166D01*
X156823806Y-76311698D01*
X157089492Y-76406758D01*
X157100734Y-76411414D01*
X157355835Y-76532065D01*
X157366539Y-76537787D01*
X157587388Y-76670154D01*
X157589435Y-76671410D01*
X157616267Y-76688269D01*
X157624119Y-76693637D01*
X157723109Y-76767051D01*
X157813959Y-76834429D01*
X157817404Y-76837079D01*
X157864884Y-76874942D01*
X157870845Y-76880011D01*
X158065649Y-77056567D01*
X158070058Y-77060765D01*
X159158799Y-78149506D01*
X159162997Y-78153915D01*
X159340585Y-78349857D01*
X159345654Y-78355817D01*
X159381907Y-78401278D01*
X159384557Y-78404724D01*
X159526773Y-78596483D01*
X159532171Y-78604380D01*
X159547073Y-78628098D01*
X159548436Y-78630319D01*
X159682184Y-78853468D01*
X159687919Y-78864198D01*
X159808552Y-79119264D01*
X159808556Y-79119271D01*
X159813213Y-79130514D01*
X159908273Y-79396201D01*
X159911805Y-79407846D01*
X159975008Y-79660179D01*
X159975616Y-79662717D01*
X159981853Y-79690046D01*
X159983619Y-79699443D01*
X160018646Y-79935593D01*
X160019208Y-79939904D01*
X160025719Y-79997696D01*
X160026350Y-80005495D01*
X160034813Y-80177788D01*
X160037651Y-80235592D01*
X160039351Y-80270189D01*
X160039500Y-80276272D01*
X160039500Y-85155705D01*
X160019815Y-85222744D01*
X159967011Y-85268499D01*
X159915500Y-85279705D01*
X156739542Y-85279705D01*
X156681065Y-85291336D01*
X156681064Y-85291337D01*
X156614742Y-85335652D01*
X156570427Y-85401974D01*
X156570426Y-85401975D01*
X156558795Y-85460452D01*
X156558795Y-87099957D01*
X156570426Y-87158434D01*
X156570427Y-87158435D01*
X156614742Y-87224757D01*
X156681064Y-87269072D01*
X156681065Y-87269073D01*
X156739542Y-87280704D01*
X156739545Y-87280705D01*
X156739547Y-87280705D01*
X159915500Y-87280705D01*
X159982539Y-87300390D01*
X160028294Y-87353194D01*
X160039500Y-87404705D01*
X160039500Y-99955705D01*
X160019815Y-100022744D01*
X159967011Y-100068499D01*
X159915500Y-100079705D01*
X156739542Y-100079705D01*
X156681065Y-100091336D01*
X156681064Y-100091337D01*
X156614742Y-100135652D01*
X156570427Y-100201974D01*
X156570426Y-100201975D01*
X156558795Y-100260452D01*
X156558795Y-101899957D01*
X156570426Y-101958434D01*
X156570427Y-101958435D01*
X156614742Y-102024757D01*
X156681064Y-102069072D01*
X156681065Y-102069073D01*
X156739542Y-102080704D01*
X156739545Y-102080705D01*
X156739547Y-102080705D01*
X159915500Y-102080705D01*
X159982539Y-102100390D01*
X160028294Y-102153194D01*
X160039500Y-102204705D01*
X160039500Y-107084309D01*
X160039351Y-107090392D01*
X160026378Y-107354506D01*
X160025747Y-107362302D01*
X160025747Y-107362306D01*
X160019237Y-107420086D01*
X160018675Y-107424397D01*
X159983645Y-107660554D01*
X159981879Y-107669950D01*
X159975644Y-107697270D01*
X159975036Y-107699810D01*
X159911825Y-107952162D01*
X159908292Y-107963807D01*
X159813232Y-108229474D01*
X159808575Y-108240718D01*
X159687923Y-108495804D01*
X159682186Y-108506536D01*
X159548429Y-108729684D01*
X159547066Y-108731905D01*
X159532175Y-108755604D01*
X159526777Y-108763502D01*
X159384549Y-108955263D01*
X159381897Y-108958709D01*
X159345637Y-109004174D01*
X159340568Y-109010135D01*
X159162565Y-109206517D01*
X159158371Y-109210921D01*
X158070493Y-110298799D01*
X158066084Y-110302997D01*
X157870142Y-110480585D01*
X157864180Y-110485655D01*
X157818718Y-110521908D01*
X157815274Y-110524557D01*
X157623515Y-110666773D01*
X157615616Y-110672172D01*
X157591897Y-110687074D01*
X157589678Y-110688436D01*
X157366531Y-110822184D01*
X157355799Y-110827920D01*
X157100728Y-110948556D01*
X157089485Y-110953213D01*
X156823798Y-111048273D01*
X156812153Y-111051805D01*
X156559819Y-111115008D01*
X156557281Y-111115616D01*
X156529952Y-111121853D01*
X156520555Y-111123619D01*
X156284405Y-111158646D01*
X156280094Y-111159208D01*
X156222302Y-111165719D01*
X156214503Y-111166350D01*
X156021656Y-111175822D01*
X155949794Y-111179351D01*
X155943727Y-111179500D01*
X129135690Y-111179500D01*
X129129607Y-111179351D01*
X128866384Y-111166422D01*
X128858589Y-111165792D01*
X128798287Y-111158998D01*
X128793994Y-111158438D01*
X128560180Y-111123758D01*
X128550783Y-111121992D01*
X128520045Y-111114977D01*
X128517507Y-111114369D01*
X128267838Y-111051833D01*
X128256193Y-111048301D01*
X127990507Y-110953241D01*
X127979264Y-110948584D01*
X127826940Y-110876542D01*
X127724172Y-110827938D01*
X127713453Y-110822208D01*
X127492667Y-110689878D01*
X127490512Y-110688557D01*
X127463743Y-110671737D01*
X127455867Y-110666353D01*
X127266024Y-110525558D01*
X127262594Y-110522920D01*
X127215109Y-110485053D01*
X127209169Y-110480002D01*
X127127436Y-110405925D01*
X127014328Y-110303411D01*
X127009920Y-110299213D01*
X125921200Y-109210493D01*
X125917002Y-109206084D01*
X125739413Y-109010141D01*
X125734344Y-109004181D01*
X125734338Y-109004174D01*
X125698091Y-108958720D01*
X125695441Y-108955274D01*
X125637316Y-108876900D01*
X125553216Y-108763502D01*
X125547836Y-108755631D01*
X125532920Y-108731892D01*
X125531562Y-108729679D01*
X125397815Y-108506531D01*
X125392082Y-108495804D01*
X125271436Y-108240712D01*
X125266786Y-108229485D01*
X125266782Y-108229474D01*
X125171726Y-107963798D01*
X125168194Y-107952153D01*
X125155330Y-107900794D01*
X125104969Y-107699733D01*
X125104406Y-107697382D01*
X125098142Y-107669939D01*
X125096382Y-107660571D01*
X125061347Y-107424368D01*
X125060794Y-107420128D01*
X125054277Y-107362277D01*
X125053650Y-107354531D01*
X125040648Y-107089792D01*
X125040500Y-107083730D01*
X125040500Y-106554038D01*
X127939500Y-106554038D01*
X127939500Y-106554505D01*
X127939500Y-106805962D01*
X127969458Y-106995108D01*
X127978910Y-107054785D01*
X128056760Y-107294383D01*
X128171132Y-107518848D01*
X128319201Y-107722649D01*
X128319205Y-107722654D01*
X128497345Y-107900794D01*
X128497350Y-107900798D01*
X128662692Y-108020925D01*
X128701155Y-108048870D01*
X128844184Y-108121747D01*
X128925616Y-108163239D01*
X128925618Y-108163239D01*
X128925621Y-108163241D01*
X129165215Y-108241090D01*
X129414038Y-108280500D01*
X129414039Y-108280500D01*
X129665961Y-108280500D01*
X129665962Y-108280500D01*
X129914785Y-108241090D01*
X130154379Y-108163241D01*
X130264011Y-108107381D01*
X139323500Y-108107381D01*
X139323500Y-109316618D01*
X139333882Y-109403074D01*
X139333882Y-109403075D01*
X139333883Y-109403077D01*
X139385949Y-109535108D01*
X139388139Y-109540660D01*
X139477499Y-109658500D01*
X139578626Y-109735186D01*
X139595342Y-109747862D01*
X139732923Y-109802117D01*
X139790562Y-109809039D01*
X139819381Y-109812500D01*
X140540324Y-109812500D01*
X140607363Y-109832185D01*
X140628005Y-109848819D01*
X140628499Y-109849313D01*
X140628500Y-109849314D01*
X140721686Y-109942500D01*
X140820521Y-109999563D01*
X140823871Y-110001497D01*
X140835814Y-110008392D01*
X140963108Y-110042500D01*
X140963110Y-110042500D01*
X141094890Y-110042500D01*
X141094892Y-110042500D01*
X141222186Y-110008392D01*
X141336314Y-109942500D01*
X141429500Y-109849314D01*
X141495392Y-109735186D01*
X141529500Y-109607892D01*
X141529500Y-109535108D01*
X143517500Y-109535108D01*
X143517500Y-109666892D01*
X143531613Y-109719563D01*
X143551608Y-109794187D01*
X143570140Y-109826284D01*
X143617500Y-109908314D01*
X143710686Y-110001500D01*
X143824814Y-110067392D01*
X143952108Y-110101500D01*
X143952110Y-110101500D01*
X144083890Y-110101500D01*
X144083892Y-110101500D01*
X144211186Y-110067392D01*
X144325314Y-110001500D01*
X144410706Y-109916108D01*
X146311500Y-109916108D01*
X146311500Y-110047891D01*
X146345608Y-110175187D01*
X146378554Y-110232250D01*
X146411500Y-110289314D01*
X146504686Y-110382500D01*
X146618814Y-110448392D01*
X146746108Y-110482500D01*
X146746110Y-110482500D01*
X146877890Y-110482500D01*
X146877892Y-110482500D01*
X147005186Y-110448392D01*
X147119314Y-110382500D01*
X147212500Y-110289314D01*
X147278392Y-110175186D01*
X147312500Y-110047892D01*
X147312500Y-109916108D01*
X147278392Y-109788814D01*
X147212500Y-109674686D01*
X147119314Y-109581500D01*
X147038961Y-109535108D01*
X147005187Y-109515608D01*
X146941539Y-109498554D01*
X146877892Y-109481500D01*
X146746108Y-109481500D01*
X146618812Y-109515608D01*
X146504686Y-109581500D01*
X146504683Y-109581502D01*
X146411502Y-109674683D01*
X146411500Y-109674686D01*
X146345608Y-109788812D01*
X146311500Y-109916108D01*
X144410706Y-109916108D01*
X144418500Y-109908314D01*
X144424793Y-109897413D01*
X144438023Y-109874500D01*
X144488590Y-109826284D01*
X144545410Y-109812500D01*
X145244819Y-109812500D01*
X145271589Y-109809285D01*
X145331277Y-109802117D01*
X145468858Y-109747862D01*
X145586700Y-109658500D01*
X145676062Y-109540658D01*
X145730317Y-109403077D01*
X145740700Y-109316618D01*
X145740700Y-108107382D01*
X145730317Y-108020923D01*
X145676062Y-107883342D01*
X145661705Y-107864409D01*
X150577022Y-107864409D01*
X150577022Y-109595563D01*
X150736137Y-109595563D01*
X150803176Y-109615248D01*
X150848931Y-109668052D01*
X150860137Y-109719563D01*
X150860137Y-110475440D01*
X154088120Y-110475440D01*
X154088120Y-109719563D01*
X154107805Y-109652524D01*
X154160609Y-109606769D01*
X154212120Y-109595563D01*
X154689733Y-109595563D01*
X154689733Y-108245400D01*
X154709418Y-108178361D01*
X154762222Y-108132606D01*
X154831380Y-108122662D01*
X154870028Y-108134915D01*
X154925616Y-108163239D01*
X154925618Y-108163239D01*
X154925621Y-108163241D01*
X155165215Y-108241090D01*
X155414038Y-108280500D01*
X155414039Y-108280500D01*
X155665961Y-108280500D01*
X155665962Y-108280500D01*
X155914785Y-108241090D01*
X156154379Y-108163241D01*
X156378845Y-108048870D01*
X156582656Y-107900793D01*
X156760793Y-107722656D01*
X156908870Y-107518845D01*
X157023241Y-107294379D01*
X157101090Y-107054785D01*
X157140500Y-106805962D01*
X157140500Y-106554038D01*
X157101090Y-106305215D01*
X157023241Y-106065621D01*
X157023239Y-106065618D01*
X157023239Y-106065616D01*
X156969225Y-105959608D01*
X156908870Y-105841155D01*
X156889952Y-105815117D01*
X156760798Y-105637350D01*
X156760794Y-105637345D01*
X156582654Y-105459205D01*
X156582649Y-105459201D01*
X156378848Y-105311132D01*
X156378847Y-105311131D01*
X156378845Y-105311130D01*
X156308747Y-105275413D01*
X156154383Y-105196760D01*
X155914785Y-105118910D01*
X155665962Y-105079500D01*
X155414038Y-105079500D01*
X155347700Y-105090007D01*
X155165214Y-105118910D01*
X154925616Y-105196760D01*
X154701151Y-105311132D01*
X154497350Y-105459201D01*
X154497345Y-105459205D01*
X154319205Y-105637345D01*
X154319201Y-105637350D01*
X154171132Y-105841151D01*
X154056760Y-106065616D01*
X153978910Y-106305214D01*
X153949343Y-106491890D01*
X153939500Y-106554038D01*
X153939500Y-106554505D01*
X153939500Y-106805962D01*
X153969458Y-106995108D01*
X153978910Y-107054785D01*
X154056760Y-107294383D01*
X154171132Y-107518848D01*
X154279150Y-107667524D01*
X154302630Y-107733330D01*
X154286804Y-107801384D01*
X154236698Y-107850079D01*
X154178832Y-107864409D01*
X150577022Y-107864409D01*
X145661705Y-107864409D01*
X145625980Y-107817299D01*
X145586700Y-107765499D01*
X145468860Y-107676139D01*
X145468858Y-107676138D01*
X145331277Y-107621883D01*
X145331276Y-107621882D01*
X145331274Y-107621882D01*
X145244819Y-107611500D01*
X145244818Y-107611500D01*
X144485582Y-107611500D01*
X144485581Y-107611500D01*
X144399125Y-107621882D01*
X144399124Y-107621882D01*
X144261539Y-107676139D01*
X144143699Y-107765499D01*
X144054339Y-107883339D01*
X144000082Y-108020924D01*
X144000082Y-108020925D01*
X143989700Y-108107381D01*
X143989700Y-108995278D01*
X143970015Y-109062317D01*
X143917211Y-109108072D01*
X143897794Y-109115053D01*
X143824812Y-109134608D01*
X143710686Y-109200500D01*
X143710683Y-109200502D01*
X143617502Y-109293683D01*
X143617500Y-109293686D01*
X143551608Y-109407812D01*
X143533309Y-109476108D01*
X143517500Y-109535108D01*
X141529500Y-109535108D01*
X141529500Y-109476108D01*
X141495392Y-109348814D01*
X141429500Y-109234686D01*
X141336314Y-109141500D01*
X141222186Y-109075608D01*
X141166405Y-109060661D01*
X141106746Y-109024296D01*
X141076217Y-108961449D01*
X141074500Y-108940887D01*
X141074500Y-108107381D01*
X141066864Y-108043798D01*
X141064117Y-108020923D01*
X141009862Y-107883342D01*
X140984638Y-107850079D01*
X140920500Y-107765499D01*
X140802660Y-107676139D01*
X140802658Y-107676138D01*
X140665077Y-107621883D01*
X140665076Y-107621882D01*
X140665074Y-107621882D01*
X140578619Y-107611500D01*
X140578618Y-107611500D01*
X139819382Y-107611500D01*
X139819381Y-107611500D01*
X139732925Y-107621882D01*
X139732924Y-107621882D01*
X139595339Y-107676139D01*
X139477499Y-107765499D01*
X139388139Y-107883339D01*
X139333882Y-108020924D01*
X139333882Y-108020925D01*
X139323500Y-108107381D01*
X130264011Y-108107381D01*
X130378845Y-108048870D01*
X130417308Y-108020925D01*
X130441488Y-108003358D01*
X130582649Y-107900798D01*
X130582647Y-107900798D01*
X130582656Y-107900793D01*
X130760793Y-107722656D01*
X130908870Y-107518845D01*
X131023241Y-107294379D01*
X131101090Y-107054785D01*
X131140500Y-106805962D01*
X131140500Y-106554038D01*
X131109784Y-106360108D01*
X133763900Y-106360108D01*
X133763900Y-106491891D01*
X133798009Y-106619188D01*
X133798009Y-106619189D01*
X133833984Y-106681500D01*
X133850457Y-106749401D01*
X133833984Y-106805500D01*
X133798009Y-106867810D01*
X133798009Y-106867811D01*
X133763900Y-106995108D01*
X133763900Y-107126891D01*
X133798008Y-107254187D01*
X133819899Y-107292102D01*
X133863900Y-107368314D01*
X133957086Y-107461500D01*
X134051025Y-107515736D01*
X134071210Y-107527390D01*
X134071214Y-107527392D01*
X134198508Y-107561500D01*
X134198510Y-107561500D01*
X134330290Y-107561500D01*
X134330292Y-107561500D01*
X134457586Y-107527392D01*
X134469519Y-107520502D01*
X134507199Y-107498748D01*
X134575099Y-107482274D01*
X134631201Y-107498748D01*
X134680808Y-107527389D01*
X134680809Y-107527389D01*
X134680814Y-107527392D01*
X134808108Y-107561500D01*
X134808110Y-107561500D01*
X134939890Y-107561500D01*
X134939892Y-107561500D01*
X135067186Y-107527392D01*
X135181314Y-107461500D01*
X135274500Y-107368314D01*
X135340392Y-107254186D01*
X135374500Y-107126892D01*
X135374500Y-106995108D01*
X135340392Y-106867814D01*
X135304414Y-106805499D01*
X135287942Y-106737601D01*
X135304415Y-106681499D01*
X135340391Y-106619188D01*
X135340392Y-106619186D01*
X135374500Y-106491892D01*
X135374500Y-106360108D01*
X135340392Y-106232814D01*
X135274500Y-106118686D01*
X135181314Y-106025500D01*
X135124250Y-105992554D01*
X135067187Y-105959608D01*
X135003539Y-105942554D01*
X134939892Y-105925500D01*
X134808108Y-105925500D01*
X134680814Y-105959608D01*
X134680813Y-105959608D01*
X134631199Y-105988253D01*
X134563299Y-106004725D01*
X134507201Y-105988253D01*
X134457586Y-105959608D01*
X134330292Y-105925500D01*
X134198508Y-105925500D01*
X134071212Y-105959608D01*
X133957086Y-106025500D01*
X133957083Y-106025502D01*
X133863902Y-106118683D01*
X133863900Y-106118686D01*
X133798008Y-106232812D01*
X133763900Y-106360108D01*
X131109784Y-106360108D01*
X131101090Y-106305215D01*
X131077565Y-106232814D01*
X131040482Y-106118683D01*
X131023241Y-106065621D01*
X131023239Y-106065618D01*
X131023239Y-106065616D01*
X130969225Y-105959608D01*
X130908870Y-105841155D01*
X130889952Y-105815117D01*
X130760798Y-105637350D01*
X130760794Y-105637345D01*
X130582654Y-105459205D01*
X130582649Y-105459201D01*
X130378848Y-105311132D01*
X130378847Y-105311131D01*
X130378845Y-105311130D01*
X130308747Y-105275413D01*
X130154383Y-105196760D01*
X129914785Y-105118910D01*
X129665962Y-105079500D01*
X129414038Y-105079500D01*
X129347700Y-105090007D01*
X129165214Y-105118910D01*
X128925616Y-105196760D01*
X128701151Y-105311132D01*
X128497350Y-105459201D01*
X128497345Y-105459205D01*
X128319205Y-105637345D01*
X128319201Y-105637350D01*
X128171132Y-105841151D01*
X128056760Y-106065616D01*
X127978910Y-106305214D01*
X127949343Y-106491890D01*
X127939500Y-106554038D01*
X125040500Y-106554038D01*
X125040500Y-102169295D01*
X125060185Y-102102256D01*
X125112989Y-102056501D01*
X125164500Y-102045295D01*
X128324655Y-102045295D01*
X128324656Y-102045294D01*
X128339775Y-102042287D01*
X128383134Y-102033663D01*
X128383134Y-102033662D01*
X128383136Y-102033662D01*
X128449457Y-101989347D01*
X128493772Y-101923026D01*
X128493772Y-101923024D01*
X128493773Y-101923024D01*
X128505404Y-101864547D01*
X128505405Y-101864545D01*
X128505405Y-100225044D01*
X128505404Y-100225042D01*
X128493773Y-100166565D01*
X128493772Y-100166564D01*
X128449457Y-100100242D01*
X128383135Y-100055927D01*
X128383134Y-100055926D01*
X128324657Y-100044295D01*
X128324653Y-100044295D01*
X125164500Y-100044295D01*
X125097461Y-100024610D01*
X125051706Y-99971806D01*
X125040500Y-99920295D01*
X125040500Y-97597108D01*
X125737500Y-97597108D01*
X125737500Y-97728892D01*
X125743877Y-97752691D01*
X125771608Y-97856187D01*
X125803436Y-97911313D01*
X125837500Y-97970314D01*
X125930686Y-98063500D01*
X126029521Y-98120563D01*
X126037279Y-98125042D01*
X126044814Y-98129392D01*
X126172108Y-98163500D01*
X126172110Y-98163500D01*
X126303890Y-98163500D01*
X126303892Y-98163500D01*
X126431186Y-98129392D01*
X126545314Y-98063500D01*
X126638500Y-97970314D01*
X126704392Y-97856186D01*
X126738500Y-97728892D01*
X126738500Y-97597108D01*
X126704392Y-97469814D01*
X126638500Y-97355686D01*
X126545314Y-97262500D01*
X126460759Y-97213682D01*
X126431187Y-97196608D01*
X126367539Y-97179554D01*
X126303892Y-97162500D01*
X126172108Y-97162500D01*
X126044812Y-97196608D01*
X125930686Y-97262500D01*
X125930683Y-97262502D01*
X125837502Y-97355683D01*
X125837500Y-97355686D01*
X125771608Y-97469812D01*
X125746529Y-97563411D01*
X125737500Y-97597108D01*
X125040500Y-97597108D01*
X125040500Y-87369295D01*
X125060185Y-87302256D01*
X125112989Y-87256501D01*
X125164500Y-87245295D01*
X126313313Y-87245295D01*
X126380352Y-87264980D01*
X126426107Y-87317784D01*
X126436051Y-87386942D01*
X126407026Y-87450498D01*
X126400994Y-87456976D01*
X125778596Y-88079373D01*
X125778595Y-88079374D01*
X125778595Y-88079375D01*
X125778045Y-88080703D01*
X125736500Y-88181000D01*
X125736500Y-92491763D01*
X125716815Y-92558802D01*
X125664011Y-92604557D01*
X125644598Y-92611536D01*
X125595814Y-92624608D01*
X125595812Y-92624608D01*
X125595812Y-92624609D01*
X125481686Y-92690500D01*
X125481683Y-92690502D01*
X125388502Y-92783683D01*
X125388500Y-92783686D01*
X125322608Y-92897812D01*
X125315411Y-92924672D01*
X125288500Y-93025108D01*
X125288500Y-93156892D01*
X125294922Y-93180858D01*
X125322608Y-93284187D01*
X125355554Y-93341250D01*
X125388500Y-93398314D01*
X125481686Y-93491500D01*
X125595814Y-93557392D01*
X125723108Y-93591500D01*
X125723110Y-93591500D01*
X125854889Y-93591500D01*
X125854892Y-93591500D01*
X125927768Y-93571973D01*
X125997614Y-93573636D01*
X126055477Y-93612798D01*
X126082981Y-93677026D01*
X126071395Y-93745929D01*
X126047539Y-93779429D01*
X126002787Y-93824181D01*
X125941464Y-93857666D01*
X125915106Y-93860500D01*
X125791108Y-93860500D01*
X125663812Y-93894608D01*
X125549686Y-93960500D01*
X125549683Y-93960502D01*
X125456502Y-94053683D01*
X125456500Y-94053686D01*
X125390608Y-94167812D01*
X125358160Y-94288913D01*
X125356500Y-94295108D01*
X125356500Y-94426892D01*
X125363672Y-94453658D01*
X125390608Y-94554187D01*
X125393885Y-94559862D01*
X125456500Y-94668314D01*
X125549686Y-94761500D01*
X125663814Y-94827392D01*
X125791108Y-94861500D01*
X125791110Y-94861500D01*
X125915108Y-94861500D01*
X125944548Y-94870144D01*
X125974535Y-94876668D01*
X125979550Y-94880422D01*
X125982147Y-94881185D01*
X126002789Y-94897819D01*
X126179181Y-95074211D01*
X126212666Y-95135534D01*
X126215500Y-95161892D01*
X126215500Y-96338001D01*
X126215500Y-96447999D01*
X126257595Y-96549625D01*
X126589375Y-96881405D01*
X126691001Y-96923500D01*
X126800999Y-96923500D01*
X128676323Y-96923500D01*
X128743362Y-96943185D01*
X128764004Y-96959818D01*
X128851686Y-97047500D01*
X128965814Y-97113392D01*
X129093108Y-97147500D01*
X129093110Y-97147500D01*
X129224890Y-97147500D01*
X129224892Y-97147500D01*
X129352186Y-97113392D01*
X129466314Y-97047500D01*
X129559500Y-96954314D01*
X129625392Y-96840186D01*
X129659500Y-96712892D01*
X129659500Y-96581108D01*
X129625392Y-96453814D01*
X129559500Y-96339686D01*
X129466314Y-96246500D01*
X129405919Y-96211631D01*
X129352187Y-96180608D01*
X129251565Y-96153647D01*
X129224892Y-96146500D01*
X129093108Y-96146500D01*
X128965812Y-96180608D01*
X128851686Y-96246500D01*
X128764004Y-96334182D01*
X128702680Y-96367666D01*
X128676323Y-96370500D01*
X126911892Y-96370500D01*
X126844853Y-96350815D01*
X126824211Y-96334181D01*
X126804819Y-96314789D01*
X126771334Y-96253466D01*
X126768500Y-96227108D01*
X126768500Y-95565108D01*
X127134500Y-95565108D01*
X127134500Y-95696892D01*
X127149745Y-95753786D01*
X127168608Y-95824187D01*
X127198817Y-95876509D01*
X127234500Y-95938314D01*
X127327686Y-96031500D01*
X127441814Y-96097392D01*
X127569108Y-96131500D01*
X127700892Y-96131500D01*
X127828186Y-96097392D01*
X127942314Y-96031500D01*
X128035500Y-95938314D01*
X128101392Y-95824186D01*
X128135500Y-95696892D01*
X128135500Y-95565108D01*
X128101392Y-95437814D01*
X128035500Y-95323686D01*
X127942314Y-95230500D01*
X127852927Y-95178892D01*
X127828187Y-95164608D01*
X127719679Y-95135534D01*
X127700892Y-95130500D01*
X127569108Y-95130500D01*
X127441812Y-95164608D01*
X127327686Y-95230500D01*
X127327683Y-95230502D01*
X127234502Y-95323683D01*
X127234500Y-95323686D01*
X127168608Y-95437812D01*
X127141665Y-95538366D01*
X127134500Y-95565108D01*
X126768500Y-95565108D01*
X126768500Y-94941002D01*
X126768500Y-94941001D01*
X126726405Y-94839375D01*
X126648625Y-94761595D01*
X126393819Y-94506789D01*
X126379115Y-94479861D01*
X126362523Y-94454043D01*
X126361631Y-94447842D01*
X126360334Y-94445466D01*
X126357500Y-94419108D01*
X126357500Y-94302891D01*
X126377185Y-94235852D01*
X126393814Y-94215215D01*
X126599405Y-94009625D01*
X126641500Y-93907999D01*
X126641500Y-93798002D01*
X126641500Y-91882108D01*
X127515500Y-91882108D01*
X127515500Y-92013891D01*
X127549608Y-92141187D01*
X127574362Y-92184061D01*
X127615500Y-92255314D01*
X127708686Y-92348500D01*
X127822814Y-92414392D01*
X127950108Y-92448500D01*
X127950110Y-92448500D01*
X128074108Y-92448500D01*
X128141147Y-92468185D01*
X128161789Y-92484819D01*
X129559595Y-93882625D01*
X129637375Y-93960405D01*
X129739001Y-94002500D01*
X130180405Y-94002500D01*
X130247444Y-94022185D01*
X130293199Y-94074989D01*
X130304405Y-94126500D01*
X130304405Y-95164547D01*
X130318420Y-95235005D01*
X130318231Y-95235042D01*
X130325100Y-95269569D01*
X130325100Y-96020021D01*
X130318231Y-96054548D01*
X130318420Y-96054586D01*
X130304405Y-96125042D01*
X130304405Y-97164547D01*
X130318420Y-97235005D01*
X130318231Y-97235042D01*
X130325100Y-97269569D01*
X130325100Y-98020021D01*
X130318231Y-98054548D01*
X130318420Y-98054586D01*
X130304405Y-98125042D01*
X130304405Y-99164547D01*
X130318420Y-99235005D01*
X130318231Y-99235042D01*
X130325100Y-99269569D01*
X130325100Y-103812807D01*
X130329797Y-103856486D01*
X130340997Y-103907974D01*
X130343490Y-103918172D01*
X130343491Y-103918175D01*
X130386499Y-103998883D01*
X130386501Y-103998886D01*
X130432260Y-104051695D01*
X130449842Y-104069639D01*
X130449846Y-104069643D01*
X130449847Y-104069644D01*
X130449849Y-104069645D01*
X130529659Y-104114288D01*
X130529663Y-104114290D01*
X130596702Y-104133975D01*
X130654600Y-104142300D01*
X133426263Y-104142300D01*
X133493302Y-104161985D01*
X133509456Y-104174350D01*
X134446682Y-105022318D01*
X134446695Y-105022329D01*
X134446703Y-105022336D01*
X134459669Y-105033132D01*
X134475823Y-105045497D01*
X134475827Y-105045499D01*
X134542827Y-105079488D01*
X134542829Y-105079488D01*
X134542832Y-105079490D01*
X134609871Y-105099175D01*
X134667769Y-105107500D01*
X134667773Y-105107500D01*
X151314009Y-105107500D01*
X151314898Y-105107473D01*
X151326258Y-105107135D01*
X151341010Y-105106254D01*
X151341013Y-105106253D01*
X151341015Y-105106253D01*
X151354272Y-105103117D01*
X151409701Y-105090007D01*
X151473922Y-105062487D01*
X151523859Y-105032032D01*
X152566522Y-104170701D01*
X152630743Y-104143181D01*
X152645495Y-104142300D01*
X154485791Y-104142300D01*
X154485800Y-104142300D01*
X154529484Y-104137603D01*
X154558675Y-104131252D01*
X154580974Y-104126402D01*
X154580990Y-104126398D01*
X154580995Y-104126397D01*
X154591173Y-104123910D01*
X154671885Y-104080900D01*
X154724689Y-104035145D01*
X154742643Y-104017554D01*
X154787290Y-103937737D01*
X154806975Y-103870698D01*
X154815300Y-103812800D01*
X154815300Y-102155081D01*
X154834985Y-102088042D01*
X154887789Y-102042287D01*
X154907197Y-102035309D01*
X154980786Y-102015592D01*
X155094914Y-101949700D01*
X155188100Y-101856514D01*
X155253992Y-101742386D01*
X155288100Y-101615092D01*
X155288100Y-101483308D01*
X155253992Y-101356014D01*
X155188100Y-101241886D01*
X155094914Y-101148700D01*
X154980786Y-101082808D01*
X154980783Y-101082807D01*
X154978164Y-101081722D01*
X154976291Y-101080213D01*
X154973747Y-101078744D01*
X154973976Y-101078347D01*
X154923760Y-101037882D01*
X154901694Y-100971588D01*
X154918972Y-100903889D01*
X154937931Y-100879482D01*
X154984900Y-100832514D01*
X155050792Y-100718386D01*
X155084900Y-100591092D01*
X155084900Y-100459308D01*
X155050792Y-100332014D01*
X154984900Y-100217886D01*
X154891714Y-100124700D01*
X154863106Y-100108183D01*
X154814892Y-100057616D01*
X154801670Y-99989009D01*
X154806132Y-99965856D01*
X154806975Y-99962988D01*
X154815300Y-99905090D01*
X154815300Y-98486108D01*
X156217500Y-98486108D01*
X156217500Y-98617892D01*
X156234554Y-98681539D01*
X156251608Y-98745187D01*
X156275461Y-98786500D01*
X156317500Y-98859314D01*
X156410686Y-98952500D01*
X156524814Y-99018392D01*
X156652108Y-99052500D01*
X156652110Y-99052500D01*
X156783890Y-99052500D01*
X156783892Y-99052500D01*
X156911186Y-99018392D01*
X157025314Y-98952500D01*
X157118500Y-98859314D01*
X157184392Y-98745186D01*
X157218500Y-98617892D01*
X157218500Y-98486108D01*
X157184392Y-98358814D01*
X157118500Y-98244686D01*
X157025314Y-98151500D01*
X156943908Y-98104500D01*
X156911187Y-98085608D01*
X156828666Y-98063497D01*
X156783892Y-98051500D01*
X156652108Y-98051500D01*
X156524812Y-98085608D01*
X156410686Y-98151500D01*
X156410683Y-98151502D01*
X156317502Y-98244683D01*
X156317500Y-98244686D01*
X156251608Y-98358812D01*
X156234443Y-98422874D01*
X156217500Y-98486108D01*
X154815300Y-98486108D01*
X154815300Y-94332600D01*
X154810603Y-94288916D01*
X154804473Y-94260739D01*
X154799402Y-94237425D01*
X154799080Y-94236108D01*
X154796910Y-94227227D01*
X154767491Y-94172019D01*
X154755309Y-94137904D01*
X154748162Y-94101974D01*
X154730131Y-94074989D01*
X154703847Y-94035652D01*
X154637525Y-93991337D01*
X154637524Y-93991336D01*
X154579047Y-93979705D01*
X154579043Y-93979705D01*
X151039547Y-93979705D01*
X151039542Y-93979705D01*
X150981065Y-93991336D01*
X150981064Y-93991337D01*
X150914742Y-94035652D01*
X150870428Y-94101972D01*
X150866416Y-94122143D01*
X150853019Y-94158482D01*
X150825511Y-94207658D01*
X150805826Y-94274696D01*
X150805825Y-94274701D01*
X150805825Y-94274702D01*
X150797502Y-94332592D01*
X150797500Y-94332603D01*
X150797500Y-101270500D01*
X150777815Y-101337539D01*
X150725011Y-101383294D01*
X150673500Y-101394500D01*
X146711315Y-101394500D01*
X146703214Y-101395349D01*
X146668661Y-101398975D01*
X146618294Y-101409663D01*
X146577495Y-101422896D01*
X146577487Y-101422899D01*
X145522436Y-101891813D01*
X145472075Y-101902500D01*
X142830585Y-101902500D01*
X142763546Y-101882815D01*
X142717791Y-101830011D01*
X142707847Y-101760853D01*
X142723199Y-101716499D01*
X142744392Y-101679791D01*
X142744391Y-101679791D01*
X142744395Y-101679786D01*
X142778503Y-101552492D01*
X142778503Y-101420708D01*
X142744395Y-101293414D01*
X142743230Y-101291397D01*
X142735566Y-101278121D01*
X142678503Y-101179286D01*
X142590821Y-101091604D01*
X142557337Y-101030280D01*
X142554503Y-101003923D01*
X142554503Y-100716972D01*
X142574188Y-100649933D01*
X142626992Y-100604178D01*
X142696150Y-100594234D01*
X142759706Y-100623259D01*
X142788985Y-100660673D01*
X142817350Y-100716342D01*
X142817351Y-100716343D01*
X142817354Y-100716347D01*
X142907052Y-100806045D01*
X142907054Y-100806046D01*
X142907058Y-100806050D01*
X143020094Y-100863645D01*
X143020098Y-100863647D01*
X143113875Y-100878499D01*
X143113881Y-100878500D01*
X143576918Y-100878499D01*
X143670704Y-100863646D01*
X143783742Y-100806050D01*
X143873450Y-100716342D01*
X143931046Y-100603304D01*
X143931046Y-100603302D01*
X143931047Y-100603301D01*
X143945899Y-100509524D01*
X143945900Y-100509519D01*
X143945899Y-99896482D01*
X143931046Y-99802696D01*
X143873450Y-99689658D01*
X143873446Y-99689654D01*
X143873445Y-99689652D01*
X143776842Y-99593049D01*
X143778303Y-99591587D01*
X143743373Y-99546292D01*
X143737391Y-99476679D01*
X143769994Y-99414883D01*
X143830831Y-99380523D01*
X143831811Y-99380299D01*
X143845199Y-99377299D01*
X143871532Y-99377299D01*
X143951895Y-99361315D01*
X143969731Y-99349396D01*
X143992288Y-99344343D01*
X144005013Y-99345173D01*
X144017182Y-99341363D01*
X144039213Y-99347406D01*
X144062009Y-99348894D01*
X144072263Y-99356471D01*
X144075343Y-99357316D01*
X144075623Y-99356642D01*
X144080990Y-99358865D01*
X144084562Y-99359845D01*
X144086751Y-99361251D01*
X144086906Y-99361316D01*
X144140357Y-99371947D01*
X144167267Y-99377300D01*
X144371532Y-99377299D01*
X144451895Y-99361315D01*
X144543024Y-99300424D01*
X144603915Y-99209295D01*
X144619900Y-99128933D01*
X144619899Y-97749668D01*
X144603915Y-97669305D01*
X144563410Y-97608685D01*
X144543024Y-97578175D01*
X144488395Y-97541674D01*
X144451895Y-97517285D01*
X144451893Y-97517284D01*
X144451890Y-97517283D01*
X144371535Y-97501300D01*
X144167270Y-97501300D01*
X144107267Y-97513234D01*
X144086905Y-97517285D01*
X144086904Y-97517285D01*
X144086901Y-97517286D01*
X144075620Y-97521959D01*
X144075021Y-97520514D01*
X144021604Y-97537236D01*
X143963461Y-97521281D01*
X143963181Y-97521959D01*
X143957783Y-97519723D01*
X143954225Y-97518747D01*
X143952048Y-97517347D01*
X143951894Y-97517284D01*
X143871535Y-97501300D01*
X143667270Y-97501300D01*
X143607267Y-97513234D01*
X143586905Y-97517285D01*
X143586904Y-97517285D01*
X143586901Y-97517286D01*
X143575620Y-97521959D01*
X143575021Y-97520514D01*
X143521604Y-97537236D01*
X143463461Y-97521281D01*
X143463181Y-97521959D01*
X143457783Y-97519723D01*
X143454225Y-97518747D01*
X143452048Y-97517347D01*
X143451894Y-97517284D01*
X143371535Y-97501300D01*
X143167270Y-97501300D01*
X143107267Y-97513234D01*
X143086905Y-97517285D01*
X143086904Y-97517285D01*
X143086901Y-97517286D01*
X143075620Y-97521959D01*
X143075021Y-97520514D01*
X143021604Y-97537236D01*
X142963461Y-97521281D01*
X142963181Y-97521959D01*
X142957783Y-97519723D01*
X142954225Y-97518747D01*
X142952048Y-97517347D01*
X142951894Y-97517284D01*
X142871535Y-97501300D01*
X142667270Y-97501300D01*
X142607267Y-97513234D01*
X142586905Y-97517285D01*
X142586904Y-97517285D01*
X142586901Y-97517286D01*
X142575620Y-97521959D01*
X142575021Y-97520514D01*
X142521604Y-97537236D01*
X142463461Y-97521281D01*
X142463181Y-97521959D01*
X142457783Y-97519723D01*
X142454225Y-97518747D01*
X142452048Y-97517347D01*
X142451894Y-97517284D01*
X142371535Y-97501300D01*
X142167270Y-97501300D01*
X142107267Y-97513234D01*
X142086905Y-97517285D01*
X142086904Y-97517285D01*
X142086901Y-97517286D01*
X142075620Y-97521959D01*
X142075021Y-97520514D01*
X142021604Y-97537236D01*
X141963461Y-97521281D01*
X141963181Y-97521959D01*
X141957783Y-97519723D01*
X141954225Y-97518747D01*
X141952048Y-97517347D01*
X141951894Y-97517284D01*
X141871535Y-97501300D01*
X141667270Y-97501300D01*
X141607267Y-97513234D01*
X141586905Y-97517285D01*
X141586904Y-97517285D01*
X141586901Y-97517286D01*
X141575620Y-97521959D01*
X141575021Y-97520514D01*
X141521604Y-97537236D01*
X141463461Y-97521281D01*
X141463181Y-97521959D01*
X141457783Y-97519723D01*
X141454225Y-97518747D01*
X141452048Y-97517347D01*
X141451894Y-97517284D01*
X141371535Y-97501300D01*
X141167270Y-97501300D01*
X141107267Y-97513234D01*
X141086905Y-97517285D01*
X141086904Y-97517285D01*
X141086901Y-97517286D01*
X141075620Y-97521959D01*
X141075021Y-97520514D01*
X141021604Y-97537236D01*
X140963461Y-97521281D01*
X140963181Y-97521959D01*
X140957783Y-97519723D01*
X140954225Y-97518747D01*
X140952048Y-97517347D01*
X140951894Y-97517284D01*
X140871535Y-97501300D01*
X140667270Y-97501300D01*
X140607267Y-97513234D01*
X140586905Y-97517285D01*
X140586904Y-97517285D01*
X140586901Y-97517286D01*
X140575620Y-97521959D01*
X140575021Y-97520514D01*
X140521604Y-97537236D01*
X140463461Y-97521281D01*
X140463181Y-97521959D01*
X140457783Y-97519723D01*
X140454225Y-97518747D01*
X140452048Y-97517347D01*
X140451894Y-97517284D01*
X140371535Y-97501300D01*
X140167269Y-97501300D01*
X140092334Y-97516205D01*
X140022742Y-97509976D01*
X139967566Y-97467112D01*
X139944323Y-97401222D01*
X139950448Y-97365455D01*
X139948717Y-97365111D01*
X139951100Y-97353129D01*
X139951100Y-96388802D01*
X139951100Y-96388801D01*
X139909005Y-96287175D01*
X139875026Y-96253196D01*
X139841541Y-96191873D01*
X139846525Y-96122181D01*
X139888397Y-96066248D01*
X139930610Y-96045741D01*
X140000586Y-96026992D01*
X140026553Y-96012000D01*
X140589000Y-96012000D01*
X141622078Y-96012000D01*
X141689117Y-96031685D01*
X141734872Y-96084489D01*
X141744816Y-96153647D01*
X141715791Y-96217203D01*
X141684078Y-96243387D01*
X141678689Y-96246498D01*
X141678683Y-96246502D01*
X141585502Y-96339683D01*
X141585500Y-96339686D01*
X141519608Y-96453812D01*
X141501335Y-96522011D01*
X141485500Y-96581108D01*
X141485500Y-96712892D01*
X141494000Y-96744613D01*
X141519608Y-96840187D01*
X141521986Y-96844305D01*
X141585500Y-96954314D01*
X141678686Y-97047500D01*
X141792814Y-97113392D01*
X141920108Y-97147500D01*
X141920110Y-97147500D01*
X142051890Y-97147500D01*
X142051892Y-97147500D01*
X142179186Y-97113392D01*
X142293314Y-97047500D01*
X142386500Y-96954314D01*
X142452392Y-96840186D01*
X142486500Y-96712892D01*
X142486500Y-96581108D01*
X142452392Y-96453814D01*
X142386500Y-96339686D01*
X142293314Y-96246500D01*
X142287921Y-96243386D01*
X142239707Y-96192820D01*
X142226483Y-96124213D01*
X142252451Y-96059349D01*
X142309365Y-96018820D01*
X142349922Y-96012000D01*
X144399000Y-96012000D01*
X144399000Y-95494708D01*
X144730900Y-95494708D01*
X144730900Y-95626492D01*
X144747954Y-95690139D01*
X144765008Y-95753787D01*
X144778295Y-95776800D01*
X144830900Y-95867914D01*
X144830902Y-95867916D01*
X144918581Y-95955595D01*
X144952066Y-96016918D01*
X144954900Y-96043276D01*
X144954900Y-96408401D01*
X144954900Y-96518399D01*
X144996995Y-96620025D01*
X145560395Y-97183425D01*
X145638175Y-97261205D01*
X145739801Y-97303300D01*
X145787465Y-97303300D01*
X145854504Y-97322985D01*
X145856348Y-97324193D01*
X145911905Y-97361315D01*
X145911908Y-97361315D01*
X145911909Y-97361316D01*
X145932718Y-97365455D01*
X145992267Y-97377300D01*
X147328507Y-97377299D01*
X147357947Y-97385943D01*
X147387934Y-97392467D01*
X147392949Y-97396221D01*
X147395546Y-97396984D01*
X147416188Y-97413618D01*
X147565981Y-97563411D01*
X147599466Y-97624734D01*
X147602300Y-97651092D01*
X147602300Y-97941306D01*
X147582615Y-98008345D01*
X147565981Y-98028987D01*
X147500787Y-98094181D01*
X147439464Y-98127666D01*
X147413106Y-98130500D01*
X146921507Y-98130500D01*
X146821878Y-98146279D01*
X146821874Y-98146280D01*
X146821874Y-98146281D01*
X146741811Y-98187075D01*
X146701778Y-98207473D01*
X146701774Y-98207476D01*
X146606476Y-98302774D01*
X146606473Y-98302778D01*
X146545279Y-98422878D01*
X146529500Y-98522506D01*
X146529500Y-99014108D01*
X146520855Y-99043548D01*
X146514332Y-99073535D01*
X146510577Y-99078550D01*
X146509815Y-99081147D01*
X146493181Y-99101789D01*
X146390589Y-99204381D01*
X146329266Y-99237866D01*
X146302908Y-99240700D01*
X145911092Y-99240700D01*
X145844053Y-99221015D01*
X145823411Y-99204381D01*
X145656218Y-99037188D01*
X145622733Y-98975865D01*
X145619899Y-98949507D01*
X145619899Y-97749670D01*
X145619899Y-97749668D01*
X145603915Y-97669305D01*
X145563410Y-97608685D01*
X145543024Y-97578175D01*
X145488395Y-97541674D01*
X145451895Y-97517285D01*
X145451893Y-97517284D01*
X145451890Y-97517283D01*
X145371535Y-97501300D01*
X145167270Y-97501300D01*
X145086904Y-97517285D01*
X144995775Y-97578175D01*
X144934885Y-97669305D01*
X144934883Y-97669309D01*
X144918900Y-97749662D01*
X144918900Y-99128929D01*
X144934885Y-99209295D01*
X144995775Y-99300424D01*
X145032276Y-99324813D01*
X145086905Y-99361315D01*
X145086908Y-99361315D01*
X145086909Y-99361316D01*
X145127086Y-99369307D01*
X145167267Y-99377300D01*
X145167273Y-99377299D01*
X145173328Y-99377897D01*
X145173090Y-99380304D01*
X145229886Y-99396945D01*
X145250588Y-99413618D01*
X145510795Y-99673825D01*
X145588575Y-99751605D01*
X145690201Y-99793700D01*
X145690202Y-99793700D01*
X146523798Y-99793700D01*
X146523799Y-99793700D01*
X146625425Y-99751605D01*
X146859211Y-99517817D01*
X146920532Y-99484334D01*
X146946891Y-99481500D01*
X147438493Y-99481500D01*
X147538121Y-99465720D01*
X147538121Y-99465719D01*
X147538126Y-99465719D01*
X147658220Y-99404528D01*
X147753528Y-99309220D01*
X147814719Y-99189126D01*
X147818613Y-99164543D01*
X147825492Y-99121108D01*
X149232500Y-99121108D01*
X149232500Y-99252891D01*
X149266608Y-99380187D01*
X149299554Y-99437250D01*
X149332500Y-99494314D01*
X149425686Y-99587500D01*
X149539814Y-99653392D01*
X149667108Y-99687500D01*
X149667110Y-99687500D01*
X149798890Y-99687500D01*
X149798892Y-99687500D01*
X149926186Y-99653392D01*
X150040314Y-99587500D01*
X150133500Y-99494314D01*
X150199392Y-99380186D01*
X150233500Y-99252892D01*
X150233500Y-99121108D01*
X150199392Y-98993814D01*
X150133500Y-98879686D01*
X150040314Y-98786500D01*
X149968756Y-98745186D01*
X149926187Y-98720608D01*
X149862539Y-98703554D01*
X149798892Y-98686500D01*
X149667108Y-98686500D01*
X149539812Y-98720608D01*
X149425686Y-98786500D01*
X149425683Y-98786502D01*
X149332502Y-98879683D01*
X149332500Y-98879686D01*
X149266608Y-98993812D01*
X149232500Y-99121108D01*
X147825492Y-99121108D01*
X147829852Y-99093583D01*
X147829852Y-99093580D01*
X147830500Y-99089489D01*
X147830500Y-98597892D01*
X147850185Y-98530853D01*
X147866819Y-98510211D01*
X147971530Y-98405500D01*
X148113205Y-98263825D01*
X148155300Y-98162199D01*
X148155300Y-98052202D01*
X148155300Y-97430201D01*
X148113205Y-97328575D01*
X148035425Y-97250795D01*
X147630286Y-96845656D01*
X147596801Y-96784333D01*
X147601785Y-96714641D01*
X147603410Y-96710513D01*
X147603911Y-96709300D01*
X147603915Y-96709295D01*
X147619900Y-96628933D01*
X147619899Y-96424668D01*
X147603915Y-96344305D01*
X147603913Y-96344302D01*
X147599241Y-96333022D01*
X147600685Y-96332423D01*
X147583963Y-96279011D01*
X147599917Y-96220856D01*
X147599242Y-96220577D01*
X147601470Y-96215196D01*
X147602449Y-96211631D01*
X147603852Y-96209447D01*
X147603916Y-96209293D01*
X147619899Y-96128936D01*
X147619900Y-96128933D01*
X147619899Y-95950330D01*
X147639583Y-95883291D01*
X147692387Y-95837536D01*
X147761545Y-95827592D01*
X147825101Y-95856617D01*
X147851286Y-95888330D01*
X147860157Y-95903696D01*
X147900406Y-95973408D01*
X147993592Y-96066594D01*
X148107720Y-96132486D01*
X148235014Y-96166594D01*
X148235016Y-96166594D01*
X148366796Y-96166594D01*
X148366798Y-96166594D01*
X148494092Y-96132486D01*
X148608220Y-96066594D01*
X148701406Y-95973408D01*
X148729513Y-95924724D01*
X148780080Y-95876509D01*
X148848687Y-95863286D01*
X148913552Y-95889254D01*
X148954080Y-95946168D01*
X148960900Y-95986725D01*
X148960900Y-96077891D01*
X148995008Y-96205187D01*
X149027954Y-96262250D01*
X149060900Y-96319314D01*
X149154086Y-96412500D01*
X149268214Y-96478392D01*
X149395508Y-96512500D01*
X149395510Y-96512500D01*
X149527290Y-96512500D01*
X149527292Y-96512500D01*
X149654586Y-96478392D01*
X149768714Y-96412500D01*
X149861900Y-96319314D01*
X149927792Y-96205186D01*
X149961900Y-96077892D01*
X149961900Y-95946108D01*
X149927792Y-95818814D01*
X149861900Y-95704686D01*
X149768714Y-95611500D01*
X149689617Y-95565833D01*
X149654587Y-95545608D01*
X149590939Y-95528554D01*
X149527292Y-95511500D01*
X149403292Y-95511500D01*
X149336253Y-95491815D01*
X149315611Y-95475181D01*
X148355411Y-94514981D01*
X148321926Y-94453658D01*
X148326910Y-94383966D01*
X148368782Y-94328033D01*
X148434246Y-94303616D01*
X148443092Y-94303300D01*
X148598198Y-94303300D01*
X148598199Y-94303300D01*
X148699825Y-94261205D01*
X149586405Y-93374625D01*
X149628500Y-93272999D01*
X149628500Y-93163001D01*
X149628500Y-92644108D01*
X156725500Y-92644108D01*
X156725500Y-92775892D01*
X156728501Y-92787093D01*
X156759608Y-92903187D01*
X156772013Y-92924672D01*
X156825500Y-93017314D01*
X156825502Y-93017316D01*
X156875005Y-93066819D01*
X156908490Y-93128142D01*
X156903506Y-93197834D01*
X156875005Y-93242181D01*
X156825502Y-93291683D01*
X156825500Y-93291686D01*
X156759608Y-93405812D01*
X156725500Y-93533108D01*
X156725500Y-93664891D01*
X156759608Y-93792187D01*
X156789699Y-93844305D01*
X156825500Y-93906314D01*
X156918686Y-93999500D01*
X157032814Y-94065392D01*
X157160108Y-94099500D01*
X157160110Y-94099500D01*
X157291890Y-94099500D01*
X157291892Y-94099500D01*
X157419186Y-94065392D01*
X157533314Y-93999500D01*
X157626500Y-93906314D01*
X157692392Y-93792186D01*
X157726500Y-93664892D01*
X157726500Y-93533108D01*
X157692392Y-93405814D01*
X157626500Y-93291686D01*
X157576995Y-93242181D01*
X157543510Y-93180858D01*
X157548494Y-93111166D01*
X157576995Y-93066819D01*
X157591706Y-93052108D01*
X157626500Y-93017314D01*
X157692392Y-92903186D01*
X157726500Y-92775892D01*
X157726500Y-92644108D01*
X157692392Y-92516814D01*
X157626500Y-92402686D01*
X157533314Y-92309500D01*
X157439465Y-92255316D01*
X157419187Y-92243608D01*
X157335475Y-92221178D01*
X157291892Y-92209500D01*
X157160108Y-92209500D01*
X157032812Y-92243608D01*
X156918686Y-92309500D01*
X156918683Y-92309502D01*
X156825502Y-92402683D01*
X156825500Y-92402686D01*
X156759608Y-92516812D01*
X156734394Y-92610913D01*
X156725500Y-92644108D01*
X149628500Y-92644108D01*
X149628500Y-90496001D01*
X149586405Y-90394375D01*
X149523739Y-90331709D01*
X149490254Y-90270386D01*
X149492863Y-90218219D01*
X149491120Y-90217943D01*
X149507499Y-90114524D01*
X149507500Y-90114519D01*
X149507499Y-89501482D01*
X149492646Y-89407696D01*
X149435050Y-89294658D01*
X149435046Y-89294654D01*
X149435045Y-89294652D01*
X149345347Y-89204954D01*
X149345343Y-89204951D01*
X149345342Y-89204950D01*
X149326823Y-89195514D01*
X149240723Y-89151643D01*
X149189928Y-89103669D01*
X149173133Y-89035847D01*
X149195671Y-88969713D01*
X149240720Y-88930677D01*
X149335220Y-88882528D01*
X149430528Y-88787220D01*
X149491719Y-88667126D01*
X149491720Y-88667121D01*
X149507500Y-88567493D01*
X149507500Y-88000506D01*
X149491720Y-87900878D01*
X149491719Y-87900876D01*
X149491719Y-87900874D01*
X149430528Y-87780780D01*
X149430526Y-87780778D01*
X149430523Y-87780774D01*
X149335225Y-87685476D01*
X149335221Y-87685473D01*
X149335220Y-87685472D01*
X149215126Y-87624281D01*
X149215124Y-87624280D01*
X149215121Y-87624279D01*
X149152183Y-87614311D01*
X152280500Y-87614311D01*
X152280500Y-87746094D01*
X152314608Y-87873390D01*
X152330479Y-87900878D01*
X152380500Y-87987517D01*
X152473686Y-88080703D01*
X152587814Y-88146595D01*
X152715108Y-88180703D01*
X152715110Y-88180703D01*
X152846890Y-88180703D01*
X152846892Y-88180703D01*
X152974186Y-88146595D01*
X153088314Y-88080703D01*
X153181500Y-87987517D01*
X153247392Y-87873389D01*
X153281500Y-87746095D01*
X153281500Y-87614311D01*
X153247392Y-87487017D01*
X153247208Y-87486699D01*
X153230048Y-87456976D01*
X153181500Y-87372889D01*
X153088314Y-87279703D01*
X153018282Y-87239270D01*
X152974187Y-87213811D01*
X152910539Y-87196757D01*
X152846892Y-87179703D01*
X152715108Y-87179703D01*
X152587812Y-87213811D01*
X152473686Y-87279703D01*
X152473683Y-87279705D01*
X152380502Y-87372886D01*
X152380500Y-87372889D01*
X152314608Y-87487015D01*
X152280500Y-87614311D01*
X149152183Y-87614311D01*
X149115493Y-87608500D01*
X149115488Y-87608500D01*
X148598512Y-87608500D01*
X148598507Y-87608500D01*
X148498878Y-87624279D01*
X148378778Y-87685473D01*
X148378774Y-87685476D01*
X148283476Y-87780774D01*
X148283473Y-87780778D01*
X148283472Y-87780780D01*
X148230759Y-87884236D01*
X148222279Y-87900878D01*
X148206500Y-88000506D01*
X148206500Y-88567493D01*
X148222279Y-88667121D01*
X148222280Y-88667124D01*
X148222281Y-88667126D01*
X148269873Y-88760530D01*
X148283473Y-88787221D01*
X148283476Y-88787225D01*
X148378774Y-88882523D01*
X148378778Y-88882526D01*
X148378780Y-88882528D01*
X148498874Y-88943719D01*
X148498876Y-88943719D01*
X148507570Y-88948149D01*
X148506446Y-88950354D01*
X148515214Y-88956347D01*
X148537703Y-88966618D01*
X148543552Y-88975720D01*
X148552484Y-88981826D01*
X148562110Y-89004597D01*
X148575477Y-89025396D01*
X148577834Y-89041791D01*
X148579690Y-89046181D01*
X148580500Y-89060331D01*
X148580500Y-89071975D01*
X148560815Y-89139014D01*
X148512797Y-89182459D01*
X148468655Y-89204951D01*
X148378954Y-89294652D01*
X148378951Y-89294657D01*
X148321352Y-89407698D01*
X148306500Y-89501475D01*
X148306500Y-90114517D01*
X148317292Y-90182657D01*
X148321354Y-90208304D01*
X148378950Y-90321342D01*
X148378952Y-90321344D01*
X148378954Y-90321347D01*
X148468652Y-90411045D01*
X148468654Y-90411046D01*
X148468658Y-90411050D01*
X148560147Y-90457666D01*
X148581698Y-90468647D01*
X148675475Y-90483499D01*
X148675481Y-90483500D01*
X148842106Y-90483499D01*
X148871551Y-90492144D01*
X148901534Y-90498667D01*
X148906547Y-90502419D01*
X148909146Y-90503183D01*
X148929788Y-90519818D01*
X149039181Y-90629211D01*
X149072666Y-90690534D01*
X149075500Y-90716892D01*
X149075500Y-93052108D01*
X149055815Y-93119147D01*
X149039181Y-93139789D01*
X148464989Y-93713981D01*
X148403666Y-93747466D01*
X148377308Y-93750300D01*
X147576335Y-93750300D01*
X147509296Y-93730615D01*
X147507444Y-93729402D01*
X147484365Y-93713981D01*
X147451895Y-93692285D01*
X147451893Y-93692284D01*
X147451890Y-93692283D01*
X147371536Y-93676300D01*
X145992270Y-93676300D01*
X145911904Y-93692285D01*
X145820775Y-93753175D01*
X145759885Y-93844305D01*
X145759883Y-93844309D01*
X145743900Y-93924663D01*
X145743900Y-94128929D01*
X145746375Y-94141371D01*
X145759560Y-94207663D01*
X145759886Y-94209298D01*
X145764559Y-94220580D01*
X145763114Y-94221178D01*
X145779836Y-94274588D01*
X145763882Y-94332738D01*
X145764559Y-94333019D01*
X145762326Y-94338409D01*
X145761350Y-94341968D01*
X145759950Y-94344145D01*
X145759884Y-94344305D01*
X145743900Y-94424663D01*
X145743900Y-94628929D01*
X145743901Y-94628932D01*
X145758533Y-94702500D01*
X145759886Y-94709298D01*
X145764559Y-94720580D01*
X145763114Y-94721178D01*
X145779836Y-94774588D01*
X145763882Y-94832738D01*
X145764559Y-94833019D01*
X145762326Y-94838409D01*
X145761350Y-94841968D01*
X145759950Y-94844145D01*
X145759884Y-94844305D01*
X145743900Y-94924663D01*
X145743900Y-95066098D01*
X145724215Y-95133137D01*
X145671411Y-95178892D01*
X145602253Y-95188836D01*
X145544412Y-95164473D01*
X145538716Y-95160102D01*
X145538714Y-95160100D01*
X145481650Y-95127154D01*
X145424587Y-95094208D01*
X145349955Y-95074211D01*
X145297292Y-95060100D01*
X145165508Y-95060100D01*
X145038212Y-95094208D01*
X144924086Y-95160100D01*
X144924083Y-95160102D01*
X144830902Y-95253283D01*
X144830900Y-95253286D01*
X144765008Y-95367412D01*
X144736132Y-95475181D01*
X144730900Y-95494708D01*
X144399000Y-95494708D01*
X144399000Y-91313000D01*
X140589000Y-91313000D01*
X140589000Y-96012000D01*
X140026553Y-96012000D01*
X140114714Y-95961100D01*
X140207900Y-95867914D01*
X140273792Y-95753786D01*
X140307900Y-95626492D01*
X140307900Y-95494708D01*
X140273792Y-95367414D01*
X140207900Y-95253286D01*
X140120218Y-95165604D01*
X140086734Y-95104280D01*
X140083900Y-95077923D01*
X140083900Y-93684803D01*
X140083900Y-93684802D01*
X140041805Y-93583176D01*
X139964025Y-93505396D01*
X139304993Y-92846364D01*
X139271508Y-92785041D01*
X139276492Y-92715349D01*
X139278116Y-92711223D01*
X139278912Y-92709299D01*
X139278915Y-92709295D01*
X139294900Y-92628933D01*
X139294899Y-92424668D01*
X139278915Y-92344305D01*
X139278913Y-92344302D01*
X139274241Y-92333022D01*
X139275685Y-92332423D01*
X139258963Y-92279011D01*
X139274917Y-92220856D01*
X139274242Y-92220577D01*
X139276470Y-92215196D01*
X139277449Y-92211631D01*
X139278852Y-92209447D01*
X139278916Y-92209293D01*
X139288488Y-92161165D01*
X139294900Y-92128933D01*
X139294899Y-91924668D01*
X139289928Y-91899676D01*
X139296157Y-91830086D01*
X139339020Y-91774910D01*
X139362553Y-91761786D01*
X139363419Y-91761207D01*
X139363425Y-91761205D01*
X139655005Y-91469625D01*
X139697100Y-91367999D01*
X139697100Y-91258001D01*
X139697100Y-91176299D01*
X139716785Y-91109260D01*
X139769589Y-91063505D01*
X139821100Y-91052299D01*
X139871530Y-91052299D01*
X139871532Y-91052299D01*
X139951895Y-91036315D01*
X140043024Y-90975424D01*
X140103915Y-90884295D01*
X140119900Y-90803933D01*
X140119899Y-89424668D01*
X140103915Y-89344305D01*
X140066797Y-89288755D01*
X140063760Y-89279055D01*
X140057106Y-89271376D01*
X140047431Y-89226906D01*
X140045920Y-89222078D01*
X140046177Y-89221139D01*
X140045900Y-89219865D01*
X140045900Y-89168402D01*
X140045900Y-89168401D01*
X140003805Y-89066775D01*
X139926025Y-88988995D01*
X139348625Y-88411595D01*
X139246999Y-88369500D01*
X138611999Y-88369500D01*
X138502001Y-88369500D01*
X138502000Y-88369500D01*
X138400373Y-88411596D01*
X138115788Y-88696181D01*
X138054465Y-88729666D01*
X138028107Y-88732500D01*
X137561907Y-88732500D01*
X137462278Y-88748279D01*
X137462274Y-88748280D01*
X137462274Y-88748281D01*
X137438234Y-88760530D01*
X137342178Y-88809473D01*
X137342174Y-88809476D01*
X137246876Y-88904774D01*
X137246873Y-88904778D01*
X137185679Y-89024878D01*
X137169900Y-89124506D01*
X137169900Y-89691493D01*
X137185679Y-89791121D01*
X137185680Y-89791124D01*
X137185681Y-89791126D01*
X137246872Y-89911220D01*
X137246873Y-89911221D01*
X137246876Y-89911225D01*
X137342174Y-90006523D01*
X137342178Y-90006526D01*
X137342180Y-90006528D01*
X137462274Y-90067719D01*
X137462276Y-90067719D01*
X137462278Y-90067720D01*
X137561907Y-90083500D01*
X138044681Y-90083500D01*
X138111720Y-90103185D01*
X138157475Y-90155989D01*
X138167419Y-90225147D01*
X138164456Y-90239588D01*
X138132700Y-90358108D01*
X138132700Y-90489892D01*
X138140719Y-90519818D01*
X138166808Y-90617187D01*
X138190661Y-90658500D01*
X138232700Y-90731314D01*
X138325886Y-90824500D01*
X138440014Y-90890392D01*
X138567308Y-90924500D01*
X138567310Y-90924500D01*
X138699089Y-90924500D01*
X138699092Y-90924500D01*
X138704372Y-90923085D01*
X138774219Y-90924745D01*
X138824148Y-90955178D01*
X138833589Y-90964619D01*
X138867074Y-91025942D01*
X138862090Y-91095634D01*
X138820218Y-91151567D01*
X138754754Y-91175984D01*
X138745908Y-91176300D01*
X137667270Y-91176300D01*
X137586904Y-91192285D01*
X137495774Y-91253176D01*
X137466004Y-91297730D01*
X137412391Y-91342535D01*
X137343066Y-91351241D01*
X137330820Y-91348615D01*
X137225892Y-91320500D01*
X137094108Y-91320500D01*
X136966812Y-91354608D01*
X136852686Y-91420500D01*
X136852683Y-91420502D01*
X136759502Y-91513683D01*
X136759500Y-91513686D01*
X136693608Y-91627812D01*
X136670649Y-91713499D01*
X136659500Y-91755108D01*
X136659500Y-91886892D01*
X136676554Y-91950539D01*
X136693608Y-92014187D01*
X136726554Y-92071250D01*
X136759500Y-92128314D01*
X136759502Y-92128316D01*
X136815247Y-92184061D01*
X136848732Y-92245384D01*
X136843748Y-92315076D01*
X136815249Y-92359422D01*
X136769525Y-92405147D01*
X136703633Y-92519273D01*
X136669525Y-92646569D01*
X136669525Y-92778352D01*
X136703633Y-92905648D01*
X136714617Y-92924672D01*
X136769525Y-93019775D01*
X136769527Y-93019777D01*
X136788369Y-93038619D01*
X136821854Y-93099942D01*
X136816870Y-93169634D01*
X136774998Y-93225567D01*
X136709534Y-93249984D01*
X136700688Y-93250300D01*
X136415200Y-93250300D01*
X136313573Y-93292396D01*
X136192789Y-93413181D01*
X136131466Y-93446666D01*
X136105108Y-93449500D01*
X129959892Y-93449500D01*
X129892853Y-93429815D01*
X129872211Y-93413181D01*
X128552819Y-92093789D01*
X128519334Y-92032466D01*
X128516500Y-92006108D01*
X128516500Y-91882110D01*
X128516500Y-91882108D01*
X128482392Y-91754814D01*
X128416500Y-91640686D01*
X128323314Y-91547500D01*
X128251756Y-91506186D01*
X128209187Y-91481608D01*
X128126666Y-91459497D01*
X128081892Y-91447500D01*
X127950108Y-91447500D01*
X127822812Y-91481608D01*
X127708686Y-91547500D01*
X127708683Y-91547502D01*
X127615502Y-91640683D01*
X127615500Y-91640686D01*
X127549608Y-91754812D01*
X127515500Y-91882108D01*
X126641500Y-91882108D01*
X126641500Y-90993108D01*
X134119500Y-90993108D01*
X134119500Y-91124892D01*
X134133190Y-91175984D01*
X134153608Y-91252187D01*
X134177405Y-91293403D01*
X134219500Y-91366314D01*
X134312686Y-91459500D01*
X134426814Y-91525392D01*
X134554108Y-91559500D01*
X134554110Y-91559500D01*
X134685890Y-91559500D01*
X134685892Y-91559500D01*
X134813186Y-91525392D01*
X134927314Y-91459500D01*
X135020500Y-91366314D01*
X135086392Y-91252186D01*
X135120500Y-91124892D01*
X135120500Y-90993108D01*
X135086392Y-90865814D01*
X135020500Y-90751686D01*
X134927314Y-90658500D01*
X134838341Y-90607131D01*
X134813187Y-90592608D01*
X134720507Y-90567775D01*
X134685892Y-90558500D01*
X134554108Y-90558500D01*
X134426812Y-90592608D01*
X134312686Y-90658500D01*
X134312683Y-90658502D01*
X134219502Y-90751683D01*
X134219500Y-90751686D01*
X134153608Y-90865812D01*
X134124238Y-90975424D01*
X134119500Y-90993108D01*
X126641500Y-90993108D01*
X126641500Y-88975495D01*
X126661185Y-88908456D01*
X126713989Y-88862701D01*
X126783147Y-88852757D01*
X126798760Y-88857043D01*
X126798963Y-88856288D01*
X126806812Y-88858391D01*
X126806814Y-88858392D01*
X126934108Y-88892500D01*
X126934110Y-88892500D01*
X127065890Y-88892500D01*
X127065892Y-88892500D01*
X127193186Y-88858392D01*
X127307314Y-88792500D01*
X127400500Y-88699314D01*
X127466392Y-88585186D01*
X127500500Y-88457892D01*
X127500500Y-88326108D01*
X127466392Y-88198814D01*
X127400500Y-88084686D01*
X127348792Y-88032978D01*
X127338179Y-88013541D01*
X127323679Y-87996808D01*
X127321762Y-87983476D01*
X127315307Y-87971655D01*
X127316886Y-87949568D01*
X127313735Y-87927650D01*
X127319330Y-87915398D01*
X127320291Y-87901963D01*
X127333561Y-87884236D01*
X127342760Y-87864094D01*
X127354091Y-87856811D01*
X127362163Y-87846030D01*
X127382908Y-87838292D01*
X127401538Y-87826320D01*
X127423456Y-87823168D01*
X127427627Y-87821613D01*
X127436473Y-87821297D01*
X127533323Y-87821297D01*
X127600362Y-87840982D01*
X127621004Y-87857615D01*
X127708686Y-87945297D01*
X127822814Y-88011189D01*
X127950108Y-88045297D01*
X127950110Y-88045297D01*
X128081890Y-88045297D01*
X128081892Y-88045297D01*
X128209186Y-88011189D01*
X128323314Y-87945297D01*
X128416500Y-87852111D01*
X128482392Y-87737983D01*
X128516500Y-87610689D01*
X128516500Y-87478905D01*
X128482392Y-87351611D01*
X128481243Y-87349621D01*
X128455422Y-87304897D01*
X128438949Y-87236997D01*
X128459706Y-87174007D01*
X128493772Y-87123026D01*
X128496105Y-87111301D01*
X128505404Y-87064547D01*
X128505405Y-87064545D01*
X128505405Y-85425044D01*
X128505404Y-85425042D01*
X128493773Y-85366565D01*
X128493772Y-85366564D01*
X128449457Y-85300242D01*
X128383135Y-85255927D01*
X128383134Y-85255926D01*
X128324657Y-85244295D01*
X128324653Y-85244295D01*
X125164500Y-85244295D01*
X125097461Y-85224610D01*
X125051706Y-85171806D01*
X125040500Y-85120295D01*
X125040500Y-83017508D01*
X134729100Y-83017508D01*
X134729100Y-83149292D01*
X134742712Y-83200091D01*
X134763208Y-83276585D01*
X134763208Y-83276586D01*
X134791853Y-83326201D01*
X134808325Y-83394101D01*
X134791853Y-83450199D01*
X134763208Y-83499813D01*
X134763208Y-83499814D01*
X134729100Y-83627108D01*
X134729100Y-83758891D01*
X134763208Y-83886187D01*
X134792537Y-83936986D01*
X134829100Y-84000314D01*
X134829102Y-84000316D01*
X134842781Y-84013995D01*
X134876266Y-84075318D01*
X134879100Y-84101676D01*
X134879100Y-85948943D01*
X134896077Y-86012303D01*
X134896077Y-86012304D01*
X134902984Y-86038084D01*
X134902985Y-86038086D01*
X134949127Y-86118008D01*
X134949129Y-86118011D01*
X134949130Y-86118012D01*
X135496987Y-86665869D01*
X135526139Y-86682700D01*
X135543106Y-86692496D01*
X135543107Y-86692497D01*
X135576906Y-86712011D01*
X135576907Y-86712011D01*
X135576912Y-86712014D01*
X135666056Y-86735900D01*
X137830495Y-86735900D01*
X137897534Y-86755585D01*
X137943289Y-86808389D01*
X137953233Y-86877547D01*
X137950270Y-86891991D01*
X137929500Y-86969508D01*
X137929500Y-87101292D01*
X137946554Y-87164939D01*
X137963608Y-87228587D01*
X137986983Y-87269073D01*
X138029500Y-87342714D01*
X138122686Y-87435900D01*
X138236814Y-87501792D01*
X138364108Y-87535900D01*
X138364110Y-87535900D01*
X138488108Y-87535900D01*
X138555147Y-87555585D01*
X138575789Y-87572219D01*
X138771595Y-87768025D01*
X138849375Y-87845805D01*
X138951001Y-87887900D01*
X139515508Y-87887900D01*
X139582547Y-87907585D01*
X139603189Y-87924219D01*
X140456581Y-88777611D01*
X140490066Y-88838934D01*
X140492900Y-88865292D01*
X140492900Y-89219865D01*
X140490349Y-89228550D01*
X140491638Y-89237512D01*
X140480659Y-89261552D01*
X140473215Y-89286904D01*
X140472002Y-89288756D01*
X140434885Y-89344305D01*
X140434883Y-89344309D01*
X140418900Y-89424662D01*
X140418900Y-90803929D01*
X140434885Y-90884295D01*
X140495775Y-90975424D01*
X140529841Y-90998186D01*
X140586905Y-91036315D01*
X140586908Y-91036315D01*
X140586909Y-91036316D01*
X140610709Y-91041050D01*
X140667267Y-91052300D01*
X140871532Y-91052299D01*
X140951895Y-91036315D01*
X140951898Y-91036312D01*
X140963178Y-91031641D01*
X140963776Y-91033086D01*
X141017182Y-91016363D01*
X141075343Y-91032316D01*
X141075623Y-91031642D01*
X141080990Y-91033865D01*
X141084562Y-91034845D01*
X141086751Y-91036251D01*
X141086906Y-91036316D01*
X141140357Y-91046947D01*
X141167267Y-91052300D01*
X141371532Y-91052299D01*
X141451895Y-91036315D01*
X141451898Y-91036312D01*
X141463178Y-91031641D01*
X141463776Y-91033086D01*
X141517182Y-91016363D01*
X141575343Y-91032316D01*
X141575623Y-91031642D01*
X141580990Y-91033865D01*
X141584562Y-91034845D01*
X141586751Y-91036251D01*
X141586906Y-91036316D01*
X141640357Y-91046947D01*
X141667267Y-91052300D01*
X141871532Y-91052299D01*
X141951895Y-91036315D01*
X141951898Y-91036312D01*
X141963178Y-91031641D01*
X141963776Y-91033086D01*
X142017182Y-91016363D01*
X142075343Y-91032316D01*
X142075623Y-91031642D01*
X142080990Y-91033865D01*
X142084562Y-91034845D01*
X142086751Y-91036251D01*
X142086906Y-91036316D01*
X142140357Y-91046947D01*
X142167267Y-91052300D01*
X142371532Y-91052299D01*
X142451895Y-91036315D01*
X142451898Y-91036312D01*
X142463178Y-91031641D01*
X142463776Y-91033086D01*
X142517182Y-91016363D01*
X142575343Y-91032316D01*
X142575623Y-91031642D01*
X142580990Y-91033865D01*
X142584562Y-91034845D01*
X142586751Y-91036251D01*
X142586906Y-91036316D01*
X142640357Y-91046947D01*
X142667267Y-91052300D01*
X142871532Y-91052299D01*
X142951895Y-91036315D01*
X142951898Y-91036312D01*
X142963178Y-91031641D01*
X142963776Y-91033086D01*
X143017182Y-91016363D01*
X143075343Y-91032316D01*
X143075623Y-91031642D01*
X143080990Y-91033865D01*
X143084562Y-91034845D01*
X143086751Y-91036251D01*
X143086906Y-91036316D01*
X143140357Y-91046947D01*
X143167267Y-91052300D01*
X143371532Y-91052299D01*
X143451895Y-91036315D01*
X143451898Y-91036312D01*
X143463178Y-91031641D01*
X143463776Y-91033086D01*
X143517182Y-91016363D01*
X143575343Y-91032316D01*
X143575623Y-91031642D01*
X143580990Y-91033865D01*
X143584562Y-91034845D01*
X143586751Y-91036251D01*
X143586906Y-91036316D01*
X143640357Y-91046947D01*
X143667267Y-91052300D01*
X143871532Y-91052299D01*
X143951895Y-91036315D01*
X143951898Y-91036312D01*
X143963178Y-91031641D01*
X143963776Y-91033086D01*
X144017182Y-91016363D01*
X144075343Y-91032316D01*
X144075623Y-91031642D01*
X144080990Y-91033865D01*
X144084562Y-91034845D01*
X144086751Y-91036251D01*
X144086906Y-91036316D01*
X144140357Y-91046947D01*
X144167267Y-91052300D01*
X144371532Y-91052299D01*
X144451895Y-91036315D01*
X144451898Y-91036312D01*
X144463178Y-91031641D01*
X144463776Y-91033086D01*
X144517182Y-91016363D01*
X144575343Y-91032316D01*
X144575623Y-91031642D01*
X144580990Y-91033865D01*
X144584562Y-91034845D01*
X144586751Y-91036251D01*
X144586906Y-91036316D01*
X144640357Y-91046947D01*
X144667267Y-91052300D01*
X144871532Y-91052299D01*
X144928087Y-91041050D01*
X144997676Y-91047279D01*
X145039956Y-91074987D01*
X145157255Y-91192285D01*
X145258375Y-91293405D01*
X145360001Y-91335500D01*
X145469998Y-91335500D01*
X145619900Y-91335500D01*
X145686939Y-91355185D01*
X145732694Y-91407989D01*
X145743900Y-91459499D01*
X145743900Y-91628929D01*
X145759886Y-91709298D01*
X145764559Y-91720580D01*
X145763114Y-91721178D01*
X145779836Y-91774588D01*
X145763882Y-91832738D01*
X145764559Y-91833019D01*
X145762326Y-91838409D01*
X145761350Y-91841968D01*
X145759950Y-91844145D01*
X145759884Y-91844305D01*
X145743900Y-91924663D01*
X145743900Y-92128929D01*
X145759886Y-92209298D01*
X145764559Y-92220580D01*
X145763114Y-92221178D01*
X145779836Y-92274588D01*
X145763882Y-92332738D01*
X145764559Y-92333019D01*
X145762326Y-92338409D01*
X145761350Y-92341968D01*
X145759950Y-92344145D01*
X145759884Y-92344305D01*
X145743900Y-92424663D01*
X145743900Y-92526098D01*
X145724215Y-92593137D01*
X145671411Y-92638892D01*
X145602253Y-92648836D01*
X145544412Y-92624473D01*
X145538716Y-92620102D01*
X145538714Y-92620100D01*
X145481650Y-92587154D01*
X145424587Y-92554208D01*
X145360939Y-92537154D01*
X145297292Y-92520100D01*
X145165508Y-92520100D01*
X145038212Y-92554208D01*
X144924086Y-92620100D01*
X144924083Y-92620102D01*
X144830902Y-92713283D01*
X144830900Y-92713286D01*
X144765008Y-92827412D01*
X144730900Y-92954708D01*
X144730900Y-93086491D01*
X144765008Y-93213787D01*
X144781402Y-93242181D01*
X144830900Y-93327914D01*
X144924086Y-93421100D01*
X145038214Y-93486992D01*
X145165508Y-93521100D01*
X145165510Y-93521100D01*
X145297290Y-93521100D01*
X145297292Y-93521100D01*
X145424586Y-93486992D01*
X145538714Y-93421100D01*
X145546195Y-93413619D01*
X145607518Y-93380134D01*
X145633876Y-93377300D01*
X146752707Y-93377300D01*
X146752711Y-93377299D01*
X147371530Y-93377299D01*
X147371532Y-93377299D01*
X147451895Y-93361315D01*
X147543024Y-93300424D01*
X147603915Y-93209295D01*
X147619900Y-93128933D01*
X147619899Y-92924668D01*
X147619898Y-92924664D01*
X147619343Y-92919031D01*
X147632357Y-92850384D01*
X147680418Y-92799670D01*
X147748268Y-92782991D01*
X147774834Y-92787092D01*
X147838308Y-92804100D01*
X147838310Y-92804100D01*
X147970090Y-92804100D01*
X147970092Y-92804100D01*
X148097386Y-92769992D01*
X148211514Y-92704100D01*
X148304700Y-92610914D01*
X148370592Y-92496786D01*
X148404700Y-92369492D01*
X148404700Y-92237708D01*
X148370592Y-92110414D01*
X148304700Y-91996286D01*
X148224174Y-91915760D01*
X148190689Y-91854437D01*
X148195673Y-91784745D01*
X148237545Y-91728812D01*
X148249843Y-91720699D01*
X148262314Y-91713500D01*
X148355500Y-91620314D01*
X148421392Y-91506186D01*
X148455500Y-91378892D01*
X148455500Y-91247108D01*
X148421392Y-91119814D01*
X148355500Y-91005686D01*
X148262314Y-90912500D01*
X148190247Y-90870892D01*
X148148187Y-90846608D01*
X148065666Y-90824497D01*
X148020892Y-90812500D01*
X147976959Y-90812500D01*
X147909920Y-90792815D01*
X147864165Y-90740011D01*
X147857184Y-90720593D01*
X147856251Y-90717110D01*
X147856251Y-90717108D01*
X147822143Y-90589814D01*
X147757871Y-90478491D01*
X147741399Y-90410596D01*
X147764251Y-90344569D01*
X147777581Y-90328811D01*
X147785050Y-90321342D01*
X147842646Y-90208304D01*
X147842646Y-90208302D01*
X147842647Y-90208301D01*
X147857499Y-90114524D01*
X147857500Y-90114519D01*
X147857499Y-89501482D01*
X147842646Y-89407696D01*
X147785050Y-89294658D01*
X147785046Y-89294654D01*
X147785045Y-89294652D01*
X147695347Y-89204954D01*
X147695344Y-89204952D01*
X147695342Y-89204950D01*
X147590722Y-89151643D01*
X147582301Y-89147352D01*
X147488524Y-89132500D01*
X147488519Y-89132500D01*
X147334340Y-89132500D01*
X147267301Y-89112815D01*
X147221546Y-89060011D01*
X147214566Y-89040598D01*
X147202192Y-88994414D01*
X147136300Y-88880286D01*
X147043114Y-88787100D01*
X146975874Y-88748279D01*
X146928987Y-88721208D01*
X146847283Y-88699316D01*
X146801692Y-88687100D01*
X146669908Y-88687100D01*
X146542612Y-88721208D01*
X146428486Y-88787100D01*
X146428483Y-88787102D01*
X146335302Y-88880283D01*
X146335300Y-88880286D01*
X146269408Y-88994412D01*
X146235300Y-89121708D01*
X146235300Y-89253491D01*
X146269408Y-89380787D01*
X146302354Y-89437850D01*
X146335300Y-89494914D01*
X146428486Y-89588100D01*
X146542614Y-89653992D01*
X146564593Y-89659881D01*
X146624252Y-89696242D01*
X146654783Y-89759089D01*
X146656500Y-89779655D01*
X146656500Y-90114517D01*
X146667292Y-90182657D01*
X146671354Y-90208304D01*
X146728950Y-90321342D01*
X146728952Y-90321344D01*
X146728954Y-90321347D01*
X146818652Y-90411045D01*
X146818656Y-90411048D01*
X146818658Y-90411050D01*
X146836610Y-90420197D01*
X146887405Y-90468170D01*
X146904201Y-90535990D01*
X146899241Y-90565790D01*
X146895067Y-90579926D01*
X146889359Y-90589814D01*
X146861945Y-90692124D01*
X146861507Y-90693609D01*
X146843388Y-90721710D01*
X146825991Y-90750254D01*
X146824527Y-90750964D01*
X146823647Y-90752331D01*
X146793211Y-90766177D01*
X146763144Y-90780783D01*
X146760648Y-90780991D01*
X146760049Y-90781264D01*
X146759076Y-90781122D01*
X146742581Y-90782500D01*
X145743900Y-90782500D01*
X145676861Y-90762815D01*
X145631106Y-90710011D01*
X145619900Y-90658500D01*
X145619899Y-89424670D01*
X145619899Y-89424668D01*
X145603915Y-89344305D01*
X145545900Y-89257480D01*
X145543024Y-89253175D01*
X145485606Y-89214810D01*
X145451895Y-89192285D01*
X145451893Y-89192284D01*
X145451890Y-89192283D01*
X145371536Y-89176300D01*
X145169900Y-89176300D01*
X145102861Y-89156615D01*
X145057106Y-89103811D01*
X145045900Y-89052300D01*
X145045900Y-88395496D01*
X145065585Y-88328457D01*
X145082219Y-88307815D01*
X145415015Y-87975019D01*
X145476338Y-87941534D01*
X145502696Y-87938700D01*
X145945798Y-87938700D01*
X145945799Y-87938700D01*
X146047425Y-87896605D01*
X146362251Y-87581777D01*
X146423573Y-87548294D01*
X146483404Y-87552572D01*
X146483963Y-87550488D01*
X146491812Y-87552591D01*
X146491814Y-87552592D01*
X146619108Y-87586700D01*
X146619110Y-87586700D01*
X146750890Y-87586700D01*
X146750892Y-87586700D01*
X146878186Y-87552592D01*
X146992314Y-87486700D01*
X147085500Y-87393514D01*
X147151392Y-87279386D01*
X147185500Y-87152092D01*
X147185500Y-87020308D01*
X147164730Y-86942792D01*
X147166393Y-86872943D01*
X147205556Y-86815081D01*
X147269784Y-86787577D01*
X147284505Y-86786700D01*
X149982342Y-86786700D01*
X149982344Y-86786700D01*
X149995298Y-86783229D01*
X153729501Y-86783229D01*
X153729501Y-86915013D01*
X153736945Y-86942793D01*
X153763609Y-87042308D01*
X153776447Y-87064543D01*
X153829501Y-87156435D01*
X153922687Y-87249621D01*
X154036815Y-87315513D01*
X154164109Y-87349621D01*
X154164111Y-87349621D01*
X154288109Y-87349621D01*
X154355148Y-87369306D01*
X154375790Y-87385940D01*
X154954481Y-87964631D01*
X154987966Y-88025954D01*
X154990800Y-88052312D01*
X154990800Y-89455507D01*
X154971115Y-89522546D01*
X154918311Y-89568301D01*
X154898898Y-89575280D01*
X154850114Y-89588352D01*
X154850112Y-89588352D01*
X154850112Y-89588353D01*
X154735986Y-89654244D01*
X154735983Y-89654246D01*
X154642802Y-89747427D01*
X154642800Y-89747430D01*
X154576908Y-89861556D01*
X154542800Y-89988852D01*
X154542800Y-90120635D01*
X154576908Y-90247931D01*
X154589336Y-90269456D01*
X154642800Y-90362058D01*
X154735986Y-90455244D01*
X154792647Y-90487957D01*
X154840862Y-90538524D01*
X154854086Y-90607131D01*
X154850422Y-90627435D01*
X154820500Y-90739108D01*
X154820500Y-90870892D01*
X154825725Y-90890391D01*
X154854608Y-90998187D01*
X154882952Y-91047279D01*
X154920500Y-91112314D01*
X155013686Y-91205500D01*
X155127814Y-91271392D01*
X155255108Y-91305500D01*
X155255110Y-91305500D01*
X155386890Y-91305500D01*
X155386892Y-91305500D01*
X155514186Y-91271392D01*
X155628314Y-91205500D01*
X155721500Y-91112314D01*
X155787392Y-90998186D01*
X155821500Y-90870892D01*
X155821500Y-90746891D01*
X155841185Y-90679852D01*
X155849821Y-90669134D01*
X155853697Y-90663332D01*
X155853705Y-90663325D01*
X155895800Y-90561699D01*
X155895800Y-90451701D01*
X155895800Y-87111301D01*
X155853705Y-87009675D01*
X155775925Y-86931895D01*
X154841819Y-85997789D01*
X154808334Y-85936466D01*
X154805500Y-85910108D01*
X154805500Y-85786110D01*
X154805500Y-85786108D01*
X154771392Y-85658814D01*
X154705500Y-85544686D01*
X154612314Y-85451500D01*
X154552186Y-85416785D01*
X154498187Y-85385608D01*
X154426470Y-85366392D01*
X154370892Y-85351500D01*
X154239108Y-85351500D01*
X154111812Y-85385608D01*
X153997686Y-85451500D01*
X153997683Y-85451502D01*
X153904502Y-85544683D01*
X153904500Y-85544686D01*
X153838608Y-85658812D01*
X153811136Y-85761341D01*
X153804500Y-85786108D01*
X153804500Y-85917892D01*
X153809945Y-85938212D01*
X153838608Y-86045187D01*
X153861999Y-86085700D01*
X153904500Y-86159314D01*
X153904502Y-86159316D01*
X153980301Y-86235115D01*
X154013786Y-86296438D01*
X154008802Y-86366130D01*
X153966930Y-86422063D01*
X153954623Y-86430181D01*
X153922693Y-86448616D01*
X153922684Y-86448623D01*
X153829503Y-86541804D01*
X153829501Y-86541807D01*
X153763609Y-86655933D01*
X153740837Y-86740923D01*
X153729501Y-86783229D01*
X149995298Y-86783229D01*
X150071488Y-86762814D01*
X150078267Y-86758900D01*
X150151412Y-86716670D01*
X150623069Y-86245012D01*
X150669214Y-86165088D01*
X150673360Y-86149614D01*
X150679024Y-86128479D01*
X150686061Y-86102212D01*
X150693100Y-86075944D01*
X150693100Y-84152476D01*
X150712785Y-84085437D01*
X150729419Y-84064795D01*
X150743100Y-84051114D01*
X150808992Y-83936986D01*
X150843100Y-83809692D01*
X150843100Y-83677908D01*
X150808992Y-83550614D01*
X150780348Y-83501001D01*
X150763874Y-83433101D01*
X150780348Y-83376999D01*
X150808989Y-83327391D01*
X150808988Y-83327391D01*
X150808992Y-83327386D01*
X150843100Y-83200092D01*
X150843100Y-83068308D01*
X150808992Y-82941014D01*
X150743100Y-82826886D01*
X150649914Y-82733700D01*
X150561930Y-82682902D01*
X150535787Y-82667808D01*
X150472139Y-82650754D01*
X150408492Y-82633700D01*
X150276708Y-82633700D01*
X150149412Y-82667808D01*
X150035286Y-82733700D01*
X150035283Y-82733702D01*
X149942102Y-82826883D01*
X149942100Y-82826886D01*
X149876208Y-82941012D01*
X149855711Y-83017510D01*
X149842100Y-83068308D01*
X149842100Y-83200092D01*
X149875891Y-83326201D01*
X149876208Y-83327385D01*
X149876208Y-83327386D01*
X149904853Y-83377001D01*
X149921325Y-83444901D01*
X149904853Y-83500999D01*
X149876208Y-83550613D01*
X149876208Y-83550614D01*
X149842100Y-83677908D01*
X149842100Y-83809691D01*
X149876208Y-83936987D01*
X149909154Y-83994050D01*
X149942100Y-84051114D01*
X149942102Y-84051116D01*
X149955781Y-84064795D01*
X149989266Y-84126118D01*
X149992100Y-84152476D01*
X149992100Y-85833256D01*
X149983455Y-85862696D01*
X149976932Y-85892683D01*
X149973177Y-85897698D01*
X149972415Y-85900295D01*
X149955781Y-85920937D01*
X149827337Y-86049381D01*
X149766014Y-86082866D01*
X149739656Y-86085700D01*
X145006859Y-86085700D01*
X144939820Y-86066015D01*
X144894065Y-86013211D01*
X144887084Y-85993794D01*
X144872192Y-85938214D01*
X144840660Y-85883600D01*
X144824188Y-85815702D01*
X144840661Y-85759601D01*
X144872192Y-85704988D01*
X144906300Y-85577694D01*
X144906300Y-85485205D01*
X144925985Y-85418166D01*
X144978789Y-85372411D01*
X145030300Y-85361205D01*
X146069555Y-85361205D01*
X146069556Y-85361204D01*
X146095761Y-85355992D01*
X146128034Y-85349573D01*
X146128034Y-85349572D01*
X146128036Y-85349572D01*
X146194357Y-85305257D01*
X146238672Y-85238936D01*
X146238672Y-85238934D01*
X146238673Y-85238934D01*
X146250304Y-85180457D01*
X146250305Y-85180455D01*
X146250305Y-81640954D01*
X146250304Y-81640952D01*
X146238673Y-81582475D01*
X146238672Y-81582473D01*
X146237558Y-81580806D01*
X146236883Y-81578651D01*
X146235201Y-81577142D01*
X146226488Y-81545458D01*
X146216678Y-81514130D01*
X146217088Y-81511271D01*
X146216676Y-81509773D01*
X146218642Y-81500437D01*
X146222301Y-81474930D01*
X146225494Y-81464708D01*
X146227490Y-81461142D01*
X146229351Y-81454803D01*
X146835100Y-81454803D01*
X146835100Y-85067607D01*
X146839796Y-85111280D01*
X146839797Y-85111287D01*
X146846471Y-85141962D01*
X146849305Y-85168322D01*
X146849305Y-85180457D01*
X146860936Y-85238934D01*
X146860937Y-85238935D01*
X146905252Y-85305257D01*
X146947177Y-85333270D01*
X146971574Y-85349572D01*
X147003856Y-85355992D01*
X147033084Y-85366767D01*
X147033242Y-85366392D01*
X147039658Y-85369087D01*
X147039663Y-85369090D01*
X147084523Y-85382262D01*
X147106694Y-85388773D01*
X147106696Y-85388773D01*
X147106702Y-85388775D01*
X147164600Y-85397100D01*
X147164604Y-85397100D01*
X148719991Y-85397100D01*
X148720000Y-85397100D01*
X148763684Y-85392403D01*
X148794919Y-85385608D01*
X148815174Y-85381202D01*
X148815190Y-85381198D01*
X148815195Y-85381197D01*
X148825373Y-85378710D01*
X148906085Y-85335700D01*
X148958889Y-85289945D01*
X148976843Y-85272354D01*
X149021490Y-85192537D01*
X149041175Y-85125498D01*
X149049500Y-85067600D01*
X149049500Y-81454800D01*
X149044803Y-81411116D01*
X149040897Y-81393164D01*
X149033602Y-81359625D01*
X149033348Y-81358589D01*
X149031110Y-81349427D01*
X148988100Y-81268715D01*
X148942345Y-81215911D01*
X148942339Y-81215904D01*
X148924757Y-81197960D01*
X148924756Y-81197959D01*
X148924754Y-81197957D01*
X148924752Y-81197956D01*
X148924750Y-81197954D01*
X148844940Y-81153311D01*
X148844935Y-81153309D01*
X148777903Y-81133626D01*
X148777899Y-81133625D01*
X148777898Y-81133625D01*
X148720000Y-81125300D01*
X147164600Y-81125300D01*
X147164592Y-81125300D01*
X147120913Y-81129997D01*
X147069425Y-81141197D01*
X147059227Y-81143690D01*
X147059224Y-81143691D01*
X146978516Y-81186699D01*
X146978513Y-81186701D01*
X146925704Y-81232460D01*
X146907760Y-81250042D01*
X146907754Y-81250049D01*
X146863111Y-81329859D01*
X146863109Y-81329864D01*
X146843426Y-81396896D01*
X146843425Y-81396901D01*
X146843425Y-81396902D01*
X146835102Y-81454792D01*
X146835100Y-81454803D01*
X146229351Y-81454803D01*
X146247175Y-81394103D01*
X146255500Y-81336205D01*
X146255500Y-80554038D01*
X153939500Y-80554038D01*
X153939500Y-80805961D01*
X153978910Y-81054785D01*
X154056760Y-81294383D01*
X154107575Y-81394112D01*
X154170738Y-81518076D01*
X154171132Y-81518848D01*
X154319201Y-81722649D01*
X154319205Y-81722654D01*
X154497345Y-81900794D01*
X154497350Y-81900798D01*
X154675117Y-82029952D01*
X154701155Y-82048870D01*
X154844184Y-82121747D01*
X154925616Y-82163239D01*
X154925618Y-82163239D01*
X154925621Y-82163241D01*
X155165215Y-82241090D01*
X155414038Y-82280500D01*
X155414039Y-82280500D01*
X155665961Y-82280500D01*
X155665962Y-82280500D01*
X155914785Y-82241090D01*
X156154379Y-82163241D01*
X156378845Y-82048870D01*
X156582656Y-81900793D01*
X156760793Y-81722656D01*
X156908870Y-81518845D01*
X157023241Y-81294379D01*
X157101090Y-81054785D01*
X157140500Y-80805962D01*
X157140500Y-80554038D01*
X157101090Y-80305215D01*
X157023241Y-80065621D01*
X157023239Y-80065618D01*
X157023239Y-80065616D01*
X156958332Y-79938230D01*
X156908870Y-79841155D01*
X156808267Y-79702686D01*
X156760798Y-79637350D01*
X156760794Y-79637345D01*
X156582654Y-79459205D01*
X156582649Y-79459201D01*
X156378848Y-79311132D01*
X156378847Y-79311131D01*
X156378845Y-79311130D01*
X156279627Y-79260576D01*
X156154383Y-79196760D01*
X155914785Y-79118910D01*
X155665962Y-79079500D01*
X155414038Y-79079500D01*
X155345850Y-79090300D01*
X155165214Y-79118910D01*
X154925616Y-79196760D01*
X154701151Y-79311132D01*
X154497350Y-79459201D01*
X154497345Y-79459205D01*
X154319205Y-79637345D01*
X154319201Y-79637350D01*
X154171132Y-79841151D01*
X154056760Y-80065616D01*
X153978910Y-80305214D01*
X153939500Y-80554038D01*
X146255500Y-80554038D01*
X146255500Y-80235600D01*
X146250803Y-80191916D01*
X146246897Y-80173964D01*
X146239602Y-80140425D01*
X146239348Y-80139389D01*
X146237110Y-80130227D01*
X146194100Y-80049515D01*
X146148345Y-79996711D01*
X146148339Y-79996704D01*
X146130757Y-79978760D01*
X146130756Y-79978759D01*
X146130754Y-79978757D01*
X146130752Y-79978756D01*
X146130750Y-79978754D01*
X146050940Y-79934111D01*
X146050935Y-79934109D01*
X145983903Y-79914426D01*
X145983899Y-79914425D01*
X145983898Y-79914425D01*
X145926000Y-79906100D01*
X143176800Y-79906100D01*
X143176792Y-79906100D01*
X143133113Y-79910797D01*
X143081625Y-79921997D01*
X143071427Y-79924490D01*
X143071424Y-79924491D01*
X142990716Y-79967499D01*
X142990713Y-79967501D01*
X142937904Y-80013260D01*
X142919960Y-80030842D01*
X142919954Y-80030849D01*
X142875311Y-80110659D01*
X142875309Y-80110664D01*
X142855626Y-80177696D01*
X142855625Y-80177701D01*
X142855625Y-80177702D01*
X142847302Y-80235592D01*
X142847300Y-80235603D01*
X142847300Y-80750693D01*
X142827615Y-80817732D01*
X142774811Y-80863487D01*
X142705653Y-80873431D01*
X142691207Y-80870468D01*
X142636092Y-80855700D01*
X142504308Y-80855700D01*
X142377012Y-80889808D01*
X142262886Y-80955700D01*
X142262883Y-80955702D01*
X142169702Y-81048883D01*
X142169695Y-81048892D01*
X142151458Y-81080479D01*
X142100890Y-81128693D01*
X142032282Y-81141914D01*
X142009140Y-81137454D01*
X141996105Y-81133626D01*
X141995456Y-81133532D01*
X141938200Y-81125300D01*
X140382800Y-81125300D01*
X140382792Y-81125300D01*
X140339113Y-81129997D01*
X140287625Y-81141197D01*
X140277427Y-81143690D01*
X140277424Y-81143691D01*
X140196716Y-81186699D01*
X140196713Y-81186701D01*
X140143904Y-81232460D01*
X140125960Y-81250042D01*
X140125954Y-81250049D01*
X140081311Y-81329859D01*
X140081306Y-81329872D01*
X140069188Y-81371142D01*
X140031413Y-81429919D01*
X139967857Y-81458943D01*
X139950212Y-81460205D01*
X139147807Y-81460205D01*
X139080768Y-81440520D01*
X139035013Y-81387716D01*
X139026640Y-81362560D01*
X139025998Y-81359610D01*
X139025997Y-81359605D01*
X139023510Y-81349427D01*
X138980500Y-81268715D01*
X138934745Y-81215911D01*
X138934739Y-81215904D01*
X138917157Y-81197960D01*
X138917156Y-81197959D01*
X138917154Y-81197957D01*
X138917152Y-81197956D01*
X138917150Y-81197954D01*
X138837340Y-81153311D01*
X138837335Y-81153309D01*
X138770303Y-81133626D01*
X138770299Y-81133625D01*
X138770298Y-81133625D01*
X138712400Y-81125300D01*
X137157000Y-81125300D01*
X137156992Y-81125300D01*
X137113313Y-81129997D01*
X137061825Y-81141197D01*
X137051627Y-81143690D01*
X137051624Y-81143691D01*
X136970916Y-81186699D01*
X136970913Y-81186701D01*
X136918104Y-81232460D01*
X136900160Y-81250042D01*
X136900154Y-81250049D01*
X136855511Y-81329859D01*
X136855509Y-81329864D01*
X136835826Y-81396896D01*
X136835825Y-81396901D01*
X136835825Y-81396902D01*
X136827502Y-81454792D01*
X136827500Y-81454803D01*
X136827500Y-85067607D01*
X136832197Y-85111286D01*
X136843400Y-85162784D01*
X136845890Y-85172974D01*
X136846186Y-85173749D01*
X136851953Y-85193770D01*
X136860937Y-85238934D01*
X136860937Y-85238935D01*
X136905252Y-85305257D01*
X136947177Y-85333270D01*
X136971574Y-85349572D01*
X136992060Y-85353646D01*
X137028406Y-85367045D01*
X137032059Y-85369088D01*
X137032063Y-85369090D01*
X137076923Y-85382262D01*
X137099094Y-85388773D01*
X137099096Y-85388773D01*
X137099102Y-85388775D01*
X137157000Y-85397100D01*
X137157004Y-85397100D01*
X138712391Y-85397100D01*
X138712400Y-85397100D01*
X138756084Y-85392403D01*
X138787319Y-85385608D01*
X138807574Y-85381202D01*
X138807590Y-85381198D01*
X138807595Y-85381197D01*
X138817773Y-85378710D01*
X138864132Y-85354005D01*
X138932547Y-85339850D01*
X138969903Y-85348879D01*
X138971570Y-85349569D01*
X138971574Y-85349572D01*
X138971578Y-85349572D01*
X138971581Y-85349574D01*
X139030052Y-85361204D01*
X139030055Y-85361205D01*
X139030057Y-85361205D01*
X140069553Y-85361205D01*
X140114541Y-85352256D01*
X140184130Y-85358482D01*
X140239308Y-85401344D01*
X140262554Y-85467234D01*
X140259749Y-85494099D01*
X140260561Y-85494206D01*
X140259500Y-85502260D01*
X140259500Y-85502262D01*
X140259500Y-85634046D01*
X140288456Y-85742110D01*
X140293608Y-85761339D01*
X140293608Y-85761340D01*
X140323536Y-85813178D01*
X140326365Y-85824841D01*
X140333328Y-85834619D01*
X140334450Y-85858170D01*
X140340007Y-85881079D01*
X140336164Y-85894164D01*
X140336653Y-85904409D01*
X140323536Y-85937175D01*
X140302912Y-85972898D01*
X140252346Y-86021115D01*
X140195524Y-86034900D01*
X135908744Y-86034900D01*
X135841705Y-86015215D01*
X135821063Y-85998581D01*
X135616419Y-85793937D01*
X135582934Y-85732614D01*
X135580100Y-85706256D01*
X135580100Y-84101676D01*
X135599785Y-84034637D01*
X135616419Y-84013995D01*
X135630100Y-84000314D01*
X135695992Y-83886186D01*
X135730100Y-83758892D01*
X135730100Y-83627108D01*
X135695992Y-83499814D01*
X135667348Y-83450201D01*
X135650874Y-83382301D01*
X135667348Y-83326199D01*
X135695989Y-83276591D01*
X135695988Y-83276591D01*
X135695992Y-83276586D01*
X135730100Y-83149292D01*
X135730100Y-83017508D01*
X135695992Y-82890214D01*
X135630100Y-82776086D01*
X135536914Y-82682900D01*
X135479850Y-82649954D01*
X135422787Y-82617008D01*
X135359139Y-82599954D01*
X135295492Y-82582900D01*
X135163708Y-82582900D01*
X135036412Y-82617008D01*
X134922286Y-82682900D01*
X134922283Y-82682902D01*
X134829102Y-82776083D01*
X134829100Y-82776086D01*
X134763208Y-82890212D01*
X134749597Y-82941012D01*
X134729100Y-83017508D01*
X125040500Y-83017508D01*
X125040500Y-80554038D01*
X127939500Y-80554038D01*
X127939500Y-80805961D01*
X127978910Y-81054785D01*
X128056760Y-81294383D01*
X128107575Y-81394112D01*
X128170738Y-81518076D01*
X128171132Y-81518848D01*
X128319201Y-81722649D01*
X128319205Y-81722654D01*
X128497345Y-81900794D01*
X128497350Y-81900798D01*
X128675117Y-82029952D01*
X128701155Y-82048870D01*
X128844184Y-82121747D01*
X128925616Y-82163239D01*
X128925618Y-82163239D01*
X128925621Y-82163241D01*
X129165215Y-82241090D01*
X129414038Y-82280500D01*
X129414039Y-82280500D01*
X129665961Y-82280500D01*
X129665962Y-82280500D01*
X129914785Y-82241090D01*
X130154379Y-82163241D01*
X130378845Y-82048870D01*
X130582656Y-81900793D01*
X130760793Y-81722656D01*
X130908870Y-81518845D01*
X131023241Y-81294379D01*
X131101090Y-81054785D01*
X131140500Y-80805962D01*
X131140500Y-80554038D01*
X131101090Y-80305215D01*
X131023241Y-80065621D01*
X131023239Y-80065618D01*
X131023239Y-80065616D01*
X130958332Y-79938230D01*
X130908870Y-79841155D01*
X130808267Y-79702686D01*
X130760798Y-79637350D01*
X130760794Y-79637345D01*
X130582654Y-79459205D01*
X130582649Y-79459201D01*
X130378848Y-79311132D01*
X130378847Y-79311131D01*
X130378845Y-79311130D01*
X130279627Y-79260576D01*
X130154383Y-79196760D01*
X129914785Y-79118910D01*
X129665962Y-79079500D01*
X129414038Y-79079500D01*
X129345850Y-79090300D01*
X129165214Y-79118910D01*
X128925616Y-79196760D01*
X128701151Y-79311132D01*
X128497350Y-79459201D01*
X128497345Y-79459205D01*
X128319205Y-79637345D01*
X128319201Y-79637350D01*
X128171132Y-79841151D01*
X128056760Y-80065616D01*
X127978910Y-80305214D01*
X127939500Y-80554038D01*
X125040500Y-80554038D01*
X125040500Y-80275690D01*
X125040649Y-80269608D01*
X125043911Y-80203186D01*
X125053579Y-80006345D01*
X125054203Y-79998623D01*
X125061007Y-79938230D01*
X125061549Y-79934077D01*
X125096244Y-79700155D01*
X125098001Y-79690810D01*
X125105053Y-79659908D01*
X125105593Y-79657656D01*
X125168169Y-79407822D01*
X125171695Y-79396201D01*
X125266761Y-79130499D01*
X125271412Y-79119271D01*
X125392061Y-78864172D01*
X125397783Y-78853468D01*
X125530247Y-78632456D01*
X125531355Y-78630652D01*
X125548285Y-78603707D01*
X125553619Y-78595903D01*
X125694478Y-78405974D01*
X125697023Y-78402664D01*
X125734986Y-78355059D01*
X125739966Y-78349203D01*
X125916597Y-78154318D01*
X125920755Y-78149951D01*
X127009517Y-77061189D01*
X127013883Y-77057031D01*
X127209891Y-76879383D01*
X127215798Y-76874360D01*
X127261333Y-76838048D01*
X127264667Y-76835484D01*
X127456520Y-76693199D01*
X127464343Y-76687851D01*
X127488191Y-76672867D01*
X127490224Y-76671620D01*
X127713478Y-76537809D01*
X127724182Y-76532088D01*
X127979294Y-76411433D01*
X127990498Y-76406792D01*
X128256205Y-76311724D01*
X128267836Y-76308196D01*
X128520331Y-76244953D01*
X128522574Y-76244416D01*
X128550079Y-76238138D01*
X128559418Y-76236383D01*
X128795646Y-76201345D01*
X128799856Y-76200796D01*
X128857727Y-76194276D01*
X128865463Y-76193650D01*
X129130207Y-76180648D01*
X129136270Y-76180500D01*
X134025305Y-76180500D01*
X134092344Y-76200185D01*
G37*
%TD.AperFunction*%
%TD*%
%TA.AperFunction,Conductor*%
%TO.N,/H_BRID/MOTOR_OUT_B+*%
G36*
X138779439Y-81350485D02*
G01*
X138825194Y-81403289D01*
X138836400Y-81454800D01*
X138836400Y-85067600D01*
X138816715Y-85134639D01*
X138763911Y-85180394D01*
X138712400Y-85191600D01*
X137157000Y-85191600D01*
X137089961Y-85171915D01*
X137044206Y-85119111D01*
X137033000Y-85067600D01*
X137033000Y-81454800D01*
X137052685Y-81387761D01*
X137105489Y-81342006D01*
X137157000Y-81330800D01*
X138712400Y-81330800D01*
X138779439Y-81350485D01*
G37*
%TD.AperFunction*%
%TD*%
%TA.AperFunction,Conductor*%
%TO.N,/H_BRID/MOTOR_OUT_A-*%
G36*
X148787039Y-81350485D02*
G01*
X148832794Y-81403289D01*
X148844000Y-81454800D01*
X148844000Y-85067600D01*
X148824315Y-85134639D01*
X148771511Y-85180394D01*
X148720000Y-85191600D01*
X147164600Y-85191600D01*
X147097561Y-85171915D01*
X147051806Y-85119111D01*
X147040600Y-85067600D01*
X147040600Y-81454800D01*
X147060285Y-81387761D01*
X147113089Y-81342006D01*
X147164600Y-81330800D01*
X148720000Y-81330800D01*
X148787039Y-81350485D01*
G37*
%TD.AperFunction*%
%TD*%
%TA.AperFunction,Conductor*%
%TO.N,+24V*%
G36*
X134029639Y-94202885D02*
G01*
X134075394Y-94255689D01*
X134086600Y-94307200D01*
X134086600Y-101600000D01*
X139162728Y-101600000D01*
X139218181Y-101613090D01*
X140208000Y-102108000D01*
X145541998Y-102108000D01*
X145542000Y-102108000D01*
X146660954Y-101610686D01*
X146711315Y-101600000D01*
X151003000Y-101600000D01*
X151003000Y-94332600D01*
X151022685Y-94265561D01*
X151075489Y-94219806D01*
X151127000Y-94208600D01*
X154485800Y-94208600D01*
X154552839Y-94228285D01*
X154598594Y-94281089D01*
X154609800Y-94332600D01*
X154609800Y-99905090D01*
X154590115Y-99972129D01*
X154537311Y-100017884D01*
X154517895Y-100024864D01*
X154481884Y-100034513D01*
X154391212Y-100058808D01*
X154277086Y-100124700D01*
X154277083Y-100124702D01*
X154183902Y-100217883D01*
X154183900Y-100217886D01*
X154118008Y-100332012D01*
X154083900Y-100459308D01*
X154083900Y-100591091D01*
X154118008Y-100718387D01*
X154150954Y-100775450D01*
X154183900Y-100832514D01*
X154277086Y-100925700D01*
X154391214Y-100991592D01*
X154393829Y-100992675D01*
X154395697Y-100994180D01*
X154398253Y-100995656D01*
X154398023Y-100996054D01*
X154448235Y-101036512D01*
X154470305Y-101102805D01*
X154453030Y-101170505D01*
X154434066Y-101194919D01*
X154387103Y-101241882D01*
X154387100Y-101241886D01*
X154321208Y-101356012D01*
X154287100Y-101483308D01*
X154287100Y-101615091D01*
X154321208Y-101742387D01*
X154349793Y-101791897D01*
X154387100Y-101856514D01*
X154480286Y-101949700D01*
X154547802Y-101988680D01*
X154596015Y-102039244D01*
X154609800Y-102096065D01*
X154609800Y-103812800D01*
X154590115Y-103879839D01*
X154537311Y-103925594D01*
X154485800Y-103936800D01*
X152526999Y-103936800D01*
X151392980Y-104873599D01*
X151328759Y-104901119D01*
X151314007Y-104902000D01*
X134667769Y-104902000D01*
X134600730Y-104882315D01*
X134584576Y-104869950D01*
X133553201Y-103936800D01*
X133553200Y-103936800D01*
X130654600Y-103936800D01*
X130587561Y-103917115D01*
X130541806Y-103864311D01*
X130530600Y-103812800D01*
X130530600Y-102677108D01*
X137698000Y-102677108D01*
X137698000Y-102808891D01*
X137732108Y-102936187D01*
X137765054Y-102993250D01*
X137798000Y-103050314D01*
X137891186Y-103143500D01*
X138005314Y-103209392D01*
X138132608Y-103243500D01*
X138132610Y-103243500D01*
X138264390Y-103243500D01*
X138264392Y-103243500D01*
X138391686Y-103209392D01*
X138505814Y-103143500D01*
X138599000Y-103050314D01*
X138664892Y-102936186D01*
X138699000Y-102808892D01*
X138699000Y-102677108D01*
X139199500Y-102677108D01*
X139199500Y-102808891D01*
X139233608Y-102936187D01*
X139266554Y-102993250D01*
X139299500Y-103050314D01*
X139392686Y-103143500D01*
X139506814Y-103209392D01*
X139634108Y-103243500D01*
X139634110Y-103243500D01*
X139765890Y-103243500D01*
X139765892Y-103243500D01*
X139893186Y-103209392D01*
X140007314Y-103143500D01*
X140100500Y-103050314D01*
X140166392Y-102936186D01*
X140200500Y-102808892D01*
X140200500Y-102677108D01*
X140166392Y-102549814D01*
X140100500Y-102435686D01*
X140007314Y-102342500D01*
X139950250Y-102309554D01*
X139893187Y-102276608D01*
X139829539Y-102259554D01*
X139765892Y-102242500D01*
X139634108Y-102242500D01*
X139506812Y-102276608D01*
X139392686Y-102342500D01*
X139392683Y-102342502D01*
X139299502Y-102435683D01*
X139299500Y-102435686D01*
X139233608Y-102549812D01*
X139199500Y-102677108D01*
X138699000Y-102677108D01*
X138664892Y-102549814D01*
X138599000Y-102435686D01*
X138505814Y-102342500D01*
X138448750Y-102309554D01*
X138391687Y-102276608D01*
X138328039Y-102259554D01*
X138264392Y-102242500D01*
X138132608Y-102242500D01*
X138005312Y-102276608D01*
X137891186Y-102342500D01*
X137891183Y-102342502D01*
X137798002Y-102435683D01*
X137798000Y-102435686D01*
X137732108Y-102549812D01*
X137698000Y-102677108D01*
X130530600Y-102677108D01*
X130530600Y-94307200D01*
X130550285Y-94240161D01*
X130603089Y-94194406D01*
X130654600Y-94183200D01*
X133962600Y-94183200D01*
X134029639Y-94202885D01*
G37*
%TD.AperFunction*%
%TD*%
%TA.AperFunction,Conductor*%
%TO.N,/H_BRID/MOTOR_OUT_B-*%
G36*
X142005239Y-81350485D02*
G01*
X142050994Y-81403289D01*
X142062200Y-81454800D01*
X142062200Y-85067600D01*
X142042515Y-85134639D01*
X141989711Y-85180394D01*
X141938200Y-85191600D01*
X141140613Y-85191600D01*
X141073574Y-85171915D01*
X141068434Y-85168301D01*
X141067314Y-85167654D01*
X141023717Y-85142483D01*
X140953187Y-85101762D01*
X140889539Y-85084708D01*
X140825892Y-85067654D01*
X140694108Y-85067654D01*
X140566812Y-85101762D01*
X140487006Y-85147838D01*
X140452686Y-85167654D01*
X140452684Y-85167655D01*
X140445648Y-85171718D01*
X140444014Y-85168888D01*
X140393032Y-85188557D01*
X140324597Y-85174472D01*
X140274641Y-85125623D01*
X140258800Y-85064980D01*
X140258800Y-81454800D01*
X140278485Y-81387761D01*
X140331289Y-81342006D01*
X140382800Y-81330800D01*
X141938200Y-81330800D01*
X142005239Y-81350485D01*
G37*
%TD.AperFunction*%
%TD*%
M02*
