%TF.GenerationSoftware,KiCad,Pcbnew,9.0.6*%
%TF.CreationDate,2026-03-07T10:39:48+08:00*%
%TF.ProjectId,Motor35,4d6f746f-7233-4352-9e6b-696361645f70,rev?*%
%TF.SameCoordinates,Original*%
%TF.FileFunction,Legend,Top*%
%TF.FilePolarity,Positive*%
%FSLAX46Y46*%
G04 Gerber Fmt 4.6, Leading zero omitted, Abs format (unit mm)*
G04 Created by KiCad (PCBNEW 9.0.6) date 2026-03-07 10:39:48*
%MOMM*%
%LPD*%
G01*
G04 APERTURE LIST*
%ADD10C,0.075000*%
%ADD11C,0.250000*%
%ADD12C,0.158750*%
%ADD13C,0.125000*%
%ADD14C,0.120000*%
%ADD15C,0.200000*%
%ADD16C,0.400000*%
G04 APERTURE END LIST*
D10*
G36*
X137709837Y-102772959D02*
G01*
X137730355Y-102776025D01*
X137747015Y-102781181D01*
X137761617Y-102788378D01*
X137774428Y-102797603D01*
X137788810Y-102812118D01*
X137800632Y-102829166D01*
X137809966Y-102849078D01*
X137816363Y-102870286D01*
X137820366Y-102894040D01*
X137821763Y-102920702D01*
X137820805Y-102943514D01*
X137818076Y-102963700D01*
X137813758Y-102981555D01*
X137804297Y-103006504D01*
X137793260Y-103025427D01*
X137779868Y-103041249D01*
X137765911Y-103052758D01*
X137749945Y-103061336D01*
X137730043Y-103067870D01*
X137708216Y-103071638D01*
X137681793Y-103073000D01*
X137573386Y-103073000D01*
X137573386Y-103038122D01*
X137613137Y-103038122D01*
X137677287Y-103038122D01*
X137705362Y-103036534D01*
X137723907Y-103032553D01*
X137739475Y-103025608D01*
X137750853Y-103016836D01*
X137759284Y-103006666D01*
X137766648Y-102994018D01*
X137772871Y-102978478D01*
X137777073Y-102962231D01*
X137779792Y-102942925D01*
X137780767Y-102920079D01*
X137779602Y-102895648D01*
X137776405Y-102875801D01*
X137771547Y-102859803D01*
X137765288Y-102847008D01*
X137753733Y-102831290D01*
X137741247Y-102820121D01*
X137727699Y-102812789D01*
X137716716Y-102809695D01*
X137700158Y-102807457D01*
X137676261Y-102806579D01*
X137613137Y-102806579D01*
X137613137Y-103038122D01*
X137573386Y-103038122D01*
X137573386Y-102771702D01*
X137676866Y-102771702D01*
X137709837Y-102772959D01*
G37*
G36*
X137982389Y-102852200D02*
G01*
X138001064Y-102857819D01*
X138017610Y-102867001D01*
X138032386Y-102879962D01*
X138044014Y-102895500D01*
X138052623Y-102914160D01*
X138058105Y-102936565D01*
X138060064Y-102963512D01*
X138059845Y-102973348D01*
X137897545Y-102973348D01*
X137899793Y-102991199D01*
X137904052Y-103005923D01*
X137910089Y-103018042D01*
X137917823Y-103027973D01*
X137930986Y-103038495D01*
X137945958Y-103044758D01*
X137963326Y-103046914D01*
X137976509Y-103045681D01*
X137987941Y-103042139D01*
X137997966Y-103036363D01*
X138006434Y-103028433D01*
X138014040Y-103017428D01*
X138020717Y-103002658D01*
X138058837Y-103007365D01*
X138050874Y-103028461D01*
X138039755Y-103045545D01*
X138025425Y-103059243D01*
X138012865Y-103067073D01*
X137998514Y-103072820D01*
X137982061Y-103076423D01*
X137963124Y-103077689D01*
X137939585Y-103075694D01*
X137919512Y-103070023D01*
X137902271Y-103060917D01*
X137887397Y-103048288D01*
X137875613Y-103032864D01*
X137866917Y-103014410D01*
X137861395Y-102992321D01*
X137859425Y-102965820D01*
X137861118Y-102942574D01*
X137899597Y-102942574D01*
X138021120Y-102942574D01*
X138018188Y-102924882D01*
X138013427Y-102911687D01*
X138007180Y-102902017D01*
X137997641Y-102892775D01*
X137987016Y-102886306D01*
X137975077Y-102882381D01*
X137961476Y-102881025D01*
X137945217Y-102882942D01*
X137931150Y-102888501D01*
X137918758Y-102897786D01*
X137909109Y-102909912D01*
X137902697Y-102924624D01*
X137899597Y-102942574D01*
X137861118Y-102942574D01*
X137861426Y-102938347D01*
X137867025Y-102915494D01*
X137875822Y-102896451D01*
X137887708Y-102880585D01*
X137902810Y-102867376D01*
X137919793Y-102857999D01*
X137939035Y-102852249D01*
X137961073Y-102850250D01*
X137982389Y-102852200D01*
G37*
G36*
X138090271Y-103007237D02*
G01*
X138126743Y-103001485D01*
X138130186Y-103015486D01*
X138135912Y-103026537D01*
X138143852Y-103035209D01*
X138153856Y-103041443D01*
X138166683Y-103045452D01*
X138183108Y-103046914D01*
X138199791Y-103045569D01*
X138212001Y-103041998D01*
X138220807Y-103036656D01*
X138227827Y-103029167D01*
X138231800Y-103021241D01*
X138233117Y-103012586D01*
X138231907Y-103004910D01*
X138228375Y-102998526D01*
X138222254Y-102993095D01*
X138211762Y-102988487D01*
X138184537Y-102980712D01*
X138147223Y-102970202D01*
X138128281Y-102962980D01*
X138114328Y-102953907D01*
X138104504Y-102942262D01*
X138098447Y-102928385D01*
X138096408Y-102913027D01*
X138098089Y-102898948D01*
X138103076Y-102886062D01*
X138110943Y-102874696D01*
X138121211Y-102865436D01*
X138130812Y-102859829D01*
X138144676Y-102854665D01*
X138159890Y-102851379D01*
X138176550Y-102850250D01*
X138201196Y-102852220D01*
X138221521Y-102857724D01*
X138233847Y-102863609D01*
X138243211Y-102870374D01*
X138250116Y-102877984D01*
X138257645Y-102892205D01*
X138262829Y-102912147D01*
X138226760Y-102917075D01*
X138223978Y-102906327D01*
X138219234Y-102897618D01*
X138212509Y-102890568D01*
X138204136Y-102885510D01*
X138193267Y-102882229D01*
X138179206Y-102881025D01*
X138162335Y-102882178D01*
X138150702Y-102885141D01*
X138142936Y-102889378D01*
X138136692Y-102895536D01*
X138133215Y-102901974D01*
X138132073Y-102908942D01*
X138133195Y-102915710D01*
X138136580Y-102921783D01*
X138142064Y-102926974D01*
X138150721Y-102931565D01*
X138183309Y-102940943D01*
X138219375Y-102951336D01*
X138237916Y-102958034D01*
X138251858Y-102966299D01*
X138262206Y-102977378D01*
X138266983Y-102986229D01*
X138269964Y-102996620D01*
X138271017Y-103008904D01*
X138269837Y-103020876D01*
X138266298Y-103032380D01*
X138260264Y-103043617D01*
X138252205Y-103053474D01*
X138241963Y-103061848D01*
X138229215Y-103068786D01*
X138215421Y-103073643D01*
X138200196Y-103076649D01*
X138183309Y-103077689D01*
X138161760Y-103076379D01*
X138144244Y-103072767D01*
X138130066Y-103067216D01*
X138118646Y-103059920D01*
X138108844Y-103050338D01*
X138100839Y-103038609D01*
X138094606Y-103024395D01*
X138090271Y-103007237D01*
G37*
G36*
X138315091Y-102813907D02*
G01*
X138315091Y-102771702D01*
X138351965Y-102771702D01*
X138351965Y-102813907D01*
X138315091Y-102813907D01*
G37*
G36*
X138315091Y-103073000D02*
G01*
X138315091Y-102854939D01*
X138351965Y-102854939D01*
X138351965Y-103073000D01*
X138315091Y-103073000D01*
G37*
G36*
X138506717Y-102852231D02*
G01*
X138523187Y-102858014D01*
X138538099Y-102867665D01*
X138551744Y-102881647D01*
X138551744Y-102854939D01*
X138585760Y-102854939D01*
X138585760Y-103043086D01*
X138584275Y-103077340D01*
X138580530Y-103100375D01*
X138575411Y-103115113D01*
X138567263Y-103128142D01*
X138556445Y-103139259D01*
X138542621Y-103148617D01*
X138527194Y-103155237D01*
X138508970Y-103159435D01*
X138487392Y-103160927D01*
X138467827Y-103159699D01*
X138451095Y-103156233D01*
X138436762Y-103150763D01*
X138424469Y-103143396D01*
X138414203Y-103133735D01*
X138406964Y-103122041D01*
X138402590Y-103107878D01*
X138401314Y-103090585D01*
X138437181Y-103095879D01*
X138439749Y-103106377D01*
X138443945Y-103114208D01*
X138449674Y-103119949D01*
X138459349Y-103125374D01*
X138471628Y-103128876D01*
X138487190Y-103130152D01*
X138504013Y-103128848D01*
X138516915Y-103125319D01*
X138526739Y-103119949D01*
X138534942Y-103112354D01*
X138541204Y-103102950D01*
X138545589Y-103091409D01*
X138547496Y-103077143D01*
X138548263Y-103044295D01*
X138535152Y-103057066D01*
X138520938Y-103065899D01*
X138505358Y-103071190D01*
X138487996Y-103073000D01*
X138466167Y-103070838D01*
X138447733Y-103064685D01*
X138431997Y-103054701D01*
X138418515Y-103040595D01*
X138407889Y-103023832D01*
X138400248Y-103005489D01*
X138395553Y-102985281D01*
X138393932Y-102962852D01*
X138394099Y-102960196D01*
X138431851Y-102960196D01*
X138433155Y-102982105D01*
X138436686Y-102999224D01*
X138442000Y-103012466D01*
X138448850Y-103022588D01*
X138461276Y-103033578D01*
X138475299Y-103040023D01*
X138491495Y-103042225D01*
X138507561Y-103040044D01*
X138521579Y-103033641D01*
X138534103Y-103022698D01*
X138541080Y-103012594D01*
X138546459Y-102999510D01*
X138550014Y-102982739D01*
X138551322Y-102961423D01*
X138550015Y-102941205D01*
X138546416Y-102924888D01*
X138540884Y-102911771D01*
X138533590Y-102901285D01*
X138520707Y-102889853D01*
X138506642Y-102883249D01*
X138490872Y-102881025D01*
X138475378Y-102883218D01*
X138461618Y-102889722D01*
X138449070Y-102900973D01*
X138441995Y-102911291D01*
X138436622Y-102924205D01*
X138433123Y-102940277D01*
X138431851Y-102960196D01*
X138394099Y-102960196D01*
X138395222Y-102942304D01*
X138399001Y-102923202D01*
X138405198Y-102905333D01*
X138414049Y-102888785D01*
X138424921Y-102875340D01*
X138437896Y-102864612D01*
X138452752Y-102856734D01*
X138469386Y-102851918D01*
X138488216Y-102850250D01*
X138506717Y-102852231D01*
G37*
G36*
X138641375Y-103073000D02*
G01*
X138641375Y-102854939D01*
X138674586Y-102854939D01*
X138674586Y-102885787D01*
X138685120Y-102872902D01*
X138697076Y-102863110D01*
X138710623Y-102856094D01*
X138726072Y-102851762D01*
X138743847Y-102850250D01*
X138762927Y-102852062D01*
X138780007Y-102857339D01*
X138794810Y-102865800D01*
X138804700Y-102875896D01*
X138811579Y-102888233D01*
X138816185Y-102903171D01*
X138817605Y-102915348D01*
X138818237Y-102939057D01*
X138818237Y-103073000D01*
X138781344Y-103073000D01*
X138781344Y-102940266D01*
X138780081Y-102919122D01*
X138777039Y-102906469D01*
X138771146Y-102896470D01*
X138761780Y-102888590D01*
X138750085Y-102883633D01*
X138736061Y-102881904D01*
X138720909Y-102883607D01*
X138707486Y-102888580D01*
X138695377Y-102896907D01*
X138688622Y-102904895D01*
X138683288Y-102916310D01*
X138679647Y-102932185D01*
X138678267Y-102953821D01*
X138678267Y-103073000D01*
X138641375Y-103073000D01*
G37*
G36*
X138985348Y-102852200D02*
G01*
X139004023Y-102857819D01*
X139020569Y-102867001D01*
X139035344Y-102879962D01*
X139046973Y-102895500D01*
X139055582Y-102914160D01*
X139061064Y-102936565D01*
X139063023Y-102963512D01*
X139062803Y-102973348D01*
X138900504Y-102973348D01*
X138902752Y-102991199D01*
X138907011Y-103005923D01*
X138913048Y-103018042D01*
X138920782Y-103027973D01*
X138933945Y-103038495D01*
X138948917Y-103044758D01*
X138966285Y-103046914D01*
X138979468Y-103045681D01*
X138990900Y-103042139D01*
X139000924Y-103036363D01*
X139009393Y-103028433D01*
X139016999Y-103017428D01*
X139023676Y-103002658D01*
X139061796Y-103007365D01*
X139053833Y-103028461D01*
X139042714Y-103045545D01*
X139028383Y-103059243D01*
X139015824Y-103067073D01*
X139001473Y-103072820D01*
X138985020Y-103076423D01*
X138966083Y-103077689D01*
X138942543Y-103075694D01*
X138922471Y-103070023D01*
X138905230Y-103060917D01*
X138890356Y-103048288D01*
X138878572Y-103032864D01*
X138869876Y-103014410D01*
X138864354Y-102992321D01*
X138862384Y-102965820D01*
X138864077Y-102942574D01*
X138902556Y-102942574D01*
X139024079Y-102942574D01*
X139021147Y-102924882D01*
X139016386Y-102911687D01*
X139010139Y-102902017D01*
X139000599Y-102892775D01*
X138989974Y-102886306D01*
X138978036Y-102882381D01*
X138964435Y-102881025D01*
X138948176Y-102882942D01*
X138934109Y-102888501D01*
X138921717Y-102897786D01*
X138912068Y-102909912D01*
X138905656Y-102924624D01*
X138902556Y-102942574D01*
X138864077Y-102942574D01*
X138864385Y-102938347D01*
X138869984Y-102915494D01*
X138878781Y-102896451D01*
X138890667Y-102880585D01*
X138905769Y-102867376D01*
X138922752Y-102857999D01*
X138941994Y-102852249D01*
X138964032Y-102850250D01*
X138985348Y-102852200D01*
G37*
G36*
X139283410Y-103073000D02*
G01*
X139249191Y-103073000D01*
X139249191Y-103045540D01*
X139237544Y-103059681D01*
X139223827Y-103069544D01*
X139207649Y-103075573D01*
X139188320Y-103077689D01*
X139171392Y-103076087D01*
X139155534Y-103071338D01*
X139140454Y-103063346D01*
X139127137Y-103052653D01*
X139115898Y-103039408D01*
X139106639Y-103023284D01*
X139100119Y-103005762D01*
X139096068Y-102986174D01*
X139094659Y-102964171D01*
X139094664Y-102964079D01*
X139132577Y-102964079D01*
X139133893Y-102985256D01*
X139137498Y-103002197D01*
X139143001Y-103015669D01*
X139150200Y-103026306D01*
X139163030Y-103038015D01*
X139176731Y-103044690D01*
X139191800Y-103046914D01*
X139207035Y-103044750D01*
X139220558Y-103038331D01*
X139232888Y-103027222D01*
X139239776Y-103017059D01*
X139245057Y-103004103D01*
X139248526Y-102987719D01*
X139249796Y-102967139D01*
X139248476Y-102944318D01*
X139244898Y-102926416D01*
X139239511Y-102912511D01*
X139232577Y-102901834D01*
X139223228Y-102892529D01*
X139213182Y-102886133D01*
X139202259Y-102882322D01*
X139190170Y-102881025D01*
X139174696Y-102883239D01*
X139161179Y-102889768D01*
X139149064Y-102901028D01*
X139142436Y-102911275D01*
X139137278Y-102924670D01*
X139133845Y-102941970D01*
X139132577Y-102964079D01*
X139094664Y-102964079D01*
X139095921Y-102942673D01*
X139099582Y-102923058D01*
X139105521Y-102905076D01*
X139114166Y-102888457D01*
X139124996Y-102875033D01*
X139138110Y-102864392D01*
X139153119Y-102856552D01*
X139169202Y-102851849D01*
X139186671Y-102850250D01*
X139205524Y-102852400D01*
X139221714Y-102858603D01*
X139235738Y-102868297D01*
X139246718Y-102880365D01*
X139246718Y-102771702D01*
X139283410Y-102771702D01*
X139283410Y-103073000D01*
G37*
G36*
X139494619Y-102879980D02*
G01*
X139507387Y-102866737D01*
X139521367Y-102857601D01*
X139536836Y-102852126D01*
X139554244Y-102850250D01*
X139573848Y-102852285D01*
X139592273Y-102858347D01*
X139608712Y-102868156D01*
X139621784Y-102881098D01*
X139631934Y-102896917D01*
X139639919Y-102916434D01*
X139644804Y-102937628D01*
X139646477Y-102960691D01*
X139644502Y-102988764D01*
X139638992Y-103012003D01*
X139630375Y-103031248D01*
X139618798Y-103047171D01*
X139603926Y-103060785D01*
X139588104Y-103070182D01*
X139571066Y-103075785D01*
X139552413Y-103077689D01*
X139533991Y-103075603D01*
X139518117Y-103069578D01*
X139504209Y-103059576D01*
X139491944Y-103045064D01*
X139491944Y-103073000D01*
X139457726Y-103073000D01*
X139457726Y-102962339D01*
X139491541Y-102962339D01*
X139493023Y-102988362D01*
X139496827Y-103006450D01*
X139502202Y-103018594D01*
X139512090Y-103031404D01*
X139523059Y-103040050D01*
X139535325Y-103045165D01*
X139549335Y-103046914D01*
X139560881Y-103045640D01*
X139571538Y-103041861D01*
X139581569Y-103035448D01*
X139591137Y-103026032D01*
X139598355Y-103015252D01*
X139603858Y-103001706D01*
X139607451Y-102984788D01*
X139608759Y-102963768D01*
X139607474Y-102942083D01*
X139603979Y-102924971D01*
X139598692Y-102911582D01*
X139591852Y-102901211D01*
X139579491Y-102889786D01*
X139566033Y-102883227D01*
X139550965Y-102881025D01*
X139539420Y-102882300D01*
X139528764Y-102886082D01*
X139518733Y-102892500D01*
X139509163Y-102901926D01*
X139501883Y-102912715D01*
X139496385Y-102926014D01*
X139492827Y-102942343D01*
X139491541Y-102962339D01*
X139457726Y-102962339D01*
X139457726Y-102771702D01*
X139494619Y-102771702D01*
X139494619Y-102879980D01*
G37*
G36*
X139689598Y-103156549D02*
G01*
X139685494Y-103122770D01*
X139697274Y-103125299D01*
X139706597Y-103126049D01*
X139718149Y-103124900D01*
X139726271Y-103121872D01*
X139732950Y-103116891D01*
X139738361Y-103110167D01*
X139742095Y-103102399D01*
X139749645Y-103082195D01*
X139752924Y-103073000D01*
X139670327Y-102854939D01*
X139710096Y-102854939D01*
X139755378Y-102980987D01*
X139763659Y-103005362D01*
X139771150Y-103031399D01*
X139778136Y-103006244D01*
X139786318Y-102981793D01*
X139832846Y-102854939D01*
X139869739Y-102854939D01*
X139786941Y-103076278D01*
X139773987Y-103109211D01*
X139766241Y-103125683D01*
X139755242Y-103141997D01*
X139743691Y-103152409D01*
X139734877Y-103157063D01*
X139724863Y-103159929D01*
X139713375Y-103160927D01*
X139702500Y-103159905D01*
X139689598Y-103156549D01*
G37*
D11*
G36*
X146892192Y-102463249D02*
G01*
X146965226Y-102476846D01*
X147021367Y-102498772D01*
X147071445Y-102529461D01*
X147116229Y-102569353D01*
X147154222Y-102616157D01*
X147186104Y-102670101D01*
X147211850Y-102732080D01*
X147229234Y-102797058D01*
X147240557Y-102875424D01*
X147244640Y-102969423D01*
X147240895Y-103051848D01*
X147230364Y-103122596D01*
X147213926Y-103183196D01*
X147184274Y-103253616D01*
X147148453Y-103312228D01*
X147106643Y-103360578D01*
X147069198Y-103391172D01*
X147022374Y-103417995D01*
X146964554Y-103440750D01*
X146891846Y-103456009D01*
X146785585Y-103462000D01*
X146405116Y-103462000D01*
X146405116Y-103293960D01*
X146607288Y-103293960D01*
X146758291Y-103293960D01*
X146837100Y-103291050D01*
X146880535Y-103284313D01*
X146926291Y-103267246D01*
X146962173Y-103242364D01*
X146980943Y-103220644D01*
X146998709Y-103189080D01*
X147015113Y-103144972D01*
X147029798Y-103070955D01*
X147035629Y-102960203D01*
X147029697Y-102850099D01*
X147015113Y-102780562D01*
X146989585Y-102723211D01*
X146957715Y-102682865D01*
X146916648Y-102653821D01*
X146864170Y-102635360D01*
X146811722Y-102628778D01*
X146698146Y-102625712D01*
X146607288Y-102625712D01*
X146607288Y-103293960D01*
X146405116Y-103293960D01*
X146405116Y-102457673D01*
X146774655Y-102457673D01*
X146892192Y-102463249D01*
G37*
G36*
X147598364Y-103462000D02*
G01*
X147406390Y-103462000D01*
X147406390Y-102735133D01*
X147584687Y-102735133D01*
X147584687Y-102838264D01*
X147631789Y-102773009D01*
X147666997Y-102740384D01*
X147705776Y-102721867D01*
X147749978Y-102715593D01*
X147792746Y-102719531D01*
X147834671Y-102731417D01*
X147876374Y-102751741D01*
X147816962Y-102918926D01*
X147768272Y-102894738D01*
X147726775Y-102887540D01*
X147689041Y-102893309D01*
X147658448Y-102909950D01*
X147635026Y-102938543D01*
X147614423Y-102990855D01*
X147603557Y-103065211D01*
X147598364Y-103236075D01*
X147598364Y-103462000D01*
G37*
G36*
X147958806Y-102633528D02*
G01*
X147958806Y-102457673D01*
X148150720Y-102457673D01*
X148150720Y-102633528D01*
X147958806Y-102633528D01*
G37*
G36*
X147958806Y-103462000D02*
G01*
X147958806Y-102735133D01*
X148150720Y-102735133D01*
X148150720Y-103462000D01*
X147958806Y-103462000D01*
G37*
G36*
X148547065Y-103462000D02*
G01*
X148254706Y-102735133D01*
X148456206Y-102735133D01*
X148592860Y-103106077D01*
X148632489Y-103229969D01*
X148652272Y-103167687D01*
X148672789Y-103106077D01*
X148810786Y-102735133D01*
X149008195Y-102735133D01*
X148719928Y-103462000D01*
X148547065Y-103462000D01*
G37*
G36*
X149481241Y-102722825D02*
G01*
X149548874Y-102743426D01*
X149607071Y-102776712D01*
X149657393Y-102823304D01*
X149688470Y-102866714D01*
X149713613Y-102919549D01*
X149732404Y-102983504D01*
X149743944Y-103060633D01*
X149746908Y-103153277D01*
X149265994Y-103153277D01*
X149272655Y-103208333D01*
X149288424Y-103251639D01*
X149312461Y-103285717D01*
X149344575Y-103312063D01*
X149380977Y-103327677D01*
X149423103Y-103333039D01*
X149465324Y-103326800D01*
X149498940Y-103308981D01*
X149524857Y-103279351D01*
X149545407Y-103231434D01*
X149736650Y-103262697D01*
X149706319Y-103330081D01*
X149667528Y-103383703D01*
X149620146Y-103425607D01*
X149564603Y-103455893D01*
X149499008Y-103474836D01*
X149421027Y-103481539D01*
X149345141Y-103475911D01*
X149280967Y-103460039D01*
X149226504Y-103434886D01*
X149180189Y-103400633D01*
X149141002Y-103356670D01*
X149110550Y-103305307D01*
X149088185Y-103246917D01*
X149074171Y-103180313D01*
X149069256Y-103104062D01*
X149074207Y-103036040D01*
X149269413Y-103036040D01*
X149556337Y-103036040D01*
X149549967Y-102981331D01*
X149535257Y-102939595D01*
X149513289Y-102907935D01*
X149483689Y-102883385D01*
X149450855Y-102868990D01*
X149413577Y-102864093D01*
X149373724Y-102869336D01*
X149339583Y-102884587D01*
X149309713Y-102910377D01*
X149287725Y-102943423D01*
X149274031Y-102984563D01*
X149269413Y-103036040D01*
X149074207Y-103036040D01*
X149075881Y-103013047D01*
X149094482Y-102936766D01*
X149123806Y-102872678D01*
X149163534Y-102818786D01*
X149214052Y-102773447D01*
X149269794Y-102741597D01*
X149331872Y-102722261D01*
X149401915Y-102715593D01*
X149481241Y-102722825D01*
G37*
G36*
X150086711Y-103462000D02*
G01*
X149894736Y-103462000D01*
X149894736Y-102735133D01*
X150073033Y-102735133D01*
X150073033Y-102838264D01*
X150120135Y-102773009D01*
X150155343Y-102740384D01*
X150194122Y-102721867D01*
X150238324Y-102715593D01*
X150281092Y-102719531D01*
X150323017Y-102731417D01*
X150364720Y-102751741D01*
X150305308Y-102918926D01*
X150256619Y-102894738D01*
X150215121Y-102887540D01*
X150177387Y-102893309D01*
X150146794Y-102909950D01*
X150123372Y-102938543D01*
X150102770Y-102990855D01*
X150091903Y-103065211D01*
X150086711Y-103236075D01*
X150086711Y-103462000D01*
G37*
D12*
G36*
X135824744Y-103330665D02*
G01*
X136525379Y-103330665D01*
X136525379Y-103491621D01*
X136076119Y-103959053D01*
X136541743Y-103959053D01*
X136541743Y-104131000D01*
X135781562Y-104131000D01*
X135781562Y-103965061D01*
X136225889Y-103502612D01*
X135824744Y-103502612D01*
X135824744Y-103330665D01*
G37*
G36*
X136638366Y-103330665D02*
G01*
X136860773Y-103330665D01*
X136860773Y-103625319D01*
X136907693Y-103583344D01*
X136950948Y-103557420D01*
X136998428Y-103542390D01*
X137056998Y-103537001D01*
X137101767Y-103540772D01*
X137139724Y-103551460D01*
X137172124Y-103568575D01*
X137199880Y-103592249D01*
X137221314Y-103621087D01*
X137237591Y-103657708D01*
X137248220Y-103703879D01*
X137252099Y-103761802D01*
X137252099Y-104131000D01*
X137028568Y-104131000D01*
X137028568Y-103812018D01*
X137025798Y-103775969D01*
X137018661Y-103751219D01*
X137008345Y-103734740D01*
X136993483Y-103722412D01*
X136974904Y-103714796D01*
X136951485Y-103712074D01*
X136925959Y-103715548D01*
X136904425Y-103725615D01*
X136885882Y-103742653D01*
X136873310Y-103764785D01*
X136864330Y-103799714D01*
X136860773Y-103852465D01*
X136860773Y-104131000D01*
X136638366Y-104131000D01*
X136638366Y-103330665D01*
G37*
G36*
X137610501Y-103606757D02*
G01*
X137646314Y-103576074D01*
X137686168Y-103554440D01*
X137730115Y-103541485D01*
X137779908Y-103537001D01*
X137831410Y-103541923D01*
X137877078Y-103556201D01*
X137918110Y-103579734D01*
X137955323Y-103613254D01*
X137984258Y-103652984D01*
X138005873Y-103701423D01*
X138019748Y-103760362D01*
X138024737Y-103832046D01*
X138020981Y-103894828D01*
X138010230Y-103950325D01*
X137993034Y-103999548D01*
X137968337Y-104045036D01*
X137939127Y-104080634D01*
X137905302Y-104107748D01*
X137866679Y-104127585D01*
X137825495Y-104139471D01*
X137780983Y-104143505D01*
X137742617Y-104140653D01*
X137707078Y-104132290D01*
X137673858Y-104118494D01*
X137638313Y-104092779D01*
X137594088Y-104045026D01*
X137594088Y-104131000D01*
X137385847Y-104131000D01*
X137385847Y-103838543D01*
X137608840Y-103838543D01*
X137612625Y-103888020D01*
X137622504Y-103923049D01*
X137636977Y-103947280D01*
X137657627Y-103966127D01*
X137681066Y-103977164D01*
X137708296Y-103980937D01*
X137733361Y-103977290D01*
X137755370Y-103966502D01*
X137775219Y-103947817D01*
X137788979Y-103923957D01*
X137798558Y-103888218D01*
X137802281Y-103836345D01*
X137798755Y-103790897D01*
X137789476Y-103758164D01*
X137775756Y-103735033D01*
X137756343Y-103716704D01*
X137735221Y-103706212D01*
X137711569Y-103702695D01*
X137682898Y-103706524D01*
X137658577Y-103717631D01*
X137637515Y-103736401D01*
X137622523Y-103760546D01*
X137612571Y-103793667D01*
X137608840Y-103838543D01*
X137385847Y-103838543D01*
X137385847Y-103330665D01*
X137610501Y-103330665D01*
X137610501Y-103606757D01*
G37*
G36*
X138139385Y-103330665D02*
G01*
X138361792Y-103330665D01*
X138361792Y-103480727D01*
X138139385Y-103480727D01*
X138139385Y-103330665D01*
G37*
G36*
X138139385Y-103549506D02*
G01*
X138361792Y-103549506D01*
X138361792Y-104131000D01*
X138139385Y-104131000D01*
X138139385Y-103549506D01*
G37*
G36*
X138862690Y-103323352D02*
G01*
X138925984Y-103337566D01*
X138976161Y-103359290D01*
X139020265Y-103391070D01*
X139058896Y-103434011D01*
X139092274Y-103489960D01*
X139110087Y-103534538D01*
X139123737Y-103587837D01*
X139132579Y-103651288D01*
X139135749Y-103726484D01*
X139131250Y-103816732D01*
X139118796Y-103891261D01*
X139099675Y-103952483D01*
X139074758Y-104002507D01*
X139044451Y-104043072D01*
X139006070Y-104078510D01*
X138962466Y-104106180D01*
X138912896Y-104126418D01*
X138856322Y-104139070D01*
X138791464Y-104143505D01*
X138727547Y-104140595D01*
X138678168Y-104132795D01*
X138640620Y-104121279D01*
X138605520Y-104103966D01*
X138575072Y-104082358D01*
X138548785Y-104056310D01*
X138526846Y-104026328D01*
X138508038Y-103990922D01*
X138492511Y-103949332D01*
X138713844Y-103921537D01*
X138726618Y-103963240D01*
X138743348Y-103986896D01*
X138766228Y-104001104D01*
X138794200Y-104005947D01*
X138819239Y-104002642D01*
X138841035Y-103992965D01*
X138860446Y-103976502D01*
X138877829Y-103951872D01*
X138889002Y-103923229D01*
X138900326Y-103870591D01*
X138910606Y-103783002D01*
X138869041Y-103819284D01*
X138828589Y-103843037D01*
X138784329Y-103857146D01*
X138731332Y-103862137D01*
X138678961Y-103857269D01*
X138631894Y-103843085D01*
X138589035Y-103819639D01*
X138549615Y-103786226D01*
X138517436Y-103746079D01*
X138494506Y-103701352D01*
X138480439Y-103651139D01*
X138475561Y-103594203D01*
X138476098Y-103587706D01*
X138687075Y-103587706D01*
X138690918Y-103631094D01*
X138701349Y-103664227D01*
X138717410Y-103689408D01*
X138739563Y-103709122D01*
X138764448Y-103720650D01*
X138793076Y-103724579D01*
X138822942Y-103720721D01*
X138848646Y-103709493D01*
X138871234Y-103690532D01*
X138887852Y-103665999D01*
X138898507Y-103634228D01*
X138902399Y-103593128D01*
X138898362Y-103551399D01*
X138887193Y-103518409D01*
X138869573Y-103492256D01*
X138845787Y-103471727D01*
X138819526Y-103459769D01*
X138789803Y-103455717D01*
X138761775Y-103459439D01*
X138737601Y-103470303D01*
X138716286Y-103488739D01*
X138700929Y-103512470D01*
X138690835Y-103544602D01*
X138687075Y-103587706D01*
X138476098Y-103587706D01*
X138479843Y-103542438D01*
X138492421Y-103494621D01*
X138513272Y-103449953D01*
X138541743Y-103409894D01*
X138576150Y-103377301D01*
X138617075Y-103351523D01*
X138662388Y-103333731D01*
X138717155Y-103322276D01*
X138783258Y-103318159D01*
X138862690Y-103323352D01*
G37*
G36*
X139625731Y-103322798D02*
G01*
X139690739Y-103335397D01*
X139741513Y-103354388D01*
X139780745Y-103378829D01*
X139815055Y-103411985D01*
X139838644Y-103447976D01*
X139852725Y-103487483D01*
X139857535Y-103531628D01*
X139854160Y-103566490D01*
X139844072Y-103599708D01*
X139826956Y-103631865D01*
X139799075Y-103664462D01*
X139754807Y-103699032D01*
X139795641Y-103722877D01*
X139827553Y-103750361D01*
X139851771Y-103781586D01*
X139869518Y-103816987D01*
X139880158Y-103854669D01*
X139883767Y-103895305D01*
X139880669Y-103934708D01*
X139871491Y-103971994D01*
X139856168Y-104007657D01*
X139835681Y-104040787D01*
X139813105Y-104067398D01*
X139788415Y-104088306D01*
X139744735Y-104112386D01*
X139688422Y-104130120D01*
X139627386Y-104140075D01*
X139560780Y-104143505D01*
X139475593Y-104139475D01*
X139412276Y-104128852D01*
X139366265Y-104113463D01*
X139324422Y-104089817D01*
X139290683Y-104060416D01*
X139264074Y-104024900D01*
X139244748Y-103984654D01*
X139233078Y-103941354D01*
X139229099Y-103894230D01*
X139229784Y-103886122D01*
X139450969Y-103886122D01*
X139454751Y-103920057D01*
X139465535Y-103948435D01*
X139483209Y-103972486D01*
X139506335Y-103991452D01*
X139530663Y-104002328D01*
X139556970Y-104005947D01*
X139582162Y-104002316D01*
X139605777Y-103991310D01*
X139628582Y-103971900D01*
X139645987Y-103947569D01*
X139656583Y-103919178D01*
X139660285Y-103885584D01*
X139656534Y-103851659D01*
X139645831Y-103823207D01*
X139628289Y-103799025D01*
X139605311Y-103779892D01*
X139580911Y-103768894D01*
X139554284Y-103765221D01*
X139527944Y-103768800D01*
X139504065Y-103779461D01*
X139481841Y-103797901D01*
X139465119Y-103821395D01*
X139454693Y-103850300D01*
X139450969Y-103886122D01*
X139229784Y-103886122D01*
X139232989Y-103848189D01*
X139244063Y-103808765D01*
X139261876Y-103774747D01*
X139286704Y-103745515D01*
X139319884Y-103720270D01*
X139362993Y-103699032D01*
X139315885Y-103668353D01*
X139286447Y-103637287D01*
X139268340Y-103604896D01*
X139257413Y-103569417D01*
X139254876Y-103542716D01*
X139462986Y-103542716D01*
X139466032Y-103568971D01*
X139474700Y-103590675D01*
X139488924Y-103608857D01*
X139507625Y-103622495D01*
X139530309Y-103630926D01*
X139558094Y-103633916D01*
X139582555Y-103631039D01*
X139603203Y-103622779D01*
X139620913Y-103609101D01*
X139634426Y-103591231D01*
X139642651Y-103570130D01*
X139645533Y-103544866D01*
X139642523Y-103518610D01*
X139633940Y-103496728D01*
X139619838Y-103478236D01*
X139601344Y-103464106D01*
X139579793Y-103455566D01*
X139554284Y-103452591D01*
X139528351Y-103455532D01*
X139506705Y-103463924D01*
X139488387Y-103477699D01*
X139474429Y-103495788D01*
X139465953Y-103517142D01*
X139462986Y-103542716D01*
X139254876Y-103542716D01*
X139253669Y-103530016D01*
X139259448Y-103482933D01*
X139276460Y-103440855D01*
X139305353Y-103402415D01*
X139348191Y-103366910D01*
X139385697Y-103346605D01*
X139429903Y-103331364D01*
X139481979Y-103321626D01*
X139543293Y-103318159D01*
X139625731Y-103322798D01*
G37*
D11*
G36*
X141531118Y-103462000D02*
G01*
X141270205Y-103462000D01*
X141270205Y-102781844D01*
X141081650Y-103223618D01*
X140900666Y-103223618D01*
X140712110Y-102781844D01*
X140712110Y-103462000D01*
X140464815Y-103462000D01*
X140464815Y-102445949D01*
X140769446Y-102445949D01*
X140998302Y-102955989D01*
X141226486Y-102445949D01*
X141531118Y-102445949D01*
X141531118Y-103462000D01*
G37*
G36*
X142223524Y-102677572D02*
G01*
X142293828Y-102691634D01*
X142354535Y-102713877D01*
X142407036Y-102743863D01*
X142452402Y-102781661D01*
X142490877Y-102827026D01*
X142521100Y-102878470D01*
X142543294Y-102936866D01*
X142557195Y-103003374D01*
X142562067Y-103079393D01*
X142557167Y-103155359D01*
X142543189Y-103221796D01*
X142520868Y-103280112D01*
X142490460Y-103331476D01*
X142451730Y-103376759D01*
X142406100Y-103414485D01*
X142353494Y-103444385D01*
X142292877Y-103466533D01*
X142222902Y-103480516D01*
X142141969Y-103485447D01*
X142061038Y-103480516D01*
X141991057Y-103466535D01*
X141930426Y-103444387D01*
X141877801Y-103414487D01*
X141832147Y-103376759D01*
X141793441Y-103331480D01*
X141763050Y-103280118D01*
X141740741Y-103221801D01*
X141726769Y-103155362D01*
X141721958Y-103080736D01*
X141976617Y-103080736D01*
X141979733Y-103140976D01*
X141988218Y-103188997D01*
X142003181Y-103231596D01*
X142022412Y-103262575D01*
X142046551Y-103285620D01*
X142074619Y-103301288D01*
X142106414Y-103310313D01*
X142143984Y-103313500D01*
X142176807Y-103310684D01*
X142207854Y-103302326D01*
X142235816Y-103287392D01*
X142259450Y-103264651D01*
X142280070Y-103233046D01*
X142295293Y-103194431D01*
X142303839Y-103149368D01*
X142307260Y-103080736D01*
X142303879Y-103016310D01*
X142294926Y-102968079D01*
X142279584Y-102925768D01*
X142260793Y-102895478D01*
X142236463Y-102871529D01*
X142208159Y-102856094D01*
X142176570Y-102847494D01*
X142141969Y-102844554D01*
X142107615Y-102847053D01*
X142078710Y-102854079D01*
X142052555Y-102867670D01*
X142025832Y-102892059D01*
X142006319Y-102921911D01*
X141989928Y-102964660D01*
X141980284Y-103013889D01*
X141976617Y-103080736D01*
X141721958Y-103080736D01*
X141721871Y-103079393D01*
X141726815Y-103002786D01*
X141740904Y-102935957D01*
X141763375Y-102877456D01*
X141793956Y-102826079D01*
X141832880Y-102780928D01*
X141878801Y-102743269D01*
X141931525Y-102713456D01*
X141992054Y-102691403D01*
X142061687Y-102677502D01*
X142141969Y-102672607D01*
X142223524Y-102677572D01*
G37*
G36*
X143228728Y-103455649D02*
G01*
X143144708Y-103471769D01*
X143036081Y-103477631D01*
X142962840Y-103473266D01*
X142904590Y-103461350D01*
X142858605Y-103443255D01*
X142822613Y-103419745D01*
X142793954Y-103388551D01*
X142772205Y-103347022D01*
X142757875Y-103292526D01*
X142752576Y-103221603D01*
X142752576Y-102864093D01*
X142651460Y-102864093D01*
X142651460Y-102696054D01*
X142752576Y-102696054D01*
X142752576Y-102477212D01*
X142998468Y-102477212D01*
X142998468Y-102696054D01*
X143228728Y-102696054D01*
X143228728Y-102864093D01*
X142998468Y-102864093D01*
X142998468Y-103134409D01*
X142999139Y-103204323D01*
X143002304Y-103233141D01*
X143010069Y-103257996D01*
X143023133Y-103279082D01*
X143043897Y-103295670D01*
X143071331Y-103305625D01*
X143114605Y-103309592D01*
X143164858Y-103301349D01*
X143208211Y-103286145D01*
X143228728Y-103286145D01*
X143228728Y-103455649D01*
G37*
G36*
X143820872Y-102677572D02*
G01*
X143891176Y-102691634D01*
X143951883Y-102713877D01*
X144004384Y-102743863D01*
X144049750Y-102781661D01*
X144088225Y-102827026D01*
X144118449Y-102878470D01*
X144140642Y-102936866D01*
X144154543Y-103003374D01*
X144159415Y-103079393D01*
X144154516Y-103155359D01*
X144140537Y-103221796D01*
X144118216Y-103280112D01*
X144087809Y-103331476D01*
X144049078Y-103376759D01*
X144003448Y-103414485D01*
X143950842Y-103444385D01*
X143890226Y-103466533D01*
X143820250Y-103480516D01*
X143739317Y-103485447D01*
X143658387Y-103480516D01*
X143588405Y-103466535D01*
X143527774Y-103444387D01*
X143475149Y-103414487D01*
X143429495Y-103376759D01*
X143390789Y-103331480D01*
X143360399Y-103280118D01*
X143338089Y-103221801D01*
X143324117Y-103155362D01*
X143319307Y-103080736D01*
X143573965Y-103080736D01*
X143577081Y-103140976D01*
X143585566Y-103188997D01*
X143600529Y-103231596D01*
X143619760Y-103262575D01*
X143643899Y-103285620D01*
X143671967Y-103301288D01*
X143703762Y-103310313D01*
X143741332Y-103313500D01*
X143774155Y-103310684D01*
X143805202Y-103302326D01*
X143833164Y-103287392D01*
X143856798Y-103264651D01*
X143877418Y-103233046D01*
X143892641Y-103194431D01*
X143901187Y-103149368D01*
X143904609Y-103080736D01*
X143901227Y-103016310D01*
X143892274Y-102968079D01*
X143876932Y-102925768D01*
X143858142Y-102895478D01*
X143833811Y-102871529D01*
X143805507Y-102856094D01*
X143773918Y-102847494D01*
X143739317Y-102844554D01*
X143704963Y-102847053D01*
X143676058Y-102854079D01*
X143649903Y-102867670D01*
X143623180Y-102892059D01*
X143603667Y-102921911D01*
X143587276Y-102964660D01*
X143577632Y-103013889D01*
X143573965Y-103080736D01*
X143319307Y-103080736D01*
X143319220Y-103079393D01*
X143324163Y-103002786D01*
X143338252Y-102935957D01*
X143360723Y-102877456D01*
X143391304Y-102826079D01*
X143430228Y-102780928D01*
X143476149Y-102743269D01*
X143528873Y-102713456D01*
X143589402Y-102691403D01*
X143659035Y-102677502D01*
X143739317Y-102672607D01*
X143820872Y-102677572D01*
G37*
G36*
X144891655Y-102934435D02*
G01*
X144869795Y-102934435D01*
X144819237Y-102925642D01*
X144761168Y-102922711D01*
X144710065Y-102924521D01*
X144668234Y-102929489D01*
X144627453Y-102938353D01*
X144581467Y-102952509D01*
X144581467Y-103462000D01*
X144335575Y-103462000D01*
X144335575Y-102696054D01*
X144581467Y-102696054D01*
X144581467Y-102808772D01*
X144637904Y-102764405D01*
X144684486Y-102735076D01*
X144722883Y-102717608D01*
X144782292Y-102701124D01*
X144833586Y-102696054D01*
X144862957Y-102696787D01*
X144891655Y-102698802D01*
X144891655Y-102934435D01*
G37*
G36*
X145740277Y-102984016D02*
G01*
X145770393Y-103015144D01*
X145793522Y-103050878D01*
X145807887Y-103092845D01*
X145813367Y-103152605D01*
X145806185Y-103222237D01*
X145784973Y-103286328D01*
X145762968Y-103325377D01*
X145734156Y-103360764D01*
X145697901Y-103392818D01*
X145636464Y-103430293D01*
X145562957Y-103458702D01*
X145481064Y-103475345D01*
X145374767Y-103481539D01*
X145252903Y-103476145D01*
X145157880Y-103461633D01*
X145071971Y-103439341D01*
X145010662Y-103416998D01*
X145010662Y-103192355D01*
X145037285Y-103192355D01*
X145099774Y-103225519D01*
X145177663Y-103255553D01*
X145258102Y-103275971D01*
X145326957Y-103282237D01*
X145412991Y-103275703D01*
X145456780Y-103264881D01*
X145491577Y-103246944D01*
X145514444Y-103227688D01*
X145531877Y-103205117D01*
X145542655Y-103177286D01*
X145546898Y-103134165D01*
X145541300Y-103092732D01*
X145526381Y-103064616D01*
X145502979Y-103043764D01*
X145472465Y-103029629D01*
X145437119Y-103021315D01*
X145391864Y-103017539D01*
X145304426Y-103016501D01*
X145248433Y-103016501D01*
X145248433Y-102840646D01*
X145306502Y-102840646D01*
X145400718Y-102837287D01*
X145439927Y-102831384D01*
X145470450Y-102821656D01*
X145497381Y-102806172D01*
X145515512Y-102787462D01*
X145526306Y-102762980D01*
X145530533Y-102724691D01*
X145526366Y-102696482D01*
X145514780Y-102675599D01*
X145497217Y-102658999D01*
X145475212Y-102646045D01*
X145447017Y-102636105D01*
X145412320Y-102629803D01*
X145350160Y-102625712D01*
X145285018Y-102630973D01*
X145210819Y-102647877D01*
X145137229Y-102674750D01*
X145065312Y-102711685D01*
X145040033Y-102711685D01*
X145040033Y-102490707D01*
X145101389Y-102469913D01*
X145192318Y-102447293D01*
X145289290Y-102431636D01*
X145387712Y-102426410D01*
X145480970Y-102430852D01*
X145556484Y-102443018D01*
X145624971Y-102463332D01*
X145676041Y-102487471D01*
X145725757Y-102525135D01*
X145759328Y-102568193D01*
X145779582Y-102618658D01*
X145786683Y-102679384D01*
X145780796Y-102733614D01*
X145763407Y-102783272D01*
X145734049Y-102829594D01*
X145695385Y-102868286D01*
X145649637Y-102896260D01*
X145595441Y-102914041D01*
X145595441Y-102923261D01*
X145630538Y-102930220D01*
X145669202Y-102942373D01*
X145706384Y-102959920D01*
X145740277Y-102984016D01*
G37*
G36*
X146812686Y-103116640D02*
G01*
X146809301Y-103168759D01*
X146799349Y-103217594D01*
X146782950Y-103263674D01*
X146760143Y-103306769D01*
X146731455Y-103345386D01*
X146696549Y-103379934D01*
X146652856Y-103411326D01*
X146604865Y-103436884D01*
X146552079Y-103456687D01*
X146467131Y-103474999D01*
X146365905Y-103481539D01*
X146248413Y-103475895D01*
X146159275Y-103462122D01*
X146079166Y-103441221D01*
X146021645Y-103420234D01*
X146021645Y-103196263D01*
X146050343Y-103196263D01*
X146114498Y-103229852D01*
X146184188Y-103257690D01*
X146256328Y-103276196D01*
X146327009Y-103282237D01*
X146370801Y-103279902D01*
X146420249Y-103272467D01*
X146466602Y-103258033D01*
X146499811Y-103236869D01*
X146520729Y-103215103D01*
X146534982Y-103194248D01*
X146543455Y-103169318D01*
X146546950Y-103127204D01*
X146542773Y-103093887D01*
X146530891Y-103066692D01*
X146512496Y-103043719D01*
X146489553Y-103025721D01*
X146449995Y-103007554D01*
X146400710Y-102996289D01*
X146306493Y-102989145D01*
X146245783Y-102991832D01*
X146188646Y-102999709D01*
X146089911Y-103020408D01*
X146059869Y-103020408D01*
X146059869Y-102445949D01*
X146783316Y-102445949D01*
X146783316Y-102641344D01*
X146306493Y-102641344D01*
X146306493Y-102804986D01*
X146360104Y-102802605D01*
X146417135Y-102801567D01*
X146498716Y-102805808D01*
X146567100Y-102817626D01*
X146629938Y-102837346D01*
X146680856Y-102862261D01*
X146719480Y-102890141D01*
X146751623Y-102923079D01*
X146777821Y-102961485D01*
X146796492Y-103004020D01*
X146808417Y-103055142D01*
X146812686Y-103116640D01*
G37*
D13*
G36*
X147762980Y-103924800D02*
G01*
X147779449Y-103934019D01*
X147792274Y-103949604D01*
X147799274Y-103969108D01*
X147801087Y-103998298D01*
X147795327Y-104041042D01*
X147784413Y-104079848D01*
X147770889Y-104108201D01*
X147755272Y-104128328D01*
X147735588Y-104144272D01*
X147716228Y-104153150D01*
X147696592Y-104156019D01*
X147677638Y-104153512D01*
X147662370Y-104146387D01*
X147649896Y-104134545D01*
X147639897Y-104117002D01*
X147635078Y-104098190D01*
X147634552Y-104070848D01*
X147640203Y-104031975D01*
X147650536Y-103995885D01*
X147663890Y-103968793D01*
X147679831Y-103948901D01*
X147699813Y-103933325D01*
X147720223Y-103924464D01*
X147741655Y-103921546D01*
X147762980Y-103924800D01*
G37*
G36*
X147325587Y-104034875D02*
G01*
X147212961Y-104034875D01*
X147360514Y-103866897D01*
X147325587Y-104034875D01*
G37*
G36*
X148434393Y-104292769D02*
G01*
X146736317Y-104292769D01*
X146736317Y-103933270D01*
X146798817Y-103933270D01*
X146847199Y-103914548D01*
X146892614Y-103890132D01*
X146935379Y-103859814D01*
X146860396Y-104220500D01*
X146954277Y-104220500D01*
X146975404Y-104118894D01*
X147107662Y-104118894D01*
X147308124Y-104118894D01*
X147286997Y-104220500D01*
X147377855Y-104220500D01*
X147507762Y-104220500D01*
X147594957Y-104220500D01*
X147606039Y-104167224D01*
X147617539Y-104186231D01*
X147631240Y-104201666D01*
X147647255Y-104213935D01*
X147665265Y-104223047D01*
X147684018Y-104228453D01*
X147703828Y-104230269D01*
X147733478Y-104227259D01*
X147754918Y-104220500D01*
X147939217Y-104220500D01*
X148033067Y-104220500D01*
X148045432Y-104161026D01*
X148153357Y-104161026D01*
X148154202Y-104183398D01*
X148158669Y-104198731D01*
X148167812Y-104210973D01*
X148183826Y-104221476D01*
X148203509Y-104227951D01*
X148227790Y-104230269D01*
X148268138Y-104226596D01*
X148304971Y-104215828D01*
X148312542Y-104140937D01*
X148287356Y-104148290D01*
X148272883Y-104150158D01*
X148264236Y-104148874D01*
X148257984Y-104145334D01*
X148253792Y-104139873D01*
X148252184Y-104133091D01*
X148261221Y-104080854D01*
X148291904Y-103933270D01*
X148356048Y-103933270D01*
X148371893Y-103857066D01*
X148307749Y-103857066D01*
X148334158Y-103730060D01*
X148228156Y-103786724D01*
X148213532Y-103857066D01*
X148170423Y-103857066D01*
X148154578Y-103933270D01*
X148197687Y-103933270D01*
X148164531Y-104092791D01*
X148155682Y-104140007D01*
X148153357Y-104161026D01*
X148045432Y-104161026D01*
X148108630Y-103857066D01*
X148014780Y-103857066D01*
X147939217Y-104220500D01*
X147754918Y-104220500D01*
X147762306Y-104218171D01*
X147790831Y-104202566D01*
X147819446Y-104179558D01*
X147843220Y-104152847D01*
X147863461Y-104120459D01*
X147880091Y-104081534D01*
X147892780Y-104034997D01*
X147899291Y-103988165D01*
X147898371Y-103950533D01*
X147891440Y-103920253D01*
X147879286Y-103895779D01*
X147861191Y-103874669D01*
X147839511Y-103859766D01*
X147813547Y-103850554D01*
X147782138Y-103847296D01*
X147753692Y-103850252D01*
X147725630Y-103859234D01*
X147697438Y-103874776D01*
X147668718Y-103897855D01*
X147687768Y-103806264D01*
X148025343Y-103806264D01*
X148119193Y-103806264D01*
X148137481Y-103718336D01*
X148043631Y-103718336D01*
X148025343Y-103806264D01*
X147687768Y-103806264D01*
X147706057Y-103718336D01*
X147612176Y-103718336D01*
X147538879Y-104070848D01*
X147507762Y-104220500D01*
X147377855Y-104220500D01*
X147398982Y-104118894D01*
X147459799Y-104118894D01*
X147477262Y-104034875D01*
X147416446Y-104034875D01*
X147482269Y-103718336D01*
X147403409Y-103718336D01*
X147125359Y-104034875D01*
X147125064Y-104035211D01*
X147107662Y-104118894D01*
X146975404Y-104118894D01*
X147058691Y-103718336D01*
X146982518Y-103718336D01*
X146963209Y-103747022D01*
X146938153Y-103773743D01*
X146906650Y-103798631D01*
X146872218Y-103820345D01*
X146842590Y-103835551D01*
X146817104Y-103845342D01*
X146798817Y-103933270D01*
X146736317Y-103933270D01*
X146736317Y-103655836D01*
X148434393Y-103655836D01*
X148434393Y-104292769D01*
G37*
G36*
X140383451Y-104220500D02*
G01*
X140487865Y-103718336D01*
X140635846Y-103718336D01*
X140653492Y-104060887D01*
X140812586Y-103718336D01*
X140960933Y-103718336D01*
X140856519Y-104220500D01*
X140764623Y-104220500D01*
X140846810Y-103825223D01*
X140667445Y-104220500D01*
X140572190Y-104220500D01*
X140557505Y-103825223D01*
X140475317Y-104220500D01*
X140383451Y-104220500D01*
G37*
G36*
X141225239Y-103849446D02*
G01*
X141254259Y-103854933D01*
X141273472Y-103862592D01*
X141290288Y-103874277D01*
X141301702Y-103887159D01*
X141308643Y-103901427D01*
X141311290Y-103917605D01*
X141310248Y-103944833D01*
X141303209Y-103987858D01*
X141278815Y-104100576D01*
X141270779Y-104145663D01*
X141268557Y-104171529D01*
X141270036Y-104194689D01*
X141275243Y-104220500D01*
X141182370Y-104220500D01*
X141179164Y-104192534D01*
X141178126Y-104181421D01*
X141148220Y-104203161D01*
X141119080Y-104218057D01*
X141088700Y-104227246D01*
X141058050Y-104230269D01*
X141030675Y-104228052D01*
X141008917Y-104221950D01*
X140991645Y-104212478D01*
X140978030Y-104199708D01*
X140967816Y-104183832D01*
X140961764Y-104166065D01*
X140959859Y-104145840D01*
X140962220Y-104125315D01*
X141057509Y-104125315D01*
X141060005Y-104136799D01*
X141065957Y-104147135D01*
X141074680Y-104155157D01*
X141085868Y-104160104D01*
X141100304Y-104161881D01*
X141116785Y-104160103D01*
X141134008Y-104154561D01*
X141152328Y-104144723D01*
X141169669Y-104129992D01*
X141181331Y-104112819D01*
X141187046Y-104097545D01*
X141194795Y-104065802D01*
X141198795Y-104046599D01*
X141138589Y-104061345D01*
X141101291Y-104070856D01*
X141083970Y-104078167D01*
X141071367Y-104088266D01*
X141063105Y-104099493D01*
X141058538Y-104112117D01*
X141057509Y-104125315D01*
X140962220Y-104125315D01*
X140962551Y-104122436D01*
X140972233Y-104093153D01*
X140988349Y-104067329D01*
X141010023Y-104045977D01*
X141036312Y-104030265D01*
X141067876Y-104018934D01*
X141115661Y-104007764D01*
X141178826Y-103994259D01*
X141211801Y-103984072D01*
X141213846Y-103974242D01*
X141215930Y-103955351D01*
X141213920Y-103942438D01*
X141208900Y-103933667D01*
X141200566Y-103927731D01*
X141185668Y-103923348D01*
X141160968Y-103921546D01*
X141137449Y-103924327D01*
X141119721Y-103931957D01*
X141104928Y-103945236D01*
X141089435Y-103968441D01*
X141007492Y-103952809D01*
X141026985Y-103918885D01*
X141048967Y-103892716D01*
X141073468Y-103873156D01*
X141101629Y-103859493D01*
X141137537Y-103850566D01*
X141183102Y-103847296D01*
X141225239Y-103849446D01*
G37*
G36*
X141587341Y-103849791D02*
G01*
X141609049Y-103856923D01*
X141627802Y-103868535D01*
X141644092Y-103884973D01*
X141658094Y-103907044D01*
X141668474Y-103857066D01*
X141756340Y-103857066D01*
X141688410Y-104183833D01*
X141672912Y-104243879D01*
X141658002Y-104280186D01*
X141639067Y-104309367D01*
X141618526Y-104330256D01*
X141593991Y-104346110D01*
X141562656Y-104358710D01*
X141527357Y-104366211D01*
X141481536Y-104368999D01*
X141434434Y-104366335D01*
X141400430Y-104359376D01*
X141376516Y-104349347D01*
X141360239Y-104336942D01*
X141347368Y-104320008D01*
X141339656Y-104301275D01*
X141336861Y-104280129D01*
X141339387Y-104255732D01*
X141342135Y-104243947D01*
X141446946Y-104255670D01*
X141448075Y-104274079D01*
X141453479Y-104283789D01*
X141461654Y-104289357D01*
X141474326Y-104293232D01*
X141493260Y-104294749D01*
X141527674Y-104291554D01*
X141550779Y-104283331D01*
X141563391Y-104273718D01*
X141574593Y-104258785D01*
X141580682Y-104243961D01*
X141588210Y-104214149D01*
X141599353Y-104160538D01*
X141569862Y-104188042D01*
X141540589Y-104206420D01*
X141511080Y-104217008D01*
X141480682Y-104220500D01*
X141452864Y-104217826D01*
X141429690Y-104210268D01*
X141410218Y-104198107D01*
X141393828Y-104181059D01*
X141380298Y-104158309D01*
X141371781Y-104133779D01*
X141367401Y-104105716D01*
X141367583Y-104073390D01*
X141368152Y-104069486D01*
X141465326Y-104069486D01*
X141467431Y-104096690D01*
X141474606Y-104115445D01*
X141487304Y-104130467D01*
X141503072Y-104139270D01*
X141522936Y-104142342D01*
X141544862Y-104139408D01*
X141565965Y-104130472D01*
X141586836Y-104114742D01*
X141603659Y-104094616D01*
X141617354Y-104067881D01*
X141627563Y-104032982D01*
X141632324Y-103995100D01*
X141629933Y-103968095D01*
X141622312Y-103948993D01*
X141609053Y-103933787D01*
X141592191Y-103924741D01*
X141570532Y-103921546D01*
X141549095Y-103924438D01*
X141528889Y-103933179D01*
X141509319Y-103948474D01*
X141493720Y-103968030D01*
X141480588Y-103994789D01*
X141470362Y-104030570D01*
X141465326Y-104069486D01*
X141368152Y-104069486D01*
X141373032Y-104035974D01*
X141385492Y-103990475D01*
X141401839Y-103952638D01*
X141421737Y-103921356D01*
X141445114Y-103895748D01*
X141473160Y-103873986D01*
X141501703Y-103859045D01*
X141531122Y-103850240D01*
X141561923Y-103847296D01*
X141587341Y-103849791D01*
G37*
G36*
X142105882Y-104220500D02*
G01*
X142011971Y-104220500D01*
X142050653Y-104034478D01*
X142059920Y-103980295D01*
X142060514Y-103958122D01*
X142055682Y-103942447D01*
X142046562Y-103931163D01*
X142033637Y-103924101D01*
X142016001Y-103921546D01*
X141992370Y-103924921D01*
X141969381Y-103935285D01*
X141949692Y-103951275D01*
X141935248Y-103971647D01*
X141924537Y-103999349D01*
X141910671Y-104055391D01*
X141876355Y-104220500D01*
X141782474Y-104220500D01*
X141858037Y-103857066D01*
X141945232Y-103857066D01*
X141934149Y-103910342D01*
X141966192Y-103881563D01*
X141998190Y-103862214D01*
X142030626Y-103851005D01*
X142064178Y-103847296D01*
X142093903Y-103850302D01*
X142118583Y-103858806D01*
X142138993Y-103872389D01*
X142151403Y-103888207D01*
X142158544Y-103906984D01*
X142161325Y-103928751D01*
X142159818Y-103953704D01*
X142153021Y-103993689D01*
X142105882Y-104220500D01*
G37*
G36*
X142455189Y-103849748D02*
G01*
X142481602Y-103856619D01*
X142503630Y-103867457D01*
X142522007Y-103882195D01*
X142537185Y-103901152D01*
X142547607Y-103922139D01*
X142554452Y-103947935D01*
X142557202Y-103979642D01*
X142554988Y-104018558D01*
X142546649Y-104066138D01*
X142311474Y-104066138D01*
X142309016Y-104094264D01*
X142312343Y-104115767D01*
X142320419Y-104132358D01*
X142333187Y-104145388D01*
X142349229Y-104153239D01*
X142369603Y-104156019D01*
X142390633Y-104152984D01*
X142409201Y-104143990D01*
X142425001Y-104129128D01*
X142440006Y-104105217D01*
X142530285Y-104120848D01*
X142508492Y-104154459D01*
X142483882Y-104181344D01*
X142456340Y-104202303D01*
X142425462Y-104217663D01*
X142391313Y-104227037D01*
X142353148Y-104230269D01*
X142315788Y-104227314D01*
X142286013Y-104219177D01*
X142262321Y-104206558D01*
X142243593Y-104189593D01*
X142229194Y-104167835D01*
X142219809Y-104142804D01*
X142214850Y-104113976D01*
X142214775Y-104080531D01*
X142220371Y-104041531D01*
X142229819Y-104007520D01*
X142325304Y-104007520D01*
X142465652Y-104007520D01*
X142468202Y-103979579D01*
X142465224Y-103958865D01*
X142457897Y-103943467D01*
X142446169Y-103931323D01*
X142431737Y-103924086D01*
X142413720Y-103921546D01*
X142394084Y-103924058D01*
X142375714Y-103931606D01*
X142358094Y-103944688D01*
X142343758Y-103961439D01*
X142332795Y-103982121D01*
X142325304Y-104007520D01*
X142229819Y-104007520D01*
X142232816Y-103996729D01*
X142249705Y-103958594D01*
X142270796Y-103926216D01*
X142296117Y-103898893D01*
X142326141Y-103875840D01*
X142357068Y-103859914D01*
X142389311Y-103850471D01*
X142423428Y-103847296D01*
X142455189Y-103849748D01*
G37*
G36*
X142837664Y-103857066D02*
G01*
X142821819Y-103933270D01*
X142757675Y-103933270D01*
X142726992Y-104080854D01*
X142717955Y-104133091D01*
X142719563Y-104139873D01*
X142723756Y-104145334D01*
X142730008Y-104148874D01*
X142738654Y-104150158D01*
X142753127Y-104148290D01*
X142778313Y-104140937D01*
X142770742Y-104215828D01*
X142733909Y-104226596D01*
X142693561Y-104230269D01*
X142669280Y-104227951D01*
X142649597Y-104221476D01*
X142633583Y-104210973D01*
X142624440Y-104198731D01*
X142619973Y-104183398D01*
X142619128Y-104161026D01*
X142621453Y-104140007D01*
X142630302Y-104092791D01*
X142663458Y-103933270D01*
X142620349Y-103933270D01*
X142636195Y-103857066D01*
X142679303Y-103857066D01*
X142693927Y-103786724D01*
X142799929Y-103730060D01*
X142773520Y-103857066D01*
X142837664Y-103857066D01*
G37*
G36*
X142918539Y-103806264D02*
G01*
X142936827Y-103718336D01*
X143030677Y-103718336D01*
X143012390Y-103806264D01*
X142918539Y-103806264D01*
G37*
G36*
X142832413Y-104220500D02*
G01*
X142907976Y-103857066D01*
X143001826Y-103857066D01*
X142926263Y-104220500D01*
X142832413Y-104220500D01*
G37*
G36*
X143390233Y-103960625D02*
G01*
X143294002Y-103978211D01*
X143292972Y-103959905D01*
X143288687Y-103946140D01*
X143281606Y-103935804D01*
X143271678Y-103928174D01*
X143258671Y-103923320D01*
X143241642Y-103921546D01*
X143219267Y-103924357D01*
X143199075Y-103932676D01*
X143180429Y-103946886D01*
X143165796Y-103965448D01*
X143152780Y-103992797D01*
X143141930Y-104031578D01*
X143135731Y-104076256D01*
X143137220Y-104105868D01*
X143143762Y-104124878D01*
X143156172Y-104139848D01*
X143172793Y-104148871D01*
X143195053Y-104152112D01*
X143212336Y-104150314D01*
X143227884Y-104145053D01*
X143242100Y-104136266D01*
X143254064Y-104124419D01*
X143265897Y-104106783D01*
X143277515Y-104081770D01*
X143366450Y-104097401D01*
X143350504Y-104129496D01*
X143332538Y-104156357D01*
X143312614Y-104178605D01*
X143290674Y-104196716D01*
X143266146Y-104211089D01*
X143238914Y-104221539D01*
X143208529Y-104228018D01*
X143174445Y-104230269D01*
X143143122Y-104227958D01*
X143116884Y-104221466D01*
X143094849Y-104211225D01*
X143076328Y-104197336D01*
X143060872Y-104179558D01*
X143047162Y-104153767D01*
X143039227Y-104122731D01*
X143037679Y-104085071D01*
X143043805Y-104039119D01*
X143056247Y-103994496D01*
X143073147Y-103956670D01*
X143094258Y-103924696D01*
X143119612Y-103897855D01*
X143149496Y-103875720D01*
X143181771Y-103860062D01*
X143216949Y-103850556D01*
X143255717Y-103847296D01*
X143288658Y-103849376D01*
X143315104Y-103855085D01*
X143336226Y-103863825D01*
X143352986Y-103875293D01*
X143366869Y-103890283D01*
X143377794Y-103908983D01*
X143385705Y-103932114D01*
X143390233Y-103960625D01*
G37*
G36*
X143610754Y-104220500D02*
G01*
X143715168Y-103718336D01*
X144078326Y-103718336D01*
X144060833Y-103802356D01*
X143796531Y-103802356D01*
X143773389Y-103913730D01*
X144019281Y-103913730D01*
X144001817Y-103997750D01*
X143755926Y-103997750D01*
X143727075Y-104136480D01*
X144000718Y-104136480D01*
X143983255Y-104220500D01*
X143610754Y-104220500D01*
G37*
G36*
X144399323Y-104220500D02*
G01*
X144305411Y-104220500D01*
X144344093Y-104034478D01*
X144353361Y-103980295D01*
X144353954Y-103958122D01*
X144349122Y-103942447D01*
X144340002Y-103931163D01*
X144327077Y-103924101D01*
X144309441Y-103921546D01*
X144285810Y-103924921D01*
X144262821Y-103935285D01*
X144243133Y-103951275D01*
X144228688Y-103971647D01*
X144217977Y-103999349D01*
X144204112Y-104055391D01*
X144169795Y-104220500D01*
X144075915Y-104220500D01*
X144151477Y-103857066D01*
X144238672Y-103857066D01*
X144227589Y-103910342D01*
X144259632Y-103881563D01*
X144291631Y-103862214D01*
X144324066Y-103851005D01*
X144357618Y-103847296D01*
X144387343Y-103850302D01*
X144412023Y-103858806D01*
X144432433Y-103872389D01*
X144444843Y-103888207D01*
X144451985Y-103906984D01*
X144454766Y-103928751D01*
X144453258Y-103953704D01*
X144446461Y-103993689D01*
X144399323Y-104220500D01*
G37*
G36*
X144867414Y-103960625D02*
G01*
X144771182Y-103978211D01*
X144770153Y-103959905D01*
X144765868Y-103946140D01*
X144758787Y-103935804D01*
X144748859Y-103928174D01*
X144735852Y-103923320D01*
X144718823Y-103921546D01*
X144696448Y-103924357D01*
X144676256Y-103932676D01*
X144657609Y-103946886D01*
X144642977Y-103965448D01*
X144629961Y-103992797D01*
X144619111Y-104031578D01*
X144612911Y-104076256D01*
X144614401Y-104105868D01*
X144620942Y-104124878D01*
X144633353Y-104139848D01*
X144649974Y-104148871D01*
X144672233Y-104152112D01*
X144689517Y-104150314D01*
X144705064Y-104145053D01*
X144719281Y-104136266D01*
X144731244Y-104124419D01*
X144743078Y-104106783D01*
X144754696Y-104081770D01*
X144843631Y-104097401D01*
X144827685Y-104129496D01*
X144809719Y-104156357D01*
X144789795Y-104178605D01*
X144767855Y-104196716D01*
X144743327Y-104211089D01*
X144716095Y-104221539D01*
X144685710Y-104228018D01*
X144651625Y-104230269D01*
X144620303Y-104227958D01*
X144594065Y-104221466D01*
X144572030Y-104211225D01*
X144553509Y-104197336D01*
X144538053Y-104179558D01*
X144524343Y-104153767D01*
X144516408Y-104122731D01*
X144514860Y-104085071D01*
X144520986Y-104039119D01*
X144533428Y-103994496D01*
X144550328Y-103956670D01*
X144571439Y-103924696D01*
X144596793Y-103897855D01*
X144626677Y-103875720D01*
X144658951Y-103860062D01*
X144694130Y-103850556D01*
X144732897Y-103847296D01*
X144765839Y-103849376D01*
X144792284Y-103855085D01*
X144813406Y-103863825D01*
X144830167Y-103875293D01*
X144844049Y-103890283D01*
X144854974Y-103908983D01*
X144862886Y-103932114D01*
X144867414Y-103960625D01*
G37*
G36*
X145163640Y-103849704D02*
G01*
X145191106Y-103856520D01*
X145214639Y-103867371D01*
X145234865Y-103882206D01*
X145252188Y-103901305D01*
X145268296Y-103929082D01*
X145277724Y-103960391D01*
X145280328Y-103996207D01*
X145275269Y-104037745D01*
X145263615Y-104077905D01*
X145246402Y-104113920D01*
X145223548Y-104146354D01*
X145194669Y-104175589D01*
X145161395Y-104199902D01*
X145126929Y-104216804D01*
X145090823Y-104226874D01*
X145052489Y-104230269D01*
X145020581Y-104227670D01*
X144991308Y-104220060D01*
X144964165Y-104207494D01*
X144940604Y-104189892D01*
X144922965Y-104167881D01*
X144910737Y-104140754D01*
X144904668Y-104111150D01*
X144904068Y-104075860D01*
X144904142Y-104075329D01*
X145000792Y-104075329D01*
X145003852Y-104102559D01*
X145012647Y-104122924D01*
X145027296Y-104139138D01*
X145045497Y-104148743D01*
X145068426Y-104152112D01*
X145091829Y-104148995D01*
X145114191Y-104139531D01*
X145136142Y-104122924D01*
X145153871Y-104101672D01*
X145168158Y-104073882D01*
X145178671Y-104038081D01*
X145182883Y-104002013D01*
X145179841Y-103974999D01*
X145171099Y-103954672D01*
X145156575Y-103938446D01*
X145138450Y-103928830D01*
X145115534Y-103925454D01*
X145092127Y-103928570D01*
X145069703Y-103938040D01*
X145047635Y-103954672D01*
X145029777Y-103975906D01*
X145015490Y-104003475D01*
X145005075Y-104038783D01*
X145000792Y-104075329D01*
X144904142Y-104075329D01*
X144909973Y-104033593D01*
X144918946Y-104002310D01*
X144932959Y-103971235D01*
X144952441Y-103940109D01*
X144975975Y-103912096D01*
X145002443Y-103889232D01*
X145032095Y-103871110D01*
X145064247Y-103857836D01*
X145097236Y-103849941D01*
X145131441Y-103847296D01*
X145163640Y-103849704D01*
G37*
G36*
X145645663Y-104220500D02*
G01*
X145558469Y-104220500D01*
X145569551Y-104167224D01*
X145539671Y-104194931D01*
X145508460Y-104214302D01*
X145475508Y-104226471D01*
X145445506Y-104230269D01*
X145416227Y-104226976D01*
X145391360Y-104217520D01*
X145369916Y-104201919D01*
X145351351Y-104179375D01*
X145338863Y-104153686D01*
X145331775Y-104122457D01*
X145331194Y-104099610D01*
X145428163Y-104099610D01*
X145432195Y-104117704D01*
X145441471Y-104134842D01*
X145453469Y-104146463D01*
X145468539Y-104153514D01*
X145487669Y-104156019D01*
X145508198Y-104153034D01*
X145528365Y-104143816D01*
X145548790Y-104127290D01*
X145565130Y-104106472D01*
X145578799Y-104078428D01*
X145589365Y-104041408D01*
X145595169Y-103998403D01*
X145593377Y-103969110D01*
X145586404Y-103949604D01*
X145573578Y-103934019D01*
X145557109Y-103924800D01*
X145535785Y-103921546D01*
X145514565Y-103924480D01*
X145494187Y-103933428D01*
X145474052Y-103949237D01*
X145457931Y-103969339D01*
X145444546Y-103996361D01*
X145434302Y-104031975D01*
X145428192Y-104072187D01*
X145428163Y-104099610D01*
X145331194Y-104099610D01*
X145330804Y-104084263D01*
X145337276Y-104037409D01*
X145349883Y-103991120D01*
X145366260Y-103952828D01*
X145386047Y-103921360D01*
X145409145Y-103895779D01*
X145436932Y-103874072D01*
X145465469Y-103859115D01*
X145495142Y-103850266D01*
X145526473Y-103847296D01*
X145554896Y-103850540D01*
X145579222Y-103859886D01*
X145600384Y-103875378D01*
X145618888Y-103897855D01*
X145656227Y-103718336D01*
X145750077Y-103718336D01*
X145645663Y-104220500D01*
G37*
G36*
X145992314Y-103849748D02*
G01*
X146018727Y-103856619D01*
X146040755Y-103867457D01*
X146059132Y-103882195D01*
X146074310Y-103901152D01*
X146084732Y-103922139D01*
X146091577Y-103947935D01*
X146094327Y-103979642D01*
X146092113Y-104018558D01*
X146083774Y-104066138D01*
X145848599Y-104066138D01*
X145846140Y-104094264D01*
X145849468Y-104115767D01*
X145857544Y-104132358D01*
X145870312Y-104145388D01*
X145886354Y-104153239D01*
X145906728Y-104156019D01*
X145927758Y-104152984D01*
X145946326Y-104143990D01*
X145962126Y-104129128D01*
X145977131Y-104105217D01*
X146067410Y-104120848D01*
X146045617Y-104154459D01*
X146021007Y-104181344D01*
X145993465Y-104202303D01*
X145962587Y-104217663D01*
X145928438Y-104227037D01*
X145890273Y-104230269D01*
X145852913Y-104227314D01*
X145823137Y-104219177D01*
X145799446Y-104206558D01*
X145780718Y-104189593D01*
X145766319Y-104167835D01*
X145756934Y-104142804D01*
X145751975Y-104113976D01*
X145751900Y-104080531D01*
X145757496Y-104041531D01*
X145766944Y-104007520D01*
X145862429Y-104007520D01*
X146002777Y-104007520D01*
X146005327Y-103979579D01*
X146002349Y-103958865D01*
X145995022Y-103943467D01*
X145983294Y-103931323D01*
X145968862Y-103924086D01*
X145950845Y-103921546D01*
X145931209Y-103924058D01*
X145912839Y-103931606D01*
X145895218Y-103944688D01*
X145880882Y-103961439D01*
X145869920Y-103982121D01*
X145862429Y-104007520D01*
X145766944Y-104007520D01*
X145769941Y-103996729D01*
X145786830Y-103958594D01*
X145807921Y-103926216D01*
X145833242Y-103898893D01*
X145863266Y-103875840D01*
X145894192Y-103859914D01*
X145926436Y-103850471D01*
X145960553Y-103847296D01*
X145992314Y-103849748D01*
G37*
G36*
X146226381Y-104220500D02*
G01*
X146132500Y-104220500D01*
X146208063Y-103857066D01*
X146295258Y-103857066D01*
X146284542Y-103908632D01*
X146314383Y-103875993D01*
X146334978Y-103859692D01*
X146356132Y-103850355D01*
X146378117Y-103847296D01*
X146398924Y-103849326D01*
X146418147Y-103855318D01*
X146436186Y-103865370D01*
X146389749Y-103948963D01*
X146368694Y-103936960D01*
X146348900Y-103933270D01*
X146330108Y-103936076D01*
X146313179Y-103944475D01*
X146298706Y-103958829D01*
X146283229Y-103984927D01*
X146270080Y-104022436D01*
X146249859Y-104107537D01*
X146226381Y-104220500D01*
G37*
D10*
G36*
X135870179Y-103073000D02*
G01*
X135762798Y-102771702D01*
X135828579Y-102771702D01*
X135904618Y-102994451D01*
X135978184Y-102771702D01*
X136042535Y-102771702D01*
X135934934Y-103073000D01*
X135870179Y-103073000D01*
G37*
G36*
X136156660Y-102851247D02*
G01*
X136176950Y-102857427D01*
X136194409Y-102867413D01*
X136209506Y-102881391D01*
X136218829Y-102894414D01*
X136226372Y-102910264D01*
X136232009Y-102929451D01*
X136235471Y-102952589D01*
X136236360Y-102980383D01*
X136092086Y-102980383D01*
X136094085Y-102996899D01*
X136098815Y-103009891D01*
X136106026Y-103020115D01*
X136115661Y-103028019D01*
X136126581Y-103032703D01*
X136139219Y-103034311D01*
X136151885Y-103032440D01*
X136161970Y-103027094D01*
X136169745Y-103018205D01*
X136175910Y-103003830D01*
X136233283Y-103013209D01*
X136224184Y-103033424D01*
X136212547Y-103049510D01*
X136198332Y-103062082D01*
X136181669Y-103071168D01*
X136161991Y-103076851D01*
X136138596Y-103078861D01*
X136115831Y-103077173D01*
X136096578Y-103072411D01*
X136080239Y-103064865D01*
X136066345Y-103054590D01*
X136054589Y-103041401D01*
X136045453Y-103025992D01*
X136038744Y-103008475D01*
X136034539Y-102988493D01*
X136033065Y-102965618D01*
X136034550Y-102945212D01*
X136093112Y-102945212D01*
X136179189Y-102945212D01*
X136177278Y-102928799D01*
X136172865Y-102916278D01*
X136166275Y-102906780D01*
X136157395Y-102899415D01*
X136147545Y-102895097D01*
X136136361Y-102893628D01*
X136124405Y-102895201D01*
X136114163Y-102899776D01*
X136105202Y-102907513D01*
X136098606Y-102917427D01*
X136094498Y-102929768D01*
X136093112Y-102945212D01*
X136034550Y-102945212D01*
X136035052Y-102938314D01*
X136040633Y-102915429D01*
X136049430Y-102896203D01*
X136061348Y-102880035D01*
X136076504Y-102866434D01*
X136093226Y-102856879D01*
X136111850Y-102851078D01*
X136132863Y-102849078D01*
X136156660Y-102851247D01*
G37*
G36*
X136338301Y-103073000D02*
G01*
X136280709Y-103073000D01*
X136280709Y-102854939D01*
X136334198Y-102854939D01*
X136334198Y-102885879D01*
X136348329Y-102866302D01*
X136358891Y-102856515D01*
X136370525Y-102850960D01*
X136383785Y-102849078D01*
X136396616Y-102850259D01*
X136409193Y-102853825D01*
X136421704Y-102859922D01*
X136403881Y-102910077D01*
X136389274Y-102902821D01*
X136376825Y-102900662D01*
X136365504Y-102902392D01*
X136356326Y-102907385D01*
X136349300Y-102915963D01*
X136343119Y-102931656D01*
X136339859Y-102953963D01*
X136338301Y-103005222D01*
X136338301Y-103073000D01*
G37*
G36*
X136581476Y-103073000D02*
G01*
X136523883Y-103073000D01*
X136523883Y-102856588D01*
X136501699Y-102874655D01*
X136477003Y-102889318D01*
X136449493Y-102900662D01*
X136449493Y-102847905D01*
X136464015Y-102841964D01*
X136480250Y-102832823D01*
X136498476Y-102819878D01*
X136514613Y-102804954D01*
X136526548Y-102788955D01*
X136534746Y-102771702D01*
X136581476Y-102771702D01*
X136581476Y-103073000D01*
G37*
G36*
X136679734Y-103073000D02*
G01*
X136679734Y-103015554D01*
X136737309Y-103015554D01*
X136737309Y-103073000D01*
X136679734Y-103073000D01*
G37*
G36*
X136902677Y-102773777D02*
G01*
X136920746Y-102779698D01*
X136936270Y-102789315D01*
X136949672Y-102802897D01*
X136959107Y-102817454D01*
X136967073Y-102836072D01*
X136973323Y-102859594D01*
X136977466Y-102889001D01*
X136978981Y-102925391D01*
X136977463Y-102961633D01*
X136973306Y-102991014D01*
X136967021Y-103014602D01*
X136958996Y-103033354D01*
X136949470Y-103048087D01*
X136936190Y-103061458D01*
X136920746Y-103070949D01*
X136902706Y-103076805D01*
X136881418Y-103078861D01*
X136860233Y-103076684D01*
X136841736Y-103070388D01*
X136825348Y-103060002D01*
X136810710Y-103045119D01*
X136802265Y-103031930D01*
X136795006Y-103014393D01*
X136789211Y-102991495D01*
X136785314Y-102962061D01*
X136783898Y-102925391D01*
X136844122Y-102925391D01*
X136845787Y-102974079D01*
X136849453Y-102997950D01*
X136853837Y-103010899D01*
X136858351Y-103019249D01*
X136862880Y-103024255D01*
X136871559Y-103029158D01*
X136881418Y-103030794D01*
X136891300Y-103029135D01*
X136900066Y-103024145D01*
X136906905Y-103015674D01*
X136912797Y-103000295D01*
X136916921Y-102974359D01*
X136918732Y-102925391D01*
X136917067Y-102876689D01*
X136913402Y-102852833D01*
X136906770Y-102835186D01*
X136899974Y-102826418D01*
X136891285Y-102821430D01*
X136881418Y-102819769D01*
X136871549Y-102821426D01*
X136862770Y-102826418D01*
X136855945Y-102834887D01*
X136850057Y-102850268D01*
X136845930Y-102876383D01*
X136844122Y-102925391D01*
X136783898Y-102925391D01*
X136783874Y-102924769D01*
X136785389Y-102888719D01*
X136789540Y-102859463D01*
X136795821Y-102835942D01*
X136803848Y-102817216D01*
X136813384Y-102802476D01*
X136826664Y-102789104D01*
X136842106Y-102779613D01*
X136860140Y-102773758D01*
X136881418Y-102771702D01*
X136902677Y-102773777D01*
G37*
D14*
%TO.C,C3*%
X137185980Y-88898000D02*
X136904820Y-88898000D01*
X137185980Y-89918000D02*
X136904820Y-89918000D01*
%TO.C,R5*%
X147844742Y-89285500D02*
X148319258Y-89285500D01*
X147844742Y-90330500D02*
X148319258Y-90330500D01*
%TO.C,R10*%
X143933142Y-99680500D02*
X144407658Y-99680500D01*
X143933142Y-100725500D02*
X144407658Y-100725500D01*
D15*
%TO.C,J4*%
X134549805Y-83660705D02*
X134549805Y-79860705D01*
X134549805Y-83660705D02*
X136746805Y-83660705D01*
X142549805Y-76060705D02*
X136274805Y-76060705D01*
X142549805Y-76060705D02*
X148761805Y-76060705D01*
X150549805Y-83660705D02*
X148407805Y-83660705D01*
X150549805Y-83660705D02*
X150549805Y-79860705D01*
D16*
X151457995Y-85188705D02*
G75*
G02*
X150983615Y-85188705I-237190J0D01*
G01*
X150983615Y-85188705D02*
G75*
G02*
X151457995Y-85188705I237190J0D01*
G01*
D14*
%TO.C,C11*%
X148222580Y-87774000D02*
X147941420Y-87774000D01*
X148222580Y-88794000D02*
X147941420Y-88794000D01*
%TO.C,C7*%
X137185980Y-98296000D02*
X136904820Y-98296000D01*
X137185980Y-99316000D02*
X136904820Y-99316000D01*
%TO.C,R9*%
X142485342Y-86701100D02*
X142959858Y-86701100D01*
X142485342Y-87746100D02*
X142959858Y-87746100D01*
%TO.C,S2*%
X145015200Y-107212000D02*
X145015200Y-107612000D01*
X145015200Y-110212000D02*
X145015200Y-109812000D01*
X149015200Y-107212000D02*
X145015200Y-107212000D01*
X149015200Y-107612000D02*
X149015200Y-107212000D01*
X149015200Y-109812000D02*
X149015200Y-110212000D01*
X149015200Y-110212000D02*
X145015200Y-110212000D01*
%TO.C,S1*%
X136049000Y-107212000D02*
X140049000Y-107212000D01*
X136049000Y-107612000D02*
X136049000Y-107212000D01*
X136049000Y-109812000D02*
X136049000Y-110212000D01*
X136049000Y-110212000D02*
X140049000Y-110212000D01*
X140049000Y-107212000D02*
X140049000Y-107612000D01*
X140049000Y-110212000D02*
X140049000Y-109812000D01*
%TO.C,U2*%
X138909400Y-90666800D02*
X138909400Y-91116800D01*
X138909400Y-97886800D02*
X138909400Y-97436800D01*
X139359400Y-90666800D02*
X138909400Y-90666800D01*
X139359400Y-97886800D02*
X138909400Y-97886800D01*
X145679400Y-90666800D02*
X146129400Y-90666800D01*
X145679400Y-97886800D02*
X146129400Y-97886800D01*
X146129400Y-90666800D02*
X146129400Y-91116800D01*
X146129400Y-97886800D02*
X146129400Y-97436800D01*
X147059400Y-97906800D02*
X146379400Y-97906800D01*
X146719400Y-97436800D01*
X147059400Y-97906800D01*
G36*
X147059400Y-97906800D02*
G01*
X146379400Y-97906800D01*
X146719400Y-97436800D01*
X147059400Y-97906800D01*
G37*
D15*
%TO.C,J5*%
X124904905Y-93644795D02*
X124904905Y-87432795D01*
X124904905Y-93644795D02*
X124904905Y-99919795D01*
X132504905Y-85644795D02*
X128704905Y-85644795D01*
X132504905Y-85644795D02*
X132504905Y-87786795D01*
X132504905Y-101644795D02*
X128704905Y-101644795D01*
X132504905Y-101644795D02*
X132504905Y-99447795D01*
D16*
X134270095Y-84973795D02*
G75*
G02*
X133795715Y-84973795I-237190J0D01*
G01*
X133795715Y-84973795D02*
G75*
G02*
X134270095Y-84973795I237190J0D01*
G01*
D15*
%TO.C,J6*%
X152559295Y-85680205D02*
X152559295Y-87877205D01*
X152559295Y-85680205D02*
X156359295Y-85680205D01*
X152559295Y-101680205D02*
X152559295Y-99538205D01*
X152559295Y-101680205D02*
X156359295Y-101680205D01*
X160159295Y-93680205D02*
X160159295Y-87405205D01*
X160159295Y-93680205D02*
X160159295Y-99892205D01*
D16*
X151268485Y-102351205D02*
G75*
G02*
X150794105Y-102351205I-237190J0D01*
G01*
X150794105Y-102351205D02*
G75*
G02*
X151268485Y-102351205I237190J0D01*
G01*
D14*
%TO.C,C5*%
X147814420Y-98296000D02*
X148095580Y-98296000D01*
X147814420Y-99316000D02*
X148095580Y-99316000D01*
%TD*%
M02*
