M48
; DRILL file {KiCad 9.0.6} date 2026-03-07T10:39:54+0800
; FORMAT={-:-/ absolute / metric / decimal}
; #@! TF.CreationDate,2026-03-07T10:39:54+08:00
; #@! TF.GenerationSoftware,Kicad,Pcbnew,9.0.6
; #@! TF.FileFunction,Plated,1,4,PTH
FMAT,2
METRIC
; #@! TA.AperFunction,Plated,PTH,ViaDrill
T1C0.300
%
G90
G05
T1
X125.789Y-93.091
X125.857Y-94.361
X126.238Y-97.663
X127.0Y-88.392
X127.635Y-95.631
X128.016Y-87.545
X128.016Y-91.948
X128.295Y-94.361
X128.295Y-94.996
X128.422Y-90.043
X128.422Y-90.678
X128.905Y-94.361
X128.905Y-94.996
X129.032Y-90.043
X129.032Y-90.678
X129.159Y-96.647
X133.121Y-84.836
X133.121Y-85.471
X133.731Y-84.836
X133.731Y-85.471
X133.858Y-79.985
X133.858Y-80.62
X134.264Y-106.426
X134.264Y-107.061
X134.468Y-79.985
X134.468Y-80.62
X134.62Y-91.059
X134.874Y-106.426
X134.874Y-107.061
X135.001Y-97.028
X135.23Y-83.083
X135.23Y-83.693
X135.28Y-102.87
X135.28Y-103.505
X135.28Y-104.14
X135.687Y-97.604
X135.763Y-94.302
X135.89Y-102.87
X135.89Y-103.505
X135.89Y-104.14
X136.27Y-98.806
X137.12Y-96.126
X137.16Y-91.821
X137.17Y-92.712
X137.249Y-95.087
X138.198Y-102.743
X138.405Y-81.636
X138.43Y-82.274
X138.43Y-82.906
X138.43Y-87.035
X138.43Y-98.806
X138.455Y-85.725
X138.557Y-89.408
X138.633Y-90.424
X139.09Y-85.725
X139.119Y-98.019
X139.7Y-87.035
X139.7Y-102.743
X139.725Y-85.725
X139.751Y-99.593
X139.807Y-91.751
X139.807Y-95.561
X140.588Y-101.485
X140.76Y-85.568
X140.76Y-86.182
X140.97Y-81.636
X140.97Y-82.274
X140.97Y-82.906
X141.029Y-109.542
X141.478Y-101.487
X141.845Y-99.677
X141.986Y-96.647
X142.278Y-101.487
X142.517Y-88.825
X142.57Y-81.356
X142.57Y-85.808
X143.145Y-88.011
X143.383Y-78.69
X144.018Y-109.601
X144.406Y-85.512
X144.406Y-86.131
X144.907Y-78.69
X145.009Y-80.416
X145.009Y-81.051
X145.231Y-93.021
X145.231Y-95.561
X145.415Y-87.086
X145.517Y-85.776
X145.644Y-80.416
X145.644Y-81.077
X146.152Y-85.776
X146.685Y-87.086
X146.736Y-89.188
X146.787Y-85.776
X146.812Y-109.982
X147.356Y-90.783
X147.904Y-92.304
X147.937Y-93.113
X147.955Y-91.313
X148.006Y-81.636
X148.006Y-82.274
X148.006Y-82.906
X148.301Y-95.666
X148.971Y-80.01
X149.461Y-96.012
X149.733Y-99.187
X150.343Y-83.134
X150.343Y-83.744
X151.409Y-84.836
X151.409Y-85.471
X152.019Y-84.836
X152.019Y-85.471
X152.654Y-78.105
X152.654Y-78.74
X152.781Y-87.68
X154.23Y-86.849
X154.305Y-85.852
X154.584Y-100.525
X154.788Y-101.549
X155.043Y-90.055
X155.321Y-90.805
X156.362Y-89.535
X156.362Y-90.17
X156.362Y-95.123
X156.362Y-95.758
X156.718Y-98.552
X156.972Y-89.535
X156.972Y-90.17
X156.972Y-95.123
X156.972Y-95.758
X157.226Y-92.71
X157.226Y-93.599
M30
