%TF.GenerationSoftware,KiCad,Pcbnew,9.0.6*%
%TF.CreationDate,2026-03-07T10:39:48+08:00*%
%TF.ProjectId,Motor35,4d6f746f-7233-4352-9e6b-696361645f70,rev?*%
%TF.SameCoordinates,Original*%
%TF.FileFunction,Copper,L2,Inr*%
%TF.FilePolarity,Positive*%
%FSLAX46Y46*%
G04 Gerber Fmt 4.6, Leading zero omitted, Abs format (unit mm)*
G04 Created by KiCad (PCBNEW 9.0.6) date 2026-03-07 10:39:48*
%MOMM*%
%LPD*%
G01*
G04 APERTURE LIST*
%TA.AperFunction,ViaPad*%
%ADD10C,0.600000*%
%TD*%
G04 APERTURE END LIST*
D10*
%TO.N,GND*%
X151409400Y-84836000D03*
X156362400Y-95758000D03*
X145516600Y-85775800D03*
X128295400Y-94361000D03*
X128905000Y-94996000D03*
X156972000Y-95123000D03*
X133121400Y-84836000D03*
X128905000Y-94361000D03*
X138455400Y-85725000D03*
X129032000Y-90043000D03*
X128295400Y-94996000D03*
X143144800Y-88011000D03*
X139807400Y-91750600D03*
X156362400Y-90170000D03*
X129032000Y-90678000D03*
X128422400Y-90678000D03*
X146151600Y-85775800D03*
X156972000Y-90170000D03*
X151409400Y-85471000D03*
X156972000Y-95758000D03*
X147936600Y-93112720D03*
X128422400Y-90043000D03*
X156362400Y-95123000D03*
X133731000Y-84836000D03*
X136270400Y-98806000D03*
X156972000Y-89535000D03*
X133731000Y-85471000D03*
X156362400Y-89535000D03*
X139090400Y-85725000D03*
X133121400Y-85471000D03*
X152019000Y-84836000D03*
X152019000Y-85471000D03*
X139725400Y-85725000D03*
X146786600Y-85775800D03*
%TO.N,+5V*%
X135686997Y-97604000D03*
X135763000Y-94302000D03*
X144907000Y-78689800D03*
X139700000Y-102743000D03*
X143383000Y-78689800D03*
X138198500Y-102743000D03*
%TO.N,/OSC_IN*%
X148300906Y-95666094D03*
%TO.N,+3.3V*%
X127635000Y-95631000D03*
X156718000Y-98552000D03*
X152654000Y-78105000D03*
X152654000Y-78740000D03*
X141986000Y-96647000D03*
X138557000Y-89408000D03*
X146735800Y-89187600D03*
X145231400Y-95560600D03*
X142570200Y-81356200D03*
X146812000Y-109982000D03*
X138430000Y-98806000D03*
X145231400Y-93020600D03*
%TO.N,/OSC_OUT*%
X149461400Y-96012000D03*
%TO.N,VCC*%
X134264400Y-106426000D03*
X134874000Y-106426000D03*
X133858000Y-79984600D03*
X134467600Y-80619600D03*
X133858000Y-80619600D03*
X134264400Y-107061000D03*
X134874000Y-107061000D03*
X134467600Y-79984600D03*
%TO.N,+24V*%
X135890000Y-104140000D03*
X135890000Y-103505000D03*
X135890000Y-102870000D03*
X135280400Y-103505000D03*
X135280400Y-102870000D03*
X135280400Y-104140000D03*
%TO.N,Net-(IC1-RS)*%
X144405800Y-86131400D03*
X144405800Y-85511802D03*
X150342600Y-83134200D03*
X150342600Y-83743800D03*
%TO.N,/H_BRID/MOTOR_OUT_A-*%
X148005800Y-81635600D03*
X148005800Y-82905600D03*
X148005800Y-82273600D03*
%TO.N,/TB_IN_AM*%
X146685000Y-87086200D03*
%TO.N,/TB_IN_AP*%
X145415000Y-87086200D03*
%TO.N,/H_BRID/MOTOR_OUT_A+*%
X145643600Y-80416400D03*
X145008600Y-81051400D03*
X145643600Y-81076800D03*
X145008600Y-80416400D03*
%TO.N,/TB_IN_BP*%
X138430000Y-87035400D03*
%TO.N,/TB_IN_BM*%
X139700000Y-87035400D03*
%TO.N,/H_BRID/MOTOR_OUT_B+*%
X138404600Y-81635600D03*
X138430000Y-82905600D03*
X138430000Y-82273600D03*
%TO.N,Net-(IC2-RS)*%
X140760000Y-85568154D03*
X135229600Y-83083400D03*
X140760000Y-86182200D03*
X135229600Y-83693000D03*
%TO.N,/H_BRID/MOTOR_OUT_B-*%
X140970000Y-81635600D03*
X140970000Y-82273600D03*
X140970000Y-82905600D03*
%TO.N,/MT6816_MOSI*%
X139807400Y-95560600D03*
%TO.N,/MT6816_MISO*%
X137170025Y-92712461D03*
%TO.N,/MT6816_CS*%
X138633200Y-90424000D03*
%TO.N,/MT6816_SCK*%
X137160000Y-91821000D03*
%TO.N,/DEBUG_RX*%
X154230001Y-86849121D03*
X147355751Y-90783000D03*
X155043300Y-90054744D03*
%TO.N,/DEBUG_TX*%
X154305000Y-85852000D03*
X155321000Y-90805000D03*
X147955000Y-91313000D03*
%TO.N,/SWD_DIO*%
X139119400Y-98018600D03*
X154584400Y-100525200D03*
%TO.N,/SWD_CLK*%
X154787600Y-101549200D03*
X139750800Y-99593400D03*
%TO.N,/PORT/_CAN_H*%
X128016000Y-87544797D03*
X126238000Y-97663000D03*
X125789000Y-93091000D03*
X157226000Y-92710000D03*
%TO.N,/PORT/_CAN_L*%
X127000000Y-88392000D03*
X125857000Y-94361000D03*
X129159000Y-96647000D03*
X157226000Y-93599000D03*
%TO.N,/TB_IN_PWM_A*%
X152781000Y-87680203D03*
X142278003Y-101486600D03*
X149733000Y-99187000D03*
%TO.N,/TB_IN_PWM_B*%
X135001000Y-97028000D03*
X134620000Y-91059000D03*
X141845400Y-99676799D03*
%TO.N,/KEY1*%
X140588028Y-101484583D03*
X141029000Y-109542000D03*
%TO.N,/KEY2*%
X141478000Y-101486600D03*
X144018000Y-109601000D03*
%TO.N,/TB_Temp*%
X148971000Y-80010000D03*
X142516784Y-88824882D03*
X147904200Y-92303600D03*
X142570200Y-85808000D03*
%TO.N,/CAN_RX*%
X137248625Y-95086971D03*
%TO.N,/CAN_SILENT*%
X128016000Y-91948000D03*
%TO.N,/CAN_TX*%
X137119690Y-96126205D03*
%TD*%
%TA.AperFunction,Conductor*%
%TO.N,GND*%
G36*
X155950392Y-76180649D02*
G01*
X155958286Y-76181036D01*
X156213648Y-76193578D01*
X156221381Y-76194204D01*
X156281754Y-76201006D01*
X156285937Y-76201551D01*
X156519834Y-76236243D01*
X156529189Y-76238001D01*
X156560057Y-76245046D01*
X156562424Y-76245613D01*
X156794022Y-76303622D01*
X156812161Y-76308166D01*
X156823806Y-76311698D01*
X157089492Y-76406758D01*
X157100734Y-76411414D01*
X157355835Y-76532065D01*
X157366539Y-76537787D01*
X157587388Y-76670154D01*
X157589435Y-76671410D01*
X157616267Y-76688269D01*
X157624119Y-76693637D01*
X157723109Y-76767051D01*
X157813959Y-76834429D01*
X157817404Y-76837079D01*
X157864884Y-76874942D01*
X157870845Y-76880011D01*
X158065649Y-77056567D01*
X158070058Y-77060765D01*
X159158799Y-78149506D01*
X159162997Y-78153915D01*
X159340585Y-78349857D01*
X159345654Y-78355817D01*
X159381907Y-78401278D01*
X159384557Y-78404724D01*
X159526773Y-78596483D01*
X159532171Y-78604380D01*
X159547073Y-78628098D01*
X159548436Y-78630319D01*
X159682184Y-78853468D01*
X159687919Y-78864198D01*
X159808552Y-79119264D01*
X159808556Y-79119271D01*
X159813213Y-79130514D01*
X159908273Y-79396201D01*
X159911805Y-79407846D01*
X159975008Y-79660179D01*
X159975616Y-79662717D01*
X159981853Y-79690046D01*
X159983619Y-79699443D01*
X160018646Y-79935593D01*
X160019208Y-79939904D01*
X160025719Y-79997696D01*
X160026350Y-80005495D01*
X160034813Y-80177788D01*
X160037043Y-80223212D01*
X160039351Y-80270189D01*
X160039500Y-80276272D01*
X160039500Y-107084309D01*
X160039351Y-107090392D01*
X160026378Y-107354506D01*
X160025747Y-107362302D01*
X160025747Y-107362306D01*
X160019237Y-107420086D01*
X160018675Y-107424397D01*
X159983645Y-107660554D01*
X159981879Y-107669950D01*
X159975644Y-107697270D01*
X159975036Y-107699810D01*
X159911825Y-107952162D01*
X159908292Y-107963807D01*
X159813232Y-108229474D01*
X159808575Y-108240718D01*
X159687923Y-108495804D01*
X159682186Y-108506536D01*
X159548429Y-108729684D01*
X159547066Y-108731905D01*
X159532175Y-108755604D01*
X159526777Y-108763502D01*
X159384549Y-108955263D01*
X159381897Y-108958709D01*
X159345637Y-109004174D01*
X159340568Y-109010135D01*
X159162565Y-109206517D01*
X159158371Y-109210921D01*
X158070493Y-110298799D01*
X158066084Y-110302997D01*
X157870142Y-110480585D01*
X157864180Y-110485655D01*
X157818718Y-110521908D01*
X157815274Y-110524557D01*
X157623515Y-110666773D01*
X157615616Y-110672172D01*
X157591897Y-110687074D01*
X157589678Y-110688436D01*
X157366531Y-110822184D01*
X157355799Y-110827920D01*
X157100728Y-110948556D01*
X157089485Y-110953213D01*
X156823798Y-111048273D01*
X156812153Y-111051805D01*
X156559819Y-111115008D01*
X156557281Y-111115616D01*
X156529952Y-111121853D01*
X156520555Y-111123619D01*
X156284405Y-111158646D01*
X156280094Y-111159208D01*
X156222302Y-111165719D01*
X156214503Y-111166350D01*
X156021656Y-111175822D01*
X155949794Y-111179351D01*
X155943727Y-111179500D01*
X129135690Y-111179500D01*
X129129607Y-111179351D01*
X128866384Y-111166422D01*
X128858589Y-111165792D01*
X128798287Y-111158998D01*
X128793994Y-111158438D01*
X128560180Y-111123758D01*
X128550783Y-111121992D01*
X128520045Y-111114977D01*
X128517507Y-111114369D01*
X128267838Y-111051833D01*
X128256193Y-111048301D01*
X127990507Y-110953241D01*
X127979264Y-110948584D01*
X127826940Y-110876542D01*
X127724172Y-110827938D01*
X127713453Y-110822208D01*
X127492667Y-110689878D01*
X127490512Y-110688557D01*
X127463743Y-110671737D01*
X127455867Y-110666353D01*
X127266024Y-110525558D01*
X127262594Y-110522920D01*
X127215109Y-110485053D01*
X127209169Y-110480002D01*
X127127436Y-110405925D01*
X127014328Y-110303411D01*
X127009920Y-110299213D01*
X126186815Y-109476108D01*
X140528500Y-109476108D01*
X140528500Y-109607891D01*
X140562608Y-109735187D01*
X140593569Y-109788812D01*
X140628500Y-109849314D01*
X140721686Y-109942500D01*
X140820521Y-109999563D01*
X140823871Y-110001497D01*
X140835814Y-110008392D01*
X140963108Y-110042500D01*
X140963110Y-110042500D01*
X141094890Y-110042500D01*
X141094892Y-110042500D01*
X141222186Y-110008392D01*
X141336314Y-109942500D01*
X141429500Y-109849314D01*
X141495392Y-109735186D01*
X141529500Y-109607892D01*
X141529500Y-109535108D01*
X143517500Y-109535108D01*
X143517500Y-109666892D01*
X143534554Y-109730539D01*
X143551608Y-109794187D01*
X143581511Y-109845980D01*
X143617500Y-109908314D01*
X143710686Y-110001500D01*
X143824814Y-110067392D01*
X143952108Y-110101500D01*
X143952110Y-110101500D01*
X144083890Y-110101500D01*
X144083892Y-110101500D01*
X144211186Y-110067392D01*
X144325314Y-110001500D01*
X144410706Y-109916108D01*
X146311500Y-109916108D01*
X146311500Y-110047891D01*
X146345608Y-110175187D01*
X146378554Y-110232250D01*
X146411500Y-110289314D01*
X146504686Y-110382500D01*
X146618814Y-110448392D01*
X146746108Y-110482500D01*
X146746110Y-110482500D01*
X146877890Y-110482500D01*
X146877892Y-110482500D01*
X147005186Y-110448392D01*
X147119314Y-110382500D01*
X147212500Y-110289314D01*
X147278392Y-110175186D01*
X147312500Y-110047892D01*
X147312500Y-109916108D01*
X147278392Y-109788814D01*
X147212500Y-109674686D01*
X147119314Y-109581500D01*
X147062250Y-109548554D01*
X147005187Y-109515608D01*
X146941539Y-109498554D01*
X146877892Y-109481500D01*
X146746108Y-109481500D01*
X146618812Y-109515608D01*
X146504686Y-109581500D01*
X146504683Y-109581502D01*
X146411502Y-109674683D01*
X146411500Y-109674686D01*
X146345608Y-109788812D01*
X146311500Y-109916108D01*
X144410706Y-109916108D01*
X144418500Y-109908314D01*
X144484392Y-109794186D01*
X144518500Y-109666892D01*
X144518500Y-109535108D01*
X144484392Y-109407814D01*
X144418500Y-109293686D01*
X144325314Y-109200500D01*
X144268250Y-109167554D01*
X144211187Y-109134608D01*
X144099947Y-109104802D01*
X144083892Y-109100500D01*
X143952108Y-109100500D01*
X143824812Y-109134608D01*
X143710686Y-109200500D01*
X143710683Y-109200502D01*
X143617502Y-109293683D01*
X143617500Y-109293686D01*
X143551608Y-109407812D01*
X143533309Y-109476108D01*
X143517500Y-109535108D01*
X141529500Y-109535108D01*
X141529500Y-109476108D01*
X141495392Y-109348814D01*
X141429500Y-109234686D01*
X141336314Y-109141500D01*
X141265300Y-109100500D01*
X141222187Y-109075608D01*
X141158539Y-109058554D01*
X141094892Y-109041500D01*
X140963108Y-109041500D01*
X140835812Y-109075608D01*
X140721686Y-109141500D01*
X140721683Y-109141502D01*
X140628502Y-109234683D01*
X140628500Y-109234686D01*
X140562608Y-109348812D01*
X140528500Y-109476108D01*
X126186815Y-109476108D01*
X125921200Y-109210493D01*
X125917002Y-109206084D01*
X125739413Y-109010141D01*
X125734344Y-109004181D01*
X125734338Y-109004174D01*
X125698091Y-108958720D01*
X125695441Y-108955274D01*
X125637316Y-108876900D01*
X125553216Y-108763502D01*
X125547836Y-108755631D01*
X125532920Y-108731892D01*
X125531562Y-108729679D01*
X125397815Y-108506531D01*
X125392082Y-108495804D01*
X125271436Y-108240712D01*
X125266786Y-108229485D01*
X125266782Y-108229474D01*
X125171726Y-107963798D01*
X125168194Y-107952153D01*
X125155330Y-107900794D01*
X125104969Y-107699733D01*
X125104406Y-107697382D01*
X125098142Y-107669939D01*
X125096382Y-107660571D01*
X125061347Y-107424368D01*
X125060794Y-107420128D01*
X125054277Y-107362277D01*
X125053650Y-107354531D01*
X125040648Y-107089792D01*
X125040500Y-107083730D01*
X125040500Y-106554038D01*
X127939500Y-106554038D01*
X127939500Y-106554505D01*
X127939500Y-106805962D01*
X127969458Y-106995108D01*
X127978910Y-107054785D01*
X128056760Y-107294383D01*
X128171132Y-107518848D01*
X128319201Y-107722649D01*
X128319205Y-107722654D01*
X128497345Y-107900794D01*
X128497350Y-107900798D01*
X128675117Y-108029952D01*
X128701155Y-108048870D01*
X128844184Y-108121747D01*
X128925616Y-108163239D01*
X128925618Y-108163239D01*
X128925621Y-108163241D01*
X129165215Y-108241090D01*
X129414038Y-108280500D01*
X129414039Y-108280500D01*
X129665961Y-108280500D01*
X129665962Y-108280500D01*
X129914785Y-108241090D01*
X130154379Y-108163241D01*
X130378845Y-108048870D01*
X130582656Y-107900793D01*
X130760793Y-107722656D01*
X130908870Y-107518845D01*
X131023241Y-107294379D01*
X131101090Y-107054785D01*
X131140500Y-106805962D01*
X131140500Y-106554038D01*
X131109784Y-106360108D01*
X133763900Y-106360108D01*
X133763900Y-106491892D01*
X133763900Y-106491893D01*
X133798009Y-106619188D01*
X133798009Y-106619189D01*
X133833984Y-106681500D01*
X133850457Y-106749401D01*
X133833984Y-106805500D01*
X133798009Y-106867810D01*
X133798009Y-106867811D01*
X133763900Y-106995108D01*
X133763900Y-107126891D01*
X133798008Y-107254187D01*
X133819899Y-107292102D01*
X133863900Y-107368314D01*
X133957086Y-107461500D01*
X134051025Y-107515736D01*
X134071210Y-107527390D01*
X134071214Y-107527392D01*
X134198508Y-107561500D01*
X134198510Y-107561500D01*
X134330290Y-107561500D01*
X134330292Y-107561500D01*
X134457586Y-107527392D01*
X134469519Y-107520502D01*
X134507199Y-107498748D01*
X134575099Y-107482274D01*
X134631201Y-107498748D01*
X134680808Y-107527389D01*
X134680809Y-107527389D01*
X134680814Y-107527392D01*
X134808108Y-107561500D01*
X134808110Y-107561500D01*
X134939890Y-107561500D01*
X134939892Y-107561500D01*
X135067186Y-107527392D01*
X135181314Y-107461500D01*
X135274500Y-107368314D01*
X135340392Y-107254186D01*
X135374500Y-107126892D01*
X135374500Y-106995108D01*
X135340392Y-106867814D01*
X135304414Y-106805499D01*
X135287942Y-106737601D01*
X135296264Y-106698479D01*
X135299693Y-106689677D01*
X135340392Y-106619186D01*
X135357848Y-106554038D01*
X153939500Y-106554038D01*
X153939500Y-106554505D01*
X153939500Y-106805962D01*
X153969458Y-106995108D01*
X153978910Y-107054785D01*
X154056760Y-107294383D01*
X154171132Y-107518848D01*
X154319201Y-107722649D01*
X154319205Y-107722654D01*
X154497345Y-107900794D01*
X154497350Y-107900798D01*
X154675117Y-108029952D01*
X154701155Y-108048870D01*
X154844184Y-108121747D01*
X154925616Y-108163239D01*
X154925618Y-108163239D01*
X154925621Y-108163241D01*
X155165215Y-108241090D01*
X155414038Y-108280500D01*
X155414039Y-108280500D01*
X155665961Y-108280500D01*
X155665962Y-108280500D01*
X155914785Y-108241090D01*
X156154379Y-108163241D01*
X156378845Y-108048870D01*
X156582656Y-107900793D01*
X156760793Y-107722656D01*
X156908870Y-107518845D01*
X157023241Y-107294379D01*
X157101090Y-107054785D01*
X157140500Y-106805962D01*
X157140500Y-106554038D01*
X157101090Y-106305215D01*
X157023241Y-106065621D01*
X157023239Y-106065618D01*
X157023239Y-106065616D01*
X156969225Y-105959608D01*
X156908870Y-105841155D01*
X156889952Y-105815117D01*
X156760798Y-105637350D01*
X156760794Y-105637345D01*
X156582654Y-105459205D01*
X156582649Y-105459201D01*
X156378848Y-105311132D01*
X156378847Y-105311131D01*
X156378845Y-105311130D01*
X156308747Y-105275413D01*
X156154383Y-105196760D01*
X155914785Y-105118910D01*
X155665962Y-105079500D01*
X155414038Y-105079500D01*
X155289626Y-105099205D01*
X155165214Y-105118910D01*
X154925616Y-105196760D01*
X154701151Y-105311132D01*
X154497350Y-105459201D01*
X154497345Y-105459205D01*
X154319205Y-105637345D01*
X154319201Y-105637350D01*
X154171132Y-105841151D01*
X154056760Y-106065616D01*
X153978910Y-106305214D01*
X153949343Y-106491890D01*
X153939500Y-106554038D01*
X135357848Y-106554038D01*
X135374500Y-106491892D01*
X135374500Y-106360108D01*
X135340392Y-106232814D01*
X135274500Y-106118686D01*
X135181314Y-106025500D01*
X135124250Y-105992554D01*
X135067187Y-105959608D01*
X135003539Y-105942554D01*
X134939892Y-105925500D01*
X134808108Y-105925500D01*
X134680814Y-105959608D01*
X134680813Y-105959608D01*
X134631199Y-105988253D01*
X134563299Y-106004725D01*
X134507201Y-105988253D01*
X134457586Y-105959608D01*
X134330292Y-105925500D01*
X134198508Y-105925500D01*
X134071212Y-105959608D01*
X133957086Y-106025500D01*
X133957083Y-106025502D01*
X133863902Y-106118683D01*
X133863900Y-106118686D01*
X133798008Y-106232812D01*
X133778608Y-106305215D01*
X133763900Y-106360108D01*
X131109784Y-106360108D01*
X131101090Y-106305215D01*
X131077565Y-106232814D01*
X131040482Y-106118683D01*
X131023241Y-106065621D01*
X131023239Y-106065618D01*
X131023239Y-106065616D01*
X130969225Y-105959608D01*
X130908870Y-105841155D01*
X130889952Y-105815117D01*
X130760798Y-105637350D01*
X130760794Y-105637345D01*
X130582654Y-105459205D01*
X130582649Y-105459201D01*
X130378848Y-105311132D01*
X130378847Y-105311131D01*
X130378845Y-105311130D01*
X130308747Y-105275413D01*
X130154383Y-105196760D01*
X129914785Y-105118910D01*
X129665962Y-105079500D01*
X129414038Y-105079500D01*
X129289626Y-105099205D01*
X129165214Y-105118910D01*
X128925616Y-105196760D01*
X128701151Y-105311132D01*
X128497350Y-105459201D01*
X128497345Y-105459205D01*
X128319205Y-105637345D01*
X128319201Y-105637350D01*
X128171132Y-105841151D01*
X128056760Y-106065616D01*
X127978910Y-106305214D01*
X127949343Y-106491890D01*
X127939500Y-106554038D01*
X125040500Y-106554038D01*
X125040500Y-102804108D01*
X134779900Y-102804108D01*
X134779900Y-102935891D01*
X134814009Y-103063188D01*
X134814009Y-103063189D01*
X134849984Y-103125500D01*
X134866457Y-103193401D01*
X134849984Y-103249500D01*
X134814009Y-103311810D01*
X134814009Y-103311811D01*
X134779900Y-103439108D01*
X134779900Y-103570891D01*
X134814009Y-103698188D01*
X134814009Y-103698189D01*
X134849984Y-103760500D01*
X134866457Y-103828401D01*
X134849984Y-103884500D01*
X134814009Y-103946810D01*
X134814009Y-103946811D01*
X134779900Y-104074108D01*
X134779900Y-104205891D01*
X134814008Y-104333187D01*
X134846954Y-104390250D01*
X134879900Y-104447314D01*
X134973086Y-104540500D01*
X135071921Y-104597563D01*
X135087210Y-104606390D01*
X135087214Y-104606392D01*
X135214508Y-104640500D01*
X135214510Y-104640500D01*
X135346290Y-104640500D01*
X135346292Y-104640500D01*
X135473586Y-104606392D01*
X135485519Y-104599502D01*
X135523199Y-104577748D01*
X135591099Y-104561274D01*
X135647201Y-104577748D01*
X135696808Y-104606389D01*
X135696809Y-104606389D01*
X135696814Y-104606392D01*
X135824108Y-104640500D01*
X135824110Y-104640500D01*
X135955890Y-104640500D01*
X135955892Y-104640500D01*
X136083186Y-104606392D01*
X136197314Y-104540500D01*
X136290500Y-104447314D01*
X136356392Y-104333186D01*
X136390500Y-104205892D01*
X136390500Y-104074108D01*
X136356392Y-103946814D01*
X136320414Y-103884499D01*
X136303942Y-103816601D01*
X136320415Y-103760499D01*
X136356391Y-103698188D01*
X136356392Y-103698186D01*
X136390500Y-103570892D01*
X136390500Y-103439108D01*
X136356392Y-103311814D01*
X136320414Y-103249499D01*
X136303942Y-103181601D01*
X136320415Y-103125499D01*
X136356391Y-103063188D01*
X136356392Y-103063186D01*
X136390500Y-102935892D01*
X136390500Y-102804108D01*
X136356471Y-102677108D01*
X137698000Y-102677108D01*
X137698000Y-102808891D01*
X137732108Y-102936187D01*
X137765054Y-102993250D01*
X137798000Y-103050314D01*
X137891186Y-103143500D01*
X138005314Y-103209392D01*
X138132608Y-103243500D01*
X138132610Y-103243500D01*
X138264390Y-103243500D01*
X138264392Y-103243500D01*
X138391686Y-103209392D01*
X138505814Y-103143500D01*
X138599000Y-103050314D01*
X138664892Y-102936186D01*
X138699000Y-102808892D01*
X138699000Y-102677108D01*
X139199500Y-102677108D01*
X139199500Y-102808891D01*
X139233608Y-102936187D01*
X139266554Y-102993250D01*
X139299500Y-103050314D01*
X139392686Y-103143500D01*
X139506814Y-103209392D01*
X139634108Y-103243500D01*
X139634110Y-103243500D01*
X139765890Y-103243500D01*
X139765892Y-103243500D01*
X139893186Y-103209392D01*
X140007314Y-103143500D01*
X140100500Y-103050314D01*
X140166392Y-102936186D01*
X140200500Y-102808892D01*
X140200500Y-102677108D01*
X140166392Y-102549814D01*
X140100500Y-102435686D01*
X140007314Y-102342500D01*
X139950250Y-102309554D01*
X139893187Y-102276608D01*
X139829539Y-102259554D01*
X139765892Y-102242500D01*
X139634108Y-102242500D01*
X139506812Y-102276608D01*
X139392686Y-102342500D01*
X139392683Y-102342502D01*
X139299502Y-102435683D01*
X139299500Y-102435686D01*
X139233608Y-102549812D01*
X139199500Y-102677108D01*
X138699000Y-102677108D01*
X138664892Y-102549814D01*
X138599000Y-102435686D01*
X138505814Y-102342500D01*
X138448750Y-102309554D01*
X138391687Y-102276608D01*
X138328039Y-102259554D01*
X138264392Y-102242500D01*
X138132608Y-102242500D01*
X138005312Y-102276608D01*
X137891186Y-102342500D01*
X137891183Y-102342502D01*
X137798002Y-102435683D01*
X137798000Y-102435686D01*
X137732108Y-102549812D01*
X137698000Y-102677108D01*
X136356471Y-102677108D01*
X136356392Y-102676814D01*
X136290500Y-102562686D01*
X136197314Y-102469500D01*
X136138741Y-102435683D01*
X136083187Y-102403608D01*
X136019539Y-102386554D01*
X135955892Y-102369500D01*
X135824108Y-102369500D01*
X135696814Y-102403608D01*
X135696813Y-102403608D01*
X135647199Y-102432253D01*
X135579299Y-102448725D01*
X135523201Y-102432253D01*
X135473586Y-102403608D01*
X135346292Y-102369500D01*
X135214508Y-102369500D01*
X135087212Y-102403608D01*
X134973086Y-102469500D01*
X134973083Y-102469502D01*
X134879902Y-102562683D01*
X134879900Y-102562686D01*
X134814008Y-102676812D01*
X134779900Y-102804108D01*
X125040500Y-102804108D01*
X125040500Y-101418691D01*
X140087528Y-101418691D01*
X140087528Y-101550475D01*
X140104582Y-101614122D01*
X140121636Y-101677770D01*
X140122801Y-101679787D01*
X140187528Y-101791897D01*
X140280714Y-101885083D01*
X140379549Y-101942146D01*
X140392633Y-101949700D01*
X140394842Y-101950975D01*
X140522136Y-101985083D01*
X140522138Y-101985083D01*
X140653918Y-101985083D01*
X140653920Y-101985083D01*
X140781214Y-101950975D01*
X140895342Y-101885083D01*
X140944325Y-101836099D01*
X141005646Y-101802615D01*
X141075337Y-101807599D01*
X141119686Y-101836100D01*
X141170686Y-101887100D01*
X141284814Y-101952992D01*
X141412108Y-101987100D01*
X141412110Y-101987100D01*
X141543890Y-101987100D01*
X141543892Y-101987100D01*
X141671186Y-101952992D01*
X141785314Y-101887100D01*
X141790314Y-101882099D01*
X141851632Y-101848610D01*
X141921324Y-101853588D01*
X141965682Y-101882093D01*
X141970689Y-101887100D01*
X142084817Y-101952992D01*
X142212111Y-101987100D01*
X142212113Y-101987100D01*
X142343893Y-101987100D01*
X142343895Y-101987100D01*
X142471189Y-101952992D01*
X142585317Y-101887100D01*
X142678503Y-101793914D01*
X142744395Y-101679786D01*
X142778503Y-101552492D01*
X142778503Y-101420708D01*
X142744395Y-101293414D01*
X142743230Y-101291397D01*
X142735566Y-101278121D01*
X142678503Y-101179286D01*
X142585317Y-101086100D01*
X142528253Y-101053154D01*
X142471190Y-101020208D01*
X142381044Y-100996054D01*
X142343895Y-100986100D01*
X142212111Y-100986100D01*
X142084816Y-101020208D01*
X142032847Y-101050212D01*
X141970689Y-101086100D01*
X141970687Y-101086101D01*
X141970685Y-101086103D01*
X141965678Y-101091110D01*
X141904353Y-101124592D01*
X141834662Y-101119605D01*
X141790320Y-101091106D01*
X141785316Y-101086102D01*
X141785314Y-101086100D01*
X141728250Y-101053154D01*
X141671187Y-101020208D01*
X141581041Y-100996054D01*
X141543892Y-100986100D01*
X141412108Y-100986100D01*
X141284812Y-101020208D01*
X141170686Y-101086100D01*
X141170682Y-101086103D01*
X141121702Y-101135083D01*
X141060379Y-101168567D01*
X140990687Y-101163582D01*
X140946341Y-101135082D01*
X140895344Y-101084085D01*
X140895342Y-101084083D01*
X140812947Y-101036512D01*
X140781215Y-101018191D01*
X140697111Y-100995656D01*
X140653920Y-100984083D01*
X140522136Y-100984083D01*
X140394840Y-101018191D01*
X140280714Y-101084083D01*
X140280711Y-101084085D01*
X140187530Y-101177266D01*
X140187528Y-101177269D01*
X140121636Y-101291395D01*
X140104322Y-101356014D01*
X140087528Y-101418691D01*
X125040500Y-101418691D01*
X125040500Y-100459308D01*
X154083900Y-100459308D01*
X154083900Y-100591091D01*
X154118008Y-100718387D01*
X154150954Y-100775450D01*
X154183900Y-100832514D01*
X154277086Y-100925700D01*
X154378208Y-100984083D01*
X154391214Y-100991592D01*
X154393829Y-100992675D01*
X154395697Y-100994180D01*
X154398253Y-100995656D01*
X154398023Y-100996054D01*
X154448235Y-101036512D01*
X154470305Y-101102805D01*
X154453030Y-101170505D01*
X154434066Y-101194919D01*
X154387103Y-101241882D01*
X154387100Y-101241886D01*
X154321208Y-101356012D01*
X154287100Y-101483308D01*
X154287100Y-101615091D01*
X154321208Y-101742387D01*
X154349793Y-101791896D01*
X154387100Y-101856514D01*
X154480286Y-101949700D01*
X154594414Y-102015592D01*
X154721708Y-102049700D01*
X154721710Y-102049700D01*
X154853490Y-102049700D01*
X154853492Y-102049700D01*
X154980786Y-102015592D01*
X155094914Y-101949700D01*
X155188100Y-101856514D01*
X155253992Y-101742386D01*
X155288100Y-101615092D01*
X155288100Y-101483308D01*
X155253992Y-101356014D01*
X155188100Y-101241886D01*
X155094914Y-101148700D01*
X154980786Y-101082808D01*
X154980783Y-101082807D01*
X154978164Y-101081722D01*
X154976291Y-101080213D01*
X154973747Y-101078744D01*
X154973976Y-101078347D01*
X154923760Y-101037882D01*
X154901694Y-100971588D01*
X154918972Y-100903889D01*
X154937931Y-100879482D01*
X154984900Y-100832514D01*
X155050792Y-100718386D01*
X155084900Y-100591092D01*
X155084900Y-100459308D01*
X155050792Y-100332014D01*
X154984900Y-100217886D01*
X154891714Y-100124700D01*
X154834650Y-100091754D01*
X154777587Y-100058808D01*
X154713939Y-100041754D01*
X154650292Y-100024700D01*
X154518508Y-100024700D01*
X154391212Y-100058808D01*
X154277086Y-100124700D01*
X154277083Y-100124702D01*
X154183902Y-100217883D01*
X154183900Y-100217886D01*
X154118008Y-100332012D01*
X154083900Y-100459308D01*
X125040500Y-100459308D01*
X125040500Y-99527508D01*
X139250300Y-99527508D01*
X139250300Y-99659291D01*
X139284408Y-99786587D01*
X139317354Y-99843650D01*
X139350300Y-99900714D01*
X139443486Y-99993900D01*
X139542321Y-100050963D01*
X139555909Y-100058808D01*
X139557614Y-100059792D01*
X139684908Y-100093900D01*
X139684910Y-100093900D01*
X139816690Y-100093900D01*
X139816692Y-100093900D01*
X139943986Y-100059792D01*
X140058114Y-99993900D01*
X140151300Y-99900714D01*
X140217192Y-99786586D01*
X140251300Y-99659292D01*
X140251300Y-99610907D01*
X141344900Y-99610907D01*
X141344900Y-99742690D01*
X141379008Y-99869986D01*
X141411954Y-99927049D01*
X141444900Y-99984113D01*
X141538086Y-100077299D01*
X141652214Y-100143191D01*
X141779508Y-100177299D01*
X141779510Y-100177299D01*
X141911290Y-100177299D01*
X141911292Y-100177299D01*
X142038586Y-100143191D01*
X142152714Y-100077299D01*
X142245900Y-99984113D01*
X142311792Y-99869985D01*
X142345900Y-99742691D01*
X142345900Y-99610907D01*
X142311792Y-99483613D01*
X142245900Y-99369485D01*
X142152714Y-99276299D01*
X142055839Y-99220368D01*
X142055837Y-99220366D01*
X142038589Y-99210408D01*
X142038586Y-99210407D01*
X141911292Y-99176299D01*
X141779508Y-99176299D01*
X141652212Y-99210407D01*
X141538086Y-99276299D01*
X141538083Y-99276301D01*
X141444902Y-99369482D01*
X141444900Y-99369485D01*
X141379008Y-99483611D01*
X141344900Y-99610907D01*
X140251300Y-99610907D01*
X140251300Y-99527508D01*
X140217192Y-99400214D01*
X140151300Y-99286086D01*
X140058114Y-99192900D01*
X140001050Y-99159954D01*
X139943987Y-99127008D01*
X139921967Y-99121108D01*
X149232500Y-99121108D01*
X149232500Y-99252892D01*
X149241394Y-99286086D01*
X149266608Y-99380187D01*
X149278170Y-99400212D01*
X149332500Y-99494314D01*
X149425686Y-99587500D01*
X149539814Y-99653392D01*
X149667108Y-99687500D01*
X149667110Y-99687500D01*
X149798890Y-99687500D01*
X149798892Y-99687500D01*
X149926186Y-99653392D01*
X150040314Y-99587500D01*
X150133500Y-99494314D01*
X150199392Y-99380186D01*
X150233500Y-99252892D01*
X150233500Y-99121108D01*
X150199392Y-98993814D01*
X150133500Y-98879686D01*
X150040314Y-98786500D01*
X149968756Y-98745186D01*
X149926187Y-98720608D01*
X149862539Y-98703554D01*
X149798892Y-98686500D01*
X149667108Y-98686500D01*
X149539812Y-98720608D01*
X149425686Y-98786500D01*
X149425683Y-98786502D01*
X149332502Y-98879683D01*
X149332500Y-98879686D01*
X149266608Y-98993812D01*
X149250883Y-99052500D01*
X149232500Y-99121108D01*
X139921967Y-99121108D01*
X139880339Y-99109954D01*
X139816692Y-99092900D01*
X139684908Y-99092900D01*
X139557612Y-99127008D01*
X139443486Y-99192900D01*
X139443483Y-99192902D01*
X139350302Y-99286083D01*
X139350300Y-99286086D01*
X139284408Y-99400212D01*
X139250300Y-99527508D01*
X125040500Y-99527508D01*
X125040500Y-98740108D01*
X137929500Y-98740108D01*
X137929500Y-98871892D01*
X137946554Y-98935539D01*
X137963608Y-98999187D01*
X137994388Y-99052499D01*
X138029500Y-99113314D01*
X138122686Y-99206500D01*
X138236814Y-99272392D01*
X138364108Y-99306500D01*
X138364110Y-99306500D01*
X138495890Y-99306500D01*
X138495892Y-99306500D01*
X138623186Y-99272392D01*
X138737314Y-99206500D01*
X138830500Y-99113314D01*
X138896392Y-98999186D01*
X138930500Y-98871892D01*
X138930500Y-98740108D01*
X138912648Y-98673483D01*
X138914311Y-98603637D01*
X138953473Y-98545774D01*
X139017701Y-98518270D01*
X139048618Y-98518455D01*
X139053502Y-98519098D01*
X139053508Y-98519100D01*
X139053514Y-98519100D01*
X139185290Y-98519100D01*
X139185292Y-98519100D01*
X139308421Y-98486108D01*
X156217500Y-98486108D01*
X156217500Y-98617892D01*
X156234554Y-98681539D01*
X156251608Y-98745187D01*
X156275461Y-98786500D01*
X156317500Y-98859314D01*
X156410686Y-98952500D01*
X156524814Y-99018392D01*
X156652108Y-99052500D01*
X156652110Y-99052500D01*
X156783890Y-99052500D01*
X156783892Y-99052500D01*
X156911186Y-99018392D01*
X157025314Y-98952500D01*
X157118500Y-98859314D01*
X157184392Y-98745186D01*
X157218500Y-98617892D01*
X157218500Y-98486108D01*
X157184392Y-98358814D01*
X157118500Y-98244686D01*
X157025314Y-98151500D01*
X156943908Y-98104500D01*
X156911187Y-98085608D01*
X156828666Y-98063497D01*
X156783892Y-98051500D01*
X156652108Y-98051500D01*
X156524812Y-98085608D01*
X156410686Y-98151500D01*
X156410683Y-98151502D01*
X156317502Y-98244683D01*
X156317500Y-98244686D01*
X156251608Y-98358812D01*
X156217799Y-98484991D01*
X156217500Y-98486108D01*
X139308421Y-98486108D01*
X139312586Y-98484992D01*
X139426714Y-98419100D01*
X139519900Y-98325914D01*
X139585792Y-98211786D01*
X139619900Y-98084492D01*
X139619900Y-97952708D01*
X139585792Y-97825414D01*
X139519900Y-97711286D01*
X139426714Y-97618100D01*
X139369650Y-97585154D01*
X139312587Y-97552208D01*
X139248939Y-97535154D01*
X139185292Y-97518100D01*
X139053508Y-97518100D01*
X138926212Y-97552208D01*
X138812086Y-97618100D01*
X138812083Y-97618102D01*
X138718902Y-97711283D01*
X138718900Y-97711286D01*
X138653008Y-97825412D01*
X138618900Y-97952708D01*
X138618900Y-98084491D01*
X138636751Y-98151113D01*
X138635088Y-98220963D01*
X138595925Y-98278825D01*
X138531696Y-98306329D01*
X138500789Y-98306145D01*
X138495893Y-98305500D01*
X138495892Y-98305500D01*
X138364108Y-98305500D01*
X138236812Y-98339608D01*
X138122686Y-98405500D01*
X138122683Y-98405502D01*
X138029502Y-98498683D01*
X138029500Y-98498686D01*
X137963608Y-98612812D01*
X137962247Y-98617892D01*
X137929500Y-98740108D01*
X125040500Y-98740108D01*
X125040500Y-97597108D01*
X125737500Y-97597108D01*
X125737500Y-97728891D01*
X125771608Y-97856187D01*
X125803436Y-97911313D01*
X125837500Y-97970314D01*
X125930686Y-98063500D01*
X126044814Y-98129392D01*
X126172108Y-98163500D01*
X126172110Y-98163500D01*
X126303890Y-98163500D01*
X126303892Y-98163500D01*
X126431186Y-98129392D01*
X126545314Y-98063500D01*
X126638500Y-97970314D01*
X126704392Y-97856186D01*
X126738500Y-97728892D01*
X126738500Y-97597108D01*
X126704392Y-97469814D01*
X126638500Y-97355686D01*
X126545314Y-97262500D01*
X126473756Y-97221186D01*
X126431187Y-97196608D01*
X126367539Y-97179554D01*
X126303892Y-97162500D01*
X126172108Y-97162500D01*
X126044812Y-97196608D01*
X125930686Y-97262500D01*
X125930683Y-97262502D01*
X125837502Y-97355683D01*
X125837500Y-97355686D01*
X125771608Y-97469812D01*
X125737500Y-97597108D01*
X125040500Y-97597108D01*
X125040500Y-96581108D01*
X128658500Y-96581108D01*
X128658500Y-96712892D01*
X128675554Y-96776539D01*
X128692608Y-96840187D01*
X128722511Y-96891980D01*
X128758500Y-96954314D01*
X128851686Y-97047500D01*
X128965814Y-97113392D01*
X129093108Y-97147500D01*
X129093110Y-97147500D01*
X129224890Y-97147500D01*
X129224892Y-97147500D01*
X129352186Y-97113392D01*
X129466314Y-97047500D01*
X129551706Y-96962108D01*
X134500500Y-96962108D01*
X134500500Y-97093892D01*
X134505725Y-97113391D01*
X134534608Y-97221187D01*
X134558461Y-97262500D01*
X134600500Y-97335314D01*
X134693686Y-97428500D01*
X134765244Y-97469814D01*
X134803052Y-97491643D01*
X134807814Y-97494392D01*
X134935108Y-97528500D01*
X134935110Y-97528500D01*
X135062497Y-97528500D01*
X135129536Y-97548185D01*
X135175291Y-97600989D01*
X135186497Y-97652500D01*
X135186497Y-97669891D01*
X135220605Y-97797187D01*
X135236901Y-97825412D01*
X135286497Y-97911314D01*
X135379683Y-98004500D01*
X135461089Y-98051500D01*
X135481868Y-98063497D01*
X135493811Y-98070392D01*
X135621105Y-98104500D01*
X135621107Y-98104500D01*
X135752887Y-98104500D01*
X135752889Y-98104500D01*
X135880183Y-98070392D01*
X135994311Y-98004500D01*
X136087497Y-97911314D01*
X136153389Y-97797186D01*
X136187497Y-97669892D01*
X136187497Y-97538108D01*
X136153389Y-97410814D01*
X136087497Y-97296686D01*
X135994311Y-97203500D01*
X135923297Y-97162500D01*
X135880184Y-97137608D01*
X135816536Y-97120554D01*
X135752889Y-97103500D01*
X135625500Y-97103500D01*
X135558461Y-97083815D01*
X135512706Y-97031011D01*
X135501500Y-96979500D01*
X135501500Y-96962110D01*
X135501500Y-96962108D01*
X135467392Y-96834814D01*
X135401500Y-96720686D01*
X135308314Y-96627500D01*
X135247859Y-96592596D01*
X135194187Y-96561608D01*
X135130539Y-96544554D01*
X135066892Y-96527500D01*
X134935108Y-96527500D01*
X134807812Y-96561608D01*
X134693686Y-96627500D01*
X134693683Y-96627502D01*
X134600502Y-96720683D01*
X134600500Y-96720686D01*
X134534608Y-96834812D01*
X134519290Y-96891981D01*
X134500500Y-96962108D01*
X129551706Y-96962108D01*
X129559500Y-96954314D01*
X129625392Y-96840186D01*
X129659500Y-96712892D01*
X129659500Y-96581108D01*
X129625392Y-96453814D01*
X129559500Y-96339686D01*
X129466314Y-96246500D01*
X129373338Y-96192820D01*
X129352187Y-96180608D01*
X129340006Y-96177344D01*
X129224892Y-96146500D01*
X129093108Y-96146500D01*
X128965812Y-96180608D01*
X128851686Y-96246500D01*
X128851683Y-96246502D01*
X128758502Y-96339683D01*
X128758500Y-96339686D01*
X128692608Y-96453812D01*
X128676883Y-96512500D01*
X128658500Y-96581108D01*
X125040500Y-96581108D01*
X125040500Y-95565108D01*
X127134500Y-95565108D01*
X127134500Y-95696892D01*
X127142220Y-95725705D01*
X127168608Y-95824187D01*
X127198817Y-95876509D01*
X127234500Y-95938314D01*
X127327686Y-96031500D01*
X127441814Y-96097392D01*
X127569108Y-96131500D01*
X127569110Y-96131500D01*
X127700890Y-96131500D01*
X127700892Y-96131500D01*
X127828186Y-96097392D01*
X127892409Y-96060313D01*
X136619190Y-96060313D01*
X136619190Y-96192097D01*
X136625917Y-96217203D01*
X136653298Y-96319392D01*
X136665015Y-96339686D01*
X136719190Y-96433519D01*
X136812376Y-96526705D01*
X136926504Y-96592597D01*
X137053798Y-96626705D01*
X137053800Y-96626705D01*
X137185580Y-96626705D01*
X137185582Y-96626705D01*
X137312876Y-96592597D01*
X137427004Y-96526705D01*
X137520190Y-96433519D01*
X137586082Y-96319391D01*
X137620190Y-96192097D01*
X137620190Y-96060313D01*
X137586082Y-95933019D01*
X137581293Y-95924725D01*
X137560814Y-95889254D01*
X137520190Y-95818891D01*
X137437431Y-95736132D01*
X137403946Y-95674809D01*
X137408930Y-95605117D01*
X137450802Y-95549184D01*
X137463113Y-95541064D01*
X137467786Y-95538366D01*
X137543404Y-95494708D01*
X139306900Y-95494708D01*
X139306900Y-95626492D01*
X139319846Y-95674809D01*
X139341008Y-95753787D01*
X139361245Y-95788838D01*
X139406900Y-95867914D01*
X139500086Y-95961100D01*
X139614214Y-96026992D01*
X139741508Y-96061100D01*
X139741510Y-96061100D01*
X139873290Y-96061100D01*
X139873292Y-96061100D01*
X140000586Y-96026992D01*
X140026553Y-96012000D01*
X140589000Y-96012000D01*
X141622078Y-96012000D01*
X141689117Y-96031685D01*
X141734872Y-96084489D01*
X141744816Y-96153647D01*
X141715791Y-96217203D01*
X141684078Y-96243387D01*
X141678689Y-96246498D01*
X141678683Y-96246502D01*
X141585502Y-96339683D01*
X141585500Y-96339686D01*
X141519608Y-96453812D01*
X141503883Y-96512500D01*
X141485500Y-96581108D01*
X141485500Y-96712892D01*
X141502554Y-96776539D01*
X141519608Y-96840187D01*
X141549511Y-96891980D01*
X141585500Y-96954314D01*
X141678686Y-97047500D01*
X141792814Y-97113392D01*
X141920108Y-97147500D01*
X141920110Y-97147500D01*
X142051890Y-97147500D01*
X142051892Y-97147500D01*
X142179186Y-97113392D01*
X142293314Y-97047500D01*
X142386500Y-96954314D01*
X142452392Y-96840186D01*
X142486500Y-96712892D01*
X142486500Y-96581108D01*
X142452392Y-96453814D01*
X142386500Y-96339686D01*
X142293314Y-96246500D01*
X142287921Y-96243386D01*
X142239707Y-96192820D01*
X142226483Y-96124213D01*
X142252451Y-96059349D01*
X142309365Y-96018820D01*
X142349922Y-96012000D01*
X144399000Y-96012000D01*
X144399000Y-95494708D01*
X144730900Y-95494708D01*
X144730900Y-95626492D01*
X144743846Y-95674809D01*
X144765008Y-95753787D01*
X144785245Y-95788838D01*
X144830900Y-95867914D01*
X144924086Y-95961100D01*
X145038214Y-96026992D01*
X145165508Y-96061100D01*
X145165510Y-96061100D01*
X145297290Y-96061100D01*
X145297292Y-96061100D01*
X145424586Y-96026992D01*
X145538714Y-95961100D01*
X145631900Y-95867914D01*
X145697792Y-95753786D01*
X145731900Y-95626492D01*
X145731900Y-95600202D01*
X147800406Y-95600202D01*
X147800406Y-95731985D01*
X147834514Y-95859281D01*
X147867460Y-95916344D01*
X147900406Y-95973408D01*
X147993592Y-96066594D01*
X148107720Y-96132486D01*
X148235014Y-96166594D01*
X148235016Y-96166594D01*
X148366796Y-96166594D01*
X148366798Y-96166594D01*
X148494092Y-96132486D01*
X148608220Y-96066594D01*
X148701406Y-95973408D01*
X148729513Y-95924724D01*
X148780080Y-95876509D01*
X148848687Y-95863286D01*
X148913552Y-95889254D01*
X148954080Y-95946168D01*
X148960900Y-95986725D01*
X148960900Y-96077891D01*
X148995008Y-96205187D01*
X149018861Y-96246500D01*
X149060900Y-96319314D01*
X149154086Y-96412500D01*
X149268214Y-96478392D01*
X149395508Y-96512500D01*
X149395510Y-96512500D01*
X149527290Y-96512500D01*
X149527292Y-96512500D01*
X149654586Y-96478392D01*
X149768714Y-96412500D01*
X149861900Y-96319314D01*
X149927792Y-96205186D01*
X149961900Y-96077892D01*
X149961900Y-95946108D01*
X149927792Y-95818814D01*
X149861900Y-95704686D01*
X149768714Y-95611500D01*
X149711650Y-95578554D01*
X149654587Y-95545608D01*
X149590939Y-95528554D01*
X149527292Y-95511500D01*
X149395508Y-95511500D01*
X149268212Y-95545608D01*
X149154086Y-95611500D01*
X149154083Y-95611502D01*
X149060902Y-95704683D01*
X149060900Y-95704686D01*
X149048764Y-95725707D01*
X149032793Y-95753369D01*
X148982225Y-95801584D01*
X148913618Y-95814806D01*
X148848754Y-95788838D01*
X148808226Y-95731924D01*
X148801406Y-95691368D01*
X148801406Y-95600204D01*
X148801406Y-95600202D01*
X148767298Y-95472908D01*
X148701406Y-95358780D01*
X148608220Y-95265594D01*
X148547436Y-95230500D01*
X148494093Y-95199702D01*
X148430445Y-95182648D01*
X148366798Y-95165594D01*
X148235014Y-95165594D01*
X148107718Y-95199702D01*
X147993592Y-95265594D01*
X147993589Y-95265596D01*
X147900408Y-95358777D01*
X147900406Y-95358780D01*
X147834514Y-95472906D01*
X147800406Y-95600202D01*
X145731900Y-95600202D01*
X145731900Y-95494708D01*
X145697792Y-95367414D01*
X145631900Y-95253286D01*
X145538714Y-95160100D01*
X145481650Y-95127154D01*
X145424587Y-95094208D01*
X145360939Y-95077154D01*
X145297292Y-95060100D01*
X145165508Y-95060100D01*
X145038212Y-95094208D01*
X144924086Y-95160100D01*
X144924083Y-95160102D01*
X144830902Y-95253283D01*
X144830900Y-95253286D01*
X144765008Y-95367412D01*
X144736742Y-95472906D01*
X144730900Y-95494708D01*
X144399000Y-95494708D01*
X144399000Y-92954708D01*
X144730900Y-92954708D01*
X144730900Y-93086492D01*
X144737992Y-93112960D01*
X144765008Y-93213787D01*
X144781402Y-93242181D01*
X144830900Y-93327914D01*
X144924086Y-93421100D01*
X145038214Y-93486992D01*
X145165508Y-93521100D01*
X145165510Y-93521100D01*
X145297290Y-93521100D01*
X145297292Y-93521100D01*
X145424586Y-93486992D01*
X145538714Y-93421100D01*
X145631900Y-93327914D01*
X145697792Y-93213786D01*
X145731900Y-93086492D01*
X145731900Y-92954708D01*
X145697792Y-92827414D01*
X145631900Y-92713286D01*
X145538714Y-92620100D01*
X145458832Y-92573980D01*
X145424587Y-92554208D01*
X145360939Y-92537154D01*
X145297292Y-92520100D01*
X145165508Y-92520100D01*
X145038212Y-92554208D01*
X144924086Y-92620100D01*
X144924083Y-92620102D01*
X144830902Y-92713283D01*
X144830900Y-92713286D01*
X144765008Y-92827412D01*
X144744705Y-92903186D01*
X144730900Y-92954708D01*
X144399000Y-92954708D01*
X144399000Y-91313000D01*
X140589000Y-91313000D01*
X140589000Y-96012000D01*
X140026553Y-96012000D01*
X140114714Y-95961100D01*
X140207900Y-95867914D01*
X140273792Y-95753786D01*
X140307900Y-95626492D01*
X140307900Y-95494708D01*
X140273792Y-95367414D01*
X140207900Y-95253286D01*
X140114714Y-95160100D01*
X140057650Y-95127154D01*
X140000587Y-95094208D01*
X139936939Y-95077154D01*
X139873292Y-95060100D01*
X139741508Y-95060100D01*
X139614212Y-95094208D01*
X139500086Y-95160100D01*
X139500083Y-95160102D01*
X139406902Y-95253283D01*
X139406900Y-95253286D01*
X139341008Y-95367412D01*
X139312742Y-95472906D01*
X139306900Y-95494708D01*
X137543404Y-95494708D01*
X137555939Y-95487471D01*
X137649125Y-95394285D01*
X137715017Y-95280157D01*
X137749125Y-95152863D01*
X137749125Y-95021079D01*
X137715017Y-94893785D01*
X137649125Y-94779657D01*
X137555939Y-94686471D01*
X137498875Y-94653525D01*
X137441812Y-94620579D01*
X137378164Y-94603525D01*
X137314517Y-94586471D01*
X137182733Y-94586471D01*
X137055437Y-94620579D01*
X136941311Y-94686471D01*
X136941308Y-94686473D01*
X136848127Y-94779654D01*
X136848125Y-94779657D01*
X136782233Y-94893783D01*
X136748125Y-95021079D01*
X136748125Y-95152862D01*
X136782233Y-95280158D01*
X136815179Y-95337221D01*
X136848125Y-95394285D01*
X136848127Y-95394287D01*
X136930883Y-95477043D01*
X136964368Y-95538366D01*
X136959384Y-95608058D01*
X136917512Y-95663991D01*
X136905203Y-95672111D01*
X136812376Y-95725705D01*
X136812373Y-95725707D01*
X136719192Y-95818888D01*
X136719190Y-95818891D01*
X136653298Y-95933017D01*
X136626910Y-96031500D01*
X136619190Y-96060313D01*
X127892409Y-96060313D01*
X127942314Y-96031500D01*
X128035500Y-95938314D01*
X128101392Y-95824186D01*
X128135500Y-95696892D01*
X128135500Y-95565108D01*
X128101392Y-95437814D01*
X128035500Y-95323686D01*
X127942314Y-95230500D01*
X127885250Y-95197554D01*
X127828187Y-95164608D01*
X127764539Y-95147554D01*
X127700892Y-95130500D01*
X127569108Y-95130500D01*
X127441812Y-95164608D01*
X127327686Y-95230500D01*
X127327683Y-95230502D01*
X127234502Y-95323683D01*
X127234500Y-95323686D01*
X127168608Y-95437812D01*
X127139725Y-95545608D01*
X127134500Y-95565108D01*
X125040500Y-95565108D01*
X125040500Y-94295108D01*
X125356500Y-94295108D01*
X125356500Y-94426891D01*
X125390608Y-94554187D01*
X125409248Y-94586471D01*
X125456500Y-94668314D01*
X125549686Y-94761500D01*
X125663814Y-94827392D01*
X125791108Y-94861500D01*
X125791110Y-94861500D01*
X125922890Y-94861500D01*
X125922892Y-94861500D01*
X126050186Y-94827392D01*
X126164314Y-94761500D01*
X126257500Y-94668314D01*
X126323392Y-94554186D01*
X126357500Y-94426892D01*
X126357500Y-94295108D01*
X126341691Y-94236108D01*
X135262500Y-94236108D01*
X135262500Y-94367891D01*
X135296608Y-94495187D01*
X135329554Y-94552250D01*
X135362500Y-94609314D01*
X135455686Y-94702500D01*
X135554521Y-94759563D01*
X135557871Y-94761497D01*
X135569814Y-94768392D01*
X135697108Y-94802500D01*
X135697110Y-94802500D01*
X135828890Y-94802500D01*
X135828892Y-94802500D01*
X135956186Y-94768392D01*
X136070314Y-94702500D01*
X136163500Y-94609314D01*
X136229392Y-94495186D01*
X136263500Y-94367892D01*
X136263500Y-94236108D01*
X136229392Y-94108814D01*
X136163500Y-93994686D01*
X136070314Y-93901500D01*
X135999300Y-93860500D01*
X135956187Y-93835608D01*
X135892539Y-93818554D01*
X135828892Y-93801500D01*
X135697108Y-93801500D01*
X135569812Y-93835608D01*
X135455686Y-93901500D01*
X135455683Y-93901502D01*
X135362502Y-93994683D01*
X135362500Y-93994686D01*
X135296608Y-94108812D01*
X135262500Y-94236108D01*
X126341691Y-94236108D01*
X126323392Y-94167814D01*
X126257500Y-94053686D01*
X126164314Y-93960500D01*
X126070465Y-93906316D01*
X126050187Y-93894608D01*
X125986539Y-93877554D01*
X125922892Y-93860500D01*
X125791108Y-93860500D01*
X125663812Y-93894608D01*
X125549686Y-93960500D01*
X125549683Y-93960502D01*
X125456502Y-94053683D01*
X125456500Y-94053686D01*
X125390608Y-94167812D01*
X125356500Y-94295108D01*
X125040500Y-94295108D01*
X125040500Y-93165019D01*
X125060185Y-93097980D01*
X125064523Y-93094220D01*
X125260429Y-93094220D01*
X125283477Y-93130084D01*
X125287439Y-93148832D01*
X125288500Y-93156890D01*
X125288500Y-93156892D01*
X125294922Y-93180858D01*
X125322608Y-93284187D01*
X125355554Y-93341250D01*
X125388500Y-93398314D01*
X125481686Y-93491500D01*
X125595814Y-93557392D01*
X125723108Y-93591500D01*
X125723110Y-93591500D01*
X125854890Y-93591500D01*
X125854892Y-93591500D01*
X125982186Y-93557392D01*
X126096314Y-93491500D01*
X126189500Y-93398314D01*
X126255392Y-93284186D01*
X126289500Y-93156892D01*
X126289500Y-93025108D01*
X126255392Y-92897814D01*
X126189500Y-92783686D01*
X126096314Y-92690500D01*
X126020227Y-92646571D01*
X125982187Y-92624608D01*
X125918539Y-92607554D01*
X125854892Y-92590500D01*
X125723108Y-92590500D01*
X125595812Y-92624608D01*
X125481686Y-92690500D01*
X125481683Y-92690502D01*
X125388502Y-92783683D01*
X125388500Y-92783686D01*
X125322608Y-92897812D01*
X125288500Y-93025108D01*
X125287439Y-93033168D01*
X125260429Y-93094220D01*
X125064523Y-93094220D01*
X125067964Y-93091238D01*
X125041980Y-93036085D01*
X125040500Y-93016981D01*
X125040500Y-91882108D01*
X127515500Y-91882108D01*
X127515500Y-92013891D01*
X127549608Y-92141187D01*
X127574362Y-92184061D01*
X127615500Y-92255314D01*
X127708686Y-92348500D01*
X127822814Y-92414392D01*
X127950108Y-92448500D01*
X127950110Y-92448500D01*
X128081890Y-92448500D01*
X128081892Y-92448500D01*
X128209186Y-92414392D01*
X128323314Y-92348500D01*
X128416500Y-92255314D01*
X128482392Y-92141186D01*
X128516500Y-92013892D01*
X128516500Y-91882108D01*
X128482471Y-91755108D01*
X136659500Y-91755108D01*
X136659500Y-91886892D01*
X136667235Y-91915760D01*
X136693608Y-92014187D01*
X136726554Y-92071250D01*
X136759500Y-92128314D01*
X136759502Y-92128316D01*
X136815247Y-92184061D01*
X136848732Y-92245384D01*
X136843748Y-92315076D01*
X136815249Y-92359422D01*
X136769525Y-92405147D01*
X136703633Y-92519273D01*
X136669525Y-92646569D01*
X136669525Y-92778352D01*
X136703633Y-92905648D01*
X136731958Y-92954708D01*
X136769525Y-93019775D01*
X136862711Y-93112961D01*
X136976839Y-93178853D01*
X137104133Y-93212961D01*
X137104135Y-93212961D01*
X137235915Y-93212961D01*
X137235917Y-93212961D01*
X137363211Y-93178853D01*
X137477339Y-93112961D01*
X137570525Y-93019775D01*
X137636417Y-92905647D01*
X137670525Y-92778353D01*
X137670525Y-92646569D01*
X137636417Y-92519275D01*
X137570525Y-92405147D01*
X137514777Y-92349399D01*
X137481292Y-92288076D01*
X137486276Y-92218384D01*
X137514777Y-92174037D01*
X137560500Y-92128314D01*
X137626392Y-92014186D01*
X137660500Y-91886892D01*
X137660500Y-91755108D01*
X137626392Y-91627814D01*
X137560500Y-91513686D01*
X137467314Y-91420500D01*
X137378157Y-91369025D01*
X137378155Y-91369023D01*
X137353189Y-91354609D01*
X137353186Y-91354608D01*
X137225892Y-91320500D01*
X137094108Y-91320500D01*
X136966812Y-91354608D01*
X136852686Y-91420500D01*
X136852683Y-91420502D01*
X136759502Y-91513683D01*
X136759500Y-91513686D01*
X136693608Y-91627812D01*
X136670649Y-91713499D01*
X136659500Y-91755108D01*
X128482471Y-91755108D01*
X128482392Y-91754814D01*
X128416500Y-91640686D01*
X128323314Y-91547500D01*
X128251756Y-91506186D01*
X128209187Y-91481608D01*
X128126666Y-91459497D01*
X128081892Y-91447500D01*
X127950108Y-91447500D01*
X127822812Y-91481608D01*
X127708686Y-91547500D01*
X127708683Y-91547502D01*
X127615502Y-91640683D01*
X127615500Y-91640686D01*
X127549608Y-91754812D01*
X127515500Y-91882108D01*
X125040500Y-91882108D01*
X125040500Y-90993108D01*
X134119500Y-90993108D01*
X134119500Y-91124891D01*
X134153608Y-91252187D01*
X134171687Y-91283500D01*
X134219500Y-91366314D01*
X134312686Y-91459500D01*
X134426814Y-91525392D01*
X134554108Y-91559500D01*
X134554110Y-91559500D01*
X134685890Y-91559500D01*
X134685892Y-91559500D01*
X134813186Y-91525392D01*
X134927314Y-91459500D01*
X135020500Y-91366314D01*
X135086392Y-91252186D01*
X135120500Y-91124892D01*
X135120500Y-90993108D01*
X135086392Y-90865814D01*
X135020500Y-90751686D01*
X134927314Y-90658500D01*
X134846452Y-90611814D01*
X134813187Y-90592608D01*
X134749539Y-90575554D01*
X134685892Y-90558500D01*
X134554108Y-90558500D01*
X134426812Y-90592608D01*
X134312686Y-90658500D01*
X134312683Y-90658502D01*
X134219502Y-90751683D01*
X134219500Y-90751686D01*
X134153608Y-90865812D01*
X134119500Y-90993108D01*
X125040500Y-90993108D01*
X125040500Y-89342108D01*
X138056500Y-89342108D01*
X138056500Y-89473891D01*
X138090608Y-89601187D01*
X138121095Y-89653991D01*
X138156500Y-89715314D01*
X138249686Y-89808500D01*
X138249689Y-89808501D01*
X138249692Y-89808504D01*
X138294350Y-89834288D01*
X138342565Y-89884855D01*
X138355787Y-89953462D01*
X138329819Y-90018327D01*
X138320031Y-90029355D01*
X138232700Y-90116686D01*
X138166808Y-90230812D01*
X138160967Y-90252612D01*
X138132700Y-90358108D01*
X138132700Y-90489892D01*
X138141072Y-90521136D01*
X138166808Y-90617187D01*
X138184010Y-90646981D01*
X138232700Y-90731314D01*
X138325886Y-90824500D01*
X138440014Y-90890392D01*
X138567308Y-90924500D01*
X138567310Y-90924500D01*
X138699090Y-90924500D01*
X138699092Y-90924500D01*
X138826386Y-90890392D01*
X138940514Y-90824500D01*
X139033700Y-90731314D01*
X139041902Y-90717108D01*
X146855251Y-90717108D01*
X146855251Y-90848891D01*
X146889359Y-90976187D01*
X146902061Y-90998187D01*
X146955251Y-91090314D01*
X147048437Y-91183500D01*
X147162565Y-91249392D01*
X147289859Y-91283500D01*
X147289861Y-91283500D01*
X147333792Y-91283500D01*
X147400831Y-91303185D01*
X147446586Y-91355989D01*
X147453567Y-91375407D01*
X147454500Y-91378889D01*
X147454500Y-91378892D01*
X147472883Y-91447500D01*
X147488608Y-91506187D01*
X147512461Y-91547500D01*
X147554500Y-91620314D01*
X147554502Y-91620316D01*
X147635025Y-91700839D01*
X147668510Y-91762162D01*
X147663526Y-91831854D01*
X147621654Y-91887787D01*
X147609346Y-91895906D01*
X147596889Y-91903098D01*
X147596883Y-91903102D01*
X147503702Y-91996283D01*
X147503700Y-91996286D01*
X147437808Y-92110412D01*
X147411258Y-92209500D01*
X147403700Y-92237708D01*
X147403700Y-92369492D01*
X147412594Y-92402686D01*
X147437808Y-92496787D01*
X147449370Y-92516812D01*
X147503700Y-92610914D01*
X147596886Y-92704100D01*
X147711014Y-92769992D01*
X147838308Y-92804100D01*
X147838310Y-92804100D01*
X147970090Y-92804100D01*
X147970092Y-92804100D01*
X148097386Y-92769992D01*
X148211514Y-92704100D01*
X148271506Y-92644108D01*
X156725500Y-92644108D01*
X156725500Y-92775892D01*
X156733058Y-92804099D01*
X156759608Y-92903187D01*
X156761029Y-92905648D01*
X156825500Y-93017314D01*
X156825502Y-93017316D01*
X156875005Y-93066819D01*
X156908490Y-93128142D01*
X156903506Y-93197834D01*
X156875005Y-93242181D01*
X156825502Y-93291683D01*
X156825500Y-93291686D01*
X156759608Y-93405812D01*
X156725500Y-93533108D01*
X156725500Y-93664891D01*
X156759608Y-93792187D01*
X156764985Y-93801500D01*
X156825500Y-93906314D01*
X156918686Y-93999500D01*
X157032814Y-94065392D01*
X157160108Y-94099500D01*
X157160110Y-94099500D01*
X157291890Y-94099500D01*
X157291892Y-94099500D01*
X157419186Y-94065392D01*
X157533314Y-93999500D01*
X157626500Y-93906314D01*
X157692392Y-93792186D01*
X157726500Y-93664892D01*
X157726500Y-93533108D01*
X157692392Y-93405814D01*
X157626500Y-93291686D01*
X157576995Y-93242181D01*
X157543510Y-93180858D01*
X157548494Y-93111166D01*
X157576995Y-93066819D01*
X157626500Y-93017314D01*
X157692392Y-92903186D01*
X157726500Y-92775892D01*
X157726500Y-92644108D01*
X157692392Y-92516814D01*
X157626500Y-92402686D01*
X157533314Y-92309500D01*
X157439465Y-92255316D01*
X157419187Y-92243608D01*
X157336677Y-92221500D01*
X157291892Y-92209500D01*
X157160108Y-92209500D01*
X157032812Y-92243608D01*
X156918686Y-92309500D01*
X156918683Y-92309502D01*
X156825502Y-92402683D01*
X156825500Y-92402686D01*
X156759608Y-92516812D01*
X156739864Y-92590500D01*
X156725500Y-92644108D01*
X148271506Y-92644108D01*
X148304700Y-92610914D01*
X148305484Y-92609554D01*
X148326025Y-92573980D01*
X148370590Y-92496789D01*
X148370592Y-92496786D01*
X148404700Y-92369492D01*
X148404700Y-92237708D01*
X148370592Y-92110414D01*
X148304700Y-91996286D01*
X148224174Y-91915760D01*
X148190689Y-91854437D01*
X148195673Y-91784745D01*
X148237545Y-91728812D01*
X148249843Y-91720699D01*
X148262314Y-91713500D01*
X148355500Y-91620314D01*
X148421392Y-91506186D01*
X148455500Y-91378892D01*
X148455500Y-91247108D01*
X148421392Y-91119814D01*
X148355500Y-91005686D01*
X148262314Y-90912500D01*
X148190247Y-90870892D01*
X148148187Y-90846608D01*
X148065666Y-90824497D01*
X148020892Y-90812500D01*
X147976959Y-90812500D01*
X147909920Y-90792815D01*
X147864165Y-90740011D01*
X147857184Y-90720593D01*
X147856251Y-90717110D01*
X147856251Y-90717108D01*
X147822143Y-90589814D01*
X147756251Y-90475686D01*
X147663065Y-90382500D01*
X147587042Y-90338608D01*
X147548938Y-90316608D01*
X147485290Y-90299554D01*
X147421643Y-90282500D01*
X147289859Y-90282500D01*
X147162563Y-90316608D01*
X147048437Y-90382500D01*
X147048434Y-90382502D01*
X146955253Y-90475683D01*
X146955251Y-90475686D01*
X146889359Y-90589812D01*
X146855251Y-90717108D01*
X139041902Y-90717108D01*
X139099592Y-90617186D01*
X139133700Y-90489892D01*
X139133700Y-90358108D01*
X139099592Y-90230814D01*
X139033700Y-90116686D01*
X138940514Y-90023500D01*
X138888242Y-89993320D01*
X138882545Y-89988852D01*
X154542800Y-89988852D01*
X154542800Y-90120635D01*
X154576908Y-90247931D01*
X154579611Y-90252612D01*
X154642800Y-90362058D01*
X154735986Y-90455244D01*
X154792647Y-90487957D01*
X154840862Y-90538524D01*
X154854086Y-90607131D01*
X154850422Y-90627437D01*
X154820500Y-90739108D01*
X154820500Y-90870891D01*
X154854608Y-90998187D01*
X154858936Y-91005683D01*
X154920500Y-91112314D01*
X155013686Y-91205500D01*
X155127814Y-91271392D01*
X155255108Y-91305500D01*
X155255110Y-91305500D01*
X155386890Y-91305500D01*
X155386892Y-91305500D01*
X155514186Y-91271392D01*
X155628314Y-91205500D01*
X155721500Y-91112314D01*
X155787392Y-90998186D01*
X155821500Y-90870892D01*
X155821500Y-90739108D01*
X155787392Y-90611814D01*
X155721500Y-90497686D01*
X155628314Y-90404500D01*
X155571652Y-90371786D01*
X155523436Y-90321219D01*
X155510214Y-90252612D01*
X155513873Y-90232324D01*
X155543800Y-90120636D01*
X155543800Y-89988852D01*
X155509692Y-89861558D01*
X155443800Y-89747430D01*
X155350614Y-89654244D01*
X155258717Y-89601187D01*
X155236487Y-89588352D01*
X155172839Y-89571298D01*
X155109192Y-89554244D01*
X154977408Y-89554244D01*
X154850112Y-89588352D01*
X154735986Y-89654244D01*
X154735983Y-89654246D01*
X154642802Y-89747427D01*
X154642800Y-89747430D01*
X154576908Y-89861556D01*
X154542800Y-89988852D01*
X138882545Y-89988852D01*
X138881321Y-89987892D01*
X138865921Y-89966324D01*
X138847633Y-89947143D01*
X138845934Y-89938331D01*
X138840721Y-89931029D01*
X138839426Y-89904559D01*
X138834412Y-89878536D01*
X138837747Y-89870205D01*
X138837309Y-89861242D01*
X138850532Y-89838272D01*
X138860381Y-89813672D01*
X138870153Y-89802660D01*
X138957500Y-89715314D01*
X139023392Y-89601186D01*
X139057500Y-89473892D01*
X139057500Y-89342108D01*
X139023392Y-89214814D01*
X138957500Y-89100686D01*
X138864314Y-89007500D01*
X138807250Y-88974554D01*
X138750187Y-88941608D01*
X138686539Y-88924554D01*
X138622892Y-88907500D01*
X138491108Y-88907500D01*
X138363812Y-88941608D01*
X138249686Y-89007500D01*
X138249683Y-89007502D01*
X138156502Y-89100683D01*
X138156500Y-89100686D01*
X138090608Y-89214812D01*
X138056500Y-89342108D01*
X125040500Y-89342108D01*
X125040500Y-88326108D01*
X126499500Y-88326108D01*
X126499500Y-88457891D01*
X126533608Y-88585187D01*
X126560459Y-88631694D01*
X126599500Y-88699314D01*
X126692686Y-88792500D01*
X126806814Y-88858392D01*
X126934108Y-88892500D01*
X126934110Y-88892500D01*
X127065890Y-88892500D01*
X127065892Y-88892500D01*
X127193186Y-88858392D01*
X127307314Y-88792500D01*
X127340824Y-88758990D01*
X142016284Y-88758990D01*
X142016284Y-88890774D01*
X142020766Y-88907500D01*
X142050392Y-89018069D01*
X142069739Y-89051578D01*
X142116284Y-89132196D01*
X142209470Y-89225382D01*
X142323598Y-89291274D01*
X142450892Y-89325382D01*
X142450894Y-89325382D01*
X142582674Y-89325382D01*
X142582676Y-89325382D01*
X142709970Y-89291274D01*
X142824098Y-89225382D01*
X142917284Y-89132196D01*
X142923339Y-89121708D01*
X146235300Y-89121708D01*
X146235300Y-89253491D01*
X146269408Y-89380787D01*
X146302354Y-89437850D01*
X146335300Y-89494914D01*
X146428486Y-89588100D01*
X146542614Y-89653992D01*
X146669908Y-89688100D01*
X146669910Y-89688100D01*
X146801690Y-89688100D01*
X146801692Y-89688100D01*
X146928986Y-89653992D01*
X147043114Y-89588100D01*
X147136300Y-89494914D01*
X147202192Y-89380786D01*
X147236300Y-89253492D01*
X147236300Y-89121708D01*
X147202192Y-88994414D01*
X147136300Y-88880286D01*
X147043114Y-88787100D01*
X146986050Y-88754154D01*
X146928987Y-88721208D01*
X146847283Y-88699316D01*
X146801692Y-88687100D01*
X146669908Y-88687100D01*
X146542612Y-88721208D01*
X146428486Y-88787100D01*
X146428483Y-88787102D01*
X146335302Y-88880283D01*
X146335300Y-88880286D01*
X146269408Y-88994412D01*
X146235300Y-89121708D01*
X142923339Y-89121708D01*
X142983176Y-89018068D01*
X143017284Y-88890774D01*
X143017284Y-88758990D01*
X142983176Y-88631696D01*
X142917284Y-88517568D01*
X142824098Y-88424382D01*
X142767034Y-88391436D01*
X142709971Y-88358490D01*
X142646323Y-88341436D01*
X142582676Y-88324382D01*
X142450892Y-88324382D01*
X142323596Y-88358490D01*
X142209470Y-88424382D01*
X142209467Y-88424384D01*
X142116286Y-88517565D01*
X142116284Y-88517568D01*
X142050392Y-88631694D01*
X142016284Y-88758990D01*
X127340824Y-88758990D01*
X127400500Y-88699314D01*
X127466392Y-88585186D01*
X127500500Y-88457892D01*
X127500500Y-88326108D01*
X127466392Y-88198814D01*
X127400500Y-88084686D01*
X127307314Y-87991500D01*
X127250250Y-87958554D01*
X127193187Y-87925608D01*
X127129539Y-87908554D01*
X127065892Y-87891500D01*
X126934108Y-87891500D01*
X126806812Y-87925608D01*
X126692686Y-87991500D01*
X126692683Y-87991502D01*
X126599502Y-88084683D01*
X126599500Y-88084686D01*
X126533608Y-88198812D01*
X126499500Y-88326108D01*
X125040500Y-88326108D01*
X125040500Y-87478905D01*
X127515500Y-87478905D01*
X127515500Y-87610688D01*
X127549608Y-87737984D01*
X127554291Y-87746095D01*
X127615500Y-87852111D01*
X127708686Y-87945297D01*
X127822814Y-88011189D01*
X127950108Y-88045297D01*
X127950110Y-88045297D01*
X128081890Y-88045297D01*
X128081892Y-88045297D01*
X128209186Y-88011189D01*
X128323314Y-87945297D01*
X128416500Y-87852111D01*
X128482392Y-87737983D01*
X128515529Y-87614311D01*
X152280500Y-87614311D01*
X152280500Y-87746094D01*
X152314608Y-87873390D01*
X152325064Y-87891500D01*
X152380500Y-87987517D01*
X152473686Y-88080703D01*
X152587814Y-88146595D01*
X152715108Y-88180703D01*
X152715110Y-88180703D01*
X152846890Y-88180703D01*
X152846892Y-88180703D01*
X152974186Y-88146595D01*
X153088314Y-88080703D01*
X153181500Y-87987517D01*
X153247392Y-87873389D01*
X153281500Y-87746095D01*
X153281500Y-87614311D01*
X153247392Y-87487017D01*
X153247208Y-87486699D01*
X153238563Y-87471724D01*
X153181500Y-87372889D01*
X153088314Y-87279703D01*
X152999779Y-87228587D01*
X152974187Y-87213811D01*
X152910539Y-87196757D01*
X152846892Y-87179703D01*
X152715108Y-87179703D01*
X152587812Y-87213811D01*
X152473686Y-87279703D01*
X152473683Y-87279705D01*
X152380502Y-87372886D01*
X152380500Y-87372889D01*
X152314608Y-87487015D01*
X152280500Y-87614311D01*
X128515529Y-87614311D01*
X128516500Y-87610689D01*
X128516500Y-87478905D01*
X128482392Y-87351611D01*
X128481242Y-87349620D01*
X128461550Y-87315512D01*
X128416500Y-87237483D01*
X128323314Y-87144297D01*
X128266250Y-87111351D01*
X128209187Y-87078405D01*
X128145539Y-87061351D01*
X128081892Y-87044297D01*
X127950108Y-87044297D01*
X127822812Y-87078405D01*
X127708686Y-87144297D01*
X127708683Y-87144299D01*
X127615502Y-87237480D01*
X127615500Y-87237483D01*
X127549608Y-87351609D01*
X127515500Y-87478905D01*
X125040500Y-87478905D01*
X125040500Y-86969508D01*
X137929500Y-86969508D01*
X137929500Y-87101291D01*
X137963608Y-87228587D01*
X137992937Y-87279386D01*
X138029500Y-87342714D01*
X138122686Y-87435900D01*
X138210669Y-87486697D01*
X138231626Y-87498797D01*
X138236814Y-87501792D01*
X138364108Y-87535900D01*
X138364110Y-87535900D01*
X138495890Y-87535900D01*
X138495892Y-87535900D01*
X138623186Y-87501792D01*
X138737314Y-87435900D01*
X138830500Y-87342714D01*
X138896392Y-87228586D01*
X138930500Y-87101292D01*
X138930500Y-86969508D01*
X139199500Y-86969508D01*
X139199500Y-87101291D01*
X139233608Y-87228587D01*
X139262937Y-87279386D01*
X139299500Y-87342714D01*
X139392686Y-87435900D01*
X139480669Y-87486697D01*
X139501626Y-87498797D01*
X139506814Y-87501792D01*
X139634108Y-87535900D01*
X139634110Y-87535900D01*
X139765890Y-87535900D01*
X139765892Y-87535900D01*
X139893186Y-87501792D01*
X140007314Y-87435900D01*
X140100500Y-87342714D01*
X140166392Y-87228586D01*
X140200500Y-87101292D01*
X140200500Y-87020308D01*
X144914500Y-87020308D01*
X144914500Y-87152092D01*
X144915664Y-87156435D01*
X144948608Y-87279387D01*
X144948792Y-87279705D01*
X145014500Y-87393514D01*
X145107686Y-87486700D01*
X145192901Y-87535899D01*
X145221810Y-87552590D01*
X145221814Y-87552592D01*
X145349108Y-87586700D01*
X145349110Y-87586700D01*
X145480890Y-87586700D01*
X145480892Y-87586700D01*
X145608186Y-87552592D01*
X145722314Y-87486700D01*
X145815500Y-87393514D01*
X145881392Y-87279386D01*
X145915500Y-87152092D01*
X145915500Y-87020308D01*
X146184500Y-87020308D01*
X146184500Y-87152092D01*
X146185664Y-87156435D01*
X146218608Y-87279387D01*
X146218792Y-87279705D01*
X146284500Y-87393514D01*
X146377686Y-87486700D01*
X146462901Y-87535899D01*
X146491810Y-87552590D01*
X146491814Y-87552592D01*
X146619108Y-87586700D01*
X146619110Y-87586700D01*
X146750890Y-87586700D01*
X146750892Y-87586700D01*
X146878186Y-87552592D01*
X146992314Y-87486700D01*
X147085500Y-87393514D01*
X147151392Y-87279386D01*
X147185500Y-87152092D01*
X147185500Y-87020308D01*
X147151392Y-86893014D01*
X147088007Y-86783229D01*
X153729501Y-86783229D01*
X153729501Y-86915012D01*
X153763609Y-87042308D01*
X153784450Y-87078405D01*
X153829501Y-87156435D01*
X153922687Y-87249621D01*
X154036815Y-87315513D01*
X154164109Y-87349621D01*
X154164111Y-87349621D01*
X154295891Y-87349621D01*
X154295893Y-87349621D01*
X154423187Y-87315513D01*
X154537315Y-87249621D01*
X154630501Y-87156435D01*
X154696393Y-87042307D01*
X154730501Y-86915013D01*
X154730501Y-86783229D01*
X154696393Y-86655935D01*
X154630501Y-86541807D01*
X154554699Y-86466005D01*
X154521214Y-86404682D01*
X154526198Y-86334990D01*
X154568070Y-86279057D01*
X154580380Y-86270937D01*
X154612314Y-86252500D01*
X154705500Y-86159314D01*
X154771392Y-86045186D01*
X154805500Y-85917892D01*
X154805500Y-85786108D01*
X154771392Y-85658814D01*
X154705500Y-85544686D01*
X154612314Y-85451500D01*
X154555250Y-85418554D01*
X154498187Y-85385608D01*
X154434539Y-85368554D01*
X154370892Y-85351500D01*
X154239108Y-85351500D01*
X154111812Y-85385608D01*
X153997686Y-85451500D01*
X153997683Y-85451502D01*
X153904502Y-85544683D01*
X153904500Y-85544686D01*
X153838608Y-85658812D01*
X153804500Y-85786108D01*
X153804500Y-85917892D01*
X153809945Y-85938213D01*
X153838608Y-86045187D01*
X153850341Y-86065508D01*
X153904500Y-86159314D01*
X153904502Y-86159316D01*
X153980301Y-86235115D01*
X154013786Y-86296438D01*
X154008802Y-86366130D01*
X153966930Y-86422063D01*
X153954623Y-86430181D01*
X153922693Y-86448616D01*
X153922684Y-86448623D01*
X153829503Y-86541804D01*
X153829501Y-86541807D01*
X153763609Y-86655933D01*
X153729501Y-86783229D01*
X147088007Y-86783229D01*
X147085500Y-86778886D01*
X146992314Y-86685700D01*
X146928041Y-86648592D01*
X146878187Y-86619808D01*
X146796020Y-86597792D01*
X146750892Y-86585700D01*
X146619108Y-86585700D01*
X146491812Y-86619808D01*
X146377686Y-86685700D01*
X146377683Y-86685702D01*
X146284502Y-86778883D01*
X146284500Y-86778886D01*
X146218608Y-86893012D01*
X146198111Y-86969510D01*
X146184500Y-87020308D01*
X145915500Y-87020308D01*
X145881392Y-86893014D01*
X145815500Y-86778886D01*
X145722314Y-86685700D01*
X145658041Y-86648592D01*
X145608187Y-86619808D01*
X145526020Y-86597792D01*
X145480892Y-86585700D01*
X145349108Y-86585700D01*
X145221812Y-86619808D01*
X145107686Y-86685700D01*
X145107683Y-86685702D01*
X145014502Y-86778883D01*
X145014500Y-86778886D01*
X144948608Y-86893012D01*
X144928111Y-86969510D01*
X144914500Y-87020308D01*
X140200500Y-87020308D01*
X140200500Y-86969508D01*
X140166392Y-86842214D01*
X140100500Y-86728086D01*
X140007314Y-86634900D01*
X139943041Y-86597792D01*
X139893187Y-86569008D01*
X139829539Y-86551954D01*
X139765892Y-86534900D01*
X139634108Y-86534900D01*
X139506812Y-86569008D01*
X139392686Y-86634900D01*
X139392683Y-86634902D01*
X139299502Y-86728083D01*
X139299500Y-86728086D01*
X139233608Y-86842212D01*
X139199500Y-86969508D01*
X138930500Y-86969508D01*
X138896392Y-86842214D01*
X138830500Y-86728086D01*
X138737314Y-86634900D01*
X138673041Y-86597792D01*
X138623187Y-86569008D01*
X138559539Y-86551954D01*
X138495892Y-86534900D01*
X138364108Y-86534900D01*
X138236812Y-86569008D01*
X138122686Y-86634900D01*
X138122683Y-86634902D01*
X138029502Y-86728083D01*
X138029500Y-86728086D01*
X137963608Y-86842212D01*
X137929500Y-86969508D01*
X125040500Y-86969508D01*
X125040500Y-85502262D01*
X140259500Y-85502262D01*
X140259500Y-85634046D01*
X140288456Y-85742110D01*
X140293608Y-85761339D01*
X140293608Y-85761340D01*
X140323536Y-85813178D01*
X140340007Y-85881079D01*
X140323536Y-85937176D01*
X140293608Y-85989013D01*
X140293608Y-85989014D01*
X140259500Y-86116308D01*
X140259500Y-86248092D01*
X140265621Y-86270937D01*
X140293608Y-86375387D01*
X140297847Y-86382729D01*
X140359500Y-86489514D01*
X140452686Y-86582700D01*
X140566814Y-86648592D01*
X140694108Y-86682700D01*
X140694110Y-86682700D01*
X140825890Y-86682700D01*
X140825892Y-86682700D01*
X140953186Y-86648592D01*
X141067314Y-86582700D01*
X141160500Y-86489514D01*
X141226392Y-86375386D01*
X141260500Y-86248092D01*
X141260500Y-86116308D01*
X141226392Y-85989014D01*
X141196463Y-85937176D01*
X141195586Y-85933560D01*
X141193048Y-85930842D01*
X141187414Y-85899878D01*
X141179991Y-85869278D01*
X141181013Y-85864692D01*
X141180542Y-85862100D01*
X141183877Y-85851851D01*
X141189221Y-85827890D01*
X141192353Y-85820296D01*
X141226392Y-85761340D01*
X141231545Y-85742108D01*
X142069700Y-85742108D01*
X142069700Y-85873892D01*
X142072302Y-85883602D01*
X142103808Y-86001187D01*
X142129211Y-86045186D01*
X142169700Y-86115314D01*
X142262886Y-86208500D01*
X142377014Y-86274392D01*
X142504308Y-86308500D01*
X142504310Y-86308500D01*
X142636090Y-86308500D01*
X142636092Y-86308500D01*
X142763386Y-86274392D01*
X142877514Y-86208500D01*
X142970700Y-86115314D01*
X143036592Y-86001186D01*
X143070700Y-85873892D01*
X143070700Y-85742108D01*
X143036592Y-85614814D01*
X142996103Y-85544686D01*
X142970703Y-85500691D01*
X142970702Y-85500690D01*
X142970700Y-85500686D01*
X142915924Y-85445910D01*
X143905300Y-85445910D01*
X143905300Y-85577694D01*
X143936496Y-85694121D01*
X143939409Y-85704990D01*
X143939409Y-85704991D01*
X143970938Y-85759601D01*
X143987411Y-85827501D01*
X143970938Y-85883601D01*
X143939409Y-85938210D01*
X143939409Y-85938211D01*
X143939408Y-85938213D01*
X143939408Y-85938214D01*
X143905300Y-86065508D01*
X143905300Y-86197292D01*
X143908303Y-86208499D01*
X143939408Y-86324587D01*
X143968737Y-86375386D01*
X144005300Y-86438714D01*
X144098486Y-86531900D01*
X144212614Y-86597792D01*
X144339908Y-86631900D01*
X144339910Y-86631900D01*
X144471690Y-86631900D01*
X144471692Y-86631900D01*
X144598986Y-86597792D01*
X144713114Y-86531900D01*
X144806300Y-86438714D01*
X144872192Y-86324586D01*
X144906300Y-86197292D01*
X144906300Y-86065508D01*
X144872192Y-85938214D01*
X144840660Y-85883600D01*
X144824188Y-85815702D01*
X144840661Y-85759601D01*
X144872192Y-85704988D01*
X144906300Y-85577694D01*
X144906300Y-85445910D01*
X144872192Y-85318616D01*
X144806300Y-85204488D01*
X144713114Y-85111302D01*
X144637514Y-85067654D01*
X144598987Y-85045410D01*
X144535339Y-85028356D01*
X144471692Y-85011302D01*
X144339908Y-85011302D01*
X144212612Y-85045410D01*
X144098486Y-85111302D01*
X144098483Y-85111304D01*
X144005302Y-85204485D01*
X144005300Y-85204488D01*
X143939408Y-85318614D01*
X143915592Y-85407500D01*
X143905300Y-85445910D01*
X142915924Y-85445910D01*
X142877514Y-85407500D01*
X142820450Y-85374554D01*
X142763387Y-85341608D01*
X142677570Y-85318614D01*
X142636092Y-85307500D01*
X142504308Y-85307500D01*
X142377012Y-85341608D01*
X142262886Y-85407500D01*
X142262883Y-85407502D01*
X142169702Y-85500683D01*
X142169700Y-85500686D01*
X142103808Y-85614812D01*
X142079645Y-85704991D01*
X142069700Y-85742108D01*
X141231545Y-85742108D01*
X141260500Y-85634046D01*
X141260500Y-85502262D01*
X141226392Y-85374968D01*
X141160500Y-85260840D01*
X141067314Y-85167654D01*
X141010250Y-85134708D01*
X140953187Y-85101762D01*
X140889539Y-85084708D01*
X140825892Y-85067654D01*
X140694108Y-85067654D01*
X140566812Y-85101762D01*
X140452686Y-85167654D01*
X140452683Y-85167656D01*
X140359502Y-85260837D01*
X140359500Y-85260840D01*
X140293608Y-85374966D01*
X140273101Y-85451502D01*
X140259500Y-85502262D01*
X125040500Y-85502262D01*
X125040500Y-83017508D01*
X134729100Y-83017508D01*
X134729100Y-83149292D01*
X134746148Y-83212914D01*
X134763208Y-83276585D01*
X134763208Y-83276586D01*
X134791853Y-83326201D01*
X134808325Y-83394101D01*
X134791853Y-83450199D01*
X134763208Y-83499813D01*
X134763208Y-83499814D01*
X134729100Y-83627108D01*
X134729100Y-83758891D01*
X134763208Y-83886187D01*
X134792537Y-83936986D01*
X134829100Y-84000314D01*
X134922286Y-84093500D01*
X135036414Y-84159392D01*
X135163708Y-84193500D01*
X135163710Y-84193500D01*
X135295490Y-84193500D01*
X135295492Y-84193500D01*
X135422786Y-84159392D01*
X135536914Y-84093500D01*
X135630100Y-84000314D01*
X135695992Y-83886186D01*
X135730100Y-83758892D01*
X135730100Y-83627108D01*
X135695992Y-83499814D01*
X135667348Y-83450201D01*
X135650874Y-83382301D01*
X135667348Y-83326199D01*
X135695989Y-83276591D01*
X135695988Y-83276591D01*
X135695992Y-83276586D01*
X135730100Y-83149292D01*
X135730100Y-83017508D01*
X135695992Y-82890214D01*
X135630100Y-82776086D01*
X135536914Y-82682900D01*
X135479850Y-82649954D01*
X135422787Y-82617008D01*
X135342520Y-82595501D01*
X135295492Y-82582900D01*
X135163708Y-82582900D01*
X135036412Y-82617008D01*
X134922286Y-82682900D01*
X134922283Y-82682902D01*
X134829102Y-82776083D01*
X134829100Y-82776086D01*
X134763208Y-82890212D01*
X134749597Y-82941012D01*
X134729100Y-83017508D01*
X125040500Y-83017508D01*
X125040500Y-80554038D01*
X127939500Y-80554038D01*
X127939500Y-80554505D01*
X127939500Y-80805962D01*
X127951799Y-80883614D01*
X127978910Y-81054785D01*
X128056760Y-81294383D01*
X128135413Y-81448747D01*
X128170593Y-81517792D01*
X128171132Y-81518848D01*
X128319201Y-81722649D01*
X128319205Y-81722654D01*
X128497345Y-81900794D01*
X128497350Y-81900798D01*
X128626464Y-81994604D01*
X128701155Y-82048870D01*
X128844184Y-82121747D01*
X128925616Y-82163239D01*
X128925618Y-82163239D01*
X128925621Y-82163241D01*
X129165215Y-82241090D01*
X129414038Y-82280500D01*
X129414039Y-82280500D01*
X129665961Y-82280500D01*
X129665962Y-82280500D01*
X129914785Y-82241090D01*
X130154379Y-82163241D01*
X130378845Y-82048870D01*
X130582656Y-81900793D01*
X130760793Y-81722656D01*
X130871916Y-81569708D01*
X137904100Y-81569708D01*
X137904100Y-81701492D01*
X137936548Y-81822592D01*
X137938209Y-81828788D01*
X137938209Y-81828789D01*
X137987750Y-81914596D01*
X138004223Y-81982496D01*
X137987752Y-82038593D01*
X137963609Y-82080411D01*
X137963608Y-82080414D01*
X137929500Y-82207708D01*
X137929500Y-82339491D01*
X137963609Y-82466788D01*
X137963609Y-82466789D01*
X137998718Y-82527600D01*
X138015191Y-82595501D01*
X137998718Y-82651600D01*
X137963609Y-82712410D01*
X137963609Y-82712411D01*
X137963609Y-82712412D01*
X137963608Y-82712414D01*
X137957904Y-82733702D01*
X137929500Y-82839708D01*
X137929500Y-82971491D01*
X137963608Y-83098787D01*
X137992767Y-83149290D01*
X138029500Y-83212914D01*
X138122686Y-83306100D01*
X138236814Y-83371992D01*
X138364108Y-83406100D01*
X138364110Y-83406100D01*
X138495890Y-83406100D01*
X138495892Y-83406100D01*
X138623186Y-83371992D01*
X138737314Y-83306100D01*
X138830500Y-83212914D01*
X138896392Y-83098786D01*
X138930500Y-82971492D01*
X138930500Y-82839708D01*
X138896392Y-82712414D01*
X138861280Y-82651599D01*
X138844808Y-82583701D01*
X138861280Y-82527600D01*
X138896392Y-82466786D01*
X138930500Y-82339492D01*
X138930500Y-82207708D01*
X138896392Y-82080414D01*
X138846848Y-81994602D01*
X138830376Y-81926703D01*
X138846849Y-81870602D01*
X138870992Y-81828786D01*
X138905100Y-81701492D01*
X138905100Y-81569708D01*
X140469500Y-81569708D01*
X140469500Y-81701492D01*
X140501948Y-81822592D01*
X140503609Y-81828788D01*
X140503609Y-81828789D01*
X140540450Y-81892600D01*
X140556923Y-81960501D01*
X140540450Y-82016600D01*
X140503609Y-82080410D01*
X140503609Y-82080411D01*
X140469500Y-82207708D01*
X140469500Y-82339491D01*
X140503609Y-82466788D01*
X140503609Y-82466789D01*
X140538718Y-82527600D01*
X140555191Y-82595501D01*
X140538718Y-82651600D01*
X140503609Y-82712410D01*
X140503609Y-82712411D01*
X140503609Y-82712412D01*
X140503608Y-82712414D01*
X140497904Y-82733702D01*
X140469500Y-82839708D01*
X140469500Y-82971491D01*
X140503608Y-83098787D01*
X140532767Y-83149290D01*
X140569500Y-83212914D01*
X140662686Y-83306100D01*
X140776814Y-83371992D01*
X140904108Y-83406100D01*
X140904110Y-83406100D01*
X141035890Y-83406100D01*
X141035892Y-83406100D01*
X141163186Y-83371992D01*
X141277314Y-83306100D01*
X141370500Y-83212914D01*
X141436392Y-83098786D01*
X141470500Y-82971492D01*
X141470500Y-82839708D01*
X141436392Y-82712414D01*
X141401280Y-82651599D01*
X141384808Y-82583701D01*
X141401280Y-82527600D01*
X141436392Y-82466786D01*
X141470500Y-82339492D01*
X141470500Y-82207708D01*
X141436392Y-82080414D01*
X141399548Y-82016599D01*
X141383076Y-81948701D01*
X141399549Y-81892599D01*
X141420276Y-81856700D01*
X141436392Y-81828786D01*
X141470500Y-81701492D01*
X141470500Y-81569708D01*
X141436392Y-81442414D01*
X141370500Y-81328286D01*
X141332522Y-81290308D01*
X142069700Y-81290308D01*
X142069700Y-81422091D01*
X142103808Y-81549387D01*
X142119924Y-81577300D01*
X142169700Y-81663514D01*
X142262886Y-81756700D01*
X142377014Y-81822592D01*
X142504308Y-81856700D01*
X142504310Y-81856700D01*
X142636090Y-81856700D01*
X142636092Y-81856700D01*
X142763386Y-81822592D01*
X142877514Y-81756700D01*
X142970700Y-81663514D01*
X143036592Y-81549386D01*
X143070700Y-81422092D01*
X143070700Y-81290308D01*
X143036592Y-81163014D01*
X142970700Y-81048886D01*
X142877514Y-80955700D01*
X142820450Y-80922754D01*
X142763387Y-80889808D01*
X142645474Y-80858214D01*
X142636092Y-80855700D01*
X142504308Y-80855700D01*
X142377012Y-80889808D01*
X142262886Y-80955700D01*
X142262883Y-80955702D01*
X142169702Y-81048883D01*
X142169700Y-81048886D01*
X142103808Y-81163012D01*
X142069700Y-81290308D01*
X141332522Y-81290308D01*
X141277314Y-81235100D01*
X141220250Y-81202154D01*
X141163187Y-81169208D01*
X141099539Y-81152154D01*
X141035892Y-81135100D01*
X140904108Y-81135100D01*
X140776812Y-81169208D01*
X140662686Y-81235100D01*
X140662683Y-81235102D01*
X140569502Y-81328283D01*
X140569500Y-81328286D01*
X140503608Y-81442412D01*
X140483128Y-81518848D01*
X140469500Y-81569708D01*
X138905100Y-81569708D01*
X138870992Y-81442414D01*
X138805100Y-81328286D01*
X138711914Y-81235100D01*
X138654850Y-81202154D01*
X138597787Y-81169208D01*
X138534139Y-81152154D01*
X138470492Y-81135100D01*
X138338708Y-81135100D01*
X138211412Y-81169208D01*
X138097286Y-81235100D01*
X138097283Y-81235102D01*
X138004102Y-81328283D01*
X138004100Y-81328286D01*
X137938208Y-81442412D01*
X137917728Y-81518848D01*
X137904100Y-81569708D01*
X130871916Y-81569708D01*
X130908870Y-81518845D01*
X131023241Y-81294379D01*
X131101090Y-81054785D01*
X131140500Y-80805962D01*
X131140500Y-80554038D01*
X131101090Y-80305215D01*
X131023241Y-80065621D01*
X131023239Y-80065618D01*
X131023239Y-80065616D01*
X130972928Y-79966876D01*
X130958332Y-79938230D01*
X130948385Y-79918708D01*
X133357500Y-79918708D01*
X133357500Y-80050492D01*
X133377527Y-80125235D01*
X133391609Y-80177788D01*
X133391609Y-80177789D01*
X133427584Y-80240100D01*
X133444057Y-80308001D01*
X133427584Y-80364100D01*
X133391609Y-80426410D01*
X133391609Y-80426411D01*
X133391608Y-80426413D01*
X133391608Y-80426414D01*
X133357500Y-80553708D01*
X133357500Y-80685492D01*
X133370471Y-80733900D01*
X133391608Y-80812787D01*
X133416384Y-80855700D01*
X133457500Y-80926914D01*
X133550686Y-81020100D01*
X133649521Y-81077163D01*
X133664810Y-81085990D01*
X133664814Y-81085992D01*
X133792108Y-81120100D01*
X133792110Y-81120100D01*
X133923890Y-81120100D01*
X133923892Y-81120100D01*
X134051186Y-81085992D01*
X134063119Y-81079102D01*
X134100799Y-81057348D01*
X134168699Y-81040874D01*
X134224801Y-81057348D01*
X134274408Y-81085989D01*
X134274409Y-81085989D01*
X134274414Y-81085992D01*
X134401708Y-81120100D01*
X134401710Y-81120100D01*
X134533490Y-81120100D01*
X134533492Y-81120100D01*
X134660786Y-81085992D01*
X134774914Y-81020100D01*
X134868100Y-80926914D01*
X134933992Y-80812786D01*
X134968100Y-80685492D01*
X134968100Y-80553708D01*
X134933992Y-80426414D01*
X134933990Y-80426410D01*
X134921273Y-80404383D01*
X134898016Y-80364102D01*
X134894718Y-80350508D01*
X144508100Y-80350508D01*
X144508100Y-80482292D01*
X144527449Y-80554505D01*
X144542209Y-80609588D01*
X144542209Y-80609589D01*
X144578184Y-80671900D01*
X144594657Y-80739801D01*
X144578184Y-80795900D01*
X144542209Y-80858210D01*
X144542209Y-80858211D01*
X144542208Y-80858213D01*
X144542208Y-80858214D01*
X144508100Y-80985508D01*
X144508100Y-81117292D01*
X144512872Y-81135100D01*
X144542208Y-81244587D01*
X144556873Y-81269987D01*
X144608100Y-81358714D01*
X144701286Y-81451900D01*
X144815414Y-81517792D01*
X144942708Y-81551900D01*
X144942710Y-81551900D01*
X145074490Y-81551900D01*
X145074492Y-81551900D01*
X145201786Y-81517792D01*
X145242102Y-81494514D01*
X145310002Y-81478042D01*
X145366102Y-81494514D01*
X145450414Y-81543192D01*
X145577708Y-81577300D01*
X145577710Y-81577300D01*
X145709490Y-81577300D01*
X145709492Y-81577300D01*
X145737826Y-81569708D01*
X147505300Y-81569708D01*
X147505300Y-81701492D01*
X147537748Y-81822592D01*
X147539409Y-81828788D01*
X147539409Y-81828789D01*
X147576250Y-81892600D01*
X147592723Y-81960501D01*
X147576250Y-82016600D01*
X147539409Y-82080410D01*
X147539409Y-82080411D01*
X147505300Y-82207708D01*
X147505300Y-82339491D01*
X147539409Y-82466788D01*
X147539409Y-82466789D01*
X147574518Y-82527600D01*
X147590991Y-82595501D01*
X147574518Y-82651600D01*
X147539409Y-82712410D01*
X147539409Y-82712411D01*
X147539409Y-82712412D01*
X147539408Y-82712414D01*
X147533704Y-82733702D01*
X147505300Y-82839708D01*
X147505300Y-82971491D01*
X147539408Y-83098787D01*
X147568567Y-83149290D01*
X147605300Y-83212914D01*
X147698486Y-83306100D01*
X147812614Y-83371992D01*
X147939908Y-83406100D01*
X147939910Y-83406100D01*
X148071690Y-83406100D01*
X148071692Y-83406100D01*
X148198986Y-83371992D01*
X148313114Y-83306100D01*
X148406300Y-83212914D01*
X148472192Y-83098786D01*
X148480358Y-83068308D01*
X149842100Y-83068308D01*
X149842100Y-83200092D01*
X149875891Y-83326201D01*
X149876208Y-83327385D01*
X149876208Y-83327386D01*
X149904853Y-83377001D01*
X149921325Y-83444901D01*
X149904853Y-83500999D01*
X149876208Y-83550613D01*
X149876208Y-83550614D01*
X149842100Y-83677908D01*
X149842100Y-83809691D01*
X149876208Y-83936987D01*
X149909154Y-83994050D01*
X149942100Y-84051114D01*
X150035286Y-84144300D01*
X150149414Y-84210192D01*
X150276708Y-84244300D01*
X150276710Y-84244300D01*
X150408490Y-84244300D01*
X150408492Y-84244300D01*
X150535786Y-84210192D01*
X150649914Y-84144300D01*
X150743100Y-84051114D01*
X150808992Y-83936986D01*
X150843100Y-83809692D01*
X150843100Y-83677908D01*
X150808992Y-83550614D01*
X150780348Y-83501001D01*
X150763874Y-83433101D01*
X150780348Y-83376999D01*
X150808989Y-83327391D01*
X150808988Y-83327391D01*
X150808992Y-83327386D01*
X150843100Y-83200092D01*
X150843100Y-83068308D01*
X150808992Y-82941014D01*
X150743100Y-82826886D01*
X150649914Y-82733700D01*
X150561930Y-82682902D01*
X150535787Y-82667808D01*
X150472139Y-82650754D01*
X150408492Y-82633700D01*
X150276708Y-82633700D01*
X150149412Y-82667808D01*
X150035286Y-82733700D01*
X150035283Y-82733702D01*
X149942102Y-82826883D01*
X149942100Y-82826886D01*
X149876208Y-82941012D01*
X149855711Y-83017510D01*
X149842100Y-83068308D01*
X148480358Y-83068308D01*
X148506300Y-82971492D01*
X148506300Y-82839708D01*
X148472192Y-82712414D01*
X148437080Y-82651599D01*
X148420608Y-82583701D01*
X148437080Y-82527600D01*
X148472192Y-82466786D01*
X148506300Y-82339492D01*
X148506300Y-82207708D01*
X148472192Y-82080414D01*
X148435348Y-82016599D01*
X148418876Y-81948701D01*
X148435349Y-81892599D01*
X148456076Y-81856700D01*
X148472192Y-81828786D01*
X148506300Y-81701492D01*
X148506300Y-81569708D01*
X148472192Y-81442414D01*
X148406300Y-81328286D01*
X148313114Y-81235100D01*
X148256050Y-81202154D01*
X148198987Y-81169208D01*
X148135339Y-81152154D01*
X148071692Y-81135100D01*
X147939908Y-81135100D01*
X147812612Y-81169208D01*
X147698486Y-81235100D01*
X147698483Y-81235102D01*
X147605302Y-81328283D01*
X147605300Y-81328286D01*
X147539408Y-81442412D01*
X147518928Y-81518848D01*
X147505300Y-81569708D01*
X145737826Y-81569708D01*
X145836786Y-81543192D01*
X145950914Y-81477300D01*
X146044100Y-81384114D01*
X146109992Y-81269986D01*
X146144100Y-81142692D01*
X146144100Y-81010908D01*
X146109992Y-80883614D01*
X146095327Y-80858214D01*
X146066683Y-80808601D01*
X146050209Y-80740701D01*
X146066683Y-80684599D01*
X146109989Y-80609591D01*
X146109990Y-80609589D01*
X146109992Y-80609586D01*
X146124876Y-80554038D01*
X153939500Y-80554038D01*
X153939500Y-80554505D01*
X153939500Y-80805962D01*
X153951799Y-80883614D01*
X153978910Y-81054785D01*
X154056760Y-81294383D01*
X154135413Y-81448747D01*
X154170593Y-81517792D01*
X154171132Y-81518848D01*
X154319201Y-81722649D01*
X154319205Y-81722654D01*
X154497345Y-81900794D01*
X154497350Y-81900798D01*
X154626464Y-81994604D01*
X154701155Y-82048870D01*
X154844184Y-82121747D01*
X154925616Y-82163239D01*
X154925618Y-82163239D01*
X154925621Y-82163241D01*
X155165215Y-82241090D01*
X155414038Y-82280500D01*
X155414039Y-82280500D01*
X155665961Y-82280500D01*
X155665962Y-82280500D01*
X155914785Y-82241090D01*
X156154379Y-82163241D01*
X156378845Y-82048870D01*
X156582656Y-81900793D01*
X156760793Y-81722656D01*
X156908870Y-81518845D01*
X157023241Y-81294379D01*
X157101090Y-81054785D01*
X157140500Y-80805962D01*
X157140500Y-80554038D01*
X157101090Y-80305215D01*
X157023241Y-80065621D01*
X157023239Y-80065618D01*
X157023239Y-80065616D01*
X156958332Y-79938230D01*
X156908870Y-79841155D01*
X156808267Y-79702686D01*
X156760798Y-79637350D01*
X156760794Y-79637345D01*
X156582654Y-79459205D01*
X156582649Y-79459201D01*
X156378848Y-79311132D01*
X156378847Y-79311131D01*
X156378845Y-79311130D01*
X156279627Y-79260576D01*
X156154383Y-79196760D01*
X155914785Y-79118910D01*
X155665962Y-79079500D01*
X155414038Y-79079500D01*
X155345850Y-79090300D01*
X155165214Y-79118910D01*
X154925616Y-79196760D01*
X154701151Y-79311132D01*
X154497350Y-79459201D01*
X154497345Y-79459205D01*
X154319205Y-79637345D01*
X154319201Y-79637350D01*
X154171132Y-79841151D01*
X154056760Y-80065616D01*
X153978910Y-80305214D01*
X153946396Y-80510499D01*
X153939500Y-80554038D01*
X146124876Y-80554038D01*
X146144100Y-80482292D01*
X146144100Y-80350508D01*
X146109992Y-80223214D01*
X146044100Y-80109086D01*
X145950914Y-80015900D01*
X145886373Y-79978637D01*
X145836787Y-79950008D01*
X145814767Y-79944108D01*
X148470500Y-79944108D01*
X148470500Y-80075892D01*
X148479394Y-80109086D01*
X148504608Y-80203187D01*
X148516170Y-80223212D01*
X148570500Y-80317314D01*
X148663686Y-80410500D01*
X148762521Y-80467563D01*
X148777810Y-80476390D01*
X148777814Y-80476392D01*
X148905108Y-80510500D01*
X148905110Y-80510500D01*
X149036890Y-80510500D01*
X149036892Y-80510500D01*
X149164186Y-80476392D01*
X149278314Y-80410500D01*
X149371500Y-80317314D01*
X149437392Y-80203186D01*
X149471500Y-80075892D01*
X149471500Y-79944108D01*
X149437392Y-79816814D01*
X149371500Y-79702686D01*
X149278314Y-79609500D01*
X149198337Y-79563325D01*
X149164187Y-79543608D01*
X149069391Y-79518208D01*
X149036892Y-79509500D01*
X148905108Y-79509500D01*
X148777812Y-79543608D01*
X148663686Y-79609500D01*
X148663683Y-79609502D01*
X148570502Y-79702683D01*
X148570500Y-79702686D01*
X148504608Y-79816812D01*
X148478058Y-79915900D01*
X148470500Y-79944108D01*
X145814767Y-79944108D01*
X145773139Y-79932954D01*
X145709492Y-79915900D01*
X145577708Y-79915900D01*
X145450414Y-79950008D01*
X145450413Y-79950008D01*
X145450411Y-79950009D01*
X145450410Y-79950009D01*
X145388100Y-79985984D01*
X145320199Y-80002457D01*
X145264100Y-79985984D01*
X145201789Y-79950009D01*
X145201786Y-79950008D01*
X145074492Y-79915900D01*
X144942708Y-79915900D01*
X144815412Y-79950008D01*
X144701286Y-80015900D01*
X144701283Y-80015902D01*
X144608102Y-80109083D01*
X144608100Y-80109086D01*
X144542208Y-80223212D01*
X144518341Y-80312286D01*
X144508100Y-80350508D01*
X134894718Y-80350508D01*
X134881542Y-80296202D01*
X134898015Y-80240099D01*
X134919327Y-80203187D01*
X134933992Y-80177786D01*
X134968100Y-80050492D01*
X134968100Y-79918708D01*
X134933992Y-79791414D01*
X134868100Y-79677286D01*
X134774914Y-79584100D01*
X134717850Y-79551154D01*
X134660787Y-79518208D01*
X134597139Y-79501154D01*
X134533492Y-79484100D01*
X134401708Y-79484100D01*
X134274414Y-79518208D01*
X134274413Y-79518208D01*
X134224799Y-79546853D01*
X134156899Y-79563325D01*
X134100801Y-79546853D01*
X134051186Y-79518208D01*
X134018687Y-79509500D01*
X133923892Y-79484100D01*
X133792108Y-79484100D01*
X133664812Y-79518208D01*
X133550686Y-79584100D01*
X133550683Y-79584102D01*
X133457502Y-79677283D01*
X133457500Y-79677286D01*
X133391608Y-79791412D01*
X133384802Y-79816814D01*
X133357500Y-79918708D01*
X130948385Y-79918708D01*
X130908870Y-79841155D01*
X130808267Y-79702686D01*
X130760798Y-79637350D01*
X130760794Y-79637345D01*
X130582654Y-79459205D01*
X130582649Y-79459201D01*
X130378848Y-79311132D01*
X130378847Y-79311131D01*
X130378845Y-79311130D01*
X130279627Y-79260576D01*
X130154383Y-79196760D01*
X129914785Y-79118910D01*
X129665962Y-79079500D01*
X129414038Y-79079500D01*
X129345850Y-79090300D01*
X129165214Y-79118910D01*
X128925616Y-79196760D01*
X128701151Y-79311132D01*
X128497350Y-79459201D01*
X128497345Y-79459205D01*
X128319205Y-79637345D01*
X128319201Y-79637350D01*
X128171132Y-79841151D01*
X128056760Y-80065616D01*
X127978910Y-80305214D01*
X127946396Y-80510499D01*
X127939500Y-80554038D01*
X125040500Y-80554038D01*
X125040500Y-80275690D01*
X125040649Y-80269608D01*
X125042098Y-80240099D01*
X125053579Y-80006345D01*
X125054203Y-79998623D01*
X125061007Y-79938230D01*
X125061549Y-79934077D01*
X125096244Y-79700155D01*
X125098001Y-79690810D01*
X125105053Y-79659908D01*
X125105593Y-79657656D01*
X125168169Y-79407822D01*
X125171695Y-79396201D01*
X125266761Y-79130499D01*
X125271412Y-79119271D01*
X125392061Y-78864172D01*
X125397783Y-78853468D01*
X125530247Y-78632456D01*
X125531355Y-78630652D01*
X125535592Y-78623908D01*
X142882500Y-78623908D01*
X142882500Y-78755691D01*
X142916608Y-78882987D01*
X142945591Y-78933186D01*
X142982500Y-78997114D01*
X143075686Y-79090300D01*
X143189814Y-79156192D01*
X143317108Y-79190300D01*
X143317110Y-79190300D01*
X143448890Y-79190300D01*
X143448892Y-79190300D01*
X143576186Y-79156192D01*
X143690314Y-79090300D01*
X143783500Y-78997114D01*
X143849392Y-78882986D01*
X143883500Y-78755692D01*
X143883500Y-78623908D01*
X144406500Y-78623908D01*
X144406500Y-78755691D01*
X144440608Y-78882987D01*
X144469591Y-78933186D01*
X144506500Y-78997114D01*
X144599686Y-79090300D01*
X144713814Y-79156192D01*
X144841108Y-79190300D01*
X144841110Y-79190300D01*
X144972890Y-79190300D01*
X144972892Y-79190300D01*
X145100186Y-79156192D01*
X145214314Y-79090300D01*
X145307500Y-78997114D01*
X145373392Y-78882986D01*
X145407500Y-78755692D01*
X145407500Y-78623908D01*
X145373392Y-78496614D01*
X145307500Y-78382486D01*
X145214314Y-78289300D01*
X145155215Y-78255179D01*
X145100187Y-78223408D01*
X145036539Y-78206354D01*
X144972892Y-78189300D01*
X144841108Y-78189300D01*
X144713812Y-78223408D01*
X144599686Y-78289300D01*
X144599683Y-78289302D01*
X144506502Y-78382483D01*
X144506500Y-78382486D01*
X144440608Y-78496612D01*
X144406500Y-78623908D01*
X143883500Y-78623908D01*
X143849392Y-78496614D01*
X143783500Y-78382486D01*
X143690314Y-78289300D01*
X143631215Y-78255179D01*
X143576187Y-78223408D01*
X143512539Y-78206354D01*
X143448892Y-78189300D01*
X143317108Y-78189300D01*
X143189812Y-78223408D01*
X143075686Y-78289300D01*
X143075683Y-78289302D01*
X142982502Y-78382483D01*
X142982500Y-78382486D01*
X142916608Y-78496612D01*
X142882500Y-78623908D01*
X125535592Y-78623908D01*
X125548285Y-78603707D01*
X125553619Y-78595903D01*
X125694478Y-78405974D01*
X125697023Y-78402664D01*
X125734986Y-78355059D01*
X125739966Y-78349203D01*
X125916597Y-78154318D01*
X125920755Y-78149951D01*
X126031598Y-78039108D01*
X152153500Y-78039108D01*
X152153500Y-78170892D01*
X152176084Y-78255179D01*
X152187609Y-78298188D01*
X152187609Y-78298189D01*
X152223584Y-78360500D01*
X152240057Y-78428401D01*
X152223584Y-78484500D01*
X152187609Y-78546810D01*
X152187609Y-78546811D01*
X152187609Y-78546812D01*
X152187608Y-78546814D01*
X152174299Y-78596483D01*
X152153500Y-78674108D01*
X152153500Y-78805891D01*
X152187608Y-78933187D01*
X152219373Y-78988204D01*
X152253500Y-79047314D01*
X152346686Y-79140500D01*
X152432940Y-79190299D01*
X152453648Y-79202255D01*
X152460814Y-79206392D01*
X152588108Y-79240500D01*
X152588110Y-79240500D01*
X152719890Y-79240500D01*
X152719892Y-79240500D01*
X152847186Y-79206392D01*
X152961314Y-79140500D01*
X153054500Y-79047314D01*
X153120392Y-78933186D01*
X153154500Y-78805892D01*
X153154500Y-78674108D01*
X153120392Y-78546814D01*
X153084414Y-78484499D01*
X153067942Y-78416601D01*
X153084415Y-78360499D01*
X153087119Y-78355817D01*
X153120392Y-78298186D01*
X153154500Y-78170892D01*
X153154500Y-78039108D01*
X153120392Y-77911814D01*
X153054500Y-77797686D01*
X152961314Y-77704500D01*
X152904250Y-77671554D01*
X152847187Y-77638608D01*
X152783539Y-77621554D01*
X152719892Y-77604500D01*
X152588108Y-77604500D01*
X152460812Y-77638608D01*
X152346686Y-77704500D01*
X152346683Y-77704502D01*
X152253502Y-77797683D01*
X152253500Y-77797686D01*
X152187608Y-77911812D01*
X152153500Y-78039108D01*
X126031598Y-78039108D01*
X127009517Y-77061189D01*
X127013883Y-77057031D01*
X127209891Y-76879383D01*
X127215798Y-76874360D01*
X127261333Y-76838048D01*
X127264667Y-76835484D01*
X127456520Y-76693199D01*
X127464343Y-76687851D01*
X127488191Y-76672867D01*
X127490224Y-76671620D01*
X127713478Y-76537809D01*
X127724182Y-76532088D01*
X127979294Y-76411433D01*
X127990498Y-76406792D01*
X128256205Y-76311724D01*
X128267836Y-76308196D01*
X128520331Y-76244953D01*
X128522574Y-76244416D01*
X128550079Y-76238138D01*
X128559418Y-76236383D01*
X128795646Y-76201345D01*
X128799856Y-76200796D01*
X128857727Y-76194276D01*
X128865463Y-76193650D01*
X129130207Y-76180648D01*
X129136270Y-76180500D01*
X155944310Y-76180500D01*
X155950392Y-76180649D01*
G37*
%TD.AperFunction*%
%TD*%
M02*
